<svg width="24" height="24" viewBox="0 0 24 24" fill="none" xmlns="http://www.w3.org/2000/svg">
<path d="M13.3249 13.3981L16.5918 11.9132C18.6278 10.9877 19.6459 10.5249 19.9617 9.8837C20.2362 9.32651 20.2362 8.67345 19.9617 8.11627C19.6459 7.47503 18.6278 7.01229 16.5918 6.08681L13.3249 4.60188C12.8377 4.3804 12.5941 4.26966 12.3404 4.22595C12.1156 4.18722 11.8859 4.18722 11.6611 4.22595C11.4075 4.26966 11.1638 4.3804 10.6766 4.60188L7.40974 6.08681C5.37368 7.01229 4.35565 7.47503 4.03981 8.11627C3.76537 8.67345 3.76537 9.32651 4.03981 9.8837C4.35565 10.5249 5.37368 10.9877 7.40975 11.9132L10.6766 13.3981M13.3249 13.3981C12.8377 13.6196 12.5941 13.7303 12.3404 13.774C12.1156 13.8127 11.8859 13.8127 11.6611 13.774C11.4075 13.7303 11.1638 13.6196 10.6766 13.3981M13.3249 13.3981L16.4008 12L16.5918 12.0868C18.6278 13.0123 19.6459 13.475 19.9617 14.1163C20.2362 14.6734 20.2362 15.3265 19.9617 15.8837C19.6459 16.5249 18.6278 16.9877 16.5918 17.9132L13.3249 19.3981C12.8377 19.6196 12.5941 19.7303 12.3404 19.774C12.1156 19.8127 11.8859 19.8127 11.6611 19.774C11.4075 19.7303 11.1638 19.6196 10.6766 19.3981L7.40975 17.9132C5.37368 16.9877 4.35565 16.5249 4.03981 15.8837C3.76537 15.3265 3.76537 14.6734 4.03981 14.1163C4.35565 13.475 5.37368 13.0123 7.40974 12.0868L7.60077 12L10.6766 13.3981" stroke="#131316" stroke-width="2" stroke-linecap="round" stroke-linejoin="round"/>
</svg>
