<svg width="24" height="24" viewBox="0 0 24 24" fill="none" xmlns="http://www.w3.org/2000/svg">
<path d="M9.40801 9.91316L12.6749 11.3981C13.1621 11.6196 13.4057 11.7303 13.6594 11.774C13.8842 11.8127 14.1139 11.8127 14.3387 11.774C14.5923 11.7303 14.8359 11.6196 15.3232 11.3981M9.40801 9.91316C7.37194 8.98767 6.35391 8.52493 6.03807 7.8837C5.76363 7.32651 5.76363 6.67345 6.03807 6.11627C6.35391 5.47503 7.37194 5.01229 9.408 4.08681L12.6749 2.60188C13.1621 2.3804 13.4057 2.26966 13.6594 2.22595C13.8842 2.18722 14.1139 2.18722 14.3387 2.22595C14.5923 2.26966 14.8359 2.3804 15.3232 2.60188L18.59 4.08681C20.6261 5.01229 21.6441 5.47503 21.96 6.11627C22.2344 6.67345 22.2344 7.32651 21.96 7.8837C21.6441 8.52493 20.6261 8.98767 18.59 9.91315L15.3232 11.3981M9.40801 9.91316C8.64347 9.56564 8.02223 9.28313 7.52806 9.03215L7.40779 9.08682C5.37173 10.0123 4.3537 10.475 4.03786 11.1163C3.76342 11.6735 3.76342 12.3265 4.03786 12.8837C4.3537 13.5249 5.37173 13.9877 7.4078 14.9132M15.3232 11.3981L18.4695 9.96758C19.2914 10.385 19.7625 10.7158 19.9598 11.1163C20.2342 11.6735 20.2342 12.3265 19.9598 12.8837C19.6439 13.5249 18.6259 13.9877 16.5898 14.9132L13.323 16.3981M7.4078 14.9132L10.6746 16.3981C11.1619 16.6196 11.4055 16.7303 11.6592 16.774C11.8839 16.8128 12.1137 16.8128 12.3385 16.774C12.5921 16.7303 12.8357 16.6196 13.323 16.3981M7.4078 14.9132C6.64326 14.5656 6.02223 14.2831 5.52805 14.0322L5.40779 14.0868C3.37173 15.0123 2.3537 15.475 2.03786 16.1163C1.76342 16.6735 1.76342 17.3265 2.03786 17.8837C2.3537 18.5249 3.37173 18.9877 5.4078 19.9132L8.67464 21.3981C9.16189 21.6196 9.40552 21.7303 9.65916 21.774C9.88394 21.8128 10.1137 21.8128 10.3385 21.774C10.5921 21.7303 10.8357 21.6196 11.323 21.3981L14.5898 19.9132C16.6259 18.9877 17.6439 18.5249 17.9598 17.8837C18.2342 17.3265 18.2342 16.6735 17.9598 16.1163C17.7625 15.7158 17.2914 15.385 16.4695 14.9676L13.323 16.3981" stroke="#131316" stroke-width="2" stroke-linecap="round" stroke-linejoin="round"/>
</svg>
