<svg width="24" height="24" viewBox="0 0 24 24" fill="none" xmlns="http://www.w3.org/2000/svg">
<path d="M6.5 10C4.567 10 3 8.433 3 6.5C3 4.567 4.567 3 6.5 3C8.433 3 10 4.567 10 6.5C10 8.433 8.433 10 6.5 10ZM6.5 10C5.79221 10 5.13348 9.7899 4.58279 9.42867C4.52893 9.6097 4.5 9.80147 4.5 10L4.5 19C4.5 20.1046 5.39543 21 6.5 21C7.60457 21 8.5 20.1046 8.5 19V10C8.5 9.80147 8.47107 9.6097 8.41721 9.42867C7.86652 9.7899 7.20779 10 6.5 10ZM17.5 14C15.567 14 14 15.567 14 17.5C14 19.433 15.567 21 17.5 21C19.433 21 21 19.433 21 17.5C21 15.567 19.433 14 17.5 14ZM17.5 14C16.7922 14 16.1335 14.2101 15.5828 14.5713C15.5289 14.3903 15.5 14.1985 15.5 14V5C15.5 3.89543 16.3954 3 17.5 3C18.6046 3 19.5 3.89543 19.5 5V14C19.5 14.1985 19.4711 14.3903 19.4172 14.5713C18.8665 14.2101 18.2078 14 17.5 14Z" stroke="#131316" stroke-width="2" stroke-linecap="round" stroke-linejoin="round"/>
</svg>
