<svg width="24" height="24" viewBox="0 0 24 24" fill="none" xmlns="http://www.w3.org/2000/svg">
<path d="M5.30642 17.7017C5.23135 17.6764 5.15822 17.6491 5.08658 17.6194C3.86144 17.1119 2.88807 16.1386 2.3806 14.9134C2 13.9946 2 12.8297 2 10.5C2 8.17029 2 7.00544 2.3806 6.08658C2.88807 4.86144 3.86144 3.88807 5.08658 3.3806C6.00544 3 7.17029 3 9.5 3H14.5C16.8297 3 17.9946 3 18.9134 3.3806C20.1386 3.88807 21.1119 4.86144 21.6194 6.08658C22 7.00544 22 8.17029 22 10.5C22 12.8297 22 13.9946 21.6194 14.9134C21.1119 16.1386 20.1386 17.1119 18.9134 17.6194C18.8418 17.6491 18.7686 17.6764 18.6936 17.7017M8 21L12 15L16 21H8Z" stroke="#131316" stroke-width="2" stroke-linecap="round" stroke-linejoin="round"/>
</svg>
