<svg width="24" height="24" viewBox="0 0 24 24" fill="none" xmlns="http://www.w3.org/2000/svg">
<path d="M8.5 19C9.32843 19 10 18.3284 10 17.5V7C10 4.79086 8.20914 3 6 3C3.79086 3 2 4.79086 2 7C2 9.20914 3.79086 11 6 11C6.51191 11 7 11.3727 7 11.8846V17.5C7 18.3284 7.67157 19 8.5 19ZM8.5 19V21M15.5 19C14.6716 19 14 18.3284 14 17.5V7C14 4.79086 15.7909 3 18 3C20.2091 3 22 4.79086 22 7C22 9.20914 20.2091 11 18 11C17.4881 11 17 11.3727 17 11.8846V17.5C17 18.3284 16.3284 19 15.5 19ZM15.5 19V21" stroke="#131316" stroke-width="2" stroke-linecap="round" stroke-linejoin="round"/>
</svg>
