<svg width="24" height="24" viewBox="0 0 24 24" fill="none" xmlns="http://www.w3.org/2000/svg">
<path d="M21 3V21M14 10H6C5.06812 10 4.60218 10 4.23463 9.84776C3.74458 9.64477 3.35523 9.25542 3.15224 8.76537C3 8.39782 3 7.93188 3 7C3 6.06812 3 5.60218 3.15224 5.23463C3.35523 4.74458 3.74458 4.35523 4.23463 4.15224C4.60218 4 5.06812 4 6 4H14C14.9319 4 15.3978 4 15.7654 4.15224C16.2554 4.35523 16.6448 4.74458 16.8478 5.23463C17 5.60218 17 6.06812 17 7C17 7.93188 17 8.39782 16.8478 8.76537C16.6448 9.25542 16.2554 9.64477 15.7654 9.84776C15.3978 10 14.9319 10 14 10ZM8 20H6C5.06812 20 4.60218 20 4.23463 19.8478C3.74458 19.6448 3.35523 19.2554 3.15224 18.7654C3 18.3978 3 17.9319 3 17C3 16.0681 3 15.6022 3.15224 15.2346C3.35523 14.7446 3.74458 14.3552 4.23463 14.1522C4.60218 14 5.06812 14 6 14H8C8.93188 14 9.39782 14 9.76537 14.1522C10.2554 14.3552 10.6448 14.7446 10.8478 15.2346C11 15.6022 11 16.0681 11 17C11 17.9319 11 18.3978 10.8478 18.7654C10.6448 19.2554 10.2554 19.6448 9.76537 19.8478C9.39782 20 8.93188 20 8 20Z" stroke="#131316" stroke-width="2" stroke-linecap="round" stroke-linejoin="round"/>
</svg>
