<svg width="24" height="24" viewBox="0 0 24 24" fill="none" xmlns="http://www.w3.org/2000/svg">
<path d="M4 12H2M22 12H20M14 12H10M4 18V6C4 5.06812 4 4.60217 4.15224 4.23463C4.35523 3.74458 4.74458 3.35523 5.23463 3.15224C5.60218 3 6.06812 3 7 3C7.93188 3 8.39782 3 8.76537 3.15224C9.25542 3.35523 9.64477 3.74458 9.84776 4.23463C10 4.60217 10 5.06812 10 6V18C10 18.9319 10 19.3978 9.84776 19.7654C9.64477 20.2554 9.25542 20.6448 8.76537 20.8478C8.39782 21 7.93188 21 7 21C6.06812 21 5.60218 21 5.23463 20.8478C4.74458 20.6448 4.35523 20.2554 4.15224 19.7654C4 19.3978 4 18.9319 4 18ZM14 14V10C14 9.06812 14 8.60217 14.1522 8.23463C14.3552 7.74458 14.7446 7.35523 15.2346 7.15224C15.6022 7 16.0681 7 17 7C17.9319 7 18.3978 7 18.7654 7.15224C19.2554 7.35523 19.6448 7.74458 19.8478 8.23463C20 8.60217 20 9.06812 20 10V14C20 14.9319 20 15.3978 19.8478 15.7654C19.6448 16.2554 19.2554 16.6448 18.7654 16.8478C18.3978 17 17.9319 17 17 17C16.0681 17 15.6022 17 15.2346 16.8478C14.7446 16.6448 14.3552 16.2554 14.1522 15.7654C14 15.3978 14 14.9319 14 14Z" stroke="#131316" stroke-width="2" stroke-linecap="round" stroke-linejoin="round"/>
</svg>
