<svg width="24" height="24" viewBox="0 0 24 24" fill="none" xmlns="http://www.w3.org/2000/svg">
<path d="M20 13.2245C20 15.5072 20 16.6486 19.5214 17.3909C19.1026 18.0406 18.4491 18.5035 17.6973 18.6831C16.8383 18.8885 15.7615 18.5099 13.608 17.7528L7.18397 15.4944C6.05229 15.0965 5.48645 14.8976 5.06622 14.5433C4.67583 14.2141 4.37592 13.7908 4.19488 13.3133C4 12.7994 4 12.1996 4 11C4 9.80042 4 9.20064 4.19488 8.68667C4.37592 8.20922 4.67583 7.78588 5.06622 7.45673C5.48645 7.10242 6.05229 6.90349 7.18397 6.50564L13.608 4.24718C15.7615 3.49009 16.8383 3.11154 17.6973 3.31685C18.4491 3.49653 19.1026 3.95943 19.5214 4.60908C20 5.35142 20 6.49278 20 8.77549V13.2245Z" stroke="#131316" stroke-width="2" stroke-linecap="round" stroke-linejoin="round"/>
<path d="M10.7881 16.7586L7.18363 15.4914C6.77433 15.3475 6.43906 15.2296 6.15791 15.121L6.71713 19.0948C6.87868 20.2427 7.87292 21.0886 9.03192 21.0643C10.5323 21.0327 11.597 19.59 11.1847 18.147L10.7881 16.7586Z" stroke="#131316" stroke-width="2" stroke-linecap="round" stroke-linejoin="round"/>
</svg>
