<svg width="24" height="24" viewBox="0 0 24 24" fill="none" xmlns="http://www.w3.org/2000/svg">
<path d="M20 18.4268C19.4017 19.16 18.73 19.7999 18 20.3278M21.0007 3.00003C21.3836 3.63717 21.7189 4.32153 22 5.04488M18 9.50003C18 13.0899 16.6569 16 15 16C13.3431 16 12 13.0899 12 9.50003C12 5.91018 13.3431 3.00003 15 3.00003C16.6569 3.00003 18 5.91018 18 9.50003ZM4.2768 13.3516C4.09989 13.6945 4 14.0837 4 14.4961V18.4961C4 19.8769 5.11929 20.9961 6.5 20.9961C7.88071 20.9961 9 19.8769 9 18.4961V14.6128L5.41037 13.7844C5.00637 13.6912 4.62622 13.544 4.2768 13.3516ZM5.41037 13.7883L14.3623 15.8541C13.0118 15.2207 12 12.617 12 9.5013C12 6.3856 13.0118 3.78191 14.3623 3.14847L5.41037 5.21429C3.4141 5.67497 2 7.45256 2 9.5013C2 11.55 3.4141 13.3276 5.41037 13.7883Z" stroke="#131316" stroke-width="2" stroke-linecap="round" stroke-linejoin="round"/>
</svg>
