<svg width="24" height="24" viewBox="0 0 24 24" fill="none" xmlns="http://www.w3.org/2000/svg">
<path d="M12 7L12.9053 6.57514C12.7405 6.22414 12.3877 6 12 6C11.6123 6 11.2595 6.22414 11.0947 6.57514L12 7ZM13.0815 9.30438L12.1762 9.72924C12.3179 10.0312 12.6008 10.2426 12.9305 10.2929L13.0815 9.30438ZM15.5 9.67385L16.2158 10.3722C16.4775 10.1039 16.5673 9.71181 16.4483 9.35639C16.3293 9.00096 16.0215 8.74192 15.651 8.68532L15.5 9.67385ZM13.75 11.4675L13.0342 10.7691C12.8126 10.9963 12.712 11.3152 12.763 11.6284L13.75 11.4675ZM14.163 14L13.6791 14.8751C14.0143 15.0604 14.4258 15.0381 14.7389 14.8175C15.052 14.597 15.2116 14.217 15.15 13.839L14.163 14ZM12 12.804L12.4839 11.9289C12.1828 11.7624 11.8172 11.7624 11.5161 11.9289L12 12.804ZM9.837 14L8.85004 13.839C8.7884 14.217 8.94804 14.597 9.26112 14.8175C9.5742 15.0381 9.98574 15.0604 10.3209 14.8751L9.837 14ZM10.25 11.4675L11.237 11.6284C11.288 11.3152 11.1874 10.9963 10.9658 10.7691L10.25 11.4675ZM8.5 9.67385L8.34899 8.68532C7.97847 8.74192 7.67072 9.00096 7.55173 9.35639C7.43274 9.71181 7.52249 10.1039 7.78425 10.3722L8.5 9.67385ZM10.9185 9.30438L11.0695 10.2929C11.3992 10.2426 11.6821 10.0312 11.8238 9.72924L10.9185 9.30438ZM15.0113 18.9887L14.9918 17.9889C14.7334 17.9939 14.4869 18.0988 14.3042 18.2816L15.0113 18.9887ZM18.27 18.455L17.816 17.564H17.816L18.27 18.455ZM20.455 16.27L19.564 15.816V15.816L20.455 16.27ZM20.455 4.73005L19.564 5.18404V5.18404L20.455 4.73005ZM18.27 2.54497L17.816 3.43597L17.816 3.43597L18.27 2.54497ZM5.73005 2.54497L6.18404 3.43597L5.73005 2.54497ZM3.54497 4.73005L4.43597 5.18404L4.43597 5.18404L3.54497 4.73005ZM3.54497 16.27L4.43597 15.816L4.43597 15.816L3.54497 16.27ZM5.73005 18.455L6.18404 17.564H6.18404L5.73005 18.455ZM8.98874 18.9887L9.69584 18.2816C9.51306 18.0988 9.2666 17.9939 9.00816 17.9889L8.98874 18.9887ZM12 22L11.2929 22.7071C11.6834 23.0976 12.3166 23.0976 12.7071 22.7071L12 22ZM11.0947 7.42486L12.1762 9.72924L13.9868 8.87953L12.9053 6.57514L11.0947 7.42486ZM12.9305 10.2929L15.349 10.6624L15.651 8.68532L13.2325 8.31585L12.9305 10.2929ZM14.7842 8.9755L13.0342 10.7691L14.4658 12.1658L16.2158 10.3722L14.7842 8.9755ZM12.763 11.6284L13.176 14.161L15.15 13.839L14.737 11.3065L12.763 11.6284ZM14.6469 13.1249L12.4839 11.9289L11.5161 13.6791L13.6791 14.8751L14.6469 13.1249ZM11.5161 11.9289L9.35312 13.1249L10.3209 14.8751L12.4839 13.6791L11.5161 11.9289ZM10.824 14.161L11.237 11.6284L9.26304 11.3065L8.85004 13.839L10.824 14.161ZM10.9658 10.7691L9.21575 8.9755L7.78425 10.3722L9.53425 12.1658L10.9658 10.7691ZM8.65101 10.6624L11.0695 10.2929L10.7675 8.31585L8.34899 8.68532L8.65101 10.6624ZM11.8238 9.72924L12.9053 7.42486L11.0947 6.57514L10.0132 8.87953L11.8238 9.72924ZM15.0307 19.9885C16.56 19.9588 17.7222 19.8564 18.7239 19.346L17.816 17.564C17.2656 17.8444 16.5277 17.9591 14.9918 17.9889L15.0307 19.9885ZM18.7239 19.346C19.8529 18.7708 20.7708 17.8529 21.346 16.7239L19.564 15.816C19.1805 16.5686 18.5686 17.1805 17.816 17.564L18.7239 19.346ZM21.346 16.7239C21.7023 16.0247 21.8554 15.261 21.9286 14.3654C22.0008 13.4815 22 12.3836 22 11H20C20 12.4166 19.9992 13.419 19.9352 14.2026C19.8721 14.9745 19.7527 15.4457 19.564 15.816L21.346 16.7239ZM22 11V10H20V11H22ZM22 10C22 8.61637 22.0008 7.51851 21.9286 6.63458C21.8554 5.73898 21.7023 4.9753 21.346 4.27606L19.564 5.18404C19.7527 5.55435 19.8721 6.02552 19.9352 6.79744C19.9992 7.58104 20 8.58337 20 10H22ZM21.346 4.27606C20.7708 3.14708 19.8529 2.2292 18.7239 1.65396L17.816 3.43597C18.5686 3.81947 19.1805 4.43139 19.564 5.18404L21.346 4.27606ZM18.7239 1.65396C18.0247 1.29768 17.261 1.14462 16.3654 1.07144C15.4815 0.999222 14.3836 1 13 1V3C14.4166 3 15.419 3.00078 16.2026 3.0648C16.9745 3.12787 17.4457 3.24729 17.816 3.43597L18.7239 1.65396ZM13 1H11V3H13V1ZM11 1C9.61637 1 8.51851 0.999222 7.63458 1.07144C6.73898 1.14462 5.9753 1.29768 5.27606 1.65396L6.18404 3.43597C6.55435 3.24729 7.02552 3.12787 7.79744 3.0648C8.58104 3.00078 9.58337 3 11 3V1ZM5.27606 1.65396C4.14709 2.2292 3.2292 3.14708 2.65396 4.27606L4.43597 5.18404C4.81947 4.43139 5.43139 3.81947 6.18404 3.43597L5.27606 1.65396ZM2.65396 4.27606C2.29768 4.9753 2.14462 5.73898 2.07144 6.63458C1.99922 7.51851 2 8.61637 2 10H4C4 8.58337 4.00078 7.58104 4.0648 6.79744C4.12787 6.02552 4.24729 5.55435 4.43597 5.18404L2.65396 4.27606ZM2 10V11H4V10H2ZM2 11C2 12.3836 1.99922 13.4815 2.07144 14.3654C2.14462 15.261 2.29768 16.0247 2.65396 16.7239L4.43597 15.816C4.24729 15.4457 4.12787 14.9745 4.0648 14.2026C4.00078 13.419 4 12.4166 4 11H2ZM2.65396 16.7239C3.2292 17.8529 4.14709 18.7708 5.27606 19.346L6.18404 17.564C5.43139 17.1805 4.81947 16.5686 4.43597 15.816L2.65396 16.7239ZM5.27606 19.346C6.27778 19.8564 7.43997 19.9588 8.96931 19.9885L9.00816 17.9889C7.47228 17.9591 6.73437 17.8444 6.18404 17.564L5.27606 19.346ZM12.7071 21.2929L9.69584 18.2816L8.28163 19.6958L11.2929 22.7071L12.7071 21.2929ZM14.3042 18.2816L11.2929 21.2929L12.7071 22.7071L15.7184 19.6958L14.3042 18.2816Z" fill="#131316"/>
</svg>
