<svg width="24" height="24" viewBox="0 0 24 24" fill="none" xmlns="http://www.w3.org/2000/svg">
<path fill-rule="evenodd" clip-rule="evenodd" d="M18.7704 19.3393C19.2827 18.5206 19.5901 18.009 20 17.088C16.8236 15.8599 16.3112 11.3572 19.4877 9.71988C18.5655 8.49187 17.2334 7.87786 15.9014 7.87786C14.9792 7.87786 14.3644 8.08253 13.7496 8.2872C13.2373 8.49187 12.8274 8.5942 12.3151 8.5942C11.7003 8.5942 11.2904 8.38953 10.6756 8.18487C10.0608 7.9802 9.44604 7.77553 8.72878 7.77553C7.29426 7.77553 5.75727 8.5942 4.83508 10.1292C3.50303 12.1759 3.70796 16.1669 5.85974 19.4416C6.78193 20.6697 7.80658 22 9.13864 22C9.75343 22 10.0608 21.7953 10.4707 21.693C10.983 21.4883 11.4953 21.2837 12.3151 21.2837C13.2373 21.2837 13.6471 21.4883 14.1595 21.693C14.5693 21.8977 14.8767 22 15.4915 22C16.926 22 17.9507 20.465 18.7704 19.3393Z" stroke="#131316" stroke-width="2" stroke-linecap="round" stroke-linejoin="round"/>
<path d="M15.2717 2.03326C15.2717 2.03326 15.5758 3.53002 14.3593 4.72743C13.1427 5.92483 11.6221 5.62548 11.6221 5.62548C11.6221 5.62548 11.3179 4.12872 12.5345 2.93132C13.751 1.73391 15.2717 2.03326 15.2717 2.03326Z" stroke="#131316" stroke-width="2" stroke-linecap="round" stroke-linejoin="round"/>
</svg>
