<svg width="24" height="24" viewBox="0 0 24 24" fill="none" xmlns="http://www.w3.org/2000/svg">
<path d="M10 13H14M19 9H5C4.06812 9 3.60217 9 3.23463 8.84776C2.74458 8.64477 2.35523 8.25542 2.15224 7.76537C2 7.39782 2 6.93188 2 6C2 5.06812 2 4.60218 2.15224 4.23463C2.35523 3.74458 2.74458 3.35523 3.23463 3.15224C3.60217 3 4.06812 3 5 3L19 3C19.9319 3 20.3978 3 20.7654 3.15224C21.2554 3.35523 21.6448 3.74458 21.8478 4.23463C22 4.60218 22 5.06812 22 6C22 6.93188 22 7.39782 21.8478 7.76537C21.6448 8.25542 21.2554 8.64477 20.7654 8.84776C20.3978 9 19.9319 9 19 9ZM4.41868 14.0242L4 9H20L19.5813 14.0242C19.3941 16.2707 19.3005 17.394 18.8548 18.2692C18.3106 19.3376 17.4006 20.1749 16.2907 20.6285C15.3815 21 14.2543 21 12 21C9.74568 21 8.61852 21 7.70934 20.6285C6.59939 20.1749 5.68939 19.3376 5.14523 18.2692C4.6995 17.394 4.60589 16.2707 4.41868 14.0242Z" stroke="#131316" stroke-width="2" stroke-linecap="round" stroke-linejoin="round"/>
</svg>
