<svg width="24" height="24" viewBox="0 0 24 24" fill="none" xmlns="http://www.w3.org/2000/svg">
<path d="M13 21H11C8.19974 21 6.79961 21 5.73005 20.455M13 21C15.8003 21 17.2004 21 18.27 20.455C19.2108 19.9757 19.9757 19.2108 20.455 18.27C21 17.2004 21 15.8003 21 13M13 21C14.2219 21 15.1772 21 15.9547 20.9547L9.5 14.5L4.46447 19.5355M21 13V11C21 8.19974 21 6.79961 20.455 5.73005M21 13C21 14.2219 21 15.1772 20.9547 15.9547L14.5 9.5L19.5355 4.46447M20.455 5.73005C19.9757 4.78924 19.2108 4.02433 18.27 3.54497C17.2004 3 15.8003 3 13 3L11 3C8.19974 3 6.79961 3 5.73005 3.54497C4.78924 4.02433 4.02433 4.78924 3.54497 5.73005C3 6.79961 3 8.19974 3 11L3 13C3 15.8003 3 17.2004 3.54497 18.27C4.02433 19.2108 4.78924 19.9757 5.73005 20.455M20.455 5.73005C20.2153 5.25964 19.9043 4.83321 19.5355 4.46447M5.73005 20.455C5.25964 20.2153 4.83321 19.9043 4.46447 19.5355M4.46447 19.5355L19.5355 4.46447" stroke="#131316" stroke-width="2" stroke-linecap="round" stroke-linejoin="round"/>
</svg>
