<svg width="24" height="24" viewBox="0 0 24 24" fill="none" xmlns="http://www.w3.org/2000/svg">
<path d="M8.99955 7V8C8.99955 9.65685 10.3427 11 11.9996 11C13.6564 11 14.9996 9.65685 14.9996 8V7M12.8392 21H11.1599C8.62784 21 7.36181 21 6.35393 20.5279C5.46609 20.1121 4.7201 19.4444 4.20875 18.6079C3.62825 17.6583 3.48844 16.4 3.20882 13.8835L2.9866 11.8834C2.64498 8.80882 2.47416 7.27151 2.96855 6.0816C3.40274 5.03655 4.1786 4.16971 5.16931 3.62276C6.29735 3 7.84412 3 10.9377 3L13.0614 3C16.155 3 17.7018 3 18.8298 3.62276C19.8205 4.16971 20.5964 5.03655 21.0306 6.0816C21.5249 7.27151 21.3541 8.80882 21.0125 11.8835L20.7903 13.8835C20.5107 16.4 20.3709 17.6583 19.7904 18.6079C19.279 19.4444 18.533 20.1121 17.6452 20.5279C16.6373 21 15.3713 21 12.8392 21Z" stroke="#131316" stroke-width="2" stroke-linecap="round" stroke-linejoin="round"/>
</svg>
