<svg width="24" height="24" viewBox="0 0 24 24" fill="none" xmlns="http://www.w3.org/2000/svg">
<path d="M16.0001 9V6C16.0001 3.79086 14.2092 2 12.0001 2C9.79096 2 8.0001 3.79086 8.0001 6V9M20.7473 16.0102C20.7881 15.6958 20.8304 15.3574 20.8761 14.9923C21.2645 11.8846 21.4588 10.3307 20.9717 9.12596C20.544 8.06809 19.7674 7.18832 18.7707 6.63273C17.6357 6 16.0697 6 12.9378 6H11.0624C7.93046 6 6.36452 6 5.22947 6.63273C4.23282 7.18832 3.45617 8.06809 3.0285 9.12596C2.54144 10.3307 2.73567 11.8846 3.12414 14.9923C3.43426 17.4733 3.58933 18.7138 4.17319 19.6487C4.6876 20.4723 5.43072 21.1283 6.3118 21.5366C7.31183 22 8.56201 22 11.0624 22H12.9378C12.9586 22 12.9794 22 13 22M17.0001 20H21.0001" stroke="#131316" stroke-width="2" stroke-linecap="round" stroke-linejoin="round"/>
</svg>
