<svg width="24" height="24" viewBox="0 0 24 24" fill="none" xmlns="http://www.w3.org/2000/svg">
<path d="M3 7L3 13C3 15.8003 3 17.2004 3.54497 18.27C4.02433 19.2108 4.78924 19.9757 5.73005 20.455C6.79961 21 8.19974 21 11 21H13C15.8003 21 17.2004 21 18.27 20.455C19.2108 19.9757 19.9757 19.2108 20.455 18.27C21 17.2004 21 15.8003 21 13V7M3 7H21M3 7L3.6 6.2C4.48 5.02667 4.91999 4.44001 5.47762 4.01688C5.97151 3.64212 6.53079 3.36248 7.12693 3.19223C7.80001 3 8.53334 3 10 3L14 3C15.4667 3 16.2 3 16.8731 3.19223C17.4692 3.36248 18.0285 3.64212 18.5224 4.01688C19.08 4.44001 19.52 5.02667 20.4 6.2L21 7M15 11V11.1814C15 12.7381 13.7381 14 12.1814 14H11.8186C10.2619 14 9 12.7381 9 11.1814V11" stroke="#131316" stroke-width="2" stroke-linecap="round" stroke-linejoin="round"/>
</svg>
