<svg width="24" height="24" viewBox="0 0 24 24" fill="none" xmlns="http://www.w3.org/2000/svg">
<path d="M19.0021 17C19.1347 16.4075 19.2534 15.6656 19.411 14.6804L19.9999 11H3.9999L4.58876 14.6804C4.90793 16.6752 5.06751 17.6726 5.50577 18.4516C6.08755 19.4857 7.01813 20.2792 8.13118 20.6903C8.96966 21 9.97974 21 11.9999 21C12.3652 21 12.6974 21 13.0016 20.9982M17 21H21M6 6L9 3M18 6L15 3M19.5 11H4.5C4.03535 11 3.80302 11 3.60982 10.9616C2.81644 10.8038 2.19624 10.1836 2.03843 9.39018C2 9.19698 2 8.96466 2 8.5C2 8.03534 2 7.80302 2.03843 7.60982C2.19624 6.81644 2.81644 6.19624 3.60982 6.03843C3.80302 6 4.03535 6 4.5 6H19.5C19.9647 6 20.197 6 20.3902 6.03843C21.1836 6.19624 21.8038 6.81644 21.9616 7.60982C22 7.80302 22 8.03534 22 8.5C22 8.96466 22 9.19698 21.9616 9.39018C21.8038 10.1836 21.1836 10.8038 20.3902 10.9616C20.197 11 19.9647 11 19.5 11Z" stroke="#131316" stroke-width="2" stroke-linecap="round" stroke-linejoin="round"/>
</svg>
