<svg width="24" height="24" viewBox="0 0 24 24" fill="none" xmlns="http://www.w3.org/2000/svg">
<path d="M8.5 10C7.67157 10 7 10.6716 7 11.5C7 12.3284 7.67157 13 8.5 13C9.32843 13 10 12.3284 10 11.5C10 10.6716 9.32843 10 8.5 10ZM8.5 10V5.5C8.5 5.03558 8.5 4.80337 8.52567 4.60842C8.7029 3.26222 9.76222 2.2029 11.1084 2.02567C11.3034 2 11.5356 2 12 2C12.4644 2 12.6966 2 12.8916 2.02567C14.2378 2.2029 15.2971 3.26222 15.4743 4.60842C15.5 4.80337 15.5 5.03558 15.5 5.5V10M15.5 10C14.6716 10 14 10.6716 14 11.5C14 12.3284 14.6716 13 15.5 13C16.3284 13 17 12.3284 17 11.5C17 10.6716 16.3284 10 15.5 10ZM13 22H11C8.19974 22 6.79961 22 5.73005 21.455C4.78924 20.9757 4.02433 20.2108 3.54497 19.27C3 18.2004 3 16.8003 3 14C3 11.1997 3 9.79961 3.54497 8.73005C4.02433 7.78924 4.78924 7.02433 5.73005 6.54497C6.79961 6 8.19974 6 11 6H13C15.8003 6 17.2004 6 18.27 6.54497C19.2108 7.02433 19.9757 7.78924 20.455 8.73005C21 9.79961 21 11.1997 21 14C21 16.8003 21 18.2004 20.455 19.27C19.9757 20.2108 19.2108 20.9757 18.27 21.455C17.2004 22 15.8003 22 13 22Z" stroke="#131316" stroke-width="2" stroke-linecap="round" stroke-linejoin="round"/>
</svg>
