<svg width="24" height="24" viewBox="0 0 24 24" fill="none" xmlns="http://www.w3.org/2000/svg">
<path d="M3 7V13C3 15.8003 3 17.2004 3.54497 18.27C4.02433 19.2108 4.78924 19.9757 5.73005 20.455C6.79961 21 8.19974 21 11 21H13H13.0017M3 7H21M3 7L3.6001 6.2C4.4801 5.02667 4.92009 4.44001 5.47772 4.01688C5.97161 3.64212 6.53089 3.36248 7.12703 3.19223C7.80011 3 8.53344 3 10.0001 3L14.0001 3C15.4668 3 16.2001 3 16.8732 3.19223C17.4693 3.36248 18.0286 3.64212 18.5225 4.01688C19.0801 4.44001 19.5201 5.02667 20.4001 6.2L21 7M21 7V13C21 14.8423 21 16.0786 20.8448 17.0134M17.0001 21H21.0001M15.0001 11V11.1814C15.0001 12.7381 13.7382 14 12.1815 14H11.8187C10.262 14 9.0001 12.7381 9.0001 11.1814V11" stroke="#131316" stroke-width="2" stroke-linecap="round" stroke-linejoin="round"/>
</svg>
