<svg width="24" height="24" viewBox="0 0 24 24" fill="none" xmlns="http://www.w3.org/2000/svg">
<path d="M18.0005 18L21.0005 21M21.0005 18L18.0005 21M13.0005 21C12.9476 21 12.8942 21 12.8402 21H11.1609C8.62881 21 7.36279 21 6.35491 20.5279C5.46707 20.1121 4.72108 19.4444 4.20972 18.6079C3.62923 17.6583 3.48942 16.4 3.2098 13.8835L2.98758 11.8834C2.64595 8.80882 2.47514 7.27151 2.96953 6.0816C3.40372 5.03655 4.17958 4.16971 5.17028 3.62276C6.29832 3 7.8451 3 10.9386 3H13.0624C16.156 3 17.7027 3 18.8308 3.62276C19.8215 4.16971 20.5973 5.03655 21.0315 6.0816C21.5259 7.2715 21.3551 8.80887 21.0135 11.8835L20.8755 13.125M9.00046 7V8C9.00046 9.65685 10.3436 11 12.0005 11C13.6573 11 15.0005 9.65685 15.0005 8V7" stroke="#131316" stroke-width="2" stroke-linecap="round" stroke-linejoin="round"/>
</svg>
