<svg width="24" height="24" viewBox="0 0 24 24" fill="none" xmlns="http://www.w3.org/2000/svg">
<path d="M21 8V7.95259C21 7.06768 21 6.62522 20.9441 6.25463C20.6171 4.08553 18.9145 2.38288 16.7454 2.05587C16.3748 2 15.9323 2 15.0474 2L8.92804 2C8.06596 2 7.63491 2 7.27369 2.05303C5.08925 2.37375 3.37375 4.08925 3.05303 6.27369C3 6.63491 3 7.06596 3 7.92804V8M21 16V16.0945C21 16.9356 21 17.3562 20.9495 17.7087C20.6347 19.9073 18.9073 21.6347 16.7087 21.9495C16.3562 22 15.9356 22 15.0945 22H8.79984C8.05694 22 7.68549 22 7.37346 21.9606C5.10885 21.6746 3.32544 19.8912 3.03941 17.6265C3 17.3145 3 16.9431 3 16.2002V16M2 12L22 12M14 12V7M14 18V16M17 12V7M17 18V16M7 16V18H11V16M11 12H7V7H11V12Z" stroke="#131316" stroke-width="2" stroke-linecap="round" stroke-linejoin="round"/>
</svg>
