<svg width="24" height="24" viewBox="0 0 24 24" fill="none" xmlns="http://www.w3.org/2000/svg">
<path d="M7 22H5C3.89543 22 3 21.1046 3 20C3 18.8954 3.89543 18 5 18H7C8.10457 18 9 18.8954 9 20C9 21.1046 8.10457 22 7 22Z" stroke="#131316" stroke-width="2" stroke-linecap="round" stroke-linejoin="round"/>
<path d="M13 14L5 14C3.89543 14 3 13.1046 3 12C3 10.8954 3.89543 10 5 10L13 10C14.1046 10 15 10.8954 15 12C15 13.1046 14.1046 14 13 14Z" stroke="#131316" stroke-width="2" stroke-linecap="round" stroke-linejoin="round"/>
<path d="M19 6L5 6C3.89543 6 3 5.10457 3 4C3 2.89543 3.89543 2 5 2L19 2C20.1046 2 21 2.89543 21 4C21 5.10457 20.1046 6 19 6Z" stroke="#131316" stroke-width="2" stroke-linecap="round" stroke-linejoin="round"/>
</svg>
