<svg width="24" height="24" viewBox="0 0 24 24" fill="none" xmlns="http://www.w3.org/2000/svg">
<path d="M7 2L5 2C3.89543 2 3 2.89543 3 4C3 5.10457 3.89543 6 5 6H7C8.10457 6 9 5.10457 9 4C9 2.89543 8.10457 2 7 2Z" stroke="#131316" stroke-width="2" stroke-linecap="round" stroke-linejoin="round"/>
<path d="M13 10L5 10C3.89543 10 3 10.8954 3 12C3 13.1046 3.89543 14 5 14L13 14C14.1046 14 15 13.1046 15 12C15 10.8954 14.1046 10 13 10Z" stroke="#131316" stroke-width="2" stroke-linecap="round" stroke-linejoin="round"/>
<path d="M19 18L5 18C3.89543 18 3 18.8954 3 20C3 21.1046 3.89543 22 5 22L19 22C20.1046 22 21 21.1046 21 20C21 18.8954 20.1046 18 19 18Z" stroke="#131316" stroke-width="2" stroke-linecap="round" stroke-linejoin="round"/>
</svg>
