<svg width="24" height="24" viewBox="0 0 24 24" fill="none" xmlns="http://www.w3.org/2000/svg">
<path d="M6 9C6.93188 9 7.39782 9 7.76537 8.84776C8.25542 8.64477 8.64477 8.25542 8.84776 7.76537C9 7.39782 9 6.93188 9 6C9 5.06812 9 4.60218 8.84776 4.23463C8.64477 3.74458 8.25542 3.35523 7.76537 3.15224C7.39782 3 6.93188 3 6 3C5.06812 3 4.60218 3 4.23463 3.15224C3.74458 3.35523 3.35523 3.74458 3.15224 4.23463C3 4.60218 3 5.06812 3 6C3 6.93188 3 7.39782 3.15224 7.76537C3.35523 8.25542 3.74458 8.64477 4.23463 8.84776C4.60218 9 5.06812 9 6 9ZM6 9L12 9C12.9319 9 13.3978 9 13.7654 9.15224C14.2554 9.35523 14.6448 9.74458 14.8478 10.2346C15 10.6022 15 11.0681 15 12C15 12.9319 15 13.3978 14.8478 13.7654C14.6448 14.2554 14.2554 14.6448 13.7654 14.8478C13.3978 15 12.9319 15 12 15H6M6 9C5.06812 9 4.60218 9 4.23463 9.15224C3.74458 9.35523 3.35523 9.74458 3.15224 10.2346C3 10.6022 3 11.0681 3 12C3 12.9319 3 13.3978 3.15224 13.7654C3.35523 14.2554 3.74458 14.6448 4.23463 14.8478C4.60218 15 5.06812 15 6 15M6 15L18 15C18.9319 15 19.3978 15 19.7654 15.1522C20.2554 15.3552 20.6448 15.7446 20.8478 16.2346C21 16.6022 21 17.0681 21 18C21 18.9319 21 19.3978 20.8478 19.7654C20.6448 20.2554 20.2554 20.6448 19.7654 20.8478C19.3978 21 18.9319 21 18 21H6C5.06812 21 4.60218 21 4.23463 20.8478C3.74458 20.6448 3.35523 20.2554 3.15224 19.7654C3 19.3978 3 18.9319 3 18C3 17.0681 3 16.6022 3.15224 16.2346C3.35523 15.7446 3.74458 15.3552 4.23463 15.1522C4.60218 15 5.06812 15 6 15Z" stroke="#131316" stroke-width="2" stroke-linecap="round" stroke-linejoin="round"/>
</svg>
