<svg width="24" height="24" viewBox="0 0 24 24" fill="none" xmlns="http://www.w3.org/2000/svg">
<path d="M12.3429 18L7.58223 18C5.47132 18 4.41587 18 3.86968 17.5664C3.39459 17.1892 3.11637 16.6167 3.1133 16.0101C3.10977 15.3127 3.76185 14.4828 5.06601 12.823L5.98997 11.647M3 3L21 21M14 22H10M13 2L11 2M6.29693 6.29712L17.9894 17.9896C19.0913 17.964 19.7382 17.875 20.127 17.5664C20.6021 17.1892 20.8803 16.6167 20.8834 16.0101C20.8869 15.3127 20.2348 14.4828 18.9307 12.823L17.9617 11.5897C17.9983 11.2343 17.9983 10.7815 17.9983 10V9C17.9983 8.07099 17.9983 7.60649 17.9368 7.21783C17.5979 5.07837 15.92 3.40042 13.7805 3.06156C13.3919 3 12.9273 3 11.9983 3C11.0693 3 10.6048 3 10.2162 3.06156C8.39477 3.35004 6.90786 4.60906 6.29693 6.29712Z" stroke="#131316" stroke-width="2" stroke-linecap="round" stroke-linejoin="round"/>
</svg>
