<svg width="24" height="24" viewBox="0 0 24 24" fill="none" xmlns="http://www.w3.org/2000/svg">
<path d="M4 14.9999C4 11.2722 6.54955 8.14004 10 7.25195M14 7.25195C17.4505 8.14004 20 11.2722 20 14.9999M14 7H20M20 7C20 7.55228 20.4477 8 21 8C21.5523 8 22 7.55228 22 7C22 6.44772 21.5523 6 21 6C20.4477 6 20 6.44772 20 7ZM4 7L10 7M4 7C4 7.55228 3.55228 8 3 8C2.44772 8 2 7.55228 2 7C2 6.44772 2.44772 6 3 6C3.55228 6 4 6.44772 4 7ZM6 19H2L2 15H6V19ZM14 9H10V5L14 5V9ZM22 19H18V15H22V19Z" stroke="#131316" stroke-width="2" stroke-linecap="round" stroke-linejoin="round"/>
</svg>
