<svg width="24" height="24" viewBox="0 0 24 24" fill="none" xmlns="http://www.w3.org/2000/svg">
<path d="M3.01873 8.67577C3 9.327 3 10.0895 3 11V13C3 15.8003 3 17.2004 3.54497 18.27C4.02433 19.2108 4.78924 19.9757 5.73005 20.455C6.79961 21 8.19974 21 11 21H13C13.9105 21 14.673 21 15.3242 20.9813M3 3L21 21M8.5 15.5L9.17147 14.8285M4.46438 4.46456L19.5354 19.5357C19.9042 19.1669 20.2153 18.7404 20.455 18.27C21 17.2004 21 15.8003 21 13V11C21 8.19974 21 6.79961 20.455 5.73005C19.9757 4.78924 19.2108 4.02433 18.27 3.54497C17.2004 3 15.8003 3 13 3H11C8.19974 3 6.79961 3 5.73005 3.54497C5.2596 3.78467 4.83314 4.09577 4.46438 4.46456ZM15.5 8.5L12 7V12L15.5 8.5Z" stroke="#131316" stroke-width="2" stroke-linecap="round" stroke-linejoin="round"/>
</svg>
