<svg width="24" height="24" viewBox="0 0 24 24" fill="none" xmlns="http://www.w3.org/2000/svg">
<path d="M14.4547 7.87868C13.2831 6.70711 11.3836 6.70711 10.212 7.87868C9.04044 9.05025 9 9.33333 9 9.33333M9 9.33333V7.66667M9 9.33333H10.6667M10.212 12.1213C11.3836 13.2929 13.2831 13.2929 14.4547 12.1213C15.6262 10.9497 15.6667 10.6667 15.6667 10.6667M15.6667 10.6667V12.3333M15.6667 10.6667H14M4 22L4 10C4 7.19974 4 5.79961 4.54497 4.73005C5.02433 3.78924 5.78924 3.02433 6.73005 2.54497C7.79961 2 9.19974 2 12 2C14.8003 2 16.2004 2 17.27 2.54497C18.2108 3.02433 18.9757 3.78924 19.455 4.73005C20 5.79961 20 7.19974 20 10V22L12 18L4 22Z" stroke="#131316" stroke-width="2" stroke-linecap="round" stroke-linejoin="round"/>
</svg>
