<svg width="24" height="24" viewBox="0 0 24 24" fill="none" xmlns="http://www.w3.org/2000/svg">
<path d="M19 9H8M19 9C20.6569 9 22 7.65685 22 6C22 4.34315 20.6569 3 19 3M19 9H11V3L19 3M8 9C6.34315 9 5 7.65685 5 6C5 4.34315 6.34315 3 8 3L19 3M8 9V15M8 9H16M16 15H8M16 15C17.6569 15 19 13.6569 19 12C19 10.3431 17.6569 9 16 9M16 15H5C3.34315 15 2 13.6569 2 12C2 10.3431 3.34315 9 5 9H16M8 15H19M8 15C6.34315 15 5 16.3431 5 18C5 19.6569 6.34315 21 8 21H19M19 21H11V15H19M19 21C20.6569 21 22 19.6569 22 18C22 16.3431 20.6569 15 19 15" stroke="#131316" stroke-width="2" stroke-linecap="round" stroke-linejoin="round"/>
</svg>
