<svg width="24" height="24" viewBox="0 0 24 24" fill="none" xmlns="http://www.w3.org/2000/svg">
<path d="M20 16V10C20 7.19974 20 5.79961 19.455 4.73005C18.9757 3.78924 18.2108 3.02433 17.27 2.54497C16.2004 2 14.8003 2 12 2C9.19974 2 7.79961 2 6.73005 2.54497C5.78924 3.02433 5.02433 3.78924 4.54497 4.73005C4 5.79961 4 7.19974 4 10V19M20 16H7C5.34315 16 4 17.3431 4 19M20 16V16.1707C18.8348 16.5825 18 17.6938 18 19C18 20.3062 18.8348 21.4175 20 21.8293V22H7C5.34315 22 4 20.6569 4 19" stroke="#131316" stroke-width="2" stroke-linecap="round" stroke-linejoin="round"/>
</svg>
