<svg width="24" height="24" viewBox="0 0 24 24" fill="none" xmlns="http://www.w3.org/2000/svg">
<path d="M13 21H11C8.19974 21 6.79961 21 5.73005 20.455C4.78924 19.9757 4.02433 19.2108 3.54497 18.27C3 17.2004 3 15.8003 3 13V8M3 8H21M3 8L3.66968 6.88403C4.51947 5.46771 4.94438 4.75954 5.52938 4.24514C6.04707 3.78993 6.6533 3.44669 7.30998 3.23698C8.05206 3 8.87791 3 10.5296 3L13.4706 3C15.1223 3 15.9481 3 16.6902 3.23698C17.3469 3.44669 17.9531 3.78993 18.4708 4.24514C19.0558 4.75954 19.4807 5.4677 20.3305 6.88403L21 8M21 8V13M17.0001 19H21.0001M19.0001 17V21M14.0001 13V8L12.0001 3L10.0001 8V13L12.0001 12L14.0001 13Z" stroke="#131316" stroke-width="2" stroke-linecap="round" stroke-linejoin="round"/>
</svg>
