<svg width="24" height="24" viewBox="0 0 24 24" fill="none" xmlns="http://www.w3.org/2000/svg">
<path d="M21.1036 7.47633C20.9494 7.62797 20.7776 7.76405 20.5901 7.88125L15.3139 11.1789C14.4897 11.694 13.4671 11.7779 12.57 11.4041L3.84624 7.76923C3.44417 7.6017 3.09251 7.35313 2.807 7.04714C3.19849 6.4444 3.72116 5.92395 4.35 5.53092L7.81039 3.36818C9.18396 2.5097 10.8883 2.36979 12.3835 2.99278L18.9231 5.71762C19.8224 6.09233 20.5703 6.71028 21.1036 7.47633Z" stroke="#131316" stroke-width="2" stroke-linecap="round" stroke-linejoin="round"/>
<path d="M21.1723 7.57708C21.7011 8.37784 22 9.33077 22 10.3325V14.2279C22 15.9518 21.1119 17.5542 19.65 18.4679L16.1896 20.6306C15.6088 20.9936 14.9688 21.2282 14.3106 21.3308C14.1102 20.9256 14 20.4726 14 20.0015V13.6643C14 12.6299 14.5329 11.6685 15.41 11.1203L20.6862 7.82262C20.8419 7.72533 21.0046 7.64342 21.1723 7.57708Z" stroke="#131316" stroke-width="2" stroke-linecap="round" stroke-linejoin="round"/>
<path d="M13.8111 21.3833C13.0708 21.4236 12.3205 21.2994 11.6165 21.0061L5.07692 18.2813C3.21369 17.5049 2 15.6844 2 13.6659V9.77044C2 8.92222 2.21499 8.10344 2.60754 7.38164C2.88713 7.41269 3.16412 7.48328 3.43008 7.59409L12.1538 11.229C13.2718 11.6948 14 12.7871 14 13.9982V20.3355C14 20.6987 13.9343 21.0529 13.8111 21.3833Z" stroke="#131316" stroke-width="2" stroke-linecap="round" stroke-linejoin="round"/>
</svg>
