<svg width="24" height="24" viewBox="0 0 24 24" fill="none" xmlns="http://www.w3.org/2000/svg">
<path d="M3 8V13C3 15.8003 3 17.2004 3.54497 18.27C4.02433 19.2108 4.78924 19.9757 5.73005 20.455C6.79961 21 8.19974 21 11 21H13H13.0017M3 8H21M3 8L3.66968 6.88403C4.51947 5.46771 4.94438 4.75954 5.52938 4.24514C6.04707 3.78993 6.6533 3.44669 7.30998 3.23698C8.05206 3 8.87791 3 10.5296 3L13.4706 3C15.1223 3 15.9481 3 16.6902 3.23698C17.3469 3.44669 17.9531 3.78993 18.4708 4.24514C19.0558 4.75954 19.4807 5.4677 20.3305 6.88403L21 8M21 8V13C21 14.8423 21 16.0786 20.8448 17.0134M17.0001 21H21.0001M14.0001 13L14.0001 8L12.0001 3L10.0001 8V13L12.0001 12L14.0001 13Z" stroke="#131316" stroke-width="2" stroke-linecap="round" stroke-linejoin="round"/>
</svg>
