<svg width="24" height="24" viewBox="0 0 24 24" fill="none" xmlns="http://www.w3.org/2000/svg">
<path d="M18.0001 18L21.0001 21M21.0001 18L18.0001 21M14.0011 20.9989C13.6885 21 13.3555 21 13 21H11C8.19974 21 6.79961 21 5.73005 20.455C4.78924 19.9757 4.02433 19.2108 3.54497 18.27C3 17.2004 3 15.8003 3 13V8M20.9989 14.0011C21 13.6885 21 13.3555 21 13V8M21 8H3M21 8L20.3305 6.88403C19.4807 5.4677 19.0558 4.75954 18.4708 4.24514C17.9531 3.78993 17.3469 3.44669 16.6902 3.23698C15.9481 3 15.1223 3 13.4706 3L10.5296 3C8.87791 3 8.05206 3 7.30998 3.23698C6.6533 3.44669 6.04707 3.78993 5.52938 4.24514C4.94438 4.75954 4.51947 5.46771 3.66968 6.88403L3 8M14.0001 13L14.0001 8L12.0001 3L10.0001 8V13L12.0001 12L14.0001 13Z" stroke="#131316" stroke-width="2" stroke-linecap="round" stroke-linejoin="round"/>
</svg>
