<svg width="24" height="24" viewBox="0 0 24 24" fill="none" xmlns="http://www.w3.org/2000/svg">
<path d="M9 2L8.8 2C7.11984 2 6.27976 2 5.63803 2.32698C5.07354 2.6146 4.6146 3.07354 4.32698 3.63803C4 4.27976 4 5.11984 4 6.8V8.01178C4 8.74555 4 9.11243 3.91711 9.4577C3.84362 9.7638 3.72241 10.0564 3.55792 10.3249C3.3724 10.6276 3.11297 10.887 2.59411 11.4059L2 12L2.59411 12.5941C3.11297 13.113 3.3724 13.3724 3.55792 13.6751C3.72241 13.9436 3.84362 14.2362 3.91711 14.5423C4 14.8876 4 15.2545 4 15.9882V17.2C4 18.8802 4 19.7202 4.32698 20.362C4.6146 20.9265 5.07354 21.3854 5.63803 21.673C6.27976 22 7.11984 22 8.8 22H9M15 2L15.2 2C16.8802 2 17.7202 2 18.362 2.32698C18.9265 2.6146 19.3854 3.07354 19.673 3.63803C20 4.27976 20 5.11984 20 6.8V8.01178C20 8.74555 20 9.11243 20.0829 9.4577C20.1564 9.7638 20.2776 10.0564 20.4421 10.3249C20.6276 10.6276 20.887 10.887 21.4059 11.4059L22 12L21.4059 12.5941C20.887 13.113 20.6276 13.3724 20.4421 13.6751C20.2776 13.9436 20.1564 14.2362 20.0829 14.5423C20 14.8876 20 15.2545 20 15.9882V17.2C20 18.8802 20 19.7202 19.673 20.362C19.3854 20.9265 18.9265 21.3854 18.362 21.673C17.7202 22 16.8802 22 15.2 22H15" stroke="#131316" stroke-width="2" stroke-linecap="round" stroke-linejoin="round"/>
</svg>
