<svg width="24" height="24" viewBox="0 0 24 24" fill="none" xmlns="http://www.w3.org/2000/svg">
<path d="M10 7V11M8 9L12 9M17 22H7.8C6.11984 22 5.27976 22 4.63803 21.673C4.07354 21.3854 3.6146 20.9265 3.32698 20.362C3 19.7202 3 18.8802 3 17.2L3 6.8C3 5.11984 3 4.27976 3.32698 3.63803C3.6146 3.07354 4.07354 2.6146 4.63803 2.32698C5.27976 2 6.11984 2 7.8 2L12.2 2C13.8802 2 14.7202 2 15.362 2.32698C15.9265 2.6146 16.3854 3.07354 16.673 3.63803C17 4.27976 17 5.11984 17 6.8V22ZM17 22H17.8C18.9201 22 19.4802 22 19.908 21.782C20.2843 21.5903 20.5903 21.2843 20.782 20.908C21 20.4802 21 19.9201 21 18.8V16.2C21 15.0799 21 14.5198 20.782 14.092C20.5903 13.7157 20.2843 13.4097 19.908 13.218C19.4802 13 18.9201 13 17.8 13H17V22ZM12 22H8V18C8 16.8954 8.89543 16 10 16C11.1046 16 12 16.8954 12 18V22Z" stroke="#131316" stroke-width="2" stroke-linecap="round" stroke-linejoin="round"/>
</svg>
