<svg width="24" height="24" viewBox="0 0 24 24" fill="none" xmlns="http://www.w3.org/2000/svg">
<path d="M7 6V6.00995M11 6V6.00995M7 10V10.0099M11 10V10.0099M7 14V14.0099M11 14V14.0099M7 18V18.0099M11 18V18.0099M15 22H7.8C6.11984 22 5.27976 22 4.63803 21.673C4.07354 21.3854 3.6146 20.9265 3.32698 20.362C3 19.7202 3 18.8802 3 17.2L3 6.8C3 5.11984 3 4.27976 3.32698 3.63803C3.6146 3.07354 4.07354 2.6146 4.63803 2.32698C5.27976 2 6.11984 2 7.8 2L10.2 2C11.8802 2 12.7202 2 13.362 2.32698C13.9265 2.6146 14.3854 3.07354 14.673 3.63803C15 4.27976 15 5.11984 15 6.8V22ZM15 22H17.8C18.9201 22 19.4802 22 19.908 21.782C20.2843 21.5903 20.5903 21.2843 20.782 20.908C21 20.4802 21 19.9201 21 18.8V13.7126C21 13.0864 21 12.7734 20.9137 12.4892C20.8373 12.2376 20.712 12.0036 20.5451 11.8004C20.3565 11.571 20.096 11.3973 19.575 11.05L15 8V22Z" stroke="#131316" stroke-width="2" stroke-linecap="round" stroke-linejoin="round"/>
</svg>
