<svg width="24" height="24" viewBox="0 0 24 24" fill="none" xmlns="http://www.w3.org/2000/svg">
<path d="M21 11V10C21 7.19974 21 5.79961 20.455 4.73005C19.9757 3.78924 19.2108 3.02433 18.27 2.54497C17.2004 2 15.8003 2 13 2L11 2C8.19974 2 6.79961 2 5.73005 2.54497C4.78924 3.02433 4.02433 3.78924 3.54497 4.73005C3 5.79961 3 7.19974 3 10L3 11C3 13.8003 3 15.2004 3.54497 16.27C4.02433 17.2108 4.78924 17.9757 5.73005 18.455C6.79961 19 8.19974 19 11 19H13C15.8003 19 17.2004 19 18.27 18.455C19.2108 17.9757 19.9757 17.2108 20.455 16.27C21 15.2004 21 13.8003 21 11ZM21 11L4 11M15 6H9M17 15V15.0099M7 15V15.0099M6 20V19H10V20C10 21.1046 9.10457 22 8 22C6.89543 22 6 21.1046 6 20ZM14 20V19H18V20C18 21.1046 17.1046 22 16 22C14.8954 22 14 21.1046 14 20Z" stroke="#131316" stroke-width="2" stroke-linecap="round" stroke-linejoin="round"/>
</svg>
