<svg width="24" height="24" viewBox="0 0 24 24" fill="none" xmlns="http://www.w3.org/2000/svg">
<path d="M8 2V6M16 2V6M3 10L21 10M8 14V14.0099M12 14V14.0099M16 14V14.0099M8 18V18.0099M12 18V18.0099M16 18V18.0099M13 22H11C8.19974 22 6.79961 22 5.73005 21.455C4.78924 20.9757 4.02433 20.2108 3.54497 19.27C3 18.2004 3 16.8003 3 14L3 12C3 9.19974 3 7.79961 3.54497 6.73005C4.02433 5.78924 4.78924 5.02433 5.73005 4.54497C6.79961 4 8.19974 4 11 4H13C15.8003 4 17.2004 4 18.27 4.54497C19.2108 5.02433 19.9757 5.78924 20.455 6.73005C21 7.79961 21 9.19974 21 12V14C21 16.8003 21 18.2004 20.455 19.27C19.9757 20.2108 19.2108 20.9757 18.27 21.455C17.2004 22 15.8003 22 13 22Z" stroke="#131316" stroke-width="2" stroke-linecap="round" stroke-linejoin="round"/>
</svg>
