<svg width="24" height="24" viewBox="0 0 24 24" fill="none" xmlns="http://www.w3.org/2000/svg">
<path d="M12 16C13.6569 16 15 14.6569 15 13C15 11.3431 13.6569 10 12 10C10.3431 10 9 11.3431 9 13C9 14.6569 10.3431 16 12 16Z" stroke="#131316" stroke-width="2" stroke-linecap="round" stroke-linejoin="round"/>
<path d="M16.8151 6.02515L16.3983 5.33042C15.8884 4.48062 15.6334 4.05572 15.2824 3.74708C14.9718 3.47396 14.6081 3.26802 14.2141 3.14219C13.7688 3 13.2733 3 12.2823 3H11.7177C10.7267 3 10.2312 3 9.78593 3.14219C9.39192 3.26802 9.02818 3.47396 8.71757 3.74708C8.36657 4.05572 8.11163 4.48062 7.60175 5.33042L7.18491 6.02515C6.26866 6.0622 5.63397 6.15387 5.08658 6.3806C3.86144 6.88807 2.88807 7.86144 2.3806 9.08658C2 10.0054 2 11.1703 2 13.5C2 15.8297 2 16.9946 2.3806 17.9134C2.88807 19.1386 3.86144 20.1119 5.08658 20.6194C6.00544 21 7.17029 21 9.5 21H14.5C16.8297 21 17.9946 21 18.9134 20.6194C20.1386 20.1119 21.1119 19.1386 21.6194 17.9134C22 16.9946 22 15.8297 22 13.5C22 11.1703 22 10.0054 21.6194 9.08658C21.1119 7.86144 20.1386 6.88807 18.9134 6.3806C18.366 6.15387 17.7313 6.0622 16.8151 6.02515Z" stroke="#131316" stroke-width="2" stroke-linecap="round" stroke-linejoin="round"/>
</svg>
