<svg width="24" height="24" viewBox="0 0 24 24" fill="none" xmlns="http://www.w3.org/2000/svg">
<path d="M3 3L21 21M15.3421 20.9992C15.0793 21 14.7993 21 14.5 21H9.5C7.17029 21 6.00544 21 5.08658 20.6194C3.86144 20.1119 2.88807 19.1386 2.3806 17.9134C2 16.9946 2 15.8297 2 13.5C2 11.1703 2 10.0054 2.3806 9.08658C2.48088 8.84448 2.59936 8.61221 2.73438 8.39142M16.3983 5.33042L16.8151 6.02515C17.7313 6.0622 18.366 6.15387 18.9134 6.3806C20.1386 6.88807 21.1119 7.86144 21.6194 9.08658C22 10.0054 22 11.1703 22 13.5C22 15.8297 22 16.9946 21.6194 17.9134C21.2735 18.7486 20.711 19.4668 19.9999 20.0001L14.5618 14.562C14.8398 14.107 15 13.5722 15 13C15 11.3431 13.6569 10 12 10C11.4278 10 10.893 10.1602 10.438 10.4382L6.1137 6.11389C6.42658 6.06884 6.77797 6.04161 7.18491 6.02515L7.60175 5.33042C8.11163 4.48062 8.36657 4.05572 8.71757 3.74708C9.02818 3.47396 9.39192 3.26802 9.78593 3.14219C10.2312 3 10.7267 3 11.7177 3H12.2823C13.2733 3 13.7688 3 14.2141 3.14219C14.6081 3.26802 14.9718 3.47396 15.2824 3.74708C15.6334 4.05572 15.8884 4.48062 16.3983 5.33042Z" stroke="#131316" stroke-width="2" stroke-linecap="round" stroke-linejoin="round"/>
</svg>
