<svg width="24" height="24" viewBox="0 0 24 24" fill="none" xmlns="http://www.w3.org/2000/svg">
<path d="M10 16C11.6569 16 13 14.6569 13 13C13 11.3431 11.6569 10 10 10C8.34315 10 7 11.3431 7 13C7 14.6569 8.34315 16 10 16Z" stroke="#131316" stroke-width="2" stroke-linecap="round" stroke-linejoin="round"/>
<path d="M13.8 6L13.1716 4.9526C12.8826 4.47102 12.7381 4.23023 12.565 4.03113C12.1147 3.5135 11.5007 3.16583 10.8252 3.04607C10.5653 3 10.2845 3 9.72289 3C9.05829 3 8.72599 3 8.42713 3.06142C7.64831 3.2215 6.96488 3.6842 6.52701 4.34787C6.35898 4.60254 6.23557 4.91108 5.98874 5.52814L5.79857 6.00357C4.75677 6.0161 4.13736 6.07256 3.63803 6.32698C3.07354 6.6146 2.6146 7.07354 2.32698 7.63803C2 8.27976 2 9.11984 2 10.8V16.2C2 17.8802 2 18.7202 2.32698 19.362C2.6146 19.9265 3.07354 20.3854 3.63803 20.673C4.27976 21 5.11984 21 6.8 21H17.2C18.8802 21 19.7202 21 20.362 20.673C20.9265 20.3854 21.3854 19.9265 21.673 19.362C22 18.7202 22 17.8802 22 16.2V10.8C22 9.11984 22 8.27976 21.673 7.63803C21.3854 7.07354 20.9265 6.6146 20.362 6.32698C19.7202 6 18.8802 6 17.2 6H13.8Z" stroke="#131316" stroke-width="2" stroke-linecap="round" stroke-linejoin="round"/>
</svg>
