<svg width="24" height="24" viewBox="0 0 24 24" fill="none" xmlns="http://www.w3.org/2000/svg">
<path d="M3 3L21 21M15.3242 20.9813C14.673 21 13.9105 21 13 21H11C8.19974 21 6.79961 21 5.73005 20.455C4.78924 19.9757 4.02433 19.2108 3.54497 18.27C3 17.2004 3 15.8003 3 13V11C3 10.0895 3 9.327 3.01873 8.67577M17 7V7.00995M14.1212 14.1214L19.5354 19.5357C19.9042 19.1669 20.2153 18.7404 20.455 18.27C21 17.2004 21 15.8003 21 13V11C21 8.19974 21 6.79961 20.455 5.73005C19.9757 4.78924 19.2108 4.02433 18.27 3.54497C17.2004 3 15.8003 3 13 3H11C8.19974 3 6.79961 3 5.73005 3.54497C5.2596 3.78467 4.83314 4.09577 4.46438 4.46456L9.87858 9.87878C10.4215 9.33583 11.1715 9 12 9C13.6569 9 15 10.3431 15 12C15 12.8285 14.6642 13.5785 14.1212 14.1214Z" stroke="#131316" stroke-width="2" stroke-linecap="round" stroke-linejoin="round"/>
</svg>
