<svg width="24" height="24" viewBox="0 0 24 24" fill="none" xmlns="http://www.w3.org/2000/svg">
<path d="M8 15H6M14 20H10C7.19974 20 5.79961 20 4.73005 19.455C3.78924 18.9757 3.02433 18.2108 2.54497 17.27C2 16.2004 2 14.8003 2 12C2 9.19974 2 7.79961 2.54497 6.73005C3.02433 5.78924 3.78924 5.02433 4.73005 4.54497C5.79961 4 7.19974 4 10 4L14 4C16.8003 4 18.2004 4 19.27 4.54497C20.2108 5.02433 20.9757 5.78924 21.455 6.73005C22 7.79961 22 9.19974 22 12C22 14.8003 22 16.2004 21.455 17.27C20.9757 18.2108 20.2108 18.9757 19.27 19.455C18.2004 20 16.8003 20 14 20ZM22 10H2C2 9.07099 2 8.60649 2.06156 8.21783C2.40042 6.07837 4.07837 4.40042 6.21783 4.06156C6.60649 4 7.07099 4 8 4L16 4C16.929 4 17.3935 4 17.7822 4.06156C19.9216 4.40042 21.5996 6.07837 21.9384 8.21783C22 8.60649 22 9.07099 22 10Z" stroke="#131316" stroke-width="2" stroke-linecap="round" stroke-linejoin="round"/>
</svg>
