<svg width="24" height="24" viewBox="0 0 24 24" fill="none" xmlns="http://www.w3.org/2000/svg">
<path d="M16 6L21 6M12.0017 6H9.8C8.11984 6 7.27976 6 6.63803 6.32698C6.07354 6.6146 5.6146 7.07354 5.32698 7.63803C5 8.27976 5 9.11984 5 10.8V12.2C5 13.8802 5 14.7202 5.32698 15.362C5.6146 15.9265 6.07354 16.3854 6.63803 16.673C7.27976 17 8.11984 17 9.8 17H16.2C17.8802 17 18.7202 17 19.362 16.673C19.9265 16.3854 20.3854 15.9265 20.673 15.362C21 14.7202 21 13.8802 21 12.2V10.8C21 10.5084 21 10.2421 20.9983 9.99775M5 12V5C5 3.89543 4.10457 3 3 3M14 11H16M8 21V21.0099M18 21V21.0099" stroke="#131316" stroke-width="2" stroke-linecap="round" stroke-linejoin="round"/>
</svg>
