<svg width="24" height="24" viewBox="0 0 24 24" fill="none" xmlns="http://www.w3.org/2000/svg">
<path d="M5 6V5.91895C5 5.06309 5 4.63516 4.87118 4.29383C4.66826 3.75615 4.24385 3.33174 3.70617 3.12882C3.36484 3 2.93691 3 2.08105 3H2M5 6V12.2005C5 13.8806 5 14.7207 5.32698 15.3625C5.6146 15.9269 6.07354 16.3859 6.63803 16.6735C7.27976 17.0005 8.11984 17.0005 9.8 17.0005H14.7973C15.9036 17.0005 16.4568 17.0005 16.9421 16.8289C17.3712 16.6772 17.7602 16.4298 18.0795 16.1055C18.4407 15.7387 18.6753 15.2377 19.1444 14.2357L19.7999 12.8357C20.1789 12.0262 20.4904 11.3609 20.7274 10.7982M5 6L14.6148 6.00049M7 21H8M14 21H15M22 3L18 6.99998M18 3L22 7" stroke="#131316" stroke-width="2" stroke-linecap="round" stroke-linejoin="round"/>
</svg>
