<svg width="24" height="24" viewBox="0 0 24 24" fill="none" xmlns="http://www.w3.org/2000/svg">
<path d="M17 6L22 6M13.0017 6H5M21.0349 10C20.795 10.7097 20.3752 11.6063 19.7999 12.8353L19.1444 14.2353C18.6753 15.2373 18.4407 15.7383 18.0795 16.105C17.7602 16.4293 17.3712 16.6767 16.9421 16.8284C16.4568 17 15.9036 17 14.7973 17H9.8C8.11984 17 7.27976 17 6.63803 16.673C6.07354 16.3854 5.6146 15.9265 5.32698 15.362C5 14.7202 5 13.8802 5 12.2V6M5 6V5.91895C5 5.06309 5 4.63516 4.87118 4.29383C4.66826 3.75615 4.24385 3.33174 3.70617 3.12882C3.36484 3 2.93691 3 2.08105 3H2M7 21H8M14 21H15" stroke="#131316" stroke-width="2" stroke-linecap="round" stroke-linejoin="round"/>
</svg>
