<svg width="24" height="24" viewBox="0 0 24 24" fill="none" xmlns="http://www.w3.org/2000/svg">
<path d="M17 5.00001L22 5.00001M13.0017 5.00001H5V17H14.8C15.9565 17 16.5348 17 17.0366 16.8152C17.4801 16.6519 17.8787 16.3862 18.2 16.0396C18.5636 15.6475 18.786 15.1137 19.2308 14.0462L20.2308 11.6462C20.7017 10.5159 21.0529 9.67301 21.2611 9.00001M17 21H9.8C8.11984 21 7.27976 21 6.63803 20.673C6.07354 20.3854 5.6146 19.9265 5.32698 19.362C5 18.7202 5 17.8802 5 16.2V5.94948C5 4.32053 3.67948 3 2.05053 3L2 3.00001" stroke="#131316" stroke-width="2" stroke-linecap="round" stroke-linejoin="round"/>
</svg>
