<svg width="24" height="24" viewBox="0 0 24 24" fill="none" xmlns="http://www.w3.org/2000/svg">
<path d="M17 21H9.8C8.11984 21 7.27976 21 6.63803 20.673C6.07354 20.3854 5.6146 19.9265 5.32698 19.362C5 18.7202 5 17.8802 5 16.2V5.94948C5 4.32053 3.67948 3 2.05053 3L2 3.00001M5 5H15.8C18.2074 5 19.4111 5 20.1683 5.50664C20.8303 5.94958 21.289 6.6376 21.4432 7.41904C21.6196 8.31286 21.1567 9.42396 20.2308 11.6462L19.2308 14.0462C18.786 15.1137 18.5636 15.6475 18.2 16.0396C17.8787 16.3862 17.4801 16.6519 17.0366 16.8152C16.5348 17 15.9565 17 14.8 17H5V5Z" stroke="#131316" stroke-width="2" stroke-linecap="round" stroke-linejoin="round"/>
</svg>
