<svg width="24" height="24" viewBox="0 0 24 24" fill="none" xmlns="http://www.w3.org/2000/svg">
<path d="M20.625 10.6958C20.505 10.9886 20.3734 11.3044 20.2308 11.6467L19.2308 14.0466C18.786 15.1142 18.5636 15.648 18.2 16.0401C17.8787 16.3867 17.4801 16.6524 17.0366 16.8157C16.5348 17.0005 15.9565 17.0005 14.8 17.0005H5V5.0005H14.8701M22 3.00001L18 6.99999M18 3.00001L22 7.00001M17 21H9.8C8.11984 21 7.27976 21 6.63803 20.673C6.07354 20.3854 5.6146 19.9265 5.32698 19.362C5 18.7202 5 17.8802 5 16.2V5.94948C5 4.32053 3.67948 3 2.05053 3L2 3.00001" stroke="#131316" stroke-width="2" stroke-linecap="round" stroke-linejoin="round"/>
</svg>
