<svg width="24" height="24" viewBox="0 0 24 24" fill="none" xmlns="http://www.w3.org/2000/svg">
<path d="M12 8.53846H12.8333C13.5031 8.53846 14.0806 8.92138 14.3455 9.47367M12 8.53846H11.2857C10.2995 8.53846 9.5 9.31335 9.5 10.2692C9.5 11.2251 10.2995 12 11.2857 12H12.7143C13.7005 12 14.5 12.7749 14.5 13.7308C14.5 14.6866 13.7005 15.4615 12.7143 15.4615H12M12 8.53846V7.5M12 15.4615H11.1667C10.4682 15.4615 9.87016 15.0452 9.62225 14.4545M12 15.4615V16.5M14 20H10C7.19974 20 5.79961 20 4.73005 19.455C3.78924 18.9757 3.02433 18.2108 2.54497 17.27C2 16.2004 2 14.8003 2 12C2 9.19974 2 7.79961 2.54497 6.73005C3.02433 5.78924 3.78924 5.02433 4.73005 4.54497C5.79961 4 7.19974 4 10 4L14 4C16.8003 4 18.2004 4 19.27 4.54497C20.2108 5.02433 20.9757 5.78924 21.455 6.73005C22 7.79961 22 9.19974 22 12C22 14.8003 22 16.2004 21.455 17.27C20.9757 18.2108 20.2108 18.9757 19.27 19.455C18.2004 20 16.8003 20 14 20Z" stroke="#131316" stroke-width="2" stroke-linecap="round" stroke-linejoin="round"/>
</svg>
