<svg width="24" height="24" viewBox="0 0 24 24" fill="none" xmlns="http://www.w3.org/2000/svg">
<path d="M19.5 4V9M17 6.5L22 6.5M13 4H10C7.19974 4 5.79961 4 4.73005 4.54497C3.78924 5.02433 3.02433 5.78924 2.54497 6.73005C2 7.79961 2 9.19974 2 12C2 14.8003 2 16.2004 2.54497 17.27C3.02433 18.2108 3.78924 18.9757 4.73005 19.455C5.79961 20 7.19974 20 10 20H14C16.8003 20 18.2004 20 19.27 19.455C20.2108 18.9757 20.9757 18.2108 21.455 17.27C21.9309 16.336 21.9912 15.1501 21.9989 13M12 8.53846H12.8333C12.9143 8.53846 12.9939 8.54405 13.0717 8.55486M12 8.53846H11.2857C10.2995 8.53846 9.5 9.31335 9.5 10.2692C9.5 11.2251 10.2995 12 11.2857 12H12.7143C13.7005 12 14.5 12.7749 14.5 13.7308C14.5 14.6866 13.7005 15.4615 12.7143 15.4615H12M12 8.53846V7.5M12 15.4615H11.1667C10.4682 15.4615 9.87016 15.0452 9.62225 14.4545M12 15.4615V16.5" stroke="#131316" stroke-width="2" stroke-linecap="round" stroke-linejoin="round"/>
</svg>
