<svg width="24" height="24" viewBox="0 0 24 24" fill="none" xmlns="http://www.w3.org/2000/svg">
<path d="M17.2 10H17.8C18.9201 10 19.4802 10 19.908 9.78201C20.2843 9.59027 20.5903 9.28431 20.782 8.90798C21 8.48016 21 7.9201 21 6.8V6.2C21 5.0799 21 4.51984 20.782 4.09202C20.5903 3.71569 20.2843 3.40973 19.908 3.21799C19.4802 3 18.9201 3 17.8 3L17.2 3C16.0799 3 15.5198 3 15.092 3.21799C14.7157 3.40973 14.4097 3.71569 14.218 4.09202C14 4.51984 14 5.0799 14 6.2V6.8C14 7.9201 14 8.48016 14.218 8.90798C14.4097 9.28431 14.7157 9.59027 15.092 9.78201C15.5198 10 16.0799 10 17.2 10Z" stroke="#131316" stroke-width="2" stroke-linecap="round" stroke-linejoin="round"/>
<path d="M6.2 21H6.8C7.9201 21 8.48016 21 8.90798 20.782C9.28431 20.5903 9.59027 20.2843 9.78201 19.908C10 19.4802 10 18.9201 10 17.8V17.2C10 16.0799 10 15.5198 9.78201 15.092C9.59027 14.7157 9.28431 14.4097 8.90798 14.218C8.48016 14 7.9201 14 6.8 14H6.2C5.0799 14 4.51984 14 4.09202 14.218C3.71569 14.4097 3.40973 14.7157 3.21799 15.092C3 15.5198 3 16.0799 3 17.2L3 17.8C3 18.9201 3 19.4802 3.21799 19.908C3.40973 20.2843 3.71569 20.5903 4.09202 20.782C4.51984 21 5.0799 21 6.2 21Z" stroke="#131316" stroke-width="2" stroke-linecap="round" stroke-linejoin="round"/>
<path d="M21 17.5C21 19.433 19.433 21 17.5 21C15.567 21 14 19.433 14 17.5C14 15.567 15.567 14 17.5 14C19.433 14 21 15.567 21 17.5Z" stroke="#131316" stroke-width="2" stroke-linecap="round" stroke-linejoin="round"/>
<path d="M3 7C3 5.79471 3 5.19206 3.16621 4.81024C3.52729 3.98075 4.40021 3.49694 5.29498 3.63037C5.70686 3.69179 6.21791 4.01119 7.23999 4.64999C8.16111 5.22569 8.62167 5.51354 8.85198 5.83488C9.35122 6.53141 9.35122 7.46859 8.85198 8.16512C8.62167 8.48646 8.16111 8.77431 7.23999 9.35001C6.21791 9.98881 5.70686 10.3082 5.29498 10.3696C4.40021 10.5031 3.52729 10.0192 3.16621 9.18976C3 8.80794 3 8.20529 3 7Z" stroke="#131316" stroke-width="2" stroke-linecap="round" stroke-linejoin="round"/>
</svg>
