<svg width="24" height="24" viewBox="0 0 24 24" fill="none" xmlns="http://www.w3.org/2000/svg">
<path d="M16 17.4649V22L18 21L20 22V17.4649C19.4117 17.8052 18.7286 18 18 18M16 17.4649C16.5883 17.8052 17.2714 18 18 18M16 17.4649V18.9712C15.5286 19 14.9474 19 14.2 19H6.8C5.11984 19 4.27976 19 3.63803 18.673C3.07354 18.3854 2.6146 17.9265 2.32698 17.362C2 16.7202 2 15.8802 2 14.2V6.8C2 5.11984 2 4.27976 2.32698 3.63803C2.6146 3.07354 3.07354 2.6146 3.63803 2.32698C4.27976 2 5.11984 2 6.8 2H14.2C15.8802 2 16.7202 2 17.362 2.32698C17.9265 2.6146 18.3854 3.07354 18.673 3.63803C19 4.27976 19 5.11984 19 6.8V10.126C18.6804 10.0438 18.3453 10 18 10M16 17.4649C14.8044 16.7733 14 15.4806 14 14M18 18C20.2091 18 22 16.2091 22 14C22 11.7909 20.2091 10 18 10M18 18C15.7909 18 14 16.2091 14 14M14 14C14 11.7909 15.7909 10 18 10M6 7H13M6 11H10M6 15H7" stroke="#131316" stroke-width="2" stroke-linecap="round" stroke-linejoin="round"/>
</svg>
