<svg width="24" height="24" viewBox="0 0 24 24" fill="none" xmlns="http://www.w3.org/2000/svg">
<path d="M13.65 19.9943C13.967 19.9997 14.325 20 14.7333 20L19 22V19.9712C19.5883 19.9353 20.0057 19.8545 20.362 19.673C20.9265 19.3854 21.3854 18.9265 21.673 18.362C22 17.7202 22 16.8802 22 15.2V12.8C22 11.1198 22 10.2798 21.673 9.63803C21.3854 9.07354 20.9265 8.6146 20.362 8.32698C20.2487 8.26925 20.1292 8.22172 20 8.18257M10.2667 16H11.2C12.8802 16 13.7202 16 14.362 15.673C14.9265 15.3854 15.3854 14.9265 15.673 14.362C16 13.7202 16 12.8802 16 11.2V6.8C16 5.11984 16 4.27976 15.673 3.63803C15.3854 3.07354 14.9265 2.6146 14.362 2.32698C13.7202 2 12.8802 2 11.2 2H6.8C5.11984 2 4.27976 2 3.63803 2.32698C3.07354 2.6146 2.6146 3.07354 2.32698 3.63803C2 4.27976 2 5.11984 2 6.8V11.2C2 12.8802 2 13.7202 2.32698 14.362C2.6146 14.9265 3.07354 15.3854 3.63803 15.673C4.16873 15.9434 4.83507 15.9902 6 15.9983V18L10.2667 16Z" stroke="#131316" stroke-width="2" stroke-linecap="round" stroke-linejoin="round"/>
</svg>
