<svg width="24" height="24" viewBox="0 0 24 24" fill="none" xmlns="http://www.w3.org/2000/svg">
<path d="M20.6726 12.2358C21.5029 13.2652 22 14.5745 22 16V18.8001C22 19.9201 22 20.4801 21.782 20.908C21.5903 21.2843 21.2843 21.5903 20.908 21.782C20.4802 22 19.9201 22 18.8 22H16C14.5745 22 13.2652 21.5029 12.2358 20.6726M17 9.5C17 13.6421 13.6421 17 9.5 17C8.53556 17 6.77342 17 5.19945 17C4.07971 17 3.51984 17 3.09202 16.782C2.71569 16.5903 2.40973 16.2843 2.21799 15.908C2 15.4802 2 14.9202 2 13.8004C2 12.2505 2 10.5104 2 9.5C2 5.35786 5.35786 2 9.5 2C13.6421 2 17 5.35786 17 9.5Z" stroke="#131316" stroke-width="2" stroke-linecap="round" stroke-linejoin="round"/>
</svg>
