<svg width="24" height="24" viewBox="0 0 24 24" fill="none" xmlns="http://www.w3.org/2000/svg">
<path d="M21.4713 13.5336C21.8109 14.286 22 15.1209 22 16C22 17.0274 21.7418 17.9944 21.2867 18.8398L21.9999 21.9999L18.6039 21.4071C17.8163 21.787 16.933 22 16 22C15.1209 22 14.286 21.8109 13.5336 21.4713M18 10C18 14.4183 14.4183 18 10 18C8.756 18 7.57832 17.7161 6.52823 17.2095L2.00005 17.9999L2.95102 13.7864C2.34428 12.6592 2 11.3698 2 10C2 5.58172 5.58172 2 10 2C14.4183 2 18 5.58172 18 10Z" stroke="#131316" stroke-width="2" stroke-linecap="round" stroke-linejoin="round"/>
</svg>
