<svg width="24" height="24" viewBox="0 0 24 24" fill="none" xmlns="http://www.w3.org/2000/svg">
<path d="M16 12H11.0001M8.00995 12H8M16 16H11.0001M8.00995 16H8M6.73005 4.54136C7.10072 4.35249 7.51109 4.22908 8.00569 4.14844C8.08339 5.18198 8.94658 5.99639 10 5.99639H14C15.0534 5.99639 15.9166 5.18198 15.9943 4.14844C16.4889 4.22908 16.8993 4.35249 17.27 4.54136C18.2108 5.02072 18.9757 5.78563 19.455 6.72644C20 7.796 20 9.19613 20 11.9964V13.9964C20 16.7967 20 18.1968 19.455 19.2663C18.9757 20.2072 18.2108 20.9721 17.27 21.4514C16.2004 21.9964 14.8003 21.9964 12 21.9964C9.19974 21.9964 7.79961 21.9964 6.73005 21.4514C5.78924 20.9721 5.02433 20.2072 4.54497 19.2663C4 18.1968 4 16.7967 4 13.9964V11.9964C4 9.19613 4 7.796 4.54497 6.72644C5.02433 5.78563 5.78924 5.02072 6.73005 4.54136ZM10 6H14C15.1046 6 16 5.10457 16 4C16 2.89543 15.1046 2 14 2H10C8.89543 2 8 2.89543 8 4C8 5.10457 8.89543 6 10 6Z" stroke="#131316" stroke-width="2" stroke-linecap="round" stroke-linejoin="round"/>
</svg>
