<svg width="24" height="24" viewBox="0 0 24 24" fill="none" xmlns="http://www.w3.org/2000/svg">
<path d="M2 10C1.44772 10 1 10.4477 1 11C1 11.5523 1.44772 12 2 12V10ZM3 12C3.55228 12 4 11.5523 4 11C4 10.4477 3.55228 10 3 10V12ZM4.9073 4.49284C4.51678 4.10232 3.88361 4.10232 3.49309 4.49284C3.10256 4.88337 3.10256 5.51653 3.49309 5.90706L4.9073 4.49284ZM4.19309 6.60706C4.58361 6.99758 5.21678 6.99758 5.6073 6.60706C5.99783 6.21653 5.99783 5.58337 5.6073 5.19284L4.19309 6.60706ZM13 2C13 1.44772 12.5523 1 12 1C11.4477 1 11 1.44772 11 2H13ZM11 3C11 3.55228 11.4477 4 12 4C12.5523 4 13 3.55228 13 3H11ZM20.5072 5.90706C20.8977 5.51653 20.8977 4.88337 20.5072 4.49284C20.1167 4.10232 19.4835 4.10232 19.093 4.49285L20.5072 5.90706ZM18.393 5.19285C18.0025 5.58337 18.0025 6.21654 18.393 6.60706C18.7835 6.99758 19.4167 6.99758 19.8072 6.60706L18.393 5.19285ZM22 12C22.5523 12 23 11.5523 23 11C23 10.4477 22.5523 10 22 10V12ZM21 10C20.4477 10 20 10.4477 20 11C20 11.5523 20.4477 12 21 12V10ZM6.40716 14.0205L6.30657 15.0154C6.74035 15.0592 7.15254 14.817 7.3253 14.4167L6.40716 14.0205ZM15.8153 14.6488L14.8523 14.9184C14.9382 15.2252 15.1652 15.4727 15.4634 15.5848C15.7617 15.6969 16.0954 15.6602 16.3622 15.486L15.8153 14.6488ZM16.4305 14.3197L16.8232 15.2393C17.035 15.1489 17.209 14.9882 17.316 14.7842L16.4305 14.3197ZM7.08003 12.8958L6.096 13.0738C6.16593 13.4604 6.45571 13.7702 6.83676 13.8658C7.2178 13.9614 7.6195 13.825 7.86358 13.5172L7.08003 12.8958ZM2 12H3V10H2V12ZM3.49309 5.90706L4.19309 6.60706L5.6073 5.19284L4.9073 4.49284L3.49309 5.90706ZM11 2V3H13V2H11ZM19.093 4.49285L18.393 5.19285L19.8072 6.60706L20.5072 5.90706L19.093 4.49285ZM22 10H21V12H22V10ZM18 21H6V23H18V21ZM1 18C1 20.7614 3.23858 23 6 23V21C4.34315 21 3 19.6569 3 18H1ZM6 13C3.23858 13 1 15.2386 1 18H3C3 16.3431 4.34315 15 6 15V13ZM6.50774 13.0255C6.34049 13.0086 6.17109 13 6 13V15C6.1038 15 6.20606 15.0052 6.30657 15.0154L6.50774 13.0255ZM11 10C8.52856 10 6.40835 11.4941 5.48902 13.6242L7.3253 14.4167C7.93966 12.9932 9.35497 12 11 12V10ZM16.7782 14.3791C16.071 11.8536 13.7533 10 11 10V12C12.8331 12 14.3806 13.234 14.8523 14.9184L16.7782 14.3791ZM18 13C16.9937 13 16.0541 13.2983 15.2684 13.8116L16.3622 15.486C16.8326 15.1787 17.3939 15 18 15V13ZM23 18C23 15.2386 20.7614 13 18 13V15C19.6569 15 21 16.3431 21 18H23ZM18 23C20.7614 23 23 20.7614 23 18H21C21 19.6569 19.6569 21 18 21V23ZM16 12C16 12.6715 15.8353 13.3017 15.545 13.8551L17.316 14.7842C17.7531 13.9511 18 13.0029 18 12H16ZM12 8C14.2091 8 16 9.79086 16 12H18C18 8.68629 15.3137 6 12 6V8ZM8 12C8 9.79086 9.79086 8 12 8V6C8.68629 6 6 8.68629 6 12H8ZM8.06406 12.7178C8.02206 12.4857 8 12.2458 8 12H6C6 12.3658 6.03285 12.7247 6.096 13.0738L8.06406 12.7178ZM7.86358 13.5172C8.59793 12.5911 9.72963 12 11 12V10C9.09324 10 7.39387 10.8906 6.29647 12.2745L7.86358 13.5172ZM16.3622 15.486C16.5078 15.3909 16.662 15.3082 16.8232 15.2393L16.0378 13.4C15.7682 13.5151 15.5109 13.6532 15.2684 13.8116L16.3622 15.486Z" fill="#131316"/>
</svg>
