<svg width="24" height="24" viewBox="0 0 24 24" fill="none" xmlns="http://www.w3.org/2000/svg">
<path d="M9 15C9 14.4477 8.55228 14 8 14C7.44772 14 7 14.4477 7 15H9ZM7 20C7 20.5523 7.44772 21 8 21C8.55228 21 9 20.5523 9 20H7ZM13 17C13 16.4477 12.5523 16 12 16C11.4477 16 11 16.4477 11 17H13ZM11 22C11 22.5523 11.4477 23 12 23C12.5523 23 13 22.5523 13 22H11ZM17 15C17 14.4477 16.5523 14 16 14C15.4477 14 15 14.4477 15 15H17ZM15 20C15 20.5523 15.4477 21 16 21C16.5523 21 17 20.5523 17 20H15ZM3.54054 15.3541C4.02121 15.6261 4.63136 15.4569 4.90334 14.9762C5.17532 14.4955 5.00614 13.8854 4.52547 13.6134L3.54054 15.3541ZM6.40716 7.02047L6.30657 8.0154C6.74035 8.05925 7.15254 7.81702 7.3253 7.41672L6.40716 7.02047ZM15.8153 7.64878L14.8523 7.91844C14.9382 8.22523 15.1652 8.47273 15.4634 8.58483C15.7617 8.69693 16.0954 8.66022 16.3622 8.48598L15.8153 7.64878ZM19.4745 13.6134C18.9939 13.8854 18.8247 14.4955 19.0967 14.9762C19.3686 15.4569 19.9788 15.6261 20.4595 15.3541L19.4745 13.6134ZM21.1227 8.5L20.3424 9.12547C20.5322 9.36222 20.8192 9.5 21.1227 9.5C21.4261 9.5 21.7131 9.36222 21.9029 9.12547L21.1227 8.5ZM14.106 5.08146L13.1325 4.85271C13.0439 5.22971 13.1809 5.62397 13.4843 5.86473L14.106 5.08146ZM7 15V20H9V15H7ZM11 17V22H13V17H11ZM15 15V20H17V15H15ZM4.52547 13.6134C3.61254 13.0969 3 12.1193 3 11H1C1 12.869 2.02592 14.4971 3.54054 15.3541L4.52547 13.6134ZM3 11C3 9.34315 4.34315 8 6 8V6C3.23858 6 1 8.23858 1 11H3ZM6 8C6.1038 8 6.20606 8.00523 6.30657 8.0154L6.50774 6.02554C6.34049 6.00863 6.17109 6 6 6V8ZM7.3253 7.41672C7.93966 5.9932 9.35497 5 11 5V3C8.52856 3 6.40835 4.49407 5.48902 6.62421L7.3253 7.41672ZM11 5C12.8331 5 14.3806 6.23395 14.8523 7.91844L16.7782 7.37912C16.071 4.85363 13.7533 3 11 3V5ZM16.3622 8.48598C16.8326 8.17869 17.3939 8 18 8V6C16.9937 6 16.0541 6.29831 15.2684 6.81158L16.3622 8.48598ZM18 8C19.6569 8 21 9.34315 21 11H23C23 8.23858 20.7614 6 18 6V8ZM21 11C21 12.1193 20.3875 13.0969 19.4745 13.6134L20.4595 15.3541C21.9741 14.4971 23 12.869 23 11H21ZM21 6C21 6.71043 20.7543 7.36074 20.3424 7.87453L21.9029 9.12547C22.589 8.26966 23 7.18146 23 6H21ZM18 3C19.6569 3 21 4.34315 21 6H23C23 3.23858 20.7614 1 18 1V3ZM15.0795 5.31021C15.3907 3.98546 16.5815 3 18 3V1C15.6324 1 13.6513 2.64464 13.1325 4.85271L15.0795 5.31021ZM13.4843 5.86473C14.1368 6.3826 14.6227 7.09835 14.8523 7.91844L16.7782 7.37912C16.4324 6.14395 15.7025 5.07193 14.7276 4.29819L13.4843 5.86473ZM18 8C18.9469 8 19.791 8.43758 20.3424 9.12547L21.9029 7.87453C20.9882 6.73349 19.5794 6 18 6V8Z" fill="#131316"/>
</svg>
