<svg width="24" height="24" viewBox="0 0 24 24" fill="none" xmlns="http://www.w3.org/2000/svg">
<path d="M17 16C17 15.4477 16.5523 15 16 15C15.4477 15 15 15.4477 15 16H17ZM15 16.0099C15 16.5622 15.4477 17.0099 16 17.0099C16.5523 17.0099 17 16.5622 17 16.0099H15ZM13 18C13 17.4477 12.5523 17 12 17C11.4477 17 11 17.4477 11 18H13ZM11 18.0099C11 18.5622 11.4477 19.0099 12 19.0099C12.5523 19.0099 13 18.5622 13 18.0099H11ZM13 22C13 21.4477 12.5523 21 12 21C11.4477 21 11 21.4477 11 22H13ZM11 22.0099C11 22.5622 11.4477 23.0099 12 23.0099C12.5523 23.0099 13 22.5622 13 22.0099H11ZM9 16C9 15.4477 8.55228 15 8 15C7.44772 15 7 15.4477 7 16H9ZM7 16.0099C7 16.5622 7.44772 17.0099 8 17.0099C8.55228 17.0099 9 16.5622 9 16.0099H7ZM9 20C9 19.4477 8.55228 19 8 19C7.44772 19 7 19.4477 7 20H9ZM7 20.0099C7 20.5622 7.44772 21.0099 8 21.0099C8.55228 21.0099 9 20.5622 9 20.0099H7ZM17 20C17 19.4477 16.5523 19 16 19C15.4477 19 15 19.4477 15 20H17ZM15 20.0099C15 20.5622 15.4477 21.0099 16 21.0099C16.5523 21.0099 17 20.5622 17 20.0099H15ZM19.4745 14.6134C18.9939 14.8854 18.8247 15.4955 19.0967 15.9762C19.3686 16.4569 19.9788 16.6261 20.4595 16.3541L19.4745 14.6134ZM17.9292 8.00062L16.9393 8.14213C17.0106 8.64127 17.4424 9.00922 17.9465 9.00047L17.9292 8.00062ZM4.01579 8.52604L4.51257 9.39392C4.80316 9.22758 4.99123 8.92684 5.01357 8.59275L4.01579 8.52604ZM3.54054 16.3541C4.02121 16.6261 4.63136 16.4569 4.90334 15.9762C5.17532 15.4955 5.00614 14.8854 4.52547 14.6134L3.54054 16.3541ZM15 16V16.0099H17V16H15ZM11 18V18.0099H13V18H11ZM11 22V22.0099H13V22H11ZM7 16V16.0099H9V16H7ZM7 20V20.0099H9V20H7ZM15 20V20.0099H17V20H15ZM20.4595 16.3541C21.9741 15.4971 23 13.869 23 12H21C21 13.1193 20.3875 14.0969 19.4745 14.6134L20.4595 16.3541ZM23 12C23 9.23858 20.7614 7 18 7V9C19.6569 9 21 10.3431 21 12H23ZM18 7C17.9704 7 17.941 7.00026 17.9119 7.00077L17.9465 9.00047C17.9645 9.00016 17.9823 9 18 9V7ZM18.9191 7.85911C18.3648 3.98092 15.0314 1 11 1V3C14.022 3 16.5237 5.23512 16.9393 8.14213L18.9191 7.85911ZM11 1C6.76336 1 3.2966 4.29269 3.01802 8.45933L5.01357 8.59275C5.22239 5.46946 7.82322 3 11 3V1ZM3.51902 7.65816C2.01624 8.51835 1 10.1399 1 12H3C3 10.886 3.60673 9.91242 4.51257 9.39392L3.51902 7.65816ZM1 12C1 13.869 2.02592 15.4971 3.54054 16.3541L4.52547 14.6134C3.61254 14.0969 3 13.1193 3 12H1Z" fill="#131316"/>
</svg>
