<svg width="24" height="24" viewBox="0 0 24 24" fill="none" xmlns="http://www.w3.org/2000/svg">
<path d="M15.8153 12.6488C15.2258 10.5438 13.2932 9 11 9C8.94177 9 7.17401 10.2436 6.40716 12.0205C6.27328 12.0069 6.13745 12 6 12C3.79086 12 2 13.7909 2 16C2 18.2091 3.79086 20 6 20H18C20.2091 20 22 18.2091 22 16C22 13.7909 20.2091 12 18 12M15.8153 12.6488C16.4433 12.2385 17.1938 12 18 12M15.8153 12.6488C15.2277 10.5506 13.3057 9.01005 11.0223 9.00005C11.2749 6.19678 13.6309 4 16.4999 4C19.5375 4 21.9999 6.46243 21.9999 9.5C21.9999 10.8529 21.5114 12.0918 20.7012 13.0498C19.9895 12.3978 19.0412 12 18 12" stroke="#131316" stroke-width="2" stroke-linecap="round" stroke-linejoin="round"/>
</svg>
