<svg width="24" height="24" viewBox="0 0 24 24" fill="none" xmlns="http://www.w3.org/2000/svg">
<path d="M9 13C9 12.4477 8.55228 12 8 12C7.44772 12 7 12.4477 7 13H9ZM7 15.9999C7 16.5522 7.44772 16.9999 8 16.9999C8.55228 16.9999 9 16.5522 9 15.9999H7ZM9 19.9901C9 19.4378 8.55228 18.9901 8 18.9901C7.44772 18.9901 7 19.4378 7 19.9901H9ZM7 20C7 20.5523 7.44772 21 8 21C8.55228 21 9 20.5523 9 20H7ZM17 13C17 12.4477 16.5523 12 16 12C15.4477 12 15 12.4477 15 13H17ZM15 15.9999C15 16.5522 15.4477 16.9999 16 16.9999C16.5523 16.9999 17 16.5522 17 15.9999H15ZM17 19.9901C17 19.4378 16.5523 18.9901 16 18.9901C15.4477 18.9901 15 19.4378 15 19.9901H17ZM15 20C15 20.5523 15.4477 21 16 21C16.5523 21 17 20.5523 17 20H15ZM11 22C11 22.5523 11.4477 23 12 23C12.5523 23 13 22.5523 13 22H11ZM13 19.0001C13 18.4478 12.5523 18.0001 12 18.0001C11.4477 18.0001 11 18.4478 11 19.0001H13ZM11 15.0099C11 15.5622 11.4477 16.0099 12 16.0099C12.5523 16.0099 13 15.5622 13 15.0099H11ZM13 15C13 14.4477 12.5523 14 12 14C11.4477 14 11 14.4477 11 15H13ZM19.4993 14.5993C19.0212 14.8758 18.8579 15.4875 19.1344 15.9656C19.4109 16.4437 20.0227 16.607 20.5007 16.3305L19.4993 14.5993ZM17.9292 8.00062L16.9393 8.14213C17.0106 8.64127 17.4424 9.00922 17.9465 9.00047L17.9292 8.00062ZM4.01579 8.52604L4.51257 9.39392C4.80316 9.22758 4.99123 8.92684 5.01357 8.59275L4.01579 8.52604ZM3.49927 16.3305C3.97733 16.607 4.58906 16.4437 4.86561 15.9656C5.14215 15.4875 4.97879 14.8758 4.50073 14.5993L3.49927 16.3305ZM7 13V15.9999H9V13H7ZM7 19.9901V20H9V19.9901H7ZM15 13V15.9999H17V13H15ZM15 19.9901V20H17V19.9901H15ZM13 22V19.0001H11V22H13ZM13 15.0099V15H11V15.0099H13ZM20.5007 16.3305C21.9926 15.4675 23 13.852 23 12H21C21 13.1092 20.3986 14.079 19.4993 14.5993L20.5007 16.3305ZM23 12C23 9.23858 20.7614 7 18 7V9C19.6569 9 21 10.3431 21 12H23ZM18 7C17.9704 7 17.941 7.00026 17.9119 7.00077L17.9465 9.00047C17.9645 9.00016 17.9823 9 18 9V7ZM18.9191 7.85911C18.3648 3.98092 15.0314 1 11 1V3C14.022 3 16.5237 5.23512 16.9393 8.14213L18.9191 7.85911ZM11 1C6.76336 1 3.2966 4.29269 3.01802 8.45933L5.01357 8.59275C5.22239 5.46946 7.82322 3 11 3V1ZM3.51902 7.65816C2.01624 8.51835 1 10.1399 1 12H3C3 10.886 3.60673 9.91242 4.51257 9.39392L3.51902 7.65816ZM1 12C1 13.852 2.00738 15.4675 3.49927 16.3305L4.50073 14.5993C3.60141 14.079 3 13.1092 3 12H1Z" fill="#131316"/>
</svg>
