<svg width="24" height="24" viewBox="0 0 24 24" fill="none" xmlns="http://www.w3.org/2000/svg">
<path d="M8 16.999C8 16.4467 7.55228 15.999 7 15.999C6.44772 15.999 6 16.4467 6 16.999H8ZM3 20.0001C2.44772 20.0001 2 20.4479 2 21.0001C2 21.5524 2.44772 22.0001 3 22.0001L3 20.0001ZM13 17C13 16.4477 12.5523 16 12 16C11.4477 16 11 16.4477 11 17H13ZM11 21C11 21.5523 11.4477 22 12 22C12.5523 22 13 21.5523 13 21H11ZM18 16.9971C18 16.4448 17.5523 15.9971 17 15.9971C16.4477 15.9971 16 16.4448 16 16.9971H18ZM21 22.0001C21.5523 22.0001 22 21.5524 22 21.0001C22 20.4478 21.5523 20.0001 21 20.0001V22.0001ZM17.9292 9.00062L16.9393 9.14213C17.0106 9.64127 17.4424 10.0092 17.9465 10.0005L17.9292 9.00062ZM4.01579 9.52604L4.51257 10.3939C4.80316 10.2276 4.99123 9.92684 5.01357 9.59275L4.01579 9.52604ZM6 16.999C6 18.6562 4.65649 20.0001 3 20.0001L3 22.0001C5.76179 22.0001 8 19.7601 8 16.999H6ZM11 17V21H13V17H11ZM16 16.9971C16 19.7575 18.2376 22.0001 21 22.0001V20.0001C19.3441 20.0001 18 18.6549 18 16.9971H16ZM18 18C20.7614 18 23 15.7614 23 13H21C21 14.6569 19.6569 16 18 16V18ZM23 13C23 10.2386 20.7614 8 18 8V10C19.6569 10 21 11.3431 21 13H23ZM18 8C17.9704 8 17.941 8.00026 17.9119 8.00077L17.9465 10.0005C17.9645 10.0002 17.9823 10 18 10V8ZM18.9191 8.85911C18.3648 4.98092 15.0314 2 11 2V4C14.022 4 16.5237 6.23512 16.9393 9.14213L18.9191 8.85911ZM11 2C6.76336 2 3.2966 5.29269 3.01802 9.45933L5.01357 9.59275C5.22239 6.46946 7.82322 4 11 4V2ZM3.51902 8.65816C2.01624 9.51835 1 11.1399 1 13H3C3 11.886 3.60673 10.9124 4.51257 10.3939L3.51902 8.65816ZM1 13C1 15.7614 3.23858 18 6 18V16C4.34315 16 3 14.6569 3 13H1ZM18 16H6V18H18V16Z" fill="#131316"/>
</svg>
