<svg width="24" height="24" viewBox="0 0 24 24" fill="none" xmlns="http://www.w3.org/2000/svg">
<path d="M15.8153 12.6488C15.2258 10.5438 13.2932 9.00001 11 9.00001C8.94177 9.00001 7.17401 10.2436 6.40716 12.0205C6.27328 12.0069 6.13745 12 6 12C3.79086 12 2 13.7909 2 16C2 18.2091 3.79086 20 6 20H18C20.2091 20 22 18.2091 22 16C22 13.7909 20.2091 12 18 12M15.8153 12.6488C16.4433 12.2385 17.1938 12 18 12M15.8153 12.6488C15.2277 10.5506 13.3057 9.01006 11.0223 9.00006C11.2609 6.35302 13.3748 4.24676 16.0253 4.0202C16.0086 4.17783 16 4.33789 16 4.49996C16 6.98524 18.0147 8.99996 20.5 8.99996C21.0076 8.99996 21.4955 8.91592 21.9507 8.761C21.9832 9.00272 21.9999 9.2494 21.9999 9.50001C21.9999 10.853 21.5114 12.0918 20.7012 13.0498C19.9895 12.3978 19.0412 12 18 12" stroke="#131316" stroke-width="2" stroke-linecap="round" stroke-linejoin="round"/>
</svg>
