<svg width="24" height="24" viewBox="0 0 24 24" fill="none" xmlns="http://www.w3.org/2000/svg">
<path d="M13.8575 12.5145C14.1416 12.0409 13.9881 11.4267 13.5145 11.1425C13.0409 10.8584 12.4267 11.0119 12.1425 11.4855L13.8575 12.5145ZM10 17L9.14251 16.4855C8.95715 16.7944 8.95229 17.1792 9.1298 17.4927C9.30731 17.8062 9.63973 18 10 18V17ZM14 17L14.8575 17.5145C15.0429 17.2056 15.0477 16.8208 14.8702 16.5073C14.6927 16.1938 14.3603 16 14 16V17ZM10.1425 21.4855C9.85836 21.9591 10.0119 22.5733 10.4855 22.8575C10.9591 23.1416 11.5733 22.9881 11.8575 22.5145L10.1425 21.4855ZM5.75893 16.9943C6.31059 17.0205 6.77909 16.5946 6.80537 16.043C6.83165 15.4913 6.40574 15.0228 5.85408 14.9965L5.75893 16.9943ZM4.01579 8.52604L4.51257 9.39392C4.80316 9.22758 4.99123 8.92684 5.01357 8.59275L4.01579 8.52604ZM17.9292 8.00062L16.9393 8.14213C17.0106 8.64127 17.4424 9.00922 17.9465 9.00047L17.9292 8.00062ZM18.5953 14.9411C18.0538 15.0499 17.7031 15.5771 17.8119 16.1185C17.9207 16.66 18.4478 17.0107 18.9893 16.9019L18.5953 14.9411ZM12.1425 11.4855L9.14251 16.4855L10.8575 17.5145L13.8575 12.5145L12.1425 11.4855ZM10 18H14V16H10V18ZM13.1425 16.4855L10.1425 21.4855L11.8575 22.5145L14.8575 17.5145L13.1425 16.4855ZM1 12C1 14.6806 3.10903 16.8681 5.75893 16.9943L5.85408 14.9965C4.26543 14.9209 3 13.6079 3 12H1ZM3.51902 7.65816C2.01624 8.51835 1 10.1399 1 12H3C3 10.886 3.60673 9.91242 4.51257 9.39392L3.51902 7.65816ZM11 1C6.76336 1 3.2966 4.29269 3.01802 8.45933L5.01357 8.59275C5.22239 5.46946 7.82322 3 11 3V1ZM18.9191 7.85911C18.3648 3.98092 15.0314 1 11 1V3C14.022 3 16.5237 5.23512 16.9393 8.14213L18.9191 7.85911ZM18 7C17.9704 7 17.941 7.00026 17.9119 7.00077L17.9465 9.00047C17.9645 9.00016 17.9823 9 18 9V7ZM23 12C23 9.23858 20.7614 7 18 7V9C19.6569 9 21 10.3431 21 12H23ZM18.9893 16.9019C21.2768 16.4423 23 14.4235 23 12H21C21 13.4523 19.9671 14.6655 18.5953 14.9411L18.9893 16.9019Z" fill="#131316"/>
</svg>
