<svg width="24" height="24" viewBox="0 0 24 24" fill="none" xmlns="http://www.w3.org/2000/svg">
<path d="M17.9408 12.0213C17.5419 8.75111 15.1698 6.09021 12.0511 5.26537C13.0512 3.89237 14.6713 3 16.4999 3C19.5375 3 21.9999 5.46243 21.9999 8.5C21.9999 10.2126 21.2172 11.7423 19.9899 12.751C19.3921 12.3532 18.6936 12.0945 17.9408 12.0213ZM17.9408 12.0213C20.2192 12.2428 22 14.1634 22 16.5C22 18.9853 19.9853 21 17.5 21H10C5.58172 21 2 17.4183 2 13C2 8.58172 5.58172 5 10 5C14.087 5 17.4582 8.06469 17.9408 12.0213Z" stroke="#131316" stroke-width="2" stroke-linecap="round" stroke-linejoin="round"/>
</svg>
