<svg width="24" height="24" viewBox="0 0 24 24" fill="none" xmlns="http://www.w3.org/2000/svg">
<path d="M19.2039 14.7489C18.6982 14.9709 18.4681 15.5607 18.69 16.0665C18.9119 16.5722 19.5018 16.8023 20.0075 16.5804L19.2039 14.7489ZM17.9292 8.00062L16.9393 8.14213C17.0106 8.64127 17.4424 9.00922 17.9465 9.00047L17.9292 8.00062ZM4.01579 8.52604L4.51257 9.39392C4.80316 9.22758 4.99123 8.92684 5.01357 8.59275L4.01579 8.52604ZM2.5915 15.6582C2.99551 16.0347 3.62828 16.0125 4.00484 15.6085C4.3814 15.2045 4.35916 14.5717 3.95515 14.1952L2.5915 15.6582ZM8.61986 14.2917C8.7628 13.7583 8.44622 13.2099 7.91275 13.067C7.37928 12.924 6.83095 13.2406 6.688 13.7741L8.61986 14.2917ZM5.13509 19.5696C4.99215 20.1031 5.30873 20.6514 5.8422 20.7944C6.37566 20.9373 6.924 20.6207 7.06694 20.0873L5.13509 19.5696ZM13.0012 13.3951C13.1441 12.8616 12.8276 12.3133 12.2941 12.1704C11.7606 12.0274 11.2123 12.344 11.0694 12.8775L13.0012 13.3951ZM9.51644 18.673C9.3735 19.2065 9.69008 19.7548 10.2235 19.8978C10.757 20.0407 11.3053 19.7241 11.4483 19.1907L9.51644 18.673ZM16.6061 15.3963C16.749 14.8629 16.4324 14.3145 15.899 14.1716C15.3655 14.0286 14.8172 14.3452 14.6742 14.8787L16.6061 15.3963ZM13.1213 20.6742C12.9784 21.2077 13.2949 21.7561 13.8284 21.899C14.3619 22.0419 14.9102 21.7254 15.0531 21.1919L13.1213 20.6742ZM20.0075 16.5804C21.7675 15.8081 23 14.0491 23 12H21C21 13.227 20.2633 14.2841 19.2039 14.7489L20.0075 16.5804ZM23 12C23 9.23858 20.7614 7 18 7V9C19.6569 9 21 10.3431 21 12H23ZM18 7C17.9704 7 17.941 7.00026 17.9119 7.00077L17.9465 9.00047C17.9645 9.00016 17.9823 9 18 9V7ZM18.9191 7.85911C18.3648 3.98092 15.0314 1 11 1V3C14.022 3 16.5237 5.23512 16.9393 8.14213L18.9191 7.85911ZM11 1C6.76336 1 3.2966 4.29269 3.01802 8.45933L5.01357 8.59275C5.22239 5.46946 7.82322 3 11 3V1ZM3.51902 7.65816C2.01624 8.51835 1 10.1399 1 12H3C3 10.886 3.60673 9.91242 4.51257 9.39392L3.51902 7.65816ZM1 12C1 13.4443 1.61364 14.7467 2.5915 15.6582L3.95515 14.1952C3.36617 13.6462 3 12.8666 3 12H1ZM6.688 13.7741L5.13509 19.5696L7.06694 20.0873L8.61986 14.2917L6.688 13.7741ZM11.0694 12.8775L9.51644 18.673L11.4483 19.1907L13.0012 13.3951L11.0694 12.8775ZM14.6742 14.8787L13.1213 20.6742L15.0531 21.1919L16.6061 15.3963L14.6742 14.8787Z" fill="#131316"/>
</svg>
