<svg width="24" height="24" viewBox="0 0 24 24" fill="none" xmlns="http://www.w3.org/2000/svg">
<path d="M13 13C13 14.6569 10.5376 16 7.5 16C4.46243 16 2 14.6569 2 13M13 13V18M13 13V8M13 18C13 19.6569 10.5376 21 7.5 21C4.46243 21 2 19.6569 2 18V13M13 18C13 18.3496 12.8904 18.6853 12.6888 18.9973C13.0889 19 13.5243 19 14 19C16.8003 19 18.2004 19 19.27 18.455C20.2108 17.9757 20.9757 17.2108 21.455 16.27C22 15.2004 22 13.8003 22 11C22 8.19974 22 6.79961 21.455 5.73005C20.9757 4.78924 20.2108 4.02433 19.27 3.54497C18.2004 3 16.8003 3 14 3C11.1997 3 9.79962 3 8.73006 3.54497C8.04174 3.89568 7.44741 4.39925 6.99034 5.01271M13 18V8M2 13V8M13 8C13 9.65685 10.5376 11 7.5 11C4.46243 11 2 9.65685 2 8M13 8C13 6.34315 10.5376 5 7.5 5M13 8V9H22C22 8.07099 22 7.60649 21.9384 7.21783C21.5996 5.07837 19.9216 3.40042 17.7822 3.06156C17.3935 3 16.929 3 16 3H12C11.071 3 10.6065 3 10.2178 3.06156C8.89746 3.27068 7.75287 3.98983 6.99034 5.01271M2 8C2 6.34315 4.46243 5 7.5 5M7.5 5C7.32816 5 7.15816 5.0043 6.99034 5.01271M19 14H17" stroke="#131316" stroke-width="2" stroke-linecap="round" stroke-linejoin="round"/>
</svg>
