<svg width="24" height="24" viewBox="0 0 24 24" fill="none" xmlns="http://www.w3.org/2000/svg">
<path d="M15 12C15 14.2091 12.0899 16 8.5 16C4.91015 16 2 14.2091 2 12M15 12V17C15 19.2091 12.0899 21 8.5 21C4.91015 21 2 19.2091 2 17V12M15 12V7M2 12V7M15 7C15 9.20914 12.0899 11 8.5 11C4.91015 11 2 9.20914 2 7M15 7C15 4.79086 12.0899 3 8.5 3C4.91015 3 2 4.79086 2 7M15 16.9913V11.0087C15.165 11.0029 15.3318 11 15.5 11C19.0899 11 22 12.3431 22 14C22 15.6569 19.0899 17 15.5 17C15.3318 17 15.165 16.9971 15 16.9913Z" stroke="#131316" stroke-width="2" stroke-linecap="round" stroke-linejoin="round"/>
</svg>
