<svg width="24" height="24" viewBox="0 0 24 24" fill="none" xmlns="http://www.w3.org/2000/svg">
<path d="M19 2L22 2.00001M22 2.00001L22 4.99995M22 2.00001L18.5 5.49999M15 13C15 15.2091 12.0899 17 8.5 17C4.91015 17 2 15.2091 2 13M15 13V18C15 20.2091 12.0899 22 8.5 22C4.91015 22 2 20.2091 2 18V13M15 13V7.99998M2 13V7.99998M15 7.99998C15 10.2091 12.0899 12 8.5 12C4.91015 12 2 10.2091 2 7.99998M15 7.99998C15 5.79084 12.0899 3.99998 8.5 3.99998C4.91015 3.99998 2 5.79084 2 7.99998M15 17.9912V12.0087C15.165 12.0029 15.3318 12 15.5 12C19.0899 12 22 13.3431 22 15C22 16.6568 19.0899 18 15.5 18C15.3318 18 15.165 17.997 15 17.9912Z" stroke="#131316" stroke-width="2" stroke-linecap="round" stroke-linejoin="round"/>
</svg>
