<svg width="24" height="24" viewBox="0 0 24 24" fill="none" xmlns="http://www.w3.org/2000/svg">
<path d="M21.4999 5.49999L18.5 5.49998M18.5 5.49998L18.5 2.50004M18.5 5.49998L22 2M15 13C15 15.2092 12.0899 17 8.5 17C4.91015 17 2 15.2092 2 13M15 13V18C15 20.2092 12.0899 22 8.5 22C4.91015 22 2 20.2092 2 18V13M15 13V8.00001M2 13V8.00001M15 8.00001C15 10.2092 12.0899 12 8.5 12C4.91015 12 2 10.2092 2 8.00001M15 8.00001C15 5.79087 12.0899 4.00001 8.5 4.00001C4.91015 4.00001 2 5.79087 2 8.00001M15 17.9913V12.0088C15.165 12.003 15.3318 12 15.5 12C19.0899 12 22 13.3432 22 15C22 16.6569 19.0899 18 15.5 18C15.3318 18 15.165 17.9971 15 17.9913Z" stroke="#131316" stroke-width="2" stroke-linecap="round" stroke-linejoin="round"/>
</svg>
