<svg width="24" height="24" viewBox="0 0 24 24" fill="none" xmlns="http://www.w3.org/2000/svg">
<path d="M16.6787 7.32134C16.8876 8.01081 17 8.74228 17 9.5C17 13.6421 13.6421 17 9.5 17C8.74228 17 8.01081 16.8876 7.32134 16.6787M16.6787 7.32134C19.0688 8.04577 20.9542 9.9312 21.6787 12.3213C21.8876 13.0108 22 13.7423 22 14.5C22 18.6421 18.6421 22 14.5 22C13.7423 22 13.0108 21.8876 12.3213 21.6787C9.9312 20.9542 8.04577 19.0688 7.32134 16.6787M16.6787 7.32134C15.7453 4.24173 12.8844 2 9.5 2C5.35786 2 2 5.35786 2 9.5C2 12.8844 4.24173 15.7453 7.32134 16.6787M16.5003 13L18.0003 14.5M13.4996 16L14.9996 17.5" stroke="#131316" stroke-width="2" stroke-linecap="round" stroke-linejoin="round"/>
</svg>
