<svg width="24" height="24" viewBox="0 0 24 24" fill="none" xmlns="http://www.w3.org/2000/svg">
<path d="M10 17.5V6.5C10 4.567 8.433 3 6.5 3C4.567 3 3 4.567 3 6.5L3 17.5C3 19.433 4.567 21 6.5 21M10 17.5C10 19.433 8.433 21 6.5 21M10 17.5C10 17.8992 9.93318 18.2827 9.81012 18.6401M10 17.5L10 8.5507L12.4142 6.13645C13.7811 4.76962 15.9972 4.76962 17.364 6.13645C18.7308 7.50329 18.7308 9.71937 17.364 11.0862L9.81012 18.6401M6.5 21H17.5C19.433 21 21 19.433 21 17.5C21 15.567 19.433 14 17.5 14H14.4502L9.81012 18.6401M6.5 21C8.03384 21 9.33724 20.0133 9.81012 18.6401" stroke="#131316" stroke-width="2" stroke-linecap="round" stroke-linejoin="round"/>
</svg>
