<svg width="24" height="24" viewBox="0 0 24 24" fill="none" xmlns="http://www.w3.org/2000/svg">
<path d="M9 18C9 17.0681 9 16.6022 8.84776 16.2346C8.64477 15.7446 8.25542 15.3552 7.76537 15.1522C7.39782 15 6.93188 15 6 15C5.06812 15 4.60218 15 4.23463 15.1522C3.74458 15.3552 3.35523 15.7446 3.15224 16.2346C3 16.6022 3 17.0681 3 18C3 18.9319 3 19.3978 3.15224 19.7654C3.35523 20.2554 3.74458 20.6448 4.23463 20.8478C4.60218 21 5.06812 21 6 21C6.93188 21 7.39782 21 7.76537 20.8478C8.25542 20.6448 8.64477 20.2554 8.84776 19.7654C9 19.3978 9 18.9319 9 18ZM9 18V12C9 11.0681 9 10.6022 9.15224 10.2346C9.35523 9.74458 9.74458 9.35523 10.2346 9.15224C10.6022 9 11.0681 9 12 9C12.9319 9 13.3978 9 13.7654 9.15224C14.2554 9.35523 14.6448 9.74458 14.8478 10.2346C15 10.6022 15 11.0681 15 12V18M9 18C9 18.9319 9 19.3978 9.15224 19.7654C9.35523 20.2554 9.74458 20.6448 10.2346 20.8478C10.6022 21 11.0681 21 12 21C12.9319 21 13.3978 21 13.7654 20.8478C14.2554 20.6448 14.6448 20.2554 14.8478 19.7654C15 19.3978 15 18.9319 15 18M15 18V6C15 5.06812 15 4.60217 15.1522 4.23463C15.3552 3.74458 15.7446 3.35523 16.2346 3.15224C16.6022 3 17.0681 3 18 3C18.9319 3 19.3978 3 19.7654 3.15224C20.2554 3.35523 20.6448 3.74458 20.8478 4.23463C21 4.60217 21 5.06812 21 6V18C21 18.9319 21 19.3978 20.8478 19.7654C20.6448 20.2554 20.2554 20.6448 19.7654 20.8478C19.3978 21 18.9319 21 18 21C17.0681 21 16.6022 21 16.2346 20.8478C15.7446 20.6448 15.3552 20.2554 15.1522 19.7654C15 19.3978 15 18.9319 15 18Z" stroke="#131316" stroke-width="2" stroke-linecap="round" stroke-linejoin="round"/>
</svg>
