<svg width="24" height="24" viewBox="0 0 24 24" fill="none" xmlns="http://www.w3.org/2000/svg">
<path d="M2 17L2 19C2 20.1046 2.89543 21 4 21C5.10457 21 6 20.1046 6 19V17C6 15.8954 5.10457 15 4 15C2.89543 15 2 15.8954 2 17Z" stroke="#131316" stroke-width="2" stroke-linecap="round" stroke-linejoin="round"/>
<path d="M10 11V19C10 20.1046 10.8954 21 12 21C13.1046 21 14 20.1046 14 19V11C14 9.89543 13.1046 9 12 9C10.8954 9 10 9.89543 10 11Z" stroke="#131316" stroke-width="2" stroke-linecap="round" stroke-linejoin="round"/>
<path d="M18 5V19C18 20.1046 18.8954 21 20 21C21.1046 21 22 20.1046 22 19V5C22 3.89543 21.1046 3 20 3C18.8954 3 18 3.89543 18 5Z" stroke="#131316" stroke-width="2" stroke-linecap="round" stroke-linejoin="round"/>
</svg>
