<svg width="24" height="24" viewBox="0 0 24 24" fill="none" xmlns="http://www.w3.org/2000/svg">
<path d="M10 10H14M10 10V14M10 10H8C6.9 10 6 9.1 6 8C6 6.9 6.9 6 8 6C9.1 6 10 6.9 10 8V10ZM14 10V14M14 10H16C17.1 10 18 9.1 18 8C18 6.9 17.1 6 16 6C14.9 6 14 6.9 14 8V10ZM14 14H10M14 14H16C17.1 14 18 14.9 18 16C18 17.1 17.1 18 16 18C14.9 18 14 17.1 14 16V14ZM10 14V16C10 17.1 9.1 18 8 18C6.9 18 6 17.1 6 16C6 14.9 6.9 14 8 14H10ZM14 22H10C7.19974 22 5.79961 22 4.73005 21.455C3.78924 20.9757 3.02433 20.2108 2.54497 19.27C2 18.2004 2 16.8003 2 14L2 10C2 7.19974 2 5.7996 2.54497 4.73005C3.02433 3.78924 3.78924 3.02433 4.73005 2.54497C5.79961 2 7.19974 2 10 2L14 2C16.8003 2 18.2004 2 19.27 2.54497C20.2108 3.02433 20.9757 3.78924 21.455 4.73005C22 5.7996 22 7.19974 22 10V14C22 16.8003 22 18.2004 21.455 19.27C20.9757 20.2108 20.2108 20.9757 19.27 21.455C18.2004 22 16.8003 22 14 22Z" stroke="#131316" stroke-width="2" stroke-linecap="round" stroke-linejoin="round"/>
</svg>
