<svg width="24" height="24" viewBox="0 0 24 24" fill="none" xmlns="http://www.w3.org/2000/svg">
<path d="M12.0004 12L17.544 6.45641M12.0004 12L6.45641 6.45604M12.0004 12L17.544 17.5436M12.0004 12L6.45641 17.544M17.544 6.45641C15.6971 4.60957 14.7735 3.68596 13.7234 3.30383C12.6102 2.89872 11.3898 2.89872 10.2766 3.30383C9.22653 3.68595 8.30313 4.60932 6.45641 6.45604M17.544 6.45641C17.5439 6.45635 17.544 6.45647 17.544 6.45641ZM17.544 6.45641C19.3907 8.30313 20.3141 9.22652 20.6962 10.2766C21.1013 11.3898 21.1013 12.6102 20.6962 13.7234C20.3141 14.7735 19.3907 15.6969 17.544 17.5436M6.45641 6.45604C6.45635 6.4561 6.45647 6.45598 6.45641 6.45604ZM6.45641 6.45604C4.60957 8.30288 3.68596 9.22649 3.30383 10.2766C2.89872 11.3898 2.89872 12.6102 3.30383 13.7234C3.68596 14.7735 4.60957 15.6971 6.45641 17.544M17.544 17.5436C15.6971 19.3904 14.7735 20.314 13.7234 20.6962C12.6102 21.1013 11.3898 21.1013 10.2766 20.6962C9.22652 20.3141 8.30313 19.3907 6.45641 17.544M17.544 17.5436C17.544 17.5435 17.5439 17.5437 17.544 17.5436ZM6.45641 17.544C6.45647 17.544 6.45635 17.5439 6.45641 17.544Z" stroke="#131316" stroke-width="2" stroke-linecap="round" stroke-linejoin="round"/>
</svg>
