<svg width="24" height="24" viewBox="0 0 24 24" fill="none" xmlns="http://www.w3.org/2000/svg">
<path d="M14 11H10M13.9729 22H10.0271C8.59526 22 7.87934 22 7.29685 21.7407C6.78333 21.5121 6.34437 21.1438 6.02999 20.6778C5.6734 20.1493 5.54898 19.4442 5.30015 18.0342L3 5L4.31462 5.58427C5.45948 6.0931 6.03191 6.34751 6.6035 6.37117C7.10821 6.39206 7.61002 6.28516 8.0624 6.0604C8.57473 5.80585 8.99378 5.34024 9.83189 4.40901L12 2L14.1681 4.40901C15.0062 5.34024 15.4253 5.80585 15.9376 6.0604C16.39 6.28516 16.8918 6.39206 17.3965 6.37117C17.9681 6.34751 18.5405 6.0931 19.6854 5.58427L21 5L18.6999 18.0342C18.451 19.4442 18.3266 20.1493 17.97 20.6778C17.6556 21.1438 17.2167 21.5121 16.7032 21.7407C16.1207 22 15.4047 22 13.9729 22Z" stroke="#131316" stroke-width="2" stroke-linecap="round" stroke-linejoin="round"/>
</svg>
