<svg width="24" height="24" viewBox="0 0 24 24" fill="none" xmlns="http://www.w3.org/2000/svg">
<path d="M18.5 7H5.5M18.5 7C19.8807 7 21 5.88071 21 4.5C21 3.11929 19.8807 2 18.5 2L5.5 2C4.11929 2 3 3.11929 3 4.5C3 5.88071 4.11929 7 5.5 7M18.5 7C19.8807 7 21 8.11929 21 9.5C21 10.8807 19.8807 12 18.5 12M5.5 7C4.11929 7 3 8.11929 3 9.5C3 10.8807 4.11929 12 5.5 12M18.5 12H5.5M18.5 12C19.8807 12 21 13.1193 21 14.5C21 15.8807 19.8807 17 18.5 17M5.5 12C4.11929 12 3 13.1193 3 14.5C3 15.8807 4.11929 17 5.5 17M18.5 17H5.5M18.5 17C19.8807 17 21 18.1193 21 19.5C21 20.8807 19.8807 22 18.5 22H5.5C4.11929 22 3 20.8807 3 19.5C3 18.1193 4.11929 17 5.5 17" stroke="#131316" stroke-width="2" stroke-linecap="round" stroke-linejoin="round"/>
</svg>
