<svg width="24" height="24" viewBox="0 0 24 24" fill="none" xmlns="http://www.w3.org/2000/svg">
<path d="M18 9H6M18 9C19.6569 9 21 7.65685 21 6C21 4.34315 19.6569 3 18 3L6 3C4.34315 3 3 4.34315 3 6C3 7.65685 4.34315 9 6 9M18 9C19.6569 9 21 10.3431 21 12C21 13.6569 19.6569 15 18 15M6 9C4.34315 9 3 10.3431 3 12C3 13.6569 4.34315 15 6 15M18 15H6M18 15C19.6569 15 21 16.3431 21 18C21 19.6569 19.6569 21 18 21H6C4.34315 21 3 19.6569 3 18C3 16.3431 4.34315 15 6 15" stroke="#131316" stroke-width="2" stroke-linecap="round" stroke-linejoin="round"/>
</svg>
