<svg width="24" height="24" viewBox="0 0 24 24" fill="none" xmlns="http://www.w3.org/2000/svg">
<path d="M5 3L7 3M2 7L7 7M7.5 16C6.11929 16 5 17.1193 5 18.5C5 19.8807 6.11929 21 7.5 21C8.88071 21 10 19.8807 10 18.5C10 17.1193 8.88071 16 7.5 16ZM7.5 16C8.70948 16 9.71836 16.8589 9.94999 18H15M7.5 16C6.29957 16 5.29675 16.8461 5.05534 17.9744C4.43768 17.9402 4.00536 17.8602 3.63803 17.673C3.07354 17.3854 2.6146 16.9265 2.32698 16.362C2 15.7202 2 14.8802 2 13.2V11M17.5 16C16.1193 16 15 17.1193 15 18.5C15 19.8807 16.1193 21 17.5 21C18.8807 21 20 19.8807 20 18.5C20 17.1193 18.8807 16 17.5 16ZM17.5 16C18.7038 16 19.7088 16.8508 19.9467 17.9838C20.3672 17.9615 20.6598 17.9084 20.908 17.782C21.2843 17.5903 21.5903 17.2843 21.782 16.908C22 16.4802 22 15.9201 22 14.8V11.3255C22 10.8363 22 10.5917 21.9447 10.3615C21.8957 10.1575 21.8149 9.96237 21.7053 9.78343C21.5816 9.5816 21.4086 9.40864 21.0627 9.06274L19.8284 7.82843C19.5898 7.58982 19.4705 7.47051 19.3381 7.37543C19.0878 7.19574 18.7995 7.07629 18.4955 7.0264C18.3346 7 18.1659 7 17.8284 7C17.0573 7 16.6718 7 16.3608 7.1049C15.769 7.3045 15.3045 7.76904 15.1049 8.36077C15 8.67178 15 9.05733 15 9.82843V18M17.5 16C16.2905 16 15.2816 16.8589 15.05 18H15M15 18L15 7.8C15 6.11984 15 5.27976 14.673 4.63803C14.3854 4.07354 13.9265 3.6146 13.362 3.32698C12.8313 3.05658 12.1649 3.00979 11 3.00169" stroke="#131316" stroke-width="2" stroke-linecap="round" stroke-linejoin="round"/>
</svg>
