<svg width="24" height="24" viewBox="0 0 24 24" fill="none" xmlns="http://www.w3.org/2000/svg">
<path d="M2 17L7 17M5 21H7M2 13.0017V9.77161C2 8.92339 2.21499 8.10461 2.60754 7.38281C2.88713 7.41386 3.16412 7.48444 3.43008 7.59526L12.1538 11.2302C13.2718 11.696 14 12.7883 14 13.9994V20.3367C14 20.6998 13.9343 21.054 13.8111 21.3845C13.0708 21.4248 12.3205 21.3006 11.6165 21.0073L11 20.7504M21.1033 7.47633C20.9491 7.62797 20.7774 7.76405 20.5898 7.88125L15.3136 11.1789C14.4895 11.694 13.4669 11.7779 12.5698 11.4041L3.846 7.76923C3.44392 7.6017 3.09226 7.35313 2.80676 7.04714C3.19824 6.4444 3.72091 5.92395 4.34976 5.53092L7.81015 3.36818C9.18371 2.5097 10.888 2.36979 12.3832 2.99278L18.9228 5.71762C19.8221 6.09233 20.5701 6.71028 21.1033 7.47633ZM21.1723 7.57812C21.7011 8.37889 22 9.33182 22 10.3335V14.2289C22 15.9529 21.1119 17.5552 19.65 18.4689L16.1896 20.6317C15.6088 20.9947 14.9688 21.2292 14.3106 21.3319C14.1102 20.9267 14 20.4736 14 20.0026V13.6653C14 12.6309 14.5329 11.6695 15.41 11.1213L20.6862 7.82367C20.8419 7.72638 21.0046 7.64447 21.1723 7.57812Z" stroke="#131316" stroke-width="2" stroke-linecap="round" stroke-linejoin="round"/>
</svg>
