<svg width="24" height="24" viewBox="0 0 24 24" fill="none" xmlns="http://www.w3.org/2000/svg">
<path d="M10.4579 18.8602C8.71907 19.5924 7.84965 19.9585 7.32703 19.993C5.36243 20.1228 3.77002 18.4231 4.02737 16.4709C4.09583 15.9516 4.51771 15.1078 5.36146 13.4202L7.53396 9.07495C8.9714 6.1999 9.69012 4.76238 10.6627 4.30108C11.509 3.89964 12.491 3.89964 13.3373 4.30108C14.3099 4.76238 15.0286 6.1999 16.466 9.07495L18.6385 13.4202C19.4823 15.1078 19.9042 15.9516 19.9726 16.4709C20.23 18.4231 18.6376 20.1228 16.673 19.993C16.1504 19.9585 15.2809 19.5924 13.5421 18.8602C13.2168 18.7233 13.0542 18.6548 12.8911 18.6062C12.3097 18.4329 11.6903 18.4329 11.1089 18.6062C10.9458 18.6548 10.7832 18.7233 10.4579 18.8602Z" stroke="#131316" stroke-width="2" stroke-linecap="round" stroke-linejoin="round"/>
</svg>
