<svg width="24" height="24" viewBox="0 0 24 24" fill="none" xmlns="http://www.w3.org/2000/svg">
<path d="M18.8602 10.4579C19.5924 8.71907 19.9585 7.84965 19.993 7.32703C20.1228 5.36243 18.4231 3.77002 16.4709 4.02737C15.9516 4.09583 15.1078 4.51771 13.4202 5.36146L9.07495 7.53397C6.1999 8.9714 4.76238 9.69012 4.30108 10.6627C3.89964 11.509 3.89964 12.491 4.30108 13.3373C4.76238 14.3099 6.1999 15.0286 9.07495 16.466L13.4202 18.6385C15.1078 19.4823 15.9516 19.9042 16.4709 19.9726C18.4231 20.23 20.1228 18.6376 19.993 16.673C19.9585 16.1504 19.5924 15.2809 18.8602 13.5421C18.7233 13.2168 18.6548 13.0542 18.6062 12.8911C18.4329 12.3097 18.4329 11.6903 18.6062 11.1089C18.6548 10.9458 18.7233 10.7832 18.8602 10.4579Z" stroke="#131316" stroke-width="2" stroke-linecap="round" stroke-linejoin="round"/>
</svg>
