<svg width="24" height="24" viewBox="0 0 24 24" fill="none" xmlns="http://www.w3.org/2000/svg">
<path d="M4 22L4 2M20 22L20 2M9 17V7C9 6.06812 9 5.60218 9.15224 5.23464C9.35523 4.74458 9.74458 4.35523 10.2346 4.15224C10.6022 4 11.0681 4 12 4C12.9319 4 13.3978 4 13.7654 4.15224C14.2554 4.35523 14.6448 4.74458 14.8478 5.23464C15 5.60218 15 6.06812 15 7V17C15 17.9319 15 18.3978 14.8478 18.7654C14.6448 19.2554 14.2554 19.6448 13.7654 19.8478C13.3978 20 12.9319 20 12 20C11.0681 20 10.6022 20 10.2346 19.8478C9.74458 19.6448 9.35523 19.2554 9.15224 18.7654C9 18.3978 9 17.9319 9 17Z" stroke="#131316" stroke-width="2" stroke-linecap="round" stroke-linejoin="round"/>
</svg>
