<svg width="24" height="24" viewBox="0 0 24 24" fill="none" xmlns="http://www.w3.org/2000/svg">
<path d="M2 10C2 10 2.12132 9.15076 5.63604 5.63604C9.15076 2.12132 14.8492 2.12132 18.364 5.63604C19.0747 6.34677 19.6417 7.14679 20.065 8M2 10V7M2 10H5M22 14C22 14 21.8787 14.8492 18.364 18.364C14.8492 21.8787 9.15076 21.8787 5.63604 18.364C4.92531 17.6532 4.3583 16.8532 3.93501 16M22 14V17M22 14H19M12 8.53846H12.8333C13.5031 8.53846 14.0806 8.92138 14.3455 9.47367M12 8.53846H11.2857C10.2995 8.53846 9.5 9.31335 9.5 10.2692C9.5 11.2251 10.2995 12 11.2857 12H12.7143C13.7005 12 14.5 12.7749 14.5 13.7308C14.5 14.6866 13.7005 15.4615 12.7143 15.4615H12M12 8.53846V7.5M12 15.4615H11.1667C10.4682 15.4615 9.87016 15.0452 9.62225 14.4545M12 15.4615V16.5" stroke="#131316" stroke-width="2" stroke-linecap="round" stroke-linejoin="round"/>
</svg>
