<svg width="24" height="24" viewBox="0 0 24 24" fill="none" xmlns="http://www.w3.org/2000/svg">
<path d="M15.25 8.5C17.0449 8.5 18.5 7.04493 18.5 5.25C18.5 3.45507 17.0449 2 15.25 2H8.75C6.95507 2 5.5 3.45507 5.5 5.25C5.5 7.04493 6.95507 8.5 8.75 8.5M15.25 8.5C13.4551 8.5 12 9.95507 12 11.75C12 13.5449 13.4551 15 15.25 15C17.0449 15 18.5 13.5449 18.5 11.75C18.5 9.95507 17.0449 8.5 15.25 8.5ZM15.25 8.5H8.75M8.75 8.5C6.95507 8.5 5.5 9.95507 5.5 11.75C5.5 13.5449 6.95507 15 8.75 15M8.75 15H12M8.75 15C6.95507 15 5.5 16.4551 5.5 18.25C5.5 20.0449 6.95507 21.5 8.75 21.5C10.5449 21.5 12 20.0449 12 18.25V15M12 15L12 3" stroke="#131316" stroke-width="2" stroke-linecap="round" stroke-linejoin="round"/>
</svg>
