<svg width="24" height="24" viewBox="0 0 24 24" fill="none" xmlns="http://www.w3.org/2000/svg">
<path d="M8 15L4 15L3.00111 15M16 15L20 15L20.9989 15M8 9L4 9L3.00111 9M8 12L16 12M16 9L20 9L20.9989 9M3.00111 15C3 14.6877 3 14.3551 3 14L3 10C3 9.64487 3 9.31227 3.00111 9M3.00111 15C3.00876 17.1501 3.06911 18.336 3.54497 19.27C4.02433 20.2108 4.78924 20.9757 5.73005 21.455C6.32382 21.7576 7.01947 21.8922 8 21.952M3.00111 9C3.00876 6.84993 3.06911 5.66397 3.54496 4.73005C4.02433 3.78924 4.78924 3.02433 5.73005 2.54497C6.32382 2.24243 7.01947 2.10784 8 2.04797M20.9989 9C21 9.31227 21 9.64487 21 10L21 14C21 14.3551 21 14.6877 20.9989 15M20.9989 9C20.9912 6.84993 20.9309 5.66397 20.455 4.73005C19.9757 3.78924 19.2108 3.02433 18.27 2.54497C17.6762 2.24243 16.9805 2.10784 16 2.04797M20.9989 15C20.9912 17.1501 20.9309 18.336 20.455 19.27C19.9757 20.2108 19.2108 20.9757 18.27 21.455C17.6762 21.7576 16.9805 21.8922 16 21.952M16 2.04797C15.2143 2 14.2457 2 13 2L11 2C9.75431 2 8.7857 2 8 2.04797M16 2.04797L16 3L16 21L16 21.952M8 2.04797L8 3L8 21L8 21.952M8 21.952C8.7857 22 9.75432 22 11 22L13 22C14.2457 22 15.2143 22 16 21.952" stroke="#131316" stroke-width="2" stroke-linecap="round" stroke-linejoin="round"/>
</svg>
