<svg width="24" height="24" viewBox="0 0 24 24" fill="none" xmlns="http://www.w3.org/2000/svg">
<path d="M17.2952 10H8.57404C7.24639 10 6.58257 10 6.02867 10.2308C5.5399 10.4345 5.11375 10.7639 4.7935 11.1856C4.43058 11.6635 4.26334 12.3059 3.92886 13.5907L3.5644 14.9907C3.03178 17.0367 2.76546 18.0596 3.00881 18.8664M17.2952 10C19.2564 10 20.237 10 20.9324 10.4007C21.5425 10.7523 22.0095 11.3074 22.2516 11.9686C22.5275 12.7223 22.3599 13.6884 22.0245 15.6208L21.7815 17.0208C21.536 18.4353 21.4133 19.1425 21.057 19.6729C20.7429 20.1404 20.3035 20.5101 19.7891 20.7397C19.2057 21 18.4878 21 17.0522 21H8.20958C6.09543 21 5.03835 21 4.31896 20.5613C3.68854 20.1768 3.22205 19.5733 3.00881 18.8664M17.2952 10C18.4715 10 19.2951 10 19.9159 10.0865C19.524 7.97313 17.8172 6.33491 15.6688 6.04493C15.3359 6 14.9392 6 14.1459 6H11.9177C10.9276 6 10.0329 5.40999 9.64286 4.5C9.25286 3.59001 8.35809 3 7.36805 3H5C3.34315 3 2 4.34315 2 6V13C2 15.8003 2 17.2004 2.54497 18.27C2.70173 18.5776 2.88902 18.8665 3.10301 19.1327C3.06758 19.0458 3.03612 18.9569 3.00881 18.8664" stroke="#131316" stroke-width="2" stroke-linecap="round" stroke-linejoin="round"/>
</svg>
