<svg width="24" height="24" viewBox="0 0 24 24" fill="none" xmlns="http://www.w3.org/2000/svg">
<path d="M14 9H8M13 15H13.2878C13.914 15 14.227 15 14.5112 15.0863C14.7628 15.1627 14.9968 15.288 15.2 15.4549C15.4294 15.6435 15.6031 15.904 15.9504 16.425L18.0504 19.575C18.3977 20.096 18.5714 20.3565 18.8008 20.5451C19.004 20.712 19.238 20.8373 19.4896 20.9137C19.7738 21 20.0868 21 20.713 21H21.0004M21.0004 15H20.7126C20.0864 15 19.7734 15 19.4892 15.0863C19.2376 15.1627 19.0036 15.288 18.8004 15.4549C18.571 15.6435 18.3973 15.904 18.05 16.425L15.95 19.575C15.6027 20.096 15.429 20.3565 15.1996 20.5451C14.9964 20.712 14.7624 20.8373 14.5108 20.9137C14.2266 21 13.9136 21 13.2874 21H13M17.0004 6V4.81645C17.0004 3.53711 15.9633 2.5 14.684 2.5C13.6799 2.5 12.7902 3.14678 12.4805 4.10181L7.51945 19.3983C7.20974 20.3533 6.32012 21 5.31622 21C4.03701 21 3 19.963 3 18.6838V17" stroke="#131316" stroke-width="2" stroke-linecap="round" stroke-linejoin="round"/>
</svg>
