<svg width="24" height="24" viewBox="0 0 24 24" fill="none" xmlns="http://www.w3.org/2000/svg">
<path d="M7 20.3565L9.12837 22.4853M9.12837 22.4853L11.2572 20.3567M9.12837 22.4853V17M20.4307 5.65656L19.6519 2.74878M19.6519 2.74878L16.744 3.52785M19.6519 2.74878L17.2765 7.00001M12 16.0004C13.2144 15.0882 14 13.6358 14 12C14 10.3644 13.2147 8.91224 12.0005 8.00001M12 16.0004C11.1643 16.6281 10.1256 17 9 17C6.23858 17 4 14.7614 4 12C4 9.58106 5.71776 7.5633 8 7.10003M12 16.0004C10.7856 15.0882 10 13.6358 10 12C10 10.3641 10.786 8.91221 12.0005 8.00001M16 16.9C18.2822 16.4367 20 14.419 20 12C20 9.23859 17.7614 7.00001 15 7.00001C13.8745 7.00001 12.8361 7.37239 12.0005 8.00001" stroke="#131316" stroke-width="2" stroke-linecap="round" stroke-linejoin="round"/>
</svg>
