<svg width="24" height="24" viewBox="0 0 24 24" fill="none" xmlns="http://www.w3.org/2000/svg">
<path d="M12 3C14.1045 3 16.0403 3.72233 17.573 4.9326L14.5664 7.70798C13.8161 7.25843 12.9382 7 12 7C9.23858 7 7 9.23858 7 12C7 14.7614 9.23858 17 12 17C13.6358 17 15.0882 16.2144 16.0004 15H12V11H20.9451C20.9814 11.3283 21 11.662 21 12C21 13.0519 20.8195 14.0617 20.4879 15C19.2524 18.4956 15.9187 21 12 21C7.02944 21 3 16.9706 3 12C3 7.02944 7.02944 3 12 3Z" stroke="#131316" stroke-width="2" stroke-linecap="round" stroke-linejoin="round"/>
</svg>
