<svg width="24" height="24" viewBox="0 0 24 24" fill="none" xmlns="http://www.w3.org/2000/svg">
<path d="M17 11L21 12.5M20 7C20 4.23858 17.7614 2 15 2H12C9.19974 2 7.79961 2 6.73005 2.54497C5.78924 3.02433 5.02433 3.78924 4.54497 4.73005C4 5.79961 4 7.19974 4 10V14C4 16.8003 4 18.2004 4.54497 19.27C5.02433 20.2108 5.78924 20.9757 6.73005 21.455C7.79961 22 9.19974 22 12 22H14C14.929 22 15.3935 22 15.7822 21.9384C17.9216 21.5996 19.5996 19.9216 19.9384 17.7822C20 17.3935 20 16.929 20 16M8 17H13M8 13V13.0099M8 9V9.00995M17 10C17 11.6569 15.6569 13 14 13C12.3431 13 11 11.6569 11 10C11 8.34315 12.3431 7 14 7C15.6569 7 17 8.34315 17 10Z" stroke="#131316" stroke-width="2" stroke-linecap="round" stroke-linejoin="round"/>
</svg>
