<svg width="24" height="24" viewBox="0 0 24 24" fill="none" xmlns="http://www.w3.org/2000/svg">
<path d="M15 3.99999L20 3.99999M11 2.0011C8.84993 2.00875 7.66397 2.0691 6.73005 2.54495C5.78924 3.02432 5.02433 3.78922 4.54497 4.73003C4 5.79959 4 7.19972 4 9.99999V14C4 16.8002 4 18.2004 4.54497 19.2699C5.02433 20.2107 5.78924 20.9757 6.73005 21.455C7.79961 22 9.19974 22 12 22M12 22C14.8003 22 16.2004 22 17.27 21.455C18.2108 20.9757 18.9757 20.2107 19.455 19.2699M12 22C9.71704 22 8.36472 21.9997 7.36342 21.7044C7.17649 21.2114 7.18051 20.64 7.44734 20.1063L9.21127 16.5784C9.94832 15.1043 12.0519 15.1043 12.789 16.5784L13 17.0005L15.2112 12.578C15.9483 11.1039 18.0519 11.1039 18.789 12.578L19.9989 14.9979C19.9913 17.1491 19.931 18.3358 19.455 19.2699M19.455 19.2699C20 18.2004 20 16.8002 20 14V9.99999C20 9.23269 20 8.57051 19.9888 7.99146M8 7.99999V8.00993" stroke="#131316" stroke-width="2" stroke-linecap="round" stroke-linejoin="round"/>
</svg>
