<svg width="24" height="24" viewBox="0 0 24 24" fill="none" xmlns="http://www.w3.org/2000/svg">
<path d="M18.5 3V8M16 5.5L21 5.5M11 21H13C15.8003 21 17.2004 21 18.27 20.455C19.2108 19.9757 19.9757 19.2108 20.455 18.27M11 21C8.19974 21 6.79961 21 5.73005 20.455C4.78924 19.9757 4.02433 19.2108 3.54497 18.27C3 17.2004 3 15.8003 3 13V11C3 8.19974 3 6.79961 3.54497 5.73005C4.02433 4.78924 4.78924 4.02433 5.73005 3.54497C6.79961 3 8.19974 3 11 3H12M11 21C9.3177 21 8.14073 21.0002 7.23718 20.8821C7.25282 20.6234 7.32028 20.3607 7.44734 20.1065L9.21127 16.5787C9.94832 15.1046 12.0519 15.1046 12.789 16.5787L13 17.0007L15.2112 12.5782C15.3813 12.2381 15.6242 11.9764 15.9062 11.7932C16.4303 11.9927 17.0985 11.9997 18.359 12C18.5282 12.1575 18.6749 12.3502 18.789 12.5782L20.8817 16.7638C20.8032 17.3639 20.6725 17.8431 20.455 18.27M21 12V13C21 15.8003 21 17.2004 20.455 18.27M8 8V8.00995" stroke="#131316" stroke-width="2" stroke-linecap="round" stroke-linejoin="round"/>
</svg>
