<svg width="24" height="24" viewBox="0 0 24 24" fill="none" xmlns="http://www.w3.org/2000/svg">
<path d="M19.5 4V9M17 6.5L22 6.5M10 20H14C16.8003 20 18.2004 20 19.27 19.455M10 20C7.19974 20 5.7996 20 4.73005 19.455C3.78924 18.9757 3.02433 18.2108 2.54497 17.27C2 16.2004 2 14.8003 2 12C2 9.19974 2 7.79961 2.54497 6.73005C3.02433 5.78924 3.78924 5.02433 4.73005 4.54497C5.7996 4 7.19974 4 10 4H13M10 20C9.01232 20 8.19882 20 7.51257 19.9761L9.21127 16.5787C9.94832 15.1046 12.0519 15.1046 12.789 16.5787L13 17.0007L15.2112 12.5782C15.3405 12.3196 15.5119 12.1064 15.7105 11.9385C16.0165 12.2998 16.4065 12.5871 16.8519 12.7716C17.3332 12.971 17.9268 12.9962 18.9996 12.9994L21.2867 17.5737C20.8053 18.3755 20.1073 19.0284 19.27 19.455M21.9989 13C21.9912 15.1501 21.9309 16.336 21.455 17.27C20.9757 18.2108 20.2108 18.9757 19.27 19.455M7 10V10.0099" stroke="#131316" stroke-width="2" stroke-linecap="round" stroke-linejoin="round"/>
</svg>
