<svg width="24" height="24" viewBox="0 0 24 24" fill="none" xmlns="http://www.w3.org/2000/svg">
<path d="M7 9V9.00995M10 20H14C16.8003 20 18.2004 20 19.27 19.455C20.2108 18.9757 20.9757 18.2108 21.455 17.27M10 20C7.19974 20 5.79961 20 4.73005 19.455C3.78924 18.9757 3.02433 18.2108 2.54497 17.27C2 16.2004 2 14.8003 2 12C2 9.19974 2 7.79961 2.54497 6.73005C3.02433 5.78924 3.78924 5.02433 4.73005 4.54497C5.79961 4 7.19974 4 10 4L14 4C16.8003 4 18.2004 4 19.27 4.54497C20.2108 5.02433 20.9757 5.78924 21.455 6.73005C22 7.79961 22 9.19974 22 12C22 14.8003 22 16.2004 21.455 17.27M10 20C8.87516 20 7.97627 19.9998 7.23395 19.9644C7.23911 19.6792 7.30674 19.3875 7.44735 19.1063L9.21128 15.5785C9.94833 14.1044 12.0519 14.1044 12.789 15.5785L13 16.0005L15.2113 11.578C15.9483 10.1039 18.0519 10.1039 18.789 11.578L21.5424 17.0849C21.515 17.1477 21.4859 17.2095 21.455 17.27" stroke="#131316" stroke-width="2" stroke-linecap="round" stroke-linejoin="round"/>
</svg>
