<svg width="24" height="24" viewBox="0 0 24 24" fill="none" xmlns="http://www.w3.org/2000/svg">
<path d="M15.2919 21V20V21ZM8.70813 21V22V21ZM11.4163 3V4V3ZM12.5837 3V2V3ZM2.47979 11.8005L3.40826 12.1719L3.40826 12.1719L2.47979 11.8005ZM3.98845 8.02888L3.05997 7.65748L3.05997 7.65749L3.98845 8.02888ZM20.0116 8.02888L19.0831 8.40027V8.40027L20.0116 8.02888ZM21.5202 11.8005L20.5917 12.1719L21.5202 11.8005ZM21.7532 12.4114L20.8026 12.7217V12.7217L21.7532 12.4114ZM22 14.2919H23H22ZM21.9894 13.6382L20.9916 13.7031L21.9894 13.6382ZM2.01056 13.6382L3.00845 13.7031L3.00845 13.7031L2.01056 13.6382ZM2.24681 12.4114L3.19745 12.7217L3.19745 12.7217L2.24681 12.4114ZM16.3626 3.3154L16.7121 2.37849V2.37849L16.3626 3.3154ZM18.3153 4.63746L17.5752 5.30997L17.5752 5.30997L18.3153 4.63746ZM7.63743 3.3154L7.28789 2.37849L7.28788 2.37849L7.63743 3.3154ZM5.68472 4.63746L6.42481 5.30997L6.42481 5.30996L5.68472 4.63746ZM5.67447 20.8211L5.40937 21.7853H5.40937L5.67447 20.8211ZM2.1789 17.3255L1.21468 17.5906L1.21468 17.5906L2.1789 17.3255ZM18.3255 20.8211L18.0604 19.8569L18.3255 20.8211ZM21.8211 17.3255L20.8569 17.0604L21.8211 17.3255ZM2.05282 13.2381L1.57855 12.3577C1.30024 12.5076 1.10921 12.7803 1.06338 13.0931L2.05282 13.2381ZM8.45585 14.3675L9.40453 14.0513L9.40453 14.0513L8.45585 14.3675ZM8.54415 14.6325L7.59547 14.9487L7.59547 14.9487L8.54415 14.6325ZM15.4558 14.6325L14.5072 14.3162L14.5072 14.3162L15.4558 14.6325ZM15.5442 14.3675L16.4928 14.6838L16.4928 14.6838L15.5442 14.3675ZM21.9472 13.2381L22.9366 13.0931C22.8908 12.7803 22.6998 12.5076 22.4215 12.3577L21.9472 13.2381ZM15.2919 20H8.70813V22H15.2919V20ZM11.4163 4H12.5837V2H11.4163V4ZM3.40826 12.1719L4.91693 8.40027L3.05997 7.65749L1.55131 11.4291L3.40826 12.1719ZM19.0831 8.40027L20.5917 12.1719L22.4487 11.4291L20.94 7.65748L19.0831 8.40027ZM20.5917 12.1719C20.718 12.4876 20.7645 12.6051 20.8026 12.7217L22.7038 12.1011C22.641 11.9086 22.5658 11.7219 22.4487 11.4291L20.5917 12.1719ZM23 14.2919C23 13.9765 23.0005 13.7753 22.9873 13.5732L20.9916 13.7031C20.9995 13.8255 21 13.9519 21 14.2919H23ZM20.8026 12.7217C20.9063 13.0397 20.9698 13.3694 20.9916 13.7031L22.9873 13.5732C22.9547 13.0726 22.8595 12.578 22.7038 12.1011L20.8026 12.7217ZM3 14.2919C3 13.9519 3.00048 13.8255 3.00845 13.7031L1.01267 13.5732C0.999519 13.7753 1 13.9765 1 14.2919H3ZM1.55131 11.4291C1.43419 11.7219 1.359 11.9086 1.29617 12.1011L3.19745 12.7217C3.2355 12.6051 3.282 12.4876 3.40826 12.1719L1.55131 11.4291ZM3.00845 13.7031C3.03017 13.3694 3.09366 13.0397 3.19745 12.7217L1.29617 12.1011C1.1405 12.578 1.04525 13.0726 1.01267 13.5732L3.00845 13.7031ZM12.5837 4C14.6192 4 15.3774 4.01518 16.013 4.25232L16.7121 2.37849C15.6569 1.98482 14.4595 2 12.5837 2V4ZM20.94 7.65749C20.2434 5.91587 19.8128 4.79846 19.0554 3.96495L17.5752 5.30997C18.0314 5.81206 18.3271 6.51039 19.0831 8.40027L20.94 7.65749ZM16.013 4.25232C16.6106 4.47528 17.1462 4.83791 17.5752 5.30997L19.0554 3.96495C18.4119 3.25686 17.6085 2.71292 16.7121 2.37849L16.013 4.25232ZM11.4163 2C9.54049 2 8.34307 1.98482 7.28789 2.37849L7.98698 4.25232C8.62261 4.01518 9.3808 4 11.4163 4V2ZM4.91693 8.40027C5.67287 6.51041 5.96857 5.81205 6.42481 5.30997L4.94463 3.96495C4.18723 4.79845 3.75661 5.9159 3.05997 7.65748L4.91693 8.40027ZM7.28788 2.37849C6.39149 2.71292 5.58806 3.25686 4.94463 3.96495L6.42481 5.30996C6.85376 4.83791 7.38938 4.47528 7.98698 4.25232L7.28788 2.37849ZM8.70813 20C7.05345 20 6.42733 19.991 5.93958 19.8569L5.40937 21.7853C6.223 22.009 7.18553 22 8.70813 22V20ZM1 14.2919C1 15.8145 0.990981 16.777 1.21468 17.5906L3.14312 17.0604C3.00902 16.5727 3 15.9466 3 14.2919H1ZM5.93958 19.8569C4.57959 19.483 3.51704 18.4204 3.14312 17.0604L1.21468 17.5906C1.77556 19.6306 3.36938 21.2244 5.40937 21.7853L5.93958 19.8569ZM15.2919 22C16.8145 22 17.777 22.009 18.5906 21.7853L18.0604 19.8569C17.5727 19.991 16.9466 20 15.2919 20V22ZM21 14.2919C21 15.9466 20.991 16.5727 20.8569 17.0604L22.7853 17.5906C23.009 16.777 23 15.8145 23 14.2919H21ZM18.5906 21.7853C20.6306 21.2244 22.2244 19.6306 22.7853 17.5906L20.8569 17.0604C20.483 18.4204 19.4204 19.483 18.0604 19.8569L18.5906 21.7853ZM1.06338 13.0931C1.04006 13.2523 1.02313 13.4124 1.01267 13.5732L3.00845 13.7031C3.01542 13.5959 3.02671 13.4891 3.04225 13.383L1.06338 13.0931ZM2.52709 14.1184C2.66688 14.0431 2.82691 14 3 14V12C2.48771 12 2.00263 12.1292 1.57855 12.3577L2.52709 14.1184ZM3 14H6.55848V12H3V14ZM6.55848 14C6.98891 14 7.37105 14.2754 7.50716 14.6838L9.40453 14.0513C8.99619 12.8263 7.84977 12 6.55848 12V14ZM7.50716 14.6838L7.59547 14.9487L9.49284 14.3162L9.40453 14.0513L7.50716 14.6838ZM7.59547 14.9487C8.00381 16.1737 9.15023 17 10.4415 17V15C10.0111 15 9.62895 14.7246 9.49284 14.3162L7.59547 14.9487ZM10.4415 17H13.5585V15H10.4415V17ZM13.5585 17C14.8498 17 15.9962 16.1737 16.4045 14.9487L14.5072 14.3162C14.3711 14.7246 13.9889 15 13.5585 15V17ZM16.4045 14.9487L16.4928 14.6838L14.5955 14.0513L14.5072 14.3162L16.4045 14.9487ZM16.4928 14.6838C16.6289 14.2754 17.0111 14 17.4415 14V12C16.1502 12 15.0038 12.8263 14.5955 14.0513L16.4928 14.6838ZM17.4415 14H21V12H17.4415V14ZM21 14C21.1731 14 21.3331 14.0431 21.4729 14.1185L22.4215 12.3577C21.9974 12.1292 21.5123 12 21 12V14ZM22.9873 13.5732C22.9769 13.4124 22.9599 13.2523 22.9366 13.0931L20.9577 13.383C20.9733 13.4891 20.9846 13.5959 20.9916 13.7031L22.9873 13.5732Z" fill="#131316"/>
</svg>
