<svg width="24" height="24" viewBox="0 0 24 24" fill="none" xmlns="http://www.w3.org/2000/svg">
<path d="M12.3414 3H10C7.19974 3 5.79961 3 4.73005 3.54497C3.78924 4.02433 3.02433 4.78924 2.54497 5.73005C2 6.79961 2 8.19974 2 11V13C2 15.8003 2 17.2004 2.54497 18.27M2.54497 18.27C3.02433 19.2108 3.78924 19.9757 4.73005 20.455C5.79961 21 7.19974 21 10 21H14C16.8003 21 18.2004 21 19.27 20.455C20.2108 19.9757 20.9757 19.2108 21.455 18.27M2.54497 18.27C2.01764 17.235 2.00057 15.8906 2.00002 13.2676C2.29419 13.0974 2.63572 13 3 13H6.55848C7.41934 13 8.18362 13.5509 8.45585 14.3675L8.54415 14.6325C8.81638 15.4491 9.58066 16 10.4415 16H13.5585C14.4193 16 15.1836 15.4491 15.4558 14.6325L15.5442 14.3675C15.8164 13.5509 16.5807 13 17.4415 13H21C21.3643 13 21.7058 13.0974 22 13.2676C21.9994 15.8906 21.9824 17.235 21.455 18.27M21.455 18.27C22 17.2004 22 15.8003 22 13V11C22 10.4387 22 9.93357 21.9956 9.47614M20 5C20 6.10457 19.1046 7 18 7C16.8954 7 16 6.10457 16 5C16 3.89543 16.8954 3 18 3C19.1046 3 20 3.89543 20 5Z" stroke="#131316" stroke-width="2" stroke-linecap="round" stroke-linejoin="round"/>
</svg>
