<svg width="24" height="24" viewBox="0 0 24 24" fill="none" xmlns="http://www.w3.org/2000/svg">
<path d="M16.7071 5.29299C16.3166 4.90246 15.6834 4.90246 15.2929 5.29299C14.9024 5.68351 14.9024 6.31668 15.2929 6.7072L16.7071 5.29299ZM19 9.00009L18.2929 9.7072C18.6834 10.0977 19.3166 10.0977 19.7071 9.7072L19 9.00009ZM22.7071 6.7072C23.0976 6.31668 23.0976 5.68351 22.7071 5.29299C22.3166 4.90246 21.6834 4.90246 21.2929 5.29299L22.7071 6.7072ZM20 3C20 2.44772 19.5523 2 19 2C18.4477 2 18 2.44772 18 3H20ZM12 4C12.5523 4 13 3.55228 13 3C13 2.44772 12.5523 2 12 2V4ZM7.63743 3.3154L7.28789 2.37849L7.28788 2.37849L7.63743 3.3154ZM5.68472 4.63746L6.42481 5.30997L6.42481 5.30996L5.68472 4.63746ZM3.98846 8.02884L3.05998 7.65745L3.05998 7.65745L3.98846 8.02884ZM2.47979 11.8005L3.40826 12.1719L3.40826 12.1719L2.47979 11.8005ZM2.24681 12.4114L3.19745 12.7217L3.19745 12.7217L2.24681 12.4114ZM2.01056 13.6382L3.00845 13.7031L3.00845 13.7031L2.01056 13.6382ZM2.1789 17.3255L1.21468 17.5906L1.21468 17.5906L2.1789 17.3255ZM5.67447 20.8211L5.40937 21.7853H5.40937L5.67447 20.8211ZM18.3255 20.8211L18.5906 21.7853H18.5906L18.3255 20.8211ZM21.8211 17.3255L22.7853 17.5906V17.5906L21.8211 17.3255ZM21.9894 13.6382L20.9916 13.7031V13.7031L21.9894 13.6382ZM21.7532 12.4114L20.8025 12.7217L20.8026 12.7217L21.7532 12.4114ZM21.5202 11.8005L22.4487 11.4291V11.4291L21.5202 11.8005ZM22.3559 11.1971C22.1508 10.6844 21.5688 10.4349 21.056 10.6401C20.5432 10.8452 20.2938 11.4271 20.4989 11.9399L22.3559 11.1971ZM2.05282 13.2381L1.57855 12.3577C1.30024 12.5076 1.10921 12.7803 1.06338 13.0931L2.05282 13.2381ZM8.45585 14.3675L9.40453 14.0513L9.40453 14.0513L8.45585 14.3675ZM8.54415 14.6325L7.59547 14.9487L7.59547 14.9487L8.54415 14.6325ZM15.4558 14.6325L14.5072 14.3162L14.5072 14.3162L15.4558 14.6325ZM15.5442 14.3675L16.4928 14.6838L16.4928 14.6838L15.5442 14.3675ZM21.9472 13.2381L22.9366 13.0931C22.8908 12.7803 22.6998 12.5076 22.4215 12.3577L21.9472 13.2381ZM15.2929 6.7072L18.2929 9.7072L19.7071 8.29299L16.7071 5.29299L15.2929 6.7072ZM19.7071 9.7072L22.7071 6.7072L21.2929 5.29299L18.2929 8.29299L19.7071 9.7072ZM18 3V9.00009H20V3H18ZM12 2H11.4163V4H12V2ZM11.4163 2C9.54049 2 8.34307 1.98482 7.28789 2.37849L7.98698 4.25232C8.62261 4.01518 9.3808 4 11.4163 4V2ZM7.28788 2.37849C6.39149 2.71292 5.58806 3.25686 4.94463 3.96495L6.42481 5.30996C6.85376 4.83791 7.38938 4.47528 7.98698 4.25232L7.28788 2.37849ZM4.94463 3.96495C4.18723 4.79845 3.75662 5.91586 3.05998 7.65745L4.91694 8.40023C5.67288 6.51038 5.96857 5.81205 6.42481 5.30997L4.94463 3.96495ZM3.05998 7.65745L1.55131 11.4291L3.40826 12.1719L4.91694 8.40023L3.05998 7.65745ZM1.55131 11.4291C1.43419 11.7219 1.359 11.9086 1.29617 12.1011L3.19745 12.7217C3.2355 12.6051 3.282 12.4876 3.40826 12.1719L1.55131 11.4291ZM1.29617 12.1011C1.1405 12.578 1.04525 13.0726 1.01267 13.5732L3.00845 13.7031C3.03017 13.3694 3.09366 13.0397 3.19745 12.7217L1.29617 12.1011ZM1.01267 13.5732C0.999519 13.7753 1 13.9765 1 14.2919H3C3 13.9519 3.00048 13.8255 3.00845 13.7031L1.01267 13.5732ZM1 14.2919C1 15.8145 0.990981 16.777 1.21468 17.5906L3.14312 17.0604C3.00902 16.5727 3 15.9466 3 14.2919H1ZM1.21468 17.5906C1.77556 19.6306 3.36938 21.2244 5.40937 21.7853L5.93958 19.8569C4.57959 19.483 3.51704 18.4204 3.14312 17.0604L1.21468 17.5906ZM5.40937 21.7853C6.223 22.009 7.18553 22 8.70813 22V20C7.05345 20 6.42733 19.991 5.93958 19.8569L5.40937 21.7853ZM8.70813 22H15.2919V20H8.70813V22ZM15.2919 22C16.8145 22 17.777 22.009 18.5906 21.7853L18.0604 19.8569C17.5727 19.991 16.9466 20 15.2919 20V22ZM18.5906 21.7853C20.6306 21.2244 22.2244 19.6306 22.7853 17.5906L20.8569 17.0604C20.483 18.4204 19.4204 19.483 18.0604 19.8569L18.5906 21.7853ZM22.7853 17.5906C23.009 16.777 23 15.8145 23 14.2919H21C21 15.9466 20.991 16.5727 20.8569 17.0604L22.7853 17.5906ZM23 14.2919C23 13.9765 23.0005 13.7753 22.9873 13.5732L20.9916 13.7031C20.9995 13.8255 21 13.9519 21 14.2919H23ZM22.9873 13.5732C22.9547 13.0726 22.8595 12.578 22.7038 12.1011L20.8026 12.7217C20.9063 13.0397 20.9698 13.3694 20.9916 13.7031L22.9873 13.5732ZM22.7038 12.1011C22.641 11.9086 22.5658 11.7219 22.4487 11.4291L20.5917 12.1719C20.718 12.4876 20.7645 12.6051 20.8025 12.7217L22.7038 12.1011ZM22.4487 11.4291L22.3559 11.1971L20.4989 11.9399L20.5917 12.1719L22.4487 11.4291ZM1.06338 13.0931C1.04006 13.2523 1.02313 13.4124 1.01267 13.5732L3.00845 13.7031C3.01542 13.5959 3.02671 13.4891 3.04225 13.383L1.06338 13.0931ZM2.52709 14.1184C2.66688 14.0431 2.82691 14 3 14V12C2.48771 12 2.00263 12.1292 1.57855 12.3577L2.52709 14.1184ZM3 14H6.55848V12H3V14ZM6.55848 14C6.98891 14 7.37105 14.2754 7.50716 14.6838L9.40453 14.0513C8.99619 12.8263 7.84977 12 6.55848 12V14ZM7.50716 14.6838L7.59547 14.9487L9.49284 14.3162L9.40453 14.0513L7.50716 14.6838ZM7.59547 14.9487C8.00381 16.1737 9.15023 17 10.4415 17V15C10.0111 15 9.62895 14.7246 9.49284 14.3162L7.59547 14.9487ZM10.4415 17H13.5585V15H10.4415V17ZM13.5585 17C14.8498 17 15.9962 16.1737 16.4045 14.9487L14.5072 14.3162C14.3711 14.7246 13.9889 15 13.5585 15V17ZM16.4045 14.9487L16.4928 14.6838L14.5955 14.0513L14.5072 14.3162L16.4045 14.9487ZM16.4928 14.6838C16.6289 14.2754 17.0111 14 17.4415 14V12C16.1502 12 15.0038 12.8263 14.5955 14.0513L16.4928 14.6838ZM17.4415 14H21V12H17.4415V14ZM21 14C21.1731 14 21.3331 14.0431 21.4729 14.1185L22.4215 12.3577C21.9974 12.1292 21.5123 12 21 12V14ZM22.9873 13.5732C22.9769 13.4124 22.9599 13.2523 22.9366 13.0931L20.9577 13.383C20.9733 13.4891 20.9846 13.5959 20.9916 13.7031L22.9873 13.5732Z" fill="#131316"/>
</svg>
