<svg width="24" height="24" viewBox="0 0 24 24" fill="none" xmlns="http://www.w3.org/2000/svg">
<path d="M21 9.5L3 9.5M21 4.5L3 4.5M11 19.5L3 19.5M11 14.5L3 14.5M18 14C18.9319 14 19.3978 14 19.7654 14.1522C20.2554 14.3552 20.6448 14.7446 20.8478 15.2346C21 15.6022 21 16.0681 21 17C21 17.9319 21 18.3978 20.8478 18.7654C20.6448 19.2554 20.2554 19.6448 19.7654 19.8478C19.3978 20 18.9319 20 18 20C17.0681 20 16.6022 20 16.2346 19.8478C15.7446 19.6448 15.3552 19.2554 15.1522 18.7654C15 18.3978 15 17.9319 15 17C15 16.0681 15 15.6022 15.1522 15.2346C15.3552 14.7446 15.7446 14.3552 16.2346 14.1522C16.6022 14 17.0681 14 18 14Z" stroke="#131316" stroke-width="2" stroke-linecap="round" stroke-linejoin="round"/>
</svg>
