<svg width="24" height="24" viewBox="0 0 24 24" fill="none" xmlns="http://www.w3.org/2000/svg">
<path d="M21 9.5L13 9.5M21 4.5L13 4.5M21 19.5L3 19.5M21 14.5L3 14.5M6 4C6.93188 4 7.39782 4 7.76537 4.15224C8.25542 4.35523 8.64477 4.74458 8.84776 5.23463C9 5.60218 9 6.06812 9 7C9 7.93188 9 8.39782 8.84776 8.76537C8.64477 9.25542 8.25542 9.64477 7.76537 9.84776C7.39782 10 6.93188 10 6 10C5.06812 10 4.60218 10 4.23463 9.84776C3.74458 9.64477 3.35523 9.25542 3.15224 8.76537C3 8.39782 3 7.93188 3 7C3 6.06812 3 5.60218 3.15224 5.23463C3.35523 4.74458 3.74458 4.35523 4.23463 4.15224C4.60218 4 5.06812 4 6 4Z" stroke="#131316" stroke-width="2" stroke-linecap="round" stroke-linejoin="round"/>
</svg>
