<svg width="24" height="24" viewBox="0 0 24 24" fill="none" xmlns="http://www.w3.org/2000/svg">
<path d="M10.2766 3.30383C9.22649 3.68596 8.30307 4.60938 6.45622 6.45622C4.60938 8.30307 3.68596 9.22649 3.30383 10.2766C2.89872 11.3898 2.89872 12.6102 3.30383 13.7234C3.68596 14.7735 4.60938 15.6969 6.45622 17.5438C8.30307 19.3906 9.22649 20.314 10.2766 20.6962C11.3898 21.1013 12.6102 21.1013 13.7234 20.6962C14.7735 20.314 15.6969 19.3906 17.5438 17.5438C19.3906 15.6969 20.314 14.7735 20.6962 13.7234C21.1013 12.6102 21.1013 11.3898 20.6962 10.2766C20.314 9.22649 19.3906 8.30307 17.5438 6.45622C15.6969 4.60938 14.7735 3.68596 13.7234 3.30383C12.6102 2.89872 11.3898 2.89872 10.2766 3.30383Z" stroke="#131316" stroke-width="2" stroke-linecap="round" stroke-linejoin="round"/>
</svg>
