<svg width="24" height="24" viewBox="0 0 24 24" fill="none" xmlns="http://www.w3.org/2000/svg">
<path d="M10 3L3 3M21 3L14 3M6.8 21H6.2C5.0799 21 4.51984 21 4.09202 20.782C3.71569 20.5903 3.40973 20.2843 3.21799 19.908C3 19.4802 3 18.9201 3 17.8L3 10.2C3 9.0799 3 8.51984 3.21799 8.09202C3.40973 7.7157 3.71569 7.40974 4.09202 7.21799C4.51984 7 5.0799 7 6.2 7H6.8C7.9201 7 8.48016 7 8.90798 7.21799C9.28431 7.40974 9.59027 7.7157 9.78201 8.09202C10 8.51984 10 9.0799 10 10.2V17.8C10 18.9201 10 19.4802 9.78201 19.908C9.59027 20.2843 9.28431 20.5903 8.90798 20.782C8.48016 21 7.9201 21 6.8 21ZM17.8 14H17.2C16.0799 14 15.5198 14 15.092 13.782C14.7157 13.5903 14.4097 13.2843 14.218 12.908C14 12.4802 14 11.9201 14 10.8V10.2C14 9.0799 14 8.51984 14.218 8.09202C14.4097 7.7157 14.7157 7.40974 15.092 7.21799C15.5198 7 16.0799 7 17.2 7H17.8C18.9201 7 19.4802 7 19.908 7.21799C20.2843 7.40974 20.5903 7.7157 20.782 8.09202C21 8.51984 21 9.0799 21 10.2V10.8C21 11.9201 21 12.4802 20.782 12.908C20.5903 13.2843 20.2843 13.5903 19.908 13.782C19.4802 14 18.9201 14 17.8 14Z" stroke="#131316" stroke-width="2" stroke-linecap="round" stroke-linejoin="round"/>
</svg>
