<svg width="24" height="24" viewBox="0 0 24 24" fill="none" xmlns="http://www.w3.org/2000/svg">
<path d="M8 17L9.5 18.5M17 9C17 10.1046 16.1046 11 15 11C13.8954 11 13 10.1046 13 9C13 7.89543 13.8954 7 15 7C16.1046 7 17 7.89543 17 9ZM21 9C21 12.3137 18.3137 15 15 15C14.3938 15 13.8086 14.9101 13.257 14.7429L7.58579 20.4142C7.21071 20.7893 6.70201 21 6.17157 21L3 21V17.8284C3 17.298 3.21071 16.7893 3.58579 16.4142L9.25705 10.7429C9.08987 10.1913 8.99998 9.60617 8.99998 9C8.99998 5.68629 11.6863 3 15 3C18.3137 3 21 5.68629 21 9Z" stroke="#131316" stroke-width="2" stroke-linecap="round" stroke-linejoin="round"/>
</svg>
