<svg width="24" height="24" viewBox="0 0 24 24" fill="none" xmlns="http://www.w3.org/2000/svg">
<path d="M11 21H13C15.8003 21 17.2004 21 18.27 20.455C19.2108 19.9757 19.9757 19.2108 20.455 18.27C21 17.2004 21 15.8003 21 13V11C21 8.19974 21 6.79961 20.455 5.73005C19.9757 4.78924 19.2108 4.02433 18.27 3.54497C17.2004 3 15.8003 3 13 3L11 3C8.19974 3 6.79961 3 5.73005 3.54497C4.78924 4.02433 4.02433 4.78924 3.54497 5.73005C3 6.79961 3 8.19974 3 11L3 13C3 15.8003 3 17.2004 3.54497 18.27C4.02433 19.2108 4.78924 19.9757 5.73005 20.455C6.79961 21 8.19974 21 11 21Z" stroke="#131316" stroke-width="2" stroke-linecap="round" stroke-linejoin="round"/>
<path d="M9 3L9 21H8.82909C8.059 21 7.67396 21 7.35068 20.9577C5.10435 20.6634 3.33655 18.8956 3.04234 16.6493C3 16.326 3 15.941 3 15.1709L3 8.82909C3 8.059 3 7.67396 3.04234 7.35068C3.33655 5.10435 5.10435 3.33655 7.35068 3.04234C7.67396 3 8.059 3 8.82909 3L9 3Z" stroke="#131316" stroke-width="2" stroke-linecap="round" stroke-linejoin="round"/>
</svg>
