<svg width="24" height="24" viewBox="0 0 24 24" fill="none" xmlns="http://www.w3.org/2000/svg">
<path d="M15 19H16.5C16.9643 19 17.1965 19 17.3923 18.9846C19.8442 18.7916 21.7916 16.8442 21.9846 14.3923C22 14.1965 22 13.9643 22 13.5C22 13.0357 22 12.8035 21.9846 12.6077C21.7916 10.1558 19.8442 8.20838 17.3923 8.01541C17.1965 8 16.9643 8 16.5 8H13.3C10.9252 8 9 9.92517 9 12.3M9 5L7.5 5C7.0357 5 6.80355 5 6.6077 5.01541C4.15582 5.20838 2.20838 7.15582 2.01541 9.6077C2 9.80355 2 10.0357 2 10.5C2 10.9643 2 11.1965 2.01541 11.3923C2.20838 13.8442 4.15582 15.7916 6.6077 15.9846C6.80355 16 7.0357 16 7.5 16H10.7C13.0748 16 15 14.0748 15 11.7" stroke="#131316" stroke-width="2" stroke-linecap="round" stroke-linejoin="round"/>
</svg>
