<svg width="24" height="24" viewBox="0 0 24 24" fill="none" xmlns="http://www.w3.org/2000/svg">
<path d="M3.00046 3L21.0005 21M19.563 12.902L20.313 11.603C20.5451 11.2009 20.6612 10.9998 20.7458 10.8225C21.8046 8.60265 21.0918 5.9424 19.0649 4.54934C18.903 4.43807 18.7019 4.32199 18.2998 4.08984C17.8977 3.85769 17.6967 3.74162 17.5194 3.65704C15.2995 2.59822 12.6392 3.31103 11.2462 5.33794C11.1349 5.49984 11.0188 5.70089 10.7867 6.10298L9.11409 9M4.43796 11.098L3.68796 12.397C3.45581 12.7991 3.33974 13.0002 3.25516 13.1775C2.19634 15.3973 2.90915 18.0576 4.93606 19.4507C5.09796 19.5619 5.29901 19.678 5.7011 19.9102C6.1032 20.1423 6.30425 20.2584 6.48156 20.343C8.70143 21.4018 11.3617 20.689 12.7547 18.6621C12.866 18.5002 12.9821 18.2991 13.2142 17.897L14.8868 15" stroke="#131316" stroke-width="2" stroke-linecap="round" stroke-linejoin="round"/>
</svg>
