<svg width="24" height="24" viewBox="0 0 24 24" fill="none" xmlns="http://www.w3.org/2000/svg">
<path d="M19.5623 12.9019L20.3123 11.6028C20.5445 11.2007 20.6605 10.9997 20.7451 10.8224C21.8039 8.6025 21.0911 5.94225 19.0642 4.54919C18.9023 4.43792 18.7013 4.32185 18.2992 4.0897C17.8971 3.85754 17.696 3.74147 17.5187 3.6569C15.2988 2.59807 12.6386 3.31088 11.2455 5.33779C11.1343 5.49969 11.0182 5.70074 10.786 6.10284L9.18604 8.87412C7.99863 10.9308 8.70329 13.5606 10.7599 14.748M4.43796 11.098L3.68796 12.3971C3.45581 12.7992 3.33974 13.0002 3.25516 13.1775C2.19634 15.3974 2.90915 18.0577 4.93606 19.4507C5.09796 19.562 5.29901 19.6781 5.7011 19.9102C6.1032 20.1424 6.30425 20.2584 6.48156 20.343C8.70143 21.4018 11.3617 20.689 12.7547 18.6621C12.866 18.5002 12.9821 18.2992 13.2142 17.8971L14.8142 15.1258C16.0017 13.0691 15.297 10.4393 13.2403 9.25187" stroke="#131316" stroke-width="2" stroke-linecap="round" stroke-linejoin="round"/>
</svg>
