<svg width="24" height="24" viewBox="0 0 24 24" fill="none" xmlns="http://www.w3.org/2000/svg">
<path d="M3 3L21 21M13.8186 19.4757C13.1737 20.2475 12.5529 21.0785 12 22C10.8425 20.0709 9.38736 18.5383 8.03649 17.1156C5.88608 14.8508 4 12.8644 4 10C4 9.88698 4.0021 9.77474 4.00627 9.66331M16.5236 16.5238C18.431 14.4946 20 12.6125 20 10C20 5.33626 16.4183 2 12 2C9.25225 2 6.82805 3.29035 5.3877 5.38789L9.12849 9.12869C9.5018 7.89676 10.6462 7 12 7C13.6569 7 15 8.34315 15 10C15 11.3538 14.1032 12.4982 12.8713 12.8715L16.5236 16.5238Z" stroke="#131316" stroke-width="2" stroke-linecap="round" stroke-linejoin="round"/>
</svg>
