<svg width="24" height="24" viewBox="0 0 24 24" fill="none" xmlns="http://www.w3.org/2000/svg">
<path d="M20.4002 3.2C19.8529 2.47133 18.9815 2 18 2C16.3431 2 15 3.34315 15 5C15 5.67536 15.2232 6.2986 15.5998 6.8M20.4002 3.2C20.7768 3.7014 21 4.32464 21 5C21 6.65685 19.6569 8 18 8C17.0185 8 16.1471 7.52867 15.5998 6.8M20.4002 3.2L15.5998 6.8M11.6707 2.00622C7.40511 2.16742 4 5.45271 4 10C4 12.8644 5.88608 14.8508 8.03649 17.1156C9.38736 18.5383 10.8425 20.0709 12 22C13.1575 20.0709 14.6126 18.5383 15.9635 17.1156C17.639 15.3509 19.1541 13.7553 19.7415 11.7816M14.7498 11.2013C14.2866 12.2602 13.2297 13 12 13C10.3431 13 9 11.6569 9 10C9 8.57923 9.98766 7.38914 11.3139 7.07884" stroke="#131316" stroke-width="2" stroke-linecap="round" stroke-linejoin="round"/>
</svg>
