<svg width="24" height="24" viewBox="0 0 24 24" fill="none" xmlns="http://www.w3.org/2000/svg">
<path d="M11.7369 2.00396C7.4404 2.13349 4 5.4292 4 10C4 12.8644 5.88608 14.8508 8.03649 17.1156C9.38736 18.5383 10.8425 20.0709 12 22C13.1575 20.0709 14.6126 18.5383 15.9635 17.1156C17.4325 15.5685 18.7781 14.1513 19.4834 12.4954M14.0011 12.2351C13.4702 12.7108 12.7689 13 12 13C10.3431 13 9 11.6569 9 10C9 8.53686 10.0474 7.31836 11.4334 7.05344M17.5 2L18.5815 4.30438L21 4.67385L19.25 6.46746L19.663 9L17.5 7.80402L15.337 9L15.75 6.46746L14 4.67385L16.4185 4.30438L17.5 2Z" stroke="#131316" stroke-width="2" stroke-linecap="round" stroke-linejoin="round"/>
</svg>
