<svg width="24" height="24" viewBox="0 0 24 24" fill="none" xmlns="http://www.w3.org/2000/svg">
<path d="M20 11C20 16.4183 13 21 12 21C11 21 4 16.4183 4 11C4 6.58172 7.58172 3 12 3C16.4183 3 20 6.58172 20 11Z" stroke="#131316" stroke-width="2" stroke-linecap="round" stroke-linejoin="round"/>
<path d="M9.93726 11.0627L13 8C13.5523 7.44772 14.4477 7.44772 15 8C15.5523 8.55228 15.5523 9.44771 15 10L11.9373 13.0627C11.5914 13.4086 11.4184 13.5816 11.2166 13.7053C11.0376 13.8149 10.8425 13.8957 10.6385 13.9447C10.4083 14 10.1637 14 9.67452 14H9V13.3255C9 12.8363 9 12.5917 9.05526 12.3615C9.10425 12.1575 9.18506 11.9624 9.29472 11.7834C9.4184 11.5816 9.59136 11.4086 9.93726 11.0627Z" stroke="#131316" stroke-width="2" stroke-linecap="round" stroke-linejoin="round"/>
</svg>
