<svg width="24" height="24" viewBox="0 0 24 24" fill="none" xmlns="http://www.w3.org/2000/svg">
<path d="M3 3L21 21M14.1913 19.8484C13.1521 20.5817 12.3022 21 12 21C11 21 4 16.4183 4 11C4 10.576 4.03298 10.1597 4.09652 9.75357M17.1871 17.1873C18.7258 15.471 20 13.3117 20 11C20 6.58172 16.4183 3 12 3C9.53622 3 7.33257 4.11375 5.86507 5.86525L10.1767 10.1769C10.4905 9.48289 11.1888 9 12 9C13.1046 9 14 9.89543 14 11C14 11.8112 13.5171 12.5095 12.8231 12.8233L17.1871 17.1873Z" stroke="#131316" stroke-width="2" stroke-linecap="round" stroke-linejoin="round"/>
</svg>
