<svg width="24" height="24" viewBox="0 0 24 24" fill="none" xmlns="http://www.w3.org/2000/svg">
<path d="M3 3L21 21M5.90245 11.5595C5.32791 12.5755 5 13.7495 5 15C5 18.866 8.13401 22 12 22C13.2505 22 14.4244 21.6721 15.4405 21.0976M12 8C15.866 8 19 11.134 19 15C19 16.1603 18.7177 17.2547 18.218 18.2182L8.7818 8.782M12 8C10.8397 8 9.7453 8.28231 8.7818 8.782M12 8C13.4872 8 14.8662 8.46381 16 9.25469V6C16 3.79086 14.2091 2 12 2C9.79086 2 8 3.79086 8 6V8.00016L8.7818 8.782" stroke="#131316" stroke-width="2" stroke-linecap="round" stroke-linejoin="round"/>
</svg>
