<svg width="24" height="24" viewBox="0 0 24 24" fill="none" xmlns="http://www.w3.org/2000/svg">
<path d="M8 15V15.0099M12 15V15.0099M16 15V15.0099M16.2 21H7.8C6.11984 21 5.27976 21 4.63803 20.673C4.07354 20.3854 3.6146 19.9265 3.32698 19.362C3 18.7202 3 17.8802 3 16.2L3 13.8C3 12.1198 3 11.2798 3.32698 10.638C3.6146 10.0735 4.07354 9.6146 4.63803 9.32698C5.27976 9 6.11984 9 7.8 9H16.2C17.8802 9 18.7202 9 19.362 9.32698C19.9265 9.6146 20.3854 10.0735 20.673 10.638C21 11.2798 21 12.1198 21 13.8V16.2C21 17.8802 21 18.7202 20.673 19.362C20.3854 19.9265 19.9265 20.3854 19.362 20.673C18.7202 21 17.8802 21 16.2 21ZM11.8 3H12.2C13.8802 3 14.7202 3 15.362 3.32698C15.9265 3.6146 16.3854 4.07354 16.673 4.63803C17 5.27976 17 6.11984 17 7.8V9H7V7.8C7 6.11984 7 5.27976 7.32698 4.63803C7.6146 4.07354 8.07354 3.6146 8.63803 3.32698C9.27976 3 10.1198 3 11.8 3Z" stroke="#131316" stroke-width="2" stroke-linecap="round" stroke-linejoin="round"/>
</svg>
