<svg width="24" height="24" viewBox="0 0 24 24" fill="none" xmlns="http://www.w3.org/2000/svg">
<path d="M20 2V6M19 15V19M18 4L22 4M17 17H21M12.4853 7.85786L2.58579 17.7574C1.80474 18.5384 1.80474 19.8047 2.58579 20.5858C3.36683 21.3668 4.63316 21.3668 5.41421 20.5858L15.3137 10.6863M12.4853 7.85786C13.2663 7.07682 14.5327 7.07682 15.3137 7.85786C16.0948 8.63891 16.0948 9.90524 15.3137 10.6863M12.4853 7.85786L10.5 9.84281L13.3284 12.6712L15.3137 10.6863M3 4.82843L4.97994 3.97991L5.82843 2L6.67698 3.97991L8.65685 4.82843L6.67698 5.67698L5.82843 7.65685L4.97994 5.67698L3 4.82843Z" stroke="#131316" stroke-width="2" stroke-linecap="round" stroke-linejoin="round"/>
</svg>
