<svg width="24" height="24" viewBox="0 0 24 24" fill="none" xmlns="http://www.w3.org/2000/svg">
<path d="M3 21L6 18M12.9538 4.35099C13.2704 4.58732 13.4287 4.70549 13.5958 4.78904C13.982 4.98211 14.4183 5.05134 14.8453 4.9873C15.03 4.95958 15.2169 4.8963 15.5906 4.76973C16.853 4.34221 17.4841 4.12846 17.918 4.16442C18.9399 4.24912 19.7509 5.06007 19.8356 6.08196C19.8715 6.51585 19.6578 7.14702 19.2303 8.40936C19.1037 8.78309 19.0404 8.96996 19.0127 9.15474C18.9487 9.5817 19.0179 10.018 19.211 10.4042C19.2945 10.5713 19.4127 10.7296 19.649 11.0462C20.4444 12.1116 20.8421 12.6444 20.9426 13.0659C21.1813 14.0675 20.6578 15.0942 19.7071 15.4895C19.307 15.6558 18.6434 15.647 17.3163 15.6293C16.9226 15.624 16.7258 15.6214 16.5418 15.6518C16.1147 15.7225 15.7199 15.9235 15.4116 16.2274C15.2788 16.3583 15.1651 16.5191 14.9378 16.8406C14.1711 17.925 13.7878 18.4672 13.4176 18.693C12.5397 19.2285 11.4031 19.0487 10.7333 18.2686C10.4508 17.9395 10.2529 17.3038 9.85722 16.0325C9.73942 15.654 9.68052 15.4647 9.59404 15.2985C9.39519 14.9164 9.08357 14.6048 8.70148 14.406C8.5353 14.3195 8.34605 14.2606 7.96753 14.1428C6.69618 13.7471 6.06051 13.5492 5.73144 13.2667C4.95125 12.5969 4.77152 11.4603 5.30697 10.5824C5.53281 10.2122 6.075 9.82885 7.15939 9.06222C7.48095 8.83488 7.64173 8.72121 7.77263 8.58839C8.07647 8.28007 8.27751 7.88531 8.34817 7.45823C8.37862 7.27425 8.37599 7.0774 8.37074 6.6837C8.35304 5.35657 8.34418 4.69301 8.51051 4.29291C8.90576 3.34215 9.93255 2.81873 10.9341 3.05743C11.3556 3.15787 11.8884 3.55558 12.9538 4.35099Z" stroke="#131316" stroke-width="2" stroke-linecap="round" stroke-linejoin="round"/>
</svg>
