<svg width="24" height="24" viewBox="0 0 24 24" fill="none" xmlns="http://www.w3.org/2000/svg">
<path d="M6 20H4M10 16H2M10 20H14C16.8003 20 18.2004 20 19.27 19.455C20.2108 18.9757 20.9757 18.2108 21.455 17.27C22 16.2004 22 14.8003 22 12C22 9.19974 22 7.79961 21.455 6.73005C20.9757 5.78924 20.2108 5.02433 19.27 4.54497C18.2004 4 16.8003 4 14 4H10C7.19974 4 5.79961 4 4.73005 4.54497C3.78924 5.02433 3.02433 5.78924 2.54497 6.73005C2 7.79961 2 9.19974 2 12M6 8L9.39488 10.2384C10.3605 10.875 10.8433 11.1934 11.364 11.3153C11.8241 11.4231 12.3033 11.4207 12.7623 11.3082C13.2817 11.1809 13.7612 10.8576 14.7202 10.2111L18 8" stroke="#131316" stroke-width="2" stroke-linecap="round" stroke-linejoin="round"/>
</svg>
