<svg width="24" height="24" viewBox="0 0 24 24" fill="none" xmlns="http://www.w3.org/2000/svg">
<path d="M6 9.99998L9.39488 12.2384C10.3605 12.875 10.8433 13.1934 11.364 13.3153C11.8241 13.4231 12.3033 13.4206 12.7623 13.3081C13.2817 13.1808 13.7612 12.8576 14.7202 12.2111L18 9.99998M10 21H14C16.8003 21 18.2004 21 19.27 20.455C20.2108 19.9756 20.9757 19.2107 21.455 18.2699C22 17.2004 22 15.8002 22 13V12.5295C22 10.8778 22 10.0519 21.763 9.30986C21.5533 8.65318 21.2101 8.04695 20.7549 7.52926C20.2405 6.94426 19.5323 6.51936 18.116 5.66956L16.116 4.46956C14.6195 3.57166 13.8712 3.12271 13.0724 2.9473C12.3659 2.79214 11.6341 2.79214 10.9276 2.9473C10.1288 3.12271 9.38053 3.57166 7.88403 4.46956L5.88403 5.66956C4.4677 6.51936 3.75954 6.94426 3.24514 7.52926C2.78993 8.04695 2.44669 8.65318 2.23698 9.30986C2 10.0519 2 10.8778 2 12.5295L2 13C2 15.8002 2 17.2004 2.54497 18.2699C3.02433 19.2107 3.78924 19.9756 4.73005 20.455C5.79961 21 7.19974 21 10 21Z" stroke="#131316" stroke-width="2" stroke-linecap="round" stroke-linejoin="round"/>
</svg>
