<svg width="24" height="24" viewBox="0 0 24 24" fill="none" xmlns="http://www.w3.org/2000/svg">
<path d="M14.3404 2.00287C13.9322 2 13.4873 2 13 2H11C8.19974 2 6.79961 2 5.73005 2.54497M5.73005 2.54497C4.78924 3.02433 4.02433 3.78924 3.54497 4.73005C3 5.79961 3 7.19974 3 10V14C3 16.8003 3 18.2004 3.54497 19.27M5.73005 2.54497C5.04649 2.89326 4.45579 3.39228 4 3.99999L9.87884 9.87868M3.54497 19.27C4.02433 20.2108 4.78924 20.9757 5.73005 21.455C6.79961 22 8.19974 22 11 22H13C15.8003 22 17.2004 22 18.27 21.455C19.2108 20.9757 19.9757 20.2108 20.455 19.27M3.54497 19.27C3.06904 18.3359 3.00875 17.1497 3.00111 14.9991L9.00016 9L9.87884 9.87868M20.455 19.27C21 18.2004 21 16.8003 21 14V10C21 9.97221 21 9.94456 21 9.91704M20.455 19.27C20.931 18.3358 20.9913 17.1496 20.9989 14.9987L15.0002 9L14.1215 9.87868M14.1215 9.87868C12.9499 11.0503 11.0504 11.0503 9.87884 9.87868M14.1215 9.87868L15.7574 8.24264M22 4C22 5.10457 21.1046 6 20 6C18.8954 6 18 5.10457 18 4C18 2.89543 18.8954 2 20 2C21.1046 2 22 2.89543 22 4Z" stroke="#131316" stroke-width="2" stroke-linecap="round" stroke-linejoin="round"/>
</svg>
