<svg width="24" height="24" viewBox="0 0 24 24" fill="none" xmlns="http://www.w3.org/2000/svg">
<path d="M20 14C20 18.4183 16.4183 22 12 22C7.58172 22 4 18.4183 4 14C4 9.58172 7.58172 6 12 6C16.4183 6 20 9.58172 20 14Z" stroke="#131316" stroke-width="2" stroke-linecap="round" stroke-linejoin="round"/>
<path d="M11.446 11.3455C11.6717 10.8848 12.3283 10.8848 12.554 11.3455L13.0006 12.2576C13.0901 12.4403 13.2639 12.5671 13.4652 12.5966L14.4719 12.744C14.9763 12.8178 15.1785 13.4371 14.8147 13.7944L14.0804 14.5156C13.9363 14.6571 13.8707 14.8601 13.9045 15.0592L14.077 16.0727C14.1629 16.5772 13.6323 16.9608 13.1801 16.7212L12.2888 16.2489C12.1082 16.1532 11.8918 16.1532 11.7112 16.2489L10.8199 16.7212C10.3677 16.9608 9.83715 16.5772 9.92301 16.0727L10.0955 15.0592C10.1293 14.8601 10.0637 14.6571 9.91962 14.5156L9.18527 13.7944C8.82153 13.4371 9.02367 12.8178 9.52814 12.744L10.5348 12.5966C10.7361 12.5671 10.9099 12.4403 10.9994 12.2576L11.446 11.3455Z" stroke="#131316" stroke-width="2" stroke-linecap="round" stroke-linejoin="round"/>
<path d="M2 2L6 8H6.70835C7.66655 7.15427 8.82891 6.5345 10.112 6.22407L8 2H2Z" stroke="#131316" stroke-width="2" stroke-linecap="round" stroke-linejoin="round"/>
<path d="M17.2916 8C16.3334 7.15427 15.1711 6.5345 13.888 6.22407L16 2H22L18 8H17.2916Z" stroke="#131316" stroke-width="2" stroke-linecap="round" stroke-linejoin="round"/>
</svg>
