<svg width="24" height="24" viewBox="0 0 24 24" fill="none" xmlns="http://www.w3.org/2000/svg">
<path d="M21 12C21 16.9706 16.9706 21 12 21C10.7098 21 8.23 21 6.19959 21C5.07976 21 4.51984 21 4.09202 20.782C3.71569 20.5903 3.40973 20.2843 3.21799 19.908C3 19.4802 3 18.9202 3 17.8002C3 15.7996 3 13.3539 3 12C3 7.02944 7.02944 3 12 3C16.9706 3 21 7.02944 21 12Z" stroke="#131316" stroke-width="2" stroke-linecap="round" stroke-linejoin="round"/>
<path d="M13.5908 9C12.9226 9 12.3499 9.36923 11.9999 9.90629C11.6499 9.36923 11.0772 9 10.409 9C9.35901 9 8.49992 9.90629 8.49992 11.014C8.49992 13.028 11.9999 15 11.9999 15C11.9999 15 15.4999 13.028 15.4999 11.014C15.4999 9.90629 14.6408 9 13.5908 9Z" stroke="#131316" stroke-width="2" stroke-linecap="round" stroke-linejoin="round"/>
</svg>
