<svg width="24" height="24" viewBox="0 0 24 24" fill="none" xmlns="http://www.w3.org/2000/svg">
<path d="M13.4999 13.5L14.9999 15M21 12C21 16.9706 16.9706 21 12 21C10.7098 21 8.23 21 6.19959 21C5.07976 21 4.51984 21 4.09202 20.782C3.71569 20.5903 3.40973 20.2843 3.21799 19.908C3 19.4802 3 18.9202 3 17.8002C3 15.7996 3 13.3539 3 12C3 7.02944 7.02944 3 12 3C16.9706 3 21 7.02944 21 12ZM13.9999 11.5C13.9999 12.8807 12.8806 14 11.4999 14C10.1192 14 8.99992 12.8807 8.99992 11.5C8.99992 10.1193 10.1192 9 11.4999 9C12.8806 9 13.9999 10.1193 13.9999 11.5Z" stroke="#131316" stroke-width="2" stroke-linecap="round" stroke-linejoin="round"/>
</svg>
