<svg width="24" height="24" viewBox="0 0 24 24" fill="none" xmlns="http://www.w3.org/2000/svg">
<path d="M20.9055 10.6911C20.9678 11.1184 21 11.5554 21 12C21 16.9706 16.9706 21 12 21H6.19959C5.07976 21 4.51984 21 4.09202 20.782C3.71569 20.5903 3.40973 20.2843 3.21799 19.908C3 19.4802 3 18.9202 3 17.8002V12C3 7.02944 7.02944 3 12 3C12.4445 3 12.8815 3.03223 13.3088 3.09448M20.9999 5C20.9999 6.10457 20.1045 7 18.9999 7C17.8953 7 16.9999 6.10457 16.9999 5C16.9999 3.89543 17.8953 3 18.9999 3C20.1045 3 20.9999 3.89543 20.9999 5Z" stroke="#131316" stroke-width="2" stroke-linecap="round" stroke-linejoin="round"/>
</svg>
