<svg width="24" height="24" viewBox="0 0 24 24" fill="none" xmlns="http://www.w3.org/2000/svg">
<path d="M13.5909 9C12.9227 9 12.35 9.36923 12 9.90629C11.65 9.36923 11.0773 9 10.4091 9C9.35909 9 8.5 9.90629 8.5 11.014C8.5 13.028 12 15 12 15C12 15 15.5 13.028 15.5 11.014C15.5 9.90629 14.6409 9 13.5909 9Z" stroke="#131316" stroke-width="2" stroke-linecap="round" stroke-linejoin="round"/>
<path d="M12.0002 21C16.9707 21 21.0002 16.9706 21.0002 12C21.0002 7.02944 16.9707 3 12.0002 3C7.02961 3 3.00017 7.02944 3.00017 12C3.00017 13.4216 3.32978 14.7663 3.91676 15.9617L3 21L8.28628 20.2004C9.41851 20.714 10.6759 21 12.0002 21Z" stroke="#131316" stroke-width="2" stroke-linecap="round" stroke-linejoin="round"/>
</svg>
