<svg width="24" height="24" viewBox="0 0 24 24" fill="none" xmlns="http://www.w3.org/2000/svg">
<path d="M13.3089 3.09447C12.8817 3.03223 12.4447 3 12.0002 3C7.02961 3 3.00017 7.02944 3.00017 12C3.00017 13.4216 3.32978 14.7663 3.91676 15.9617L3 21L8.28628 20.2004C9.41851 20.714 10.6759 21 12.0002 21C16.9707 21 21.0002 16.9706 21.0002 12C21.0002 11.5554 20.9679 11.1184 20.9057 10.691M21 5C21 6.10457 20.1046 7 19 7C17.8954 7 17 6.10457 17 5C17 3.89543 17.8954 3 19 3C20.1046 3 21 3.89543 21 5Z" stroke="#131316" stroke-width="2" stroke-linecap="round" stroke-linejoin="round"/>
</svg>
