<svg width="24" height="24" viewBox="0 0 24 24" fill="none" xmlns="http://www.w3.org/2000/svg">
<path d="M3 3L18.364 18.364M21 21L18.364 18.364M11.2934 16.9505C9.09741 16.6398 7.36018 14.9026 7.04955 12.7066M3 12C3 16.9706 7.02944 21 12 21C13.0051 21 13.9716 20.8353 14.8742 20.5313M21 12C21 14.4853 19.9926 16.7353 18.364 18.364M12 12H13M7.08373 7.08395L15.5354 15.5357C16.4403 14.6308 17 13.3808 17 12V8C17 5.23858 14.7614 3 12 3C9.55147 3 7.51402 4.76001 7.08373 7.08395Z" stroke="#131316" stroke-width="2" stroke-linecap="round" stroke-linejoin="round"/>
</svg>
