<svg width="24" height="24" viewBox="0 0 24 24" fill="none" xmlns="http://www.w3.org/2000/svg">
<path d="M15.9998 20.952C16.9804 20.8922 17.676 20.7576 18.2698 20.455C19.2106 19.9757 19.9755 19.2108 20.4549 18.27C20.9999 17.2004 20.9999 15.8003 20.9999 13V11C20.9999 8.19974 20.9999 6.79961 20.4549 5.73005C19.9755 4.78924 19.2106 4.02433 18.2698 3.54497C17.2003 3 15.8001 3 12.9999 3H10.9999C8.19962 3 6.79949 3 5.72993 3.54497C4.78912 4.02433 4.02422 4.78924 3.54485 5.73005C3.2423 6.32383 3.10772 7.01951 3.04785 8.00009M3 12C7.97056 12 12 16.0294 12 21M3 16C5.76142 16 8 18.2386 8 21M3 21V21.0099" stroke="#131316" stroke-width="2" stroke-linecap="round" stroke-linejoin="round"/>
</svg>
