<svg width="24" height="24" viewBox="0 0 24 24" fill="none" xmlns="http://www.w3.org/2000/svg">
<path d="M9.8 22H14.2C15.8802 22 16.7202 22 17.362 21.673C17.9265 21.3854 18.3854 20.9265 18.673 20.362C19 19.7202 19 18.8802 19 17.2V6.8C19 5.11984 19 4.27976 18.673 3.63803C18.3854 3.07354 17.9265 2.6146 17.362 2.32698C16.7202 2 15.8802 2 14.2 2L9.8 2C8.11984 2 7.27976 2 6.63803 2.32698C6.07354 2.6146 5.6146 3.07354 5.32698 3.63803C5 4.27976 5 5.11984 5 6.8L5 17.2C5 18.8802 5 19.7202 5.32698 20.362C5.6146 20.9265 6.07354 21.3854 6.63803 21.673C7.27976 22 8.11984 22 9.8 22Z" stroke="#131316" stroke-width="2" stroke-linecap="round" stroke-linejoin="round"/>
<path d="M11 7C11 7.55228 10.5523 8 10 8C9.44772 8 9 7.55228 9 7C9 6.44772 9.44772 6 10 6C10.5523 6 11 6.44772 11 7Z" stroke="#131316" stroke-width="2" stroke-linecap="round" stroke-linejoin="round"/>
</svg>
