<svg width="24" height="24" viewBox="0 0 24 24" fill="none" xmlns="http://www.w3.org/2000/svg">
<path d="M9 5V13M5 3C4.37764 3.70513 4 4.63138 4 5.64582C4 6.66027 4.37764 7.58652 5 8.29165M13 3C13.6224 3.70513 14 4.63138 14 5.64582C14 6.66027 13.6224 7.58652 13 8.29165M6 17V17.0099M10 17V17.0099M14 17V17.0099M18 21H6C3.79086 21 2 19.2091 2 17C2 14.7909 3.79086 13 6 13H18C20.2091 13 22 14.7909 22 17C22 19.2091 20.2091 21 18 21Z" stroke="#131316" stroke-width="2" stroke-linecap="round" stroke-linejoin="round"/>
</svg>
