<svg width="24" height="24" viewBox="0 0 24 24" fill="none" xmlns="http://www.w3.org/2000/svg">
<path d="M12 17H6.8C5.11984 17 4.27976 17 3.63803 16.673C3.07354 16.3854 2.6146 15.9265 2.32698 15.362C2 14.7202 2 13.8802 2 12.2L2 9.8C2 8.11984 2 7.27976 2.32698 6.63803C2.6146 6.07354 3.07354 5.6146 3.63803 5.32698C4.27976 5 5.11984 5 6.8 5H12M8 21H4M18 8H16M18 12H16M17 17V17.0099M17.2 21H16.8C15.1198 21 14.2798 21 13.638 20.673C13.0735 20.3854 12.6146 19.9265 12.327 19.362C12 18.7202 12 17.8802 12 16.2V7.8C12 6.11984 12 5.27976 12.327 4.63803C12.6146 4.07354 13.0735 3.6146 13.638 3.32698C14.2798 3 15.1198 3 16.8 3L17.2 3C18.8802 3 19.7202 3 20.362 3.32698C20.9265 3.6146 21.3854 4.07354 21.673 4.63803C22 5.27976 22 6.11984 22 7.8V16.2C22 17.8802 22 18.7202 21.673 19.362C21.3854 19.9265 20.9265 20.3854 20.362 20.673C19.7202 21 18.8802 21 17.2 21Z" stroke="#131316" stroke-width="2" stroke-linecap="round" stroke-linejoin="round"/>
</svg>
