<svg width="24" height="24" viewBox="0 0 24 24" fill="none" xmlns="http://www.w3.org/2000/svg">
<path d="M20 9V7.8C20 6.11984 20 5.27976 19.673 4.63803C19.3854 4.07354 18.9265 3.6146 18.362 3.32698C17.7202 3 16.8802 3 15.2 3L6.8 3C5.11984 3 4.27976 3 3.63803 3.32698C3.07354 3.6146 2.6146 4.07354 2.32698 4.63803C2 5.27976 2 6.11984 2 7.8L2 10.2C2 11.8802 2 12.7202 2.32698 13.362C2.6146 13.9265 3.07354 14.3854 3.63803 14.673C4.27976 15 5.11984 15 6.8 15H12M12 19H8M11 15V19M11 11V11.0099M16 18V16C16 15.0681 16 14.6022 16.1522 14.2346C16.3552 13.7446 16.7446 13.3552 17.2346 13.1522C17.6022 13 18.0681 13 19 13C19.9319 13 20.3978 13 20.7654 13.1522C21.2554 13.3552 21.6448 13.7446 21.8478 14.2346C22 14.6022 22 15.0681 22 16V18C22 18.9319 22 19.3978 21.8478 19.7654C21.6448 20.2554 21.2554 20.6448 20.7654 20.8478C20.3978 21 19.9319 21 19 21C18.0681 21 17.6022 21 17.2346 20.8478C16.7446 20.6448 16.3552 20.2554 16.1522 19.7654C16 19.3978 16 18.9319 16 18Z" stroke="#131316" stroke-width="2" stroke-linecap="round" stroke-linejoin="round"/>
</svg>
