<svg width="24" height="24" viewBox="0 0 24 24" fill="none" xmlns="http://www.w3.org/2000/svg">
<path d="M10 19L10 8.99996M10 19C10 20.6568 8.65685 22 7 22C5.34315 22 4 20.6568 4 19C4 17.3431 5.34315 16 7 16C8.65685 16 10 17.3431 10 19ZM10 8.99996V7.93502C10 6.5333 10 5.83245 10.2511 5.25799C10.4725 4.75141 10.8295 4.31586 11.2828 3.99942C11.7969 3.64058 12.4841 3.50313 13.8586 3.22823L17.0678 2.5864C18.5847 2.28301 20 3.44327 20 4.99025C20 6.15881 19.1752 7.16492 18.0293 7.39409L10 8.99996Z" stroke="#131316" stroke-width="2" stroke-linecap="round" stroke-linejoin="round"/>
</svg>
