<svg width="24" height="24" viewBox="0 0 24 24" fill="none" xmlns="http://www.w3.org/2000/svg">
<path d="M17.1335 4.40589C16.6147 3.88703 16.3552 3.6276 16.0525 3.44208C15.7841 3.27759 15.4914 3.15638 15.1853 3.08289C14.8401 3 14.4732 3 13.7394 3H10.2606C9.52682 3 9.15993 3 8.81467 3.08289C8.50856 3.15638 8.21593 3.27759 7.94751 3.44208C7.64476 3.6276 7.38533 3.88703 6.86648 4.40589L4.40589 6.86648C3.88703 7.38533 3.6276 7.64476 3.44208 7.94751C3.27759 8.21593 3.15638 8.50856 3.08289 8.81467C3 9.15993 3 9.52682 3 10.2606V13.7394C3 14.4732 3 14.8401 3.08289 15.1853C3.15638 15.4914 3.27759 15.7841 3.44208 16.0525C3.6276 16.3552 3.88703 16.6147 4.40589 17.1335L6.86648 19.5941C7.38533 20.113 7.64476 20.3724 7.94751 20.5579C8.21593 20.7224 8.50856 20.8436 8.81467 20.9171C9.15993 21 9.52682 21 10.2606 21H13.7394C14.4732 21 14.8401 21 15.1853 20.9171C15.4914 20.8436 15.7841 20.7224 16.0525 20.5579C16.3552 20.3724 16.6147 20.113 17.1335 19.5941L19.5941 17.1335C20.113 16.6147 20.3724 16.3552 20.5579 16.0525C20.7224 15.7841 20.8436 15.4914 20.9171 15.1853C21 14.8401 21 14.4732 21 13.7394V10.2606C21 9.52682 21 9.15993 20.9171 8.81467C20.8436 8.50856 20.7224 8.21593 20.5579 7.94751C20.3724 7.64476 20.113 7.38533 19.5941 6.86648L17.1335 4.40589Z" stroke="#131316" stroke-width="2" stroke-linecap="round" stroke-linejoin="round"/>
</svg>
