<svg width="24" height="24" viewBox="0 0 24 24" fill="none" xmlns="http://www.w3.org/2000/svg">
<path d="M11.9995 14.3132L6.5957 11.1936V6.60226C6.5957 4.61255 8.20907 3 10.198 3C11.5291 3 12.6908 3.7216 13.3151 4.79499M9.81836 13.054V6.81405L13.7945 4.51835C15.5175 3.5235 17.7207 4.11419 18.7156 5.83719C19.3807 6.98994 19.3374 8.35705 18.7197 9.43372M9.81836 10.5341L15.2222 7.41455L19.1983 9.71024C20.9213 10.7051 21.512 12.9083 20.5171 14.6313C19.852 15.7841 18.6461 16.4296 17.4041 16.4329M12.0001 9.27515L17.4039 12.3947V16.9861C17.4039 18.9758 15.7906 20.5883 13.8017 20.5883C12.4706 20.5883 11.3088 19.8667 10.6846 18.7933M14.1822 10.5342V16.7741L10.2061 19.0698C8.48308 20.0647 6.27983 19.474 5.28498 17.751C4.61984 16.5982 4.6632 15.2311 5.28089 14.1544M14.182 13.0543L8.77818 16.1738L4.80203 13.8781C3.07904 12.8833 2.48834 10.6801 3.4832 8.95705C4.14834 7.8043 5.35428 7.15879 6.59621 7.15552" stroke="#131316" stroke-width="2" stroke-linecap="round" stroke-linejoin="round"/>
</svg>
