<svg width="24" height="24" viewBox="0 0 24 24" fill="none" xmlns="http://www.w3.org/2000/svg">
<path d="M4.16344 4.44013L7.06142 7.25375M20.068 3L20.068 6.75149M18.136 4.87574L22 4.87574M11.8328 15.2021L15.2481 11.8862C15.5653 11.5782 15.7239 11.4242 15.8746 11.312C16.9152 10.5367 18.3624 10.5367 19.403 11.312C19.5537 11.4242 19.7123 11.5782 20.0295 11.8862C20.3467 12.1942 20.5054 12.3482 20.621 12.4945C21.4195 13.5048 21.4195 14.9098 20.621 15.9202C20.5054 16.0665 20.3467 16.2205 20.0295 16.5284L16.6142 19.8443C16.297 20.1523 16.1384 20.3063 15.9877 20.4186C14.9471 21.1938 13.4999 21.1938 12.4593 20.4186C12.3086 20.3063 12.15 20.1523 11.8328 19.8443C11.5156 19.5363 11.3569 19.3823 11.2413 19.236C10.4428 18.2257 10.4428 16.8207 11.2413 15.8104C11.3569 15.6641 11.5156 15.5101 11.8328 15.2021ZM3.37496 11.0953L3.13519 8.30191C2.97865 6.47805 2.90037 5.56611 3.22807 4.88675C3.51564 4.29059 4.0094 3.81119 4.62344 3.532C5.32318 3.21384 6.26246 3.28984 8.14101 3.44183L11.0182 3.67461C12.1901 3.76943 12.776 3.81683 13.2615 4.04526C13.6904 4.24702 14.0613 4.54834 14.3416 4.92252C14.6589 5.34616 14.8104 5.89774 15.1134 7.0009L15.5152 8.464C15.7662 9.3777 15.8917 9.83456 15.8673 10.279C15.8457 10.6723 15.7393 11.0568 15.555 11.4077C15.3467 11.8042 15.0024 12.1386 14.3137 12.8072L12.7814 14.2949C12.0927 14.9635 11.7483 15.2978 11.3399 15.5C10.9786 15.6789 10.5825 15.7822 10.1775 15.8032C9.71966 15.8268 9.24913 15.705 8.30806 15.4614L6.80106 15.0712C5.66479 14.7771 5.09666 14.63 4.66031 14.3219C4.2749 14.0499 3.96454 13.6897 3.75672 13.2733C3.52144 12.802 3.47261 12.2331 3.37496 11.0953ZM10.4081 8.62723C10.4081 9.66318 9.54309 10.503 8.47608 10.503C7.40908 10.503 6.5441 9.66318 6.5441 8.62723C6.5441 7.59129 7.40908 6.75149 8.47608 6.75149C9.54309 6.75149 10.4081 7.59129 10.4081 8.62723Z" stroke="#131316" stroke-width="2" stroke-linecap="round" stroke-linejoin="round"/>
</svg>
