<svg width="24" height="24" viewBox="0 0 24 24" fill="none" xmlns="http://www.w3.org/2000/svg">
<path d="M3 21L6.60913 20.278C7.14385 20.1711 7.41122 20.1176 7.66054 20.0198C7.88183 19.933 8.09214 19.8204 8.28711 19.6845C8.50678 19.5313 8.69958 19.3385 9.08519 18.9529L20.1635 7.87521C21.2788 6.75997 21.2788 4.95173 20.1636 3.83644C19.0483 2.7212 17.2402 2.72118 16.1249 3.83642L5.04705 14.9143C4.66137 15.2999 4.46853 15.4928 4.3153 15.7125C4.17929 15.9075 4.06672 16.1178 3.97991 16.3392C3.88211 16.5886 3.82863 16.856 3.72169 17.3908L3 21ZM3 21L6.68583 20.2628C7.14444 20.1711 7.37376 20.1252 7.58953 20.0467C7.8607 19.9481 8.1164 19.8113 8.34886 19.6403C8.53382 19.5043 8.69919 19.339 9.02992 19.0083L9.05753 18.9807L5.01926 14.9421L4.97129 14.9901C4.66081 15.3006 4.50557 15.4558 4.3763 15.6283C4.19187 15.8742 4.04597 16.1469 3.94361 16.4368C3.87186 16.64 3.82881 16.8553 3.74272 17.2858L3 21Z" stroke="#131316" stroke-width="2" stroke-linecap="round" stroke-linejoin="round"/>
</svg>
