<svg width="24" height="24" viewBox="0 0 24 24" fill="none" xmlns="http://www.w3.org/2000/svg">
<path d="M17 17.5C17 22.5376 13.866 22 10 22C6.13401 22 3 22.5376 3 17.5C3 14.4624 6.13401 11 10 11C13.866 11 17 14.4624 17 17.5Z" stroke="#131316" stroke-width="2" stroke-linecap="round" stroke-linejoin="round"/>
<path d="M6 7C6 8.10457 5.10457 9 4 9C2.89543 9 2 8.10457 2 7C2 5.89543 2.89543 5 4 5C5.10457 5 6 5.89543 6 7Z" stroke="#131316" stroke-width="2" stroke-linecap="round" stroke-linejoin="round"/>
<path d="M20 7.5C20 8.32843 19.3284 9 18.5 9C17.6716 9 17 8.32843 17 7.5C17 6.67157 17.6716 6 18.5 6C19.3284 6 20 6.67157 20 7.5Z" stroke="#131316" stroke-width="2" stroke-linecap="round" stroke-linejoin="round"/>
<path d="M22 13C22 13.5523 21.5523 14 21 14C20.4477 14 20 13.5523 20 13C20 12.4477 20.4477 12 21 12C21.5523 12 22 12.4477 22 13Z" stroke="#131316" stroke-width="2" stroke-linecap="round" stroke-linejoin="round"/>
<path d="M14 4.5C14 5.88071 12.8807 7 11.5 7C10.1193 7 9 5.88071 9 4.5C9 3.11929 10.1193 2 11.5 2C12.8807 2 14 3.11929 14 4.5Z" stroke="#131316" stroke-width="2" stroke-linecap="round" stroke-linejoin="round"/>
</svg>
