<svg width="24" height="24" viewBox="0 0 24 24" fill="none" xmlns="http://www.w3.org/2000/svg">
<path d="M12 17V22M12.3424 17H9.24774C7.12213 17 6.05933 17 5.33826 16.5585C4.70643 16.1716 4.2401 15.5646 4.02909 14.8545C3.78827 14.044 4.06212 13.0171 4.60981 10.9632L4.96683 9.62438M3 2L21 20M6.15801 5.1587L17.8571 16.8579C18.1741 16.7926 18.4349 16.6974 18.6617 16.5585C19.2936 16.1716 19.7599 15.5646 19.9709 14.8545C20.2117 14.044 19.9379 13.0171 19.3902 10.9632L17.9502 5.56322C17.61 4.28766 17.44 3.64988 17.0768 3.17571C16.7562 2.75727 16.3311 2.43066 15.8442 2.22877C15.2925 2 14.6324 2 13.3123 2H10.6877C9.3676 2 8.70754 2 8.15579 2.22877C7.66889 2.43066 7.24377 2.75727 6.92325 3.17571C6.60063 3.59688 6.43039 4.14712 6.15801 5.1587Z" stroke="#131316" stroke-width="2" stroke-linecap="round" stroke-linejoin="round"/>
</svg>
