<svg width="24" height="24" viewBox="0 0 24 24" fill="none" xmlns="http://www.w3.org/2000/svg">
<path d="M12.3426 17H7C5.34315 17 4 15.6569 4 14C4 12.5478 5.03176 11.3367 6.4022 11.0596M12 17V22M3 2L21 20M7.75375 5.98499C6.76536 5.86364 6 5.0212 6 4C6 2.89543 6.89543 2 8 2H16C17.1046 2 18 2.89543 18 4C18 5.0212 17.2346 5.86364 16.2462 5.98499L17.5108 11.0433C18.9244 11.2858 20 12.5173 20 14C20 15.3539 19.1031 16.4984 17.8711 16.8716L7.5999 6.6004L7.75375 5.98499Z" stroke="#131316" stroke-width="2" stroke-linecap="round" stroke-linejoin="round"/>
</svg>
