<svg width="24" height="24" viewBox="0 0 24 24" fill="none" xmlns="http://www.w3.org/2000/svg">
<path d="M11.6619 14.7279C10.9602 13.8474 10.4981 12.0163 11.5 11.5C11.8147 11.3378 12.3025 11.4656 12.1939 12.3111C12.1198 12.8877 11.9167 13.7614 11.6619 14.7279ZM11.6619 14.7279C11.7006 14.7764 11.7401 14.8221 11.78 14.8645C12.5445 15.6756 15.6743 15.5722 15.9798 12.0668C16.3622 7.67804 11.2177 7.35029 9.48884 8.70857C7.75994 10.0669 7.57985 12.4694 8.72519 14.0669M11.6619 14.7279C11.0354 17.1049 10.097 20.0428 10 20.5M21 12C21 16.9706 16.9706 21 12 21C7.02944 21 3 16.9706 3 12C3 7.02944 7.02944 3 12 3C16.9706 3 21 7.02944 21 12Z" stroke="#131316" stroke-width="2" stroke-linecap="round" stroke-linejoin="round"/>
</svg>
