<svg width="24" height="24" viewBox="0 0 24 24" fill="none" xmlns="http://www.w3.org/2000/svg">
<path d="M16.265 8.08293L7.78201 3.2694C6.51818 2.55226 5.76166 2.12298 5.17935 2.02275M16.265 8.08293L18.0273 9.08292C19.7034 10.034 20.5415 10.5096 20.8188 11.1379C21.0604 11.6856 21.0604 12.3144 20.8188 12.8621C20.5415 13.4904 19.7034 13.966 18.0273 14.9171L16.2711 15.9136M16.265 8.08293L5.16917 21.979M16.2711 15.9136L7.78201 20.7306C6.5108 21.4519 5.75284 21.882 5.16917 21.979M16.2711 15.9136L5.17935 2.02275M5.17935 2.02275C5.03633 1.99814 4.90382 1.99337 4.77688 2.00906C4.21515 2.0785 3.70751 2.38816 3.37783 2.8625C3 3.40611 3 4.3329 3 6.18648V17.8135C3 19.6671 3 20.5939 3.37783 21.1375C3.70751 21.6118 4.21515 21.9215 4.77688 21.9909C4.9008 22.0063 5.03004 22.0021 5.16917 21.979" stroke="#131316" stroke-width="2" stroke-linecap="round" stroke-linejoin="round"/>
</svg>
