<svg width="24" height="24" viewBox="0 0 24 24" fill="none" xmlns="http://www.w3.org/2000/svg">
<path d="M11 21H13C15.8003 21 17.2004 21 18.27 20.455C19.2108 19.9757 19.9757 19.2108 20.455 18.27C21 17.2004 21 15.8003 21 13V11C21 8.19974 21 6.79961 20.455 5.73005C19.9757 4.78924 19.2108 4.02433 18.27 3.54497C17.2004 3 15.8003 3 13 3L11 3C8.19974 3 6.79961 3 5.73005 3.54497C4.78924 4.02433 4.02433 4.78924 3.54497 5.73005C3 6.79961 3 8.19974 3 11L3 13C3 15.8003 3 17.2004 3.54497 18.27C4.02433 19.2108 4.78924 19.9757 5.73005 20.455C6.79961 21 8.19974 21 11 21Z" stroke="#131316" stroke-width="2" stroke-linecap="round" stroke-linejoin="round"/>
<path d="M9.5 12C9.5 10.9121 9.5 10.3681 9.6316 10.0235C9.98677 9.09349 10.9719 8.56628 11.9427 8.78665C12.3025 8.86831 12.7551 9.17004 13.6603 9.7735C14.4086 10.2724 14.7828 10.5219 14.9858 10.7886C15.5307 11.5043 15.5307 12.4957 14.9858 13.2114C14.7828 13.4781 14.4086 13.7276 13.6603 14.2265C12.7551 14.83 12.3025 15.1317 11.9427 15.2134C10.9719 15.4337 9.98677 14.9065 9.6316 13.9765C9.5 13.6319 9.5 13.0879 9.5 12Z" stroke="#131316" stroke-width="2" stroke-linecap="round" stroke-linejoin="round"/>
</svg>
