<svg width="24" height="24" viewBox="0 0 24 24" fill="none" xmlns="http://www.w3.org/2000/svg">
<path d="M3 20L3 4M13.5374 6.97504L11.9908 8.00616C9.9877 9.34153 8.98617 10.0092 8.63717 10.8508C8.33205 11.5866 8.33205 12.4134 8.63717 13.1492C8.98617 13.9908 9.9877 14.6585 11.9908 15.9938L13.5374 17.025C15.9616 18.6411 17.1737 19.4491 18.1788 19.3891C19.0544 19.3368 19.8633 18.9039 20.3925 18.2044C21 17.4014 21 15.9446 21 13.0311L21 10.9689C21 8.05539 21 6.59865 20.3925 5.79564C19.8633 5.09607 19.0544 4.66317 18.1788 4.61089C17.1737 4.55087 15.9616 5.35893 13.5374 6.97504Z" stroke="#131316" stroke-width="2" stroke-linecap="round" stroke-linejoin="round"/>
</svg>
