<svg width="24" height="24" viewBox="0 0 24 24" fill="none" xmlns="http://www.w3.org/2000/svg">
<path d="M12 16C10.1387 16 9.20808 16 8.45492 15.7553C6.93272 15.2607 5.73931 14.0673 5.24472 12.5451C5 11.7919 5 10.8613 5 9L5 8.14286C5 7.07663 5 6.54351 5.19806 6.13223C5.39465 5.72402 5.72402 5.39465 6.13223 5.19806C6.54351 5 7.07663 5 8.14286 5H15.8571C16.9234 5 17.4565 5 17.8678 5.19806C18.276 5.39465 18.6054 5.72402 18.8019 6.13223C19 6.54351 19 7.07663 19 8.14286V9C19 10.8613 19 11.7919 18.7553 12.5451C18.2607 14.0673 17.0673 15.2607 15.5451 15.7553C14.7919 16 13.8613 16 12 16ZM12 16C12 18.7614 9.76142 21 7 21H6M9 2L9 5M15 2V5" stroke="#131316" stroke-width="2" stroke-linecap="round" stroke-linejoin="round"/>
</svg>
