<svg width="24" height="24" viewBox="0 0 24 24" fill="none" xmlns="http://www.w3.org/2000/svg">
<path d="M3 13L3 11M14 21H11M14 21L14 3M14 21L14.082 21C15.8666 21 16.7589 21 17.4837 20.7748C19.0556 20.2864 20.2864 19.0556 20.7748 17.4837C21 16.7589 21 15.8666 21 14.082V9.93359C21 8.13439 21 7.23479 20.7711 6.5046C20.2814 4.9422 19.0578 3.71856 17.4954 3.22886C16.7652 3 15.8656 3 14.0664 3L14 3M11 3L14 3M7 21C4.79086 21 3 19.2091 3 17M3 7C3 4.79086 4.79086 3 7 3" stroke="#131316" stroke-width="2" stroke-linecap="round" stroke-linejoin="round"/>
</svg>
