<svg width="24" height="24" viewBox="0 0 24 24" fill="none" xmlns="http://www.w3.org/2000/svg">
<path d="M3 10L3 14M10 21H14M21 14V9M10 3L15 3M3 18C3 19.6569 4.34315 21 6 21M6 3C4.34315 3 3 4.34315 3 6M18 21C19.6569 21 21 19.6569 21 18M16.5 3C15.1022 3 14.4033 3 13.8519 3.22836C13.1169 3.53284 12.5328 4.11687 12.2284 4.85195C12 5.40326 12 6.10218 12 7.5C12 8.89782 12 9.59674 12.2284 10.1481C12.5328 10.8831 13.1169 11.4672 13.8519 11.7716C14.4033 12 15.1022 12 16.5 12C17.8978 12 18.5967 12 19.148 11.7716C19.8831 11.4672 20.4672 10.8831 20.7716 10.148C21 9.59674 21 8.89782 21 7.5C21 6.10218 21 5.40326 20.7716 4.85195C20.4672 4.11687 19.8831 3.53284 19.148 3.22836C18.5967 3 17.8978 3 16.5 3Z" stroke="#131316" stroke-width="2" stroke-linecap="round" stroke-linejoin="round"/>
</svg>
