<svg width="24" height="24" viewBox="0 0 24 24" fill="none" xmlns="http://www.w3.org/2000/svg">
<path d="M3 14L3 10M10 3L14 3M21 10V15M10 21H15M3 6C3 4.34315 4.34315 3 6 3M6 21C4.34315 21 3 19.6569 3 18M18 3C19.6569 3 21 4.34315 21 6M16.5 21C15.1022 21 14.4033 21 13.8519 20.7716C13.1169 20.4672 12.5328 19.8831 12.2284 19.1481C12 18.5967 12 17.8978 12 16.5C12 15.1022 12 14.4033 12.2284 13.8519C12.5328 13.1169 13.1169 12.5328 13.8519 12.2284C14.4033 12 15.1022 12 16.5 12C17.8978 12 18.5967 12 19.1481 12.2284C19.8831 12.5328 20.4672 13.1169 20.7716 13.852C21 14.4033 21 15.1022 21 16.5C21 17.8978 21 18.5967 20.7716 19.1481C20.4672 19.8831 19.8831 20.4672 19.148 20.7716C18.5967 21 17.8978 21 16.5 21Z" stroke="#131316" stroke-width="2" stroke-linecap="round" stroke-linejoin="round"/>
</svg>
