<svg width="24" height="24" viewBox="0 0 24 24" fill="none" xmlns="http://www.w3.org/2000/svg">
<path d="M10 3L14 3M21 10L21 14M14 21H9M3 10L3 15M18 3C19.6569 3 21 4.34315 21 6M3 6C3 4.34315 4.34315 3 6 3M21 18C21 19.6569 19.6569 21 18 21M3 16.5C3 15.1022 3 14.4033 3.22836 13.8519C3.53284 13.1169 4.11687 12.5328 4.85195 12.2284C5.40326 12 6.10218 12 7.5 12C8.89782 12 9.59674 12 10.148 12.2284C10.8831 12.5328 11.4672 13.1169 11.7716 13.8519C12 14.4033 12 15.1022 12 16.5C12 17.8978 12 18.5967 11.7716 19.1481C11.4672 19.8831 10.8831 20.4672 10.1481 20.7716C9.59674 21 8.89782 21 7.5 21C6.10218 21 5.40326 21 4.85195 20.7716C4.11687 20.4672 3.53284 19.8831 3.22836 19.1481C3 18.5967 3 17.8978 3 16.5Z" stroke="#131316" stroke-width="2" stroke-linecap="round" stroke-linejoin="round"/>
</svg>
