<svg width="24" height="24" viewBox="0 0 24 24" fill="none" xmlns="http://www.w3.org/2000/svg">
<path d="M2.57575 8.23279C2.48267 8.36048 2.39939 8.49591 2.32698 8.63803C2 9.27976 2 10.1198 2 11.8V13.2C2 14.8802 2 15.7202 2.32698 16.362C2.6146 16.9265 3.07354 17.3854 3.63803 17.673C4.27976 18 5.11984 18 6.8 18H7.02878C7 17.5286 7 16.9474 7 16.2M7 16.2V15H9.34294M7 16.2C7 17.8802 7 18.7202 7.32698 19.362C7.6146 19.9265 8.07354 20.3854 8.63803 20.673C9.27976 21 10.1198 21 11.8 21H12.2C13.6778 21 14.5057 21 15.1204 20.7775M16.9983 16.9985C17 16.7552 17 16.4901 17 16.2V15H14.9998M16.9983 16.9985L17.9981 17.9983C19.1642 17.9903 19.831 17.9436 20.362 17.673C20.9265 17.3854 21.3854 16.9265 21.673 16.362C22 15.7202 22 14.8802 22 13.2V11.8C22 10.1198 22 9.27976 21.673 8.63803C21.3854 8.07354 20.9265 7.6146 20.362 7.32698C19.7202 7 18.8802 7 17.2 7H6.99981M16.9983 16.9985L14.9998 15M14.9998 15L6.99981 7M6.99981 7H17C17 6.07003 17 5.60504 16.8978 5.22354C16.6204 4.18827 15.8117 3.37962 14.7765 3.10222C14.395 3 13.93 3 13 3L11 3C10.07 3 9.60504 3 9.22354 3.10222C8.18827 3.37962 7.37962 4.18827 7.10222 5.22354C7 5.60504 6.99981 6.07003 6.99981 7ZM3 3L21 21M18 11V11.0099" stroke="#131316" stroke-width="2" stroke-linecap="round" stroke-linejoin="round"/>
</svg>
