<svg width="24" height="24" viewBox="0 0 24 24" fill="none" xmlns="http://www.w3.org/2000/svg">
<path d="M18 11V11.0099M7 16.2V15H17V16.2M7 16.2C7 17.8802 7 18.7202 7.32698 19.362C7.6146 19.9265 8.07354 20.3854 8.63803 20.673C9.27976 21 10.1198 21 11.8 21H12.2C13.8802 21 14.7202 21 15.362 20.673C15.9265 20.3854 16.3854 19.9265 16.673 19.362C17 18.7202 17 17.8802 17 16.2M7 16.2C7 16.9474 7 17.5286 7.02878 18H6.8C5.11984 18 4.27976 18 3.63803 17.673C3.07354 17.3854 2.6146 16.9265 2.32698 16.362C2 15.7202 2 14.8802 2 13.2V11.8C2 10.1198 2 9.27976 2.32698 8.63803C2.6146 8.07354 3.07354 7.6146 3.63803 7.32698C4.27976 7 5.11984 7 6.8 7H17.2C18.8802 7 19.7202 7 20.362 7.32698C20.9265 7.6146 21.3854 8.07354 21.673 8.63803C22 9.27976 22 10.1198 22 11.8V13.2C22 14.8802 22 15.7202 21.673 16.362C21.3854 16.9265 20.9265 17.3854 20.362 17.673C19.7202 18 18.8802 18 17.2 18H16.9712C17 17.5286 17 16.9474 17 16.2M11 3L13 3C13.93 3 14.395 3 14.7765 3.10222C15.8117 3.37962 16.6204 4.18827 16.8978 5.22354C17 5.60504 17 6.07003 17 7H7C7 6.07003 7 5.60504 7.10222 5.22354C7.37962 4.18827 8.18827 3.37962 9.22354 3.10222C9.60504 3 10.07 3 11 3Z" stroke="#131316" stroke-width="2" stroke-linecap="round" stroke-linejoin="round"/>
</svg>
