<svg width="24" height="24" viewBox="0 0 24 24" fill="none" xmlns="http://www.w3.org/2000/svg">
<path d="M5 20C7.76142 20 10 17.7614 10 15L10 4L7 4C6.07003 4 5.60504 4 5.22354 4.10222C4.18827 4.37962 3.37962 5.18827 3.10222 6.22354C3 6.60504 3 7.07003 3 8C3 8.92997 3 9.39496 3.10222 9.77646C3.37962 10.8117 4.18827 11.6204 5.22354 11.8978C5.60504 12 6.07003 12 7 12H10M16 20C18.7614 20 21 17.7614 21 15V4L18 4C17.07 4 16.605 4 16.2235 4.10222C15.1883 4.37962 14.3796 5.18827 14.1022 6.22354C14 6.60504 14 7.07003 14 8C14 8.92997 14 9.39496 14.1022 9.77646C14.3796 10.8117 15.1883 11.6204 16.2235 11.8978C16.605 12 17.07 12 18 12H21" stroke="#131316" stroke-width="2" stroke-linecap="round" stroke-linejoin="round"/>
</svg>
