<svg width="24" height="24" viewBox="0 0 24 24" fill="none" xmlns="http://www.w3.org/2000/svg">
<path d="M3 3L21 21M7.16751 19.5939C4.66182 17.9961 3 15.1921 3 12C3 10.995 3.16473 10.0285 3.46866 9.12592M9.31529 16.2188C8.11158 15.4512 7.25841 14.1826 7.04958 12.7069M5.63584 5.63624L8.46426 8.46467C9.3691 7.55973 10.6192 7 12 7C14.7614 7 17 9.23858 17 12C17 13.3808 16.4403 14.6309 15.5353 15.5358L18.3637 18.3642C19.9925 16.7355 21 14.4854 21 12C21 7.02944 16.9706 3 12 3C9.51462 3 7.26453 4.00744 5.63584 5.63624Z" stroke="#131316" stroke-width="2" stroke-linecap="round" stroke-linejoin="round"/>
</svg>
