<svg width="24" height="24" viewBox="0 0 24 24" fill="none" xmlns="http://www.w3.org/2000/svg">
<path d="M12.0002 2C17.523 2 22.0002 6.47715 22.0002 12C22.0002 17.5228 17.523 22 12.0002 22C7.16224 22 3.12674 18.5645 2.2002 14M10.0002 6.34141C10.6257 6.12031 11.2989 6 12.0002 6C15.3139 6 18.0002 8.68629 18.0002 12C18.0002 15.3137 15.3139 18 12.0002 18C9.77931 18 7.84028 16.7934 6.80285 15M12.0002 14C13.1047 14 14.0002 13.1046 14.0002 12C14.0002 10.8954 13.1047 10 12.0002 10C11.4028 10 10.8666 10.2619 10.5002 10.6771" stroke="#131316" stroke-width="2" stroke-linecap="round" stroke-linejoin="round"/>
</svg>
