<svg width="24" height="24" viewBox="0 0 24 24" fill="none" xmlns="http://www.w3.org/2000/svg">
<path d="M12 10C13.8751 10 15.6162 10.3823 17.0577 11.0363M12 10C10.1249 10 8.38377 10.3823 6.94234 11.0363M12 10L14 2.50006L17 3.5M19.7823 12.9842C21.0301 12.844 22 11.7853 22 10.5C22 9.11929 20.8807 8 19.5 8C18.1193 8 17 9.11929 17 10.5C17 10.6841 17.0199 10.8635 17.0577 11.0363M19.7823 12.9842C20.5565 13.8703 21 14.9006 21 16C21 19.3137 16.9706 22 12 22C7.02944 22 3 19.3137 3 16C3 14.9006 3.44351 13.8703 4.21776 12.9842M19.7823 12.9842C19.1031 12.207 18.1696 11.5408 17.0577 11.0363M6.94234 11.0363C6.9801 10.8635 7 10.6841 7 10.5C7 9.11929 5.88071 8 4.5 8C3.11929 8 2 9.11929 2 10.5C2 11.7853 2.96992 12.844 4.21776 12.9842M6.94234 11.0363C5.83043 11.5408 4.89687 12.2071 4.21776 12.9842M16 17C16 17 14.6667 18 12 18C9.33333 18 8 17 8 17M17 3.5C17 4.32843 17.6716 5 18.5 5C19.3284 5 20 4.32843 20 3.5C20 2.67157 19.3284 2 18.5 2C17.6716 2 17 2.67157 17 3.5ZM9 14V14.0099M15 14V14.0099" stroke="#131316" stroke-width="2" stroke-linecap="round" stroke-linejoin="round"/>
</svg>
