<svg width="24" height="24" viewBox="0 0 24 24" fill="none" xmlns="http://www.w3.org/2000/svg">
<path d="M7 11.3333C7 16.6667 8.66667 18 8.66667 18C8.66667 18 10.1133 16.6667 12 16.6667C13.8867 16.6667 15.3333 18 15.3333 18C15.3333 18 17.0004 16.6667 17 11.3333M7 11.3333C7 6 12 2 12 2C12 2 16.9996 6 17 11.3333M7 11.3333C7 13.3047 7.22772 14.7296 7.5148 15.7426L3 18V16.2482C3 15.4218 3 15.0086 3.10301 14.6257C3.19429 14.2865 3.34444 13.9659 3.54664 13.6786C3.77484 13.3543 4.09226 13.0898 4.72711 12.5607L7.02768 10.6436C7.0095 10.8708 7 11.1008 7 11.3333ZM17 11.3333C17 11.1008 16.9905 10.8708 16.9723 10.6436L19.2729 12.5607C19.9077 13.0898 20.2252 13.3543 20.4534 13.6786C20.6556 13.9659 20.8057 14.2865 20.897 14.6257C21 15.0086 21 15.4218 21 16.2482V18L16.4853 15.7427C16.7724 14.7296 17.0001 13.3048 17 11.3333ZM14 21V22M10 21V22" stroke="#131316" stroke-width="2" stroke-linecap="round" stroke-linejoin="round"/>
</svg>
