<svg width="24" height="24" viewBox="0 0 24 24" fill="none" xmlns="http://www.w3.org/2000/svg">
<path d="M12 18L12 6M12 18C12 18.93 12 19.395 12.1022 19.7765C12.3796 20.8117 13.1883 21.6204 14.2235 21.8978C14.605 22 15.07 22 16 22C16.93 22 17.395 22 17.7765 21.8978C18.8117 21.6204 19.6204 20.8117 19.8978 19.7765C20 19.395 20 18.93 20 18V6C20 5.07003 20 4.60504 19.8978 4.22354C19.6204 3.18827 18.8117 2.37962 17.7765 2.10222C17.395 2 16.93 2 16 2C15.07 2 14.605 2 14.2235 2.10222C13.1883 2.37962 12.3796 3.18827 12.1022 4.22354C12 4.60504 12 5.07003 12 6M12 18H14M12 6H15M12 14H15M12 10H14M8 4L8 16.8669C8 17.2895 8 17.5008 7.97103 17.7077C7.9453 17.8915 7.90256 18.0725 7.84338 18.2485C7.77674 18.4465 7.68223 18.6355 7.49325 19.0135L6 22L4.50675 19.0135C4.31776 18.6355 4.22326 18.4465 4.15662 18.2485C4.09744 18.0725 4.05471 17.8915 4.02897 17.7077C4 17.5008 4 17.2895 4 16.8669L4 4C4 2.89543 4.89543 2 6 2C7.10457 2 8 2.89543 8 4Z" stroke="#131316" stroke-width="2" stroke-linecap="round" stroke-linejoin="round"/>
</svg>
