<svg width="24" height="24" viewBox="0 0 24 24" fill="none" xmlns="http://www.w3.org/2000/svg">
<path d="M7 18H10M7 14H12M7 10H10M7 6H12M17 6.8V17.2C17 18.8802 17 19.7202 16.673 20.362C16.3854 20.9265 15.9265 21.3854 15.362 21.673C14.7202 22 13.8802 22 12.2 22H11.8C10.1198 22 9.27976 22 8.63803 21.673C8.07354 21.3854 7.6146 20.9265 7.32698 20.362C7 19.7202 7 18.8802 7 17.2L7 6.8C7 5.11984 7 4.27976 7.32698 3.63803C7.6146 3.07354 8.07354 2.6146 8.63803 2.32698C9.27976 2 10.1198 2 11.8 2L12.2 2C13.8802 2 14.7202 2 15.362 2.32698C15.9265 2.6146 16.3854 3.07354 16.673 3.63803C17 4.27976 17 5.11984 17 6.8Z" stroke="#131316" stroke-width="2" stroke-linecap="round" stroke-linejoin="round"/>
</svg>
