<svg width="24" height="24" viewBox="0 0 24 24" fill="none" xmlns="http://www.w3.org/2000/svg">
<path d="M6.5 3C8.433 3 10 4.567 10 6.5V17.5C10 19.433 8.433 21 6.5 21C4.567 21 3 19.433 3 17.5L3 6.5C3 4.567 4.567 3 6.5 3ZM6.5 3L17.5001 3C19.4331 3 21.0001 4.567 21.0001 6.5C21.0001 8.433 19.4331 10 17.5001 10H10M15.1528 9.99584L20.0396 14.9866C21.403 16.3789 21.3911 18.6094 20.0131 19.9871C18.6249 21.375 16.3745 21.3749 14.9865 19.9869L9.99517 14.9958" stroke="#131316" stroke-width="2" stroke-linecap="round" stroke-linejoin="round"/>
</svg>
