<svg width="24" height="24" viewBox="0 0 24 24" fill="none" xmlns="http://www.w3.org/2000/svg">
<path d="M8 11V10.9464C8 9.31916 9.31916 8 10.9464 8H11M8 16V14M8 16H10M8 16H7.8C6.11984 16 5.27976 16 4.63803 15.673C4.07354 15.3854 3.6146 14.9265 3.32698 14.362C3 13.7202 3 12.8802 3 11.2V7.8C3 6.11984 3 5.27976 3.32698 4.63803C3.6146 4.07354 4.07354 3.6146 4.63803 3.32698C5.27976 3 6.11984 3 7.8 3H11.2C12.8802 3 13.7202 3 14.362 3.32698C14.9265 3.6146 15.3854 4.07354 15.673 4.63803C16 5.27976 16 6.11984 16 7.8L16 8M8 16L8 16.2C8 17.8802 8 18.7202 8.32698 19.362C8.6146 19.9265 9.07354 20.3854 9.63803 20.673C10.2798 21 11.1198 21 12.8 21H16.2C17.8802 21 18.7202 21 19.362 20.673C19.9265 20.3854 20.3854 19.9265 20.673 19.362C21 18.7202 21 17.8802 21 16.2V12.8C21 11.1198 21 10.2798 20.673 9.63803C20.3854 9.07354 19.9265 8.6146 19.362 8.32698C18.7202 8 17.8802 8 16.2 8H16M14 8H16M16 8V10M16 13C16 14.6569 14.6569 16 13 16" stroke="#131316" stroke-width="2" stroke-linecap="round" stroke-linejoin="round"/>
</svg>
