<svg width="24" height="24" viewBox="0 0 24 24" fill="none" xmlns="http://www.w3.org/2000/svg">
<path d="M20.4431 3.55686C20.2337 3.34739 19.9788 3.18335 19.6936 3.07989C19.0385 2.84224 18.0627 3.15272 16.1111 3.77369L7.30878 6.57442C4.9045 7.33942 3.70236 7.72192 3.30388 8.36928C2.95822 8.93082 2.90415 9.62446 3.15861 10.2328C3.45196 10.9341 4.5803 11.4982 6.83697 12.6266L8.88452 13.6504C9.24692 13.8316 9.42813 13.9222 9.58515 14.0432C9.65482 14.0969 9.72088 14.155 9.78295 14.217M20.4431 3.55686L9.78295 14.217M20.4431 3.55686C20.6526 3.76633 20.8166 4.02123 20.9201 4.30642C21.1578 4.9615 20.8473 5.93731 20.2263 7.88893L17.4256 16.6912C16.6606 19.0955 16.2781 20.2976 15.6307 20.6961C15.0692 21.0418 14.3755 21.0959 13.7672 20.8414C13.0659 20.548 12.5018 19.4197 11.3734 17.163L10.3496 15.1155C10.1684 14.7531 10.0778 14.5719 9.9568 14.4148C9.9031 14.3452 9.84502 14.2791 9.78295 14.217" stroke="#131316" stroke-width="2" stroke-linecap="round" stroke-linejoin="round"/>
</svg>
