<svg width="24" height="24" viewBox="0 0 24 24" fill="none" xmlns="http://www.w3.org/2000/svg">
<path d="M11.9707 18.2818V12.2856M4.73586 13.8224L7.70947 7.87521C9.09041 5.11332 9.78089 3.73237 10.7152 3.28923C11.5283 2.90359 12.4717 2.90359 13.2848 3.28923C14.2191 3.73237 14.9096 5.11332 16.2905 7.87522L19.2641 13.8224C20.41 16.1142 20.983 17.2601 20.9991 17.9297C21.0404 19.6441 19.6378 21.0438 17.9234 20.999C17.2539 20.9814 16.1092 20.4061 13.8198 19.2554C13.3576 19.0231 13.1265 18.907 12.8916 18.8338C12.311 18.6529 11.689 18.6529 11.1084 18.8338C10.8735 18.907 10.6424 19.0231 10.1802 19.2554C7.89078 20.4061 6.74608 20.9814 6.07656 20.9989C4.3622 21.0438 2.9596 19.6441 3.00089 17.9297C3.01701 17.2601 3.58996 16.1142 4.73586 13.8224Z" stroke="#131316" stroke-width="2" stroke-linecap="round" stroke-linejoin="round"/>
</svg>
