<svg width="24" height="24" viewBox="0 0 24 24" fill="none" xmlns="http://www.w3.org/2000/svg">
<path d="M12.0003 3.5C11.6955 3.5 11.3907 3.56411 11.1079 3.69234C10.4584 3.98687 9.97438 4.89446 9.00627 6.70964L4.63984 14.8966C3.44718 17.1328 2.85085 18.2509 3.03192 18.9888C3.18899 19.6289 3.6543 20.1565 4.28202 20.4061C5.00567 20.694 6.23705 20.2959 8.69982 19.4998L10.9344 18.7774C11.3298 18.6496 11.5276 18.5856 11.7299 18.5602C11.8197 18.549 11.91 18.5433 12.0003 18.5433M12.0003 3.5V18.5433M12.0003 3.5C12.3051 3.5 12.6093 3.56453 12.8921 3.69275C13.5416 3.98728 14.0256 4.89487 14.9937 6.71006L19.3602 14.897C20.5528 17.1332 21.1491 18.2513 20.9681 18.9892C20.811 19.6293 20.3457 20.1569 19.718 20.4066C18.9943 20.6944 17.7629 20.2963 15.3002 19.5002L13.0656 18.7778C12.6701 18.65 12.4724 18.586 12.2701 18.5607C12.1803 18.5494 12.0906 18.5433 12.0003 18.5433" stroke="#131316" stroke-width="2" stroke-linecap="round" stroke-linejoin="round"/>
</svg>
