<svg width="24" height="24" viewBox="0 0 24 24" fill="none" xmlns="http://www.w3.org/2000/svg">
<path d="M5.00007 15H19.0001M5.00007 15C3.34321 15 2.00007 16.3431 2.00007 18C2.00007 19.6569 3.34321 21 5.00007 21H19.0001C20.6569 21 22.0001 19.6569 22.0001 18C22.0001 16.3431 20.6569 15 19.0001 15M5.00007 15C3.34322 15 2.00007 13.6569 2.00007 12M19.0001 15C20.6569 15 22.0001 13.6569 22.0001 12C22.0001 10.3431 20.6569 9 19.0001 9M6.00007 11.99V11.9999M10.0001 11.99V11.9999M6.00007 18V18.0099M10.0001 18V18.0099M5.00007 9H19.0001M5.00007 9C3.34321 9 2.00007 10.3431 2.00007 12M5.00007 9C3.57101 9 2.37525 9.99921 2.07349 11.3371L2.2091 10.1165C2.48872 7.59998 2.62853 6.34169 3.20903 5.39211C3.72038 4.55563 4.46637 3.88793 5.35421 3.47208C6.36209 3 7.62812 3 10.1602 3H13.8395C16.3715 3 17.6376 3 18.6455 3.47208C19.5333 3.88793 20.2793 4.55563 20.7906 5.39211C21.3711 6.34169 21.5109 7.59998 21.7906 10.1165L21.9259 11.3342C21.623 9.99776 20.4281 9 19.0001 9M2.00007 12L2 11.9985M2.00007 12C2.00011 12 2.00007 12 2.00007 12Z" stroke="#131316" stroke-width="2" stroke-linecap="round" stroke-linejoin="round"/>
</svg>
