<svg width="24" height="24" viewBox="0 0 24 24" fill="none" xmlns="http://www.w3.org/2000/svg">
<path d="M6 13H18M6 13C3.79086 13 2 14.7909 2 17C2 19.2091 3.79086 21 6 21H18C20.2091 21 22 19.2091 22 17C22 14.7909 20.2091 13 18 13M6 13C3.98635 13 2.32023 14.4879 2.04112 16.4243L2.46928 10.43C2.6563 7.81181 2.74981 6.5027 3.31937 5.51059C3.82085 4.63709 4.57444 3.9354 5.48146 3.49743C6.51162 3 7.82407 3 10.449 3H13.551C16.1759 3 17.4884 3 18.5185 3.49743C19.4256 3.9354 20.1792 4.63709 20.6806 5.51059C21.2502 6.5027 21.3437 7.81181 21.5307 10.43L21.9589 16.4243C21.6798 14.4879 20.0136 13 18 13M7 17V17.0099M11 17V17.0099" stroke="#131316" stroke-width="2" stroke-linecap="round" stroke-linejoin="round"/>
</svg>
