<svg width="24" height="24" viewBox="0 0 24 24" fill="none" xmlns="http://www.w3.org/2000/svg">
<path d="M19.5 7C19.6712 7 19.8384 6.98279 20 6.94999V17.05C19.8384 17.0172 19.6712 17 19.5 17M19.5 7C18.1193 7 17 5.88071 17 4.5M19.5 7C20.8807 7 22 5.88071 22 4.5C22 3.11929 20.8807 2 19.5 2C18.1193 2 17 3.11929 17 4.5M17 4.5C17 4.32877 17.0172 4.16156 17.05 4H6.94999C6.98279 4.16156 7 4.32877 7 4.5M7 4.5C7 5.88071 5.88071 7 4.5 7M7 4.5C7 3.11929 5.88071 2 4.5 2C3.11929 2 2 3.11929 2 4.5C2 5.88071 3.11929 7 4.5 7M4.5 7C4.32877 7 4.16156 6.98279 4 6.94999V17.05C4.16156 17.0172 4.32877 17 4.5 17M4.5 17C5.88071 17 7 18.1193 7 19.5M4.5 17C3.11929 17 2 18.1193 2 19.5C2 20.8807 3.11929 22 4.5 22C5.88071 22 7 20.8807 7 19.5M7 19.5C7 19.6712 6.98279 19.8384 6.94999 20H17.05C17.0172 19.8384 17 19.6712 17 19.5M17 19.5C17 18.1193 18.1193 17 19.5 17M17 19.5C17 20.8807 18.1193 22 19.5 22C20.8807 22 22 20.8807 22 19.5C22 18.1193 20.8807 17 19.5 17" stroke="#131316" stroke-width="2" stroke-linecap="round" stroke-linejoin="round"/>
</svg>
