<svg width="24" height="24" viewBox="0 0 24 24" fill="none" xmlns="http://www.w3.org/2000/svg">
<path d="M12.0004 12L12.0004 15M12.0004 12C13.105 12 14.0004 11.1046 14.0004 10C14.0004 8.89544 13.105 8.00001 12.0004 8.00001C10.8958 8.00001 10.0004 8.89544 10.0004 10C10.0004 11.1046 10.8958 12 12.0004 12ZM5.00038 16.2857C3.76606 14.2842 3.28808 11.2 3.10579 8.89551C3.02985 7.93545 2.99188 7.4554 3.15774 6.91125C3.29172 6.4717 3.59958 5.96471 3.9278 5.64311C4.33413 5.24498 4.8379 5.03174 5.84545 4.60527L10.1293 2.79198C10.8194 2.49989 11.1645 2.35384 11.5219 2.29609C11.8388 2.24489 12.1619 2.24489 12.4788 2.29609C12.8363 2.35384 13.1813 2.49989 13.8714 2.79198L18.1553 4.60527C19.1629 5.03174 19.6666 5.24498 20.073 5.64311C20.4012 5.96471 20.709 6.4717 20.843 6.91125C21.0089 7.4554 20.9709 7.93544 20.895 8.89551C20.7127 11.2 20.2347 14.2842 19.0004 16.2857C17.8559 18.1416 15.6919 19.763 14.0716 20.8C13.4783 21.1797 13.1817 21.3695 12.6776 21.4863C12.3157 21.5702 11.685 21.5702 11.3231 21.4863C10.8191 21.3695 10.5224 21.1797 9.92914 20.8C8.30884 19.763 6.14488 18.1415 5.00038 16.2857Z" stroke="#131316" stroke-width="2" stroke-linecap="round" stroke-linejoin="round"/>
</svg>
