<svg width="24" height="24" viewBox="0 0 24 24" fill="none" xmlns="http://www.w3.org/2000/svg">
<path d="M19 5L21 7M21 7L19 9M21 7H20.3916C18.7878 7 17.9859 7 17.2613 7.22512C16.6199 7.42439 16.0252 7.75083 15.5128 8.18497C14.9338 8.67546 14.5033 9.35197 13.6423 10.705L11.3577 14.295C10.4967 15.648 10.0662 16.3245 9.48723 16.815C8.97477 17.2492 8.38009 17.5756 7.7387 17.7749C7.01407 18 6.21219 18 4.60843 18H3M19 15L21 17M21 17L19 19M21 17H20.3916C18.7878 17 17.9859 17 17.2613 16.7749C16.6199 16.5756 16.0252 16.2492 15.5128 15.815C14.9338 15.3245 14.5033 14.648 13.6423 13.295L11.3577 9.705C10.4967 8.35197 10.0662 7.67546 9.48723 7.18497C8.97477 6.75083 8.38009 6.42439 7.7387 6.22512C7.01407 6 6.21219 6 4.60843 6H3" stroke="#131316" stroke-width="2" stroke-linecap="round" stroke-linejoin="round"/>
</svg>
