<svg width="24" height="24" viewBox="0 0 24 24" fill="none" xmlns="http://www.w3.org/2000/svg">
<path d="M19 17C20.9209 15.1435 22 12.6255 22 10C22 7.3745 20.9209 4.85653 19 3M16 14C16.6341 13.4747 17.1371 12.8511 17.4802 12.1648C17.8234 11.4785 18 10.7429 18 10C18 9.25711 17.8234 8.5215 17.4802 7.83518C17.1371 7.14885 16.6341 6.52526 16 6M5 17C3.07913 15.1435 2 12.6255 2 10C2 7.3745 3.07913 4.85653 5 3M8 14C7.36593 13.4747 6.86295 12.8511 6.51979 12.1648C6.17662 11.4785 6 10.7429 6 10C6 9.25711 6.17662 8.5215 6.51979 7.83518C6.86295 7.14885 7.36593 6.52526 8 6M12 12V21M12 12C13.1046 12 14 11.1046 14 10C14 8.89543 13.1046 8 12 8C10.8954 8 10 8.89543 10 10C10 11.1046 10.8954 12 12 12ZM8 21H16" stroke="#131316" stroke-width="2" stroke-linecap="round" stroke-linejoin="round"/>
</svg>
