<svg width="24" height="24" viewBox="0 0 24 24" fill="none" xmlns="http://www.w3.org/2000/svg">
<path d="M12 10V18M16 14H8M13 22H11C8.19974 22 6.79961 22 5.73005 21.455C4.78924 20.9757 4.02433 20.2108 3.54497 19.27C3 18.2004 3 16.8003 3 14L3 9.53298C3 7.17231 3 5.99197 3.39058 5.06268C3.89743 3.85672 4.85672 2.89744 6.06267 2.39058C6.99197 2 8.1723 2 10.533 2C11.373 2 11.793 2 12.1981 2.06701C12.7242 2.15401 13.233 2.3246 13.7052 2.57232C14.0688 2.7631 14.4039 3.01631 15.0741 3.52266L17.8227 5.59935C18.9879 6.47974 19.5705 6.91994 19.9906 7.47645C20.3627 7.96936 20.6403 8.52695 20.8092 9.12097C21 9.79165 21 10.5219 21 11.9823V14C21 16.8003 21 18.2004 20.455 19.27C19.9757 20.2108 19.2108 20.9757 18.27 21.455C17.2004 22 15.8003 22 13 22ZM13.8 18H10.2C9.07989 18 8.51984 18 8.09202 17.782C7.71569 17.5903 7.40973 17.2843 7.21799 16.908C7 16.4802 7 15.9201 7 14.8V13.2C7 12.0799 7 11.5198 7.21799 11.092C7.40973 10.7157 7.71569 10.4097 8.09202 10.218C8.51984 10 9.07989 10 10.2 10H13.8C14.9201 10 15.4802 10 15.908 10.218C16.2843 10.4097 16.5903 10.7157 16.782 11.092C17 11.5198 17 12.0799 17 13.2V14.8C17 15.9201 17 16.4802 16.782 16.908C16.5903 17.2843 16.2843 17.5903 15.908 17.782C15.4802 18 14.9201 18 13.8 18Z" stroke="#131316" stroke-width="2" stroke-linecap="round" stroke-linejoin="round"/>
</svg>
