<svg width="24" height="24" viewBox="0 0 24 24" fill="none" xmlns="http://www.w3.org/2000/svg">
<path d="M14.5 9.6C14.5 8.35586 13.3107 8 12 8C11.4455 8 10.8911 8.1574 10.4457 8.33257C9.82985 8.57479 9.5 9.18377 9.5 9.82269C9.5 10.6452 10.0483 11.3754 10.8611 11.6355L13.1389 12.3645C13.9517 12.6246 14.5 13.3548 14.5 14.1773C14.5 14.8162 14.1701 15.4252 13.5543 15.6674C13.1089 15.8426 12.5545 16 12 16C10.6893 16 9.5 15.6441 9.5 14.4M12 3C11.1938 3 10.4123 3.10601 9.66876 3.30486C8.85549 2.49826 7.73593 2 6.5 2C4.01472 2 2 4.01472 2 6.5C2 7.73593 2.49826 8.85549 3.30486 9.66876C3.10601 10.4123 3 11.1938 3 12C3 16.9706 7.02944 21 12 21C12.8062 21 13.5877 20.894 14.3312 20.6951C15.1445 21.5017 16.2641 22 17.5 22C19.9853 22 22 19.9853 22 17.5C22 16.2641 21.5017 15.1445 20.6951 14.3312C20.894 13.5877 21 12.8062 21 12C21 7.02944 16.9706 3 12 3Z" stroke="#131316" stroke-width="2" stroke-linecap="round" stroke-linejoin="round"/>
</svg>
