<svg width="24" height="24" viewBox="0 0 24 24" fill="none" xmlns="http://www.w3.org/2000/svg">
<path fill-rule="evenodd" clip-rule="evenodd" d="M21.5458 17.9259C21.0008 18.2963 20.6374 18.2963 20.2741 18.4815C19.9107 18.4815 19.729 18.6667 19.5473 18.8519C19.184 18.8519 19.184 19.2222 19.184 19.4074C19.184 19.5926 19.184 19.7778 19.0023 19.963C18.8206 20.1481 18.4573 20.1481 18.0939 20.1481C17.5489 20.1481 16.8222 20.1481 16.0954 20.5185C15.7321 20.7037 15.3687 20.8889 15.0054 21.0741C14.2787 21.6296 13.5519 22 12.0985 22C10.6451 22 9.91837 21.4444 9.19165 21.0741C8.8283 20.8889 8.46494 20.5185 8.10158 20.5185C7.37487 20.3333 6.64815 20.1481 6.10312 20.1481C5.73976 20.1481 5.3764 20.1481 5.19472 19.963C4.64969 19.7778 4.64969 19.5926 4.64969 19.4074C4.64969 19.2222 4.64969 18.8519 4.28633 18.8519C4.10465 18.6667 3.74129 18.6667 3.55961 18.4815C3.19626 18.2963 2.8329 18.2963 2.28786 17.9259C1.74283 17.5556 2.10618 17.3704 2.28786 17.1852C5.73976 15.5185 6.37256 13.1852 6.37256 13C6.37256 11.7759 2 10.5 3 9C4 7.5 6.64815 10.1868 6.64815 9C6.64815 5.10477 7.31789 2 12.0985 2C16.6858 2 17.5489 5.22196 17.5489 9C17.5489 9.93405 20 7.5 21 9C22 10.5 18 11.7249 18 13C18 13.1852 18.4573 15.3333 21.9092 17.1852C21.9092 17.3704 22.2725 17.5556 21.5458 17.9259Z" stroke="#131316" stroke-width="2" stroke-miterlimit="10" stroke-linecap="round" stroke-linejoin="round"/>
</svg>
