<svg width="24" height="24" viewBox="0 0 24 24" fill="none" xmlns="http://www.w3.org/2000/svg">
<path d="M11.9993 5L11.9993 19M11.9993 5L9.49931 3M11.9993 5L14.4993 3M11.9993 19L9.49931 21M11.9993 19L14.4993 21M18.0615 8.5L5.93713 15.5M18.0615 8.5L18.5435 5.33494M18.0615 8.5L21.0435 9.66506M5.93713 15.5L2.95508 14.3349M5.93713 15.5L5.45508 18.6651M18.0618 15.5L5.93745 8.5M18.0618 15.5L21.0434 14.3347M18.0618 15.5L18.5434 18.6648M5.93745 8.5L5.45522 5.33521M5.93745 8.5L2.95522 9.66533" stroke="#131316" stroke-width="2" stroke-linecap="round" stroke-linejoin="round"/>
</svg>
