<svg width="24" height="24" viewBox="0 0 24 24" fill="none" xmlns="http://www.w3.org/2000/svg">
<path d="M19.4993 2V7M19.4993 17V22M16.9993 4.5L21.9993 4.5M16.9993 19.5H21.9993M2 11.9999L5.36705 10.5569C6.23635 10.1844 6.67101 9.99808 7.04072 9.7267C7.36856 9.48606 7.65778 9.19684 7.89842 8.869C8.16979 8.49929 8.35607 8.06461 8.7286 7.19532L10.1715 3.82837L11.6146 7.19547C11.9871 8.06473 12.1734 8.49935 12.4448 8.86905C12.6854 9.19687 12.9746 9.48608 13.3024 9.7267C13.6721 9.99807 14.1068 10.1843 14.976 10.5569L18.343 11.9999L14.9759 13.443C14.1067 13.8155 13.6721 14.0018 13.3024 14.2731C12.9746 14.5138 12.6854 14.803 12.4448 15.1308C12.1734 15.5005 11.9871 15.9351 11.6146 16.8043L10.1715 20.1714L8.72859 16.8045C8.35605 15.9352 8.16978 15.5005 7.89842 15.1308C7.65779 14.803 7.36857 14.5138 7.04074 14.2731C6.67105 14.0018 6.23639 13.8155 5.36712 13.4429L2 11.9999Z" stroke="#131316" stroke-width="2" stroke-linecap="round" stroke-linejoin="round"/>
</svg>
