<svg width="24" height="24" viewBox="0 0 24 24" fill="none" xmlns="http://www.w3.org/2000/svg">
<path d="M3.99943 3L21.9994 21M3.99356 8.65291C3.89261 8.70425 3.80571 8.76081 3.73083 8.82432C3.13333 9.33113 2.8733 10.1319 3.05909 10.8931C3.20001 11.4704 3.84575 12.0991 5.13724 13.3566C5.51959 13.7289 5.71076 13.9151 5.84422 14.1302C6.02026 14.4139 6.125 14.7361 6.14952 15.0691C6.1681 15.3216 6.12295 15.5846 6.03265 16.1107C5.72761 17.8877 5.57508 18.7762 5.80101 19.3263C6.09819 20.0499 6.77799 20.5441 7.55796 20.6035C8.15094 20.6487 8.95072 20.2286 10.5503 19.3883C11.0252 19.1389 11.2626 19.0142 11.5094 18.9539C11.8317 18.8753 12.1683 18.8753 12.4906 18.9539C12.7374 19.0142 12.9748 19.1389 13.4497 19.3883C14.5929 19.9888 15.3275 20.3747 15.8702 20.5296M17.9673 16.1107C18.0333 16.4948 18.0921 16.8374 18.1415 17.144L8.47598 7.47848C8.55193 7.41172 8.62311 7.33927 8.68886 7.26163C8.85269 7.06817 8.97106 6.82858 9.20778 6.3494C10.0086 4.72841 10.409 3.91792 10.9174 3.60581C11.5815 3.19808 12.4185 3.19808 13.0826 3.60581C13.591 3.91792 13.9914 4.72841 14.7922 6.3494C15.0289 6.82858 15.1473 7.06817 15.3111 7.26163C15.5262 7.51562 15.7994 7.71397 16.1075 7.83987C16.3422 7.93577 16.6069 7.97419 17.1363 8.05102C18.9228 8.31028 19.816 8.43991 20.2692 8.82432C20.8667 9.33113 21.1267 10.1319 20.9409 10.8931C20.8 11.4704 20.1542 12.0991 18.8628 13.3566C18.4804 13.7289 18.2892 13.9151 18.1558 14.1302C17.9797 14.4139 17.875 14.7361 17.8505 15.0691C17.8319 15.3216 17.877 15.5846 17.9673 16.1107Z" stroke="#131316" stroke-width="2" stroke-linecap="round" stroke-linejoin="round"/>
</svg>
