<svg width="24" height="24" viewBox="0 0 24 24" fill="none" xmlns="http://www.w3.org/2000/svg">
<path d="M6.64709 10.0084L2 12L6.64716 13.9916C7.51643 14.3642 7.95109 14.5505 8.32078 14.8218C8.64861 15.0625 8.93783 15.3517 9.17846 15.6795C9.44982 16.0492 9.63609 16.4839 10.0086 17.3531L12.0001 22.0001L13.9918 17.353C14.3643 16.4838 14.5506 16.0492 14.822 15.6795C15.0626 15.3517 15.3518 15.0625 15.6796 14.8218C16.0493 14.5505 16.4839 14.3642 17.3531 13.9917L22.0002 12L17.3532 10.0084C16.4839 9.63587 16.0493 9.4496 15.6796 9.17824C15.3518 8.93761 15.0626 8.6484 14.822 8.32058C14.5506 7.95089 14.3643 7.51626 13.9918 6.647L12.0001 1.99988L10.0086 6.64686C9.6361 7.51616 9.44983 7.95082 9.17846 8.32053C8.93782 8.64837 8.6486 8.9376 8.32076 9.17824C7.95105 9.44961 7.51638 9.63589 6.64709 10.0084Z" stroke="#131316" stroke-width="2" stroke-linecap="round" stroke-linejoin="round"/>
</svg>
