<svg width="24" height="24" viewBox="0 0 24 24" fill="none" xmlns="http://www.w3.org/2000/svg">
<path d="M17.1865 11.9159C16.3234 11.7376 15.562 11.2812 15.0001 10.6445C14.2672 11.475 13.1948 11.9987 12.0001 11.9987C10.8054 11.9987 9.73307 11.475 9.00013 10.6445C8.26718 11.475 7.19482 11.9987 6.00013 11.9987C5.35092 11.9987 4.73783 11.844 4.1957 11.5696L4.28301 13.6068C4.38764 16.0482 4.43996 17.2689 4.90777 18.2154C5.42666 19.2653 6.29759 20.0997 7.36869 20.5731C8.19265 20.9374 9.2031 20.9908 10.9999 20.9987M11 21H10V19C10 17.8954 10.8954 17 12 17C12.018 17 12.0359 17.0002 12.0537 17.0007M19 15L15.9373 18.0627C15.5914 18.4086 15.4184 18.5816 15.2947 18.7834C15.1851 18.9624 15.1043 19.1575 15.0553 19.3615C15 19.5917 15 19.8363 15 20.3255V21H15.6745C16.1637 21 16.4083 21 16.6385 20.9447C16.8425 20.8957 17.0376 20.8149 17.2166 20.7053C17.4184 20.5816 17.5914 20.4086 17.9373 20.0627L21 17C21.5523 16.4477 21.5523 15.5523 21 15C20.4477 14.4477 19.5523 14.4477 19 15ZM2 8L3.59805 6.00244C4.48011 4.89986 4.92115 4.34857 5.46857 3.95174C5.95353 3.6002 6.49771 3.33865 7.07517 3.17957C7.72701 3 8.433 3 9.845 3H14.155C15.567 3 16.273 3 16.9248 3.17957C17.5023 3.33865 18.0465 3.6002 18.5314 3.95174C19.0789 4.34857 19.5199 4.89986 20.402 6.00244L22 8L22.0002 8.01809C21.9905 10.2189 20.2033 12 18.0002 12C16.8055 12 15.7332 11.4762 15.0002 10.6458C14.2673 11.4762 13.1949 12 12.0002 12C10.8055 12 9.73319 11.4762 9.00024 10.6458C8.2673 11.4762 7.19493 12 6.00024 12C3.7911 12 2 10.2091 2 8Z" stroke="#131316" stroke-width="2" stroke-linecap="round" stroke-linejoin="round"/>
</svg>
