<svg width="24" height="24" viewBox="0 0 24 24" fill="none" xmlns="http://www.w3.org/2000/svg">
<path d="M17.9998 17V17.0099M12.9769 11.8785C12.6643 11.957 12.337 11.9987 12 11.9987C10.8053 11.9987 9.73293 11.475 8.99999 10.6445C8.26704 11.475 7.19468 11.9987 5.99999 11.9987C5.35077 11.9987 4.73769 11.844 4.19556 11.5696L4.28287 13.6068C4.3875 16.0482 4.43982 17.2689 4.90763 18.2154C5.42652 19.2653 6.29745 20.0997 7.36855 20.5731C8.33422 21 9.55605 21 11.9997 21C12.1954 21 12.3832 21 12.5637 20.9998M20.9998 16.9167C20.9998 18.5275 18.5998 21 17.9998 21C17.3998 21 14.9998 18.5275 14.9998 16.9167C14.9998 15.3058 16.3429 14 17.9998 14C19.6566 14 20.9998 15.3058 20.9998 16.9167ZM2 8C2 10.2091 3.79086 12 6 12C7.19469 12 8.26706 11.4762 9 10.6458C9.73295 11.4762 10.8053 12 12 12C12.3364 12 12.6631 11.9585 12.9752 11.8803C14.1454 10.7164 15.741 10 17.4998 10C18.6872 10 19.8003 10.3266 20.7582 10.8969C21.5192 10.1722 21.9949 9.15072 22 8.01809V8L20.4017 6.00244C19.5196 4.89986 19.0786 4.34857 18.5312 3.95174C18.0462 3.6002 17.5021 3.33865 16.9246 3.17957C16.2728 3 15.5668 3 14.1548 3H9.84476C8.43276 3 7.72676 3 7.07493 3.17957C6.49747 3.33865 5.95329 3.6002 5.46833 3.95174C4.92091 4.34857 4.47987 4.89986 3.59781 6.00244L2 8Z" stroke="#131316" stroke-width="2" stroke-linecap="round" stroke-linejoin="round"/>
</svg>
