<svg width="24" height="24" viewBox="0 0 24 24" fill="none" xmlns="http://www.w3.org/2000/svg">
<path d="M18 18L21 21M21 18L18 21M14.0143 20.9857C13.4482 21 12.7875 21 12 21C9.5563 21 8.33446 21 7.36879 20.5731C6.29769 20.0997 5.42676 19.2653 4.90787 18.2154C4.44006 17.2689 4.38774 16.0482 4.28311 13.6068L4.1958 11.5696C4.73793 11.844 5.35102 11.9987 6.00023 11.9987C7.19492 11.9987 8.26728 11.475 9.00023 10.6445C9.73317 11.475 10.8055 11.9987 12.0002 11.9987C13.1949 11.9987 14.2673 11.475 15.0002 10.6445C15.7332 11.475 16.8055 11.9987 18.0002 11.9987C18.6492 11.9987 19.2621 11.8441 19.8041 11.5698L19.7168 13.6069C19.6993 14.0152 19.6833 14.3894 19.6665 14.7339M9.9999 21H13.9999V19C13.9999 17.8954 13.1045 17 11.9999 17C10.8953 17 9.9999 17.8954 9.9999 19V21ZM2 8L3.59805 6.00244C4.48011 4.89986 4.92115 4.34857 5.46857 3.95174C5.95353 3.6002 6.49771 3.33865 7.07517 3.17957C7.72701 3 8.433 3 9.845 3H14.155C15.567 3 16.273 3 16.9248 3.17957C17.5023 3.33865 18.0465 3.6002 18.5314 3.95174C19.0789 4.34857 19.5199 4.89986 20.402 6.00244L22 8L22.0002 8.01809C21.9905 10.2189 20.2033 12 18.0002 12C16.8055 12 15.7332 11.4762 15.0002 10.6458C14.2673 11.4762 13.1949 12 12.0002 12C10.8055 12 9.73319 11.4762 9.00024 10.6458C8.2673 11.4762 7.19493 12 6.00024 12C3.7911 12 2 10.2091 2 8Z" stroke="#131316" stroke-width="2" stroke-linecap="round" stroke-linejoin="round"/>
</svg>
