<svg width="24" height="24" viewBox="0 0 24 24" fill="none" xmlns="http://www.w3.org/2000/svg">
<path d="M18.364 5.63604C16.7353 4.00736 14.4853 3 12 3C9.51471 3 7.26471 4.00736 5.63603 5.63604M18.364 5.63604L14.8284 9.17157M18.364 5.63604C19.9926 7.26472 21 9.5154 21 12.0007C21 14.486 19.9926 16.736 18.364 18.3646M5.63603 5.63604L9.17157 9.17157M5.63603 5.63604C4.00735 7.26472 3 9.5154 3 12.0007C3 14.486 4.00736 16.736 5.63604 18.3646M9.17157 9.17157C9.89542 8.44771 10.8954 8 12 8C13.1046 8 14.1046 8.44772 14.8284 9.17157M9.17157 9.17157C8.44771 9.89543 8 10.8961 8 12.0007C8 13.1053 8.44772 14.1053 9.17157 14.8291M14.8284 9.17157C15.5523 9.89543 16 10.8961 16 12.0007C16 13.1052 15.5523 14.1052 14.8284 14.8291M5.63604 18.3646L9.17157 14.8291M5.63604 18.3646C7.26472 19.9933 9.51471 20.9997 12 20.9997C14.4853 20.9997 16.7353 19.9933 18.364 18.3646M9.17157 14.8291C9.89543 15.553 10.8954 15.9997 12 15.9997C13.1046 15.9997 14.1046 15.553 14.8284 14.8291M18.364 18.3646L14.8284 14.8291" stroke="#131316" stroke-width="2" stroke-linecap="round" stroke-linejoin="round"/>
</svg>
