<svg width="24" height="24" viewBox="0 0 24 24" fill="none" xmlns="http://www.w3.org/2000/svg">
<path d="M8.3 22H15.7C17.3802 22 18.2202 22 18.862 21.673C19.4265 21.3854 19.8854 20.9265 20.173 20.362C20.5 19.7202 20.5 18.8802 20.5 17.2V6.8C20.5 5.11984 20.5 4.27976 20.173 3.63803C19.8854 3.07354 19.4265 2.6146 18.862 2.32698C18.2202 2 17.3802 2 15.7 2L8.3 2C6.61984 2 5.77976 2 5.13803 2.32698C4.57354 2.6146 4.1146 3.07354 3.82698 3.63803C3.5 4.27976 3.5 5.11984 3.5 6.8L3.5 17.2C3.5 18.8802 3.5 19.7202 3.82698 20.362C4.1146 20.9265 4.57354 21.3854 5.13803 21.673C5.77976 22 6.61984 22 8.3 22Z" stroke="#131316" stroke-width="2" stroke-linecap="round" stroke-linejoin="round"/>
<path d="M9.5 7C9.5 7.55228 9.05228 8 8.5 8C7.94772 8 7.5 7.55228 7.5 7C7.5 6.44772 7.94772 6 8.5 6C9.05228 6 9.5 6.44772 9.5 7Z" stroke="#131316" stroke-width="2" stroke-linecap="round" stroke-linejoin="round"/>
</svg>
