<svg width="24" height="24" viewBox="0 0 24 24" fill="none" xmlns="http://www.w3.org/2000/svg">
<path d="M7.80633 4.76047L4.83271 2.38303C3.84072 1.58993 2.36028 2.08939 2.05226 3.32107C1.84479 4.15065 2.27041 5.00808 3.05686 5.34492L8.82533 7.81556M8.01013 4.7602H10.5437C11.7899 4.7602 12.413 4.7602 12.9993 4.90088C13.5192 5.02562 14.0162 5.23135 14.4721 5.51053C14.9863 5.82541 15.4269 6.26573 16.308 7.14637L19.5249 10.3612C20.4384 11.2741 20.8951 11.7306 21.1913 12.1912C22.2696 13.8681 22.2696 16.0196 21.1913 17.6965C20.8951 18.1571 20.4384 18.6136 19.5249 19.5265C18.6114 20.4394 18.1547 20.8958 17.6937 21.1918C16.0158 22.2694 13.863 22.2694 12.185 21.1918C11.7241 20.8958 11.2673 20.4394 10.3538 19.5265L7.13699 16.3116C6.2558 15.431 5.8152 14.9907 5.50011 14.4768C5.22076 14.0213 5.0149 13.5246 4.89009 13.005C4.74931 12.419 4.74931 11.7963 4.74931 10.5509V8.01896C4.74931 6.87829 4.74931 6.30795 4.97144 5.87227C5.16683 5.48903 5.47861 5.17745 5.86209 4.98219C6.29804 4.7602 6.86874 4.7602 8.01013 4.7602Z" stroke="#131316" stroke-width="2" stroke-linecap="round" stroke-linejoin="round"/>
</svg>
