<svg width="24" height="24" viewBox="0 0 24 24" fill="none" xmlns="http://www.w3.org/2000/svg">
<path d="M11.4357 3.47538C11.7432 3.33111 12.065 3.21821 12.3962 3.1387C12.9739 3 13.5878 3 14.8156 3H17.7873C18.9119 3 19.4741 3 19.9037 3.21885C20.2815 3.41136 20.5886 3.71853 20.7811 4.09635C21 4.52587 21 5.08814 21 6.21268V9.18439C21 10.4122 21 11.0261 20.8613 11.6038C20.7383 12.116 20.5355 12.6057 20.2603 13.0548C19.9498 13.5614 19.5158 13.9955 18.6476 14.8637L15.1876 18.3237C14.0659 19.4453 13.5051 20.0062 12.9198 20.3401C11.3779 21.22 9.48599 21.22 7.9441 20.3401C7.35887 20.0062 6.79802 19.4453 5.67634 18.3237C4.55466 17.202 3.99382 16.6411 3.65987 16.0559C2.86458 14.6622 2.78816 12.9824 3.43063 11.5337M13.9723 8.5218C13.9723 9.35351 14.6465 10.0277 15.4782 10.0277C16.3099 10.0277 16.9841 9.35351 16.9841 8.5218C16.9841 7.69009 16.3099 7.01586 15.4782 7.01586C14.6465 7.01586 13.9723 7.69009 13.9723 8.5218ZM5.94054 4.00396L9.01542 7.07885C9.3627 7.42612 9.53634 7.59976 9.66051 7.80239C9.7706 7.98204 9.85173 8.17791 9.90092 8.38279C9.9564 8.61388 9.9564 8.85944 9.9564 9.35056V10.0277H9.27921C8.78809 10.0277 8.54253 10.0277 8.31144 9.97227C8.10656 9.92308 7.9107 9.84195 7.73104 9.73186C7.52841 9.60769 7.35477 9.43405 7.0075 9.08677L3.93261 6.01189C3.37814 5.45742 3.37814 4.55844 3.93261 4.00396C4.48709 3.44949 5.38607 3.44949 5.94054 4.00396Z" stroke="#131316" stroke-width="2" stroke-linecap="round" stroke-linejoin="round"/>
</svg>
