<svg width="24" height="24" viewBox="0 0 24 24" fill="none" xmlns="http://www.w3.org/2000/svg">
<path d="M15.5083 17.9437L18.6476 14.8168C19.5158 13.9521 19.9498 13.5197 20.2603 13.0151C20.5355 12.5677 20.7383 12.08 20.8613 11.5698C21 10.9944 21 10.3829 21 9.15998V6.2C21 5.07989 21 4.51984 20.7811 4.09202C20.5886 3.71569 20.2815 3.40973 19.9037 3.21799C19.4741 3 18.9119 3 17.7873 3H14.8156C13.5878 3 12.9739 3 12.3962 3.13815C11.884 3.26063 11.3943 3.46266 10.9452 3.7368C10.4386 4.04601 10.0045 4.47839 9.13633 5.34315L5.67635 8.78947C4.55466 9.90673 3.99382 10.4654 3.65987 11.0483C2.78004 12.5841 2.78004 14.4685 3.65987 16.0044C3.96549 16.5378 4.46116 17.051 5.40284 17.9906M8.95243 18L11.9643 21M11.9638 18L8.95194 21M13.9723 8.5C13.9723 9.32843 14.6465 10 15.4782 10C16.3099 10 16.9841 9.32843 16.9841 8.5C16.9841 7.67157 16.3099 7 15.4782 7C14.6465 7 13.9723 7.67157 13.9723 8.5Z" stroke="#131316" stroke-width="2" stroke-linecap="round" stroke-linejoin="round"/>
</svg>
