<svg width="24" height="24" viewBox="0 0 24 24" fill="none" xmlns="http://www.w3.org/2000/svg">
<path d="M7.54987 17.0056L5.35243 14.8168C4.48425 13.9521 4.05015 13.5197 3.73972 13.0151C3.46449 12.5677 3.26167 12.08 3.1387 11.5698C3 10.9944 3 10.3829 3 9.15998V6.2C3 5.07989 3 4.51984 3.21885 4.09202C3.41136 3.71569 3.71853 3.40973 4.09635 3.21799C4.52587 3 5.08814 3 6.21268 3H9.18439C10.4122 3 11.0261 3 11.6038 3.13815C12.116 3.26063 12.6057 3.46266 13.0548 3.7368C13.5614 4.04601 13.9955 4.47839 14.8637 5.34315L18.3237 8.78947C19.4453 9.90673 20.0062 10.4654 20.3401 11.0483C21.22 12.5841 21.22 14.4685 20.3401 16.0044C20.0639 16.4865 19.6325 16.952 18.857 17.7306M13.0396 17V21M11.0317 19H15.0476M10.0277 8.5C10.0277 9.32843 9.35351 10 8.5218 10C7.69009 10 7.01586 9.32843 7.01586 8.5C7.01586 7.67157 7.69009 7 8.5218 7C9.35351 7 10.0277 7.67157 10.0277 8.5Z" stroke="#131316" stroke-width="2" stroke-linecap="round" stroke-linejoin="round"/>
</svg>
