<svg width="24" height="24" viewBox="0 0 24 24" fill="none" xmlns="http://www.w3.org/2000/svg">
<path d="M13 5C13 4.44772 12.5523 4 12 4C11.4477 4 11 4.44772 11 5H13ZM9 10.8027L9.50073 11.6683C9.80972 11.4896 10 11.1597 10 10.8027H9ZM15 10.8027H14C14 11.1597 14.1903 11.4896 14.4993 11.6683L15 10.8027ZM13 16C13 16.5523 12.5523 17 12 17V19C13.6569 19 15 17.6569 15 16H13ZM12 17C11.4477 17 11 16.5523 11 16H9C9 17.6569 10.3431 19 12 19V17ZM11 16C11 15.4477 11.4477 15 12 15V13C10.3431 13 9 14.3431 9 16H11ZM12 15C12.5523 15 13 15.4477 13 16H15C15 14.3431 13.6569 13 12 13V15ZM11 5V14H13V5H11ZM10 5C10 3.89543 10.8954 3 12 3V1C9.79086 1 8 2.79086 8 5H10ZM10 10.8027V5H8V10.8027H10ZM7 16C7 14.1506 8.00361 12.5343 9.50073 11.6683L8.49927 9.93709C6.40958 11.1459 5 13.4078 5 16H7ZM12 21C9.23858 21 7 18.7614 7 16H5C5 19.866 8.13401 23 12 23V21ZM17 16C17 18.7614 14.7614 21 12 21V23C15.866 23 19 19.866 19 16H17ZM14.4993 11.6683C15.9964 12.5343 17 14.1506 17 16H19C19 13.4078 17.5904 11.1459 15.5007 9.93709L14.4993 11.6683ZM14 5V10.8027H16V5H14ZM12 3C13.1046 3 14 3.89543 14 5H16C16 2.79086 14.2091 1 12 1V3Z" fill="#131316"/>
</svg>
