<svg width="24" height="24" viewBox="0 0 24 24" fill="none" xmlns="http://www.w3.org/2000/svg">
<path d="M21 13C21.5523 13 22 12.5523 22 12C22 11.4477 21.5523 11 21 11V13ZM9 11C8.44772 11 8 11.4477 8 12C8 12.5523 8.44772 13 9 13V11ZM21 7C21.5523 7 22 6.55229 22 6C22 5.44772 21.5523 5 21 5V7ZM9 5C8.44772 5 8 5.44772 8 6C8 6.55228 8.44772 7 9 7V5ZM21 19C21.5523 19 22 18.5523 22 18C22 17.4477 21.5523 17 21 17V19ZM9 17C8.44772 17 8 17.4477 8 18C8 18.5523 8.44772 19 9 19V17ZM2.3753 5.41913C1.94404 5.76414 1.87412 6.39343 2.21913 6.8247C2.56414 7.25596 3.19343 7.32588 3.6247 6.98087L2.3753 5.41913ZM4.5 5V4C4.27293 4 4.05262 4.07728 3.8753 4.21913L4.5 5ZM4.8 5H5.8C5.8 4.44772 5.35228 4 4.8 4V5ZM3.8 9C3.8 9.55228 4.24772 10 4.8 10C5.35228 10 5.8 9.55228 5.8 9H3.8ZM2.25487 13.8331C1.88654 14.2446 1.92156 14.8768 2.33309 15.2451C2.74461 15.6135 3.37681 15.5784 3.74513 15.1669L2.25487 13.8331ZM3 19L2.12713 18.512C1.95401 18.8217 1.95794 19.2 2.13746 19.506C2.31698 19.812 2.64521 20 3 20V19ZM6 20C6.55228 20 7 19.5523 7 19C7 18.4477 6.55228 18 6 18V20ZM21 11L9 11V13L21 13V11ZM21 5L9 5V7L21 7V5ZM21 17L9 17V19L21 19V17ZM3.6247 6.98087L5.1247 5.78087L3.8753 4.21913L2.3753 5.41913L3.6247 6.98087ZM4.5 6H4.8V4H4.5V6ZM3.8 5V9H5.8V5H3.8ZM4.11805 15C4.3942 15 4.61805 15.2239 4.61805 15.5H6.61805C6.61805 14.1193 5.49876 13 4.11805 13V15ZM3.74513 15.1669C3.83812 15.063 3.97006 15 4.11805 15V13C3.37754 13 2.7112 13.3232 2.25487 13.8331L3.74513 15.1669ZM3 20H6V18H3V20ZM4.61805 15.5C4.61805 15.4786 4.62121 15.5628 4.46672 15.7922C4.32084 16.0089 4.10264 16.2565 3.82078 16.5496C3.5709 16.8095 3.21228 17.1631 2.9387 17.4571C2.65282 17.7643 2.34326 18.1254 2.12713 18.512L3.87287 19.488C3.96685 19.3198 4.13959 19.1024 4.40275 18.8197C4.67819 18.5237 4.93532 18.2761 5.26243 17.9359C5.55755 17.629 5.87758 17.2778 6.12568 16.9093C6.36517 16.5536 6.61805 16.0665 6.61805 15.5H4.61805Z" fill="#131316"/>
</svg>
