<svg width="24" height="24" viewBox="0 0 24 24" fill="none" xmlns="http://www.w3.org/2000/svg">
<path d="M10 9V10M10 14V15M7.18433 4.03775C6.10549 4.09191 5.36036 4.2238 4.73005 4.54497C3.78924 5.02433 3.02433 5.78924 2.54497 6.73005C2 7.79961 2 9.19974 2 12C2 14.8003 2 16.2004 2.54497 17.27C3.02433 18.2108 3.78924 18.9757 4.73005 19.455C5.36036 19.7762 6.10549 19.9081 7.18434 19.9623C7.60664 18.8168 8.70793 18 10 18C11.3062 18 12.4175 18.8348 12.8293 20H14C16.8003 20 18.2004 20 19.27 19.455C20.2108 18.9757 20.9757 18.2108 21.455 17.27C22 16.2004 22 14.8003 22 12C22 9.19974 22 7.79961 21.455 6.73005C20.9757 5.78924 20.2108 5.02433 19.27 4.54497C18.2004 4 16.8003 4 14 4H12.8293C12.4175 5.16519 11.3062 6 10 6C8.70793 6 7.60664 5.18318 7.18433 4.03775Z" stroke="#131316" stroke-width="2" stroke-linecap="round" stroke-linejoin="round"/>
</svg>
