<svg width="24" height="24" viewBox="0 0 24 24" fill="none" xmlns="http://www.w3.org/2000/svg">
<path d="M19.4002 3.2L20.1998 2.59942V2.59942L19.4002 3.2ZM14.5998 6.8L13.8002 7.40058L14.5998 6.8ZM10 11C10.5523 11 11 10.5523 11 10C11 9.44772 10.5523 9 10 9V11ZM8 9C7.44772 9 7 9.44772 7 10C7 10.5523 7.44772 11 8 11V9ZM9.38326 5.02539C9.80086 5.38682 10.4324 5.34129 10.7938 4.92369C11.1552 4.50609 11.1097 3.87457 10.6921 3.51314L9.38326 5.02539ZM9.00656 2.20004L10.0044 2.13435V2.13434L9.00656 2.20004ZM5.63803 2.32698L6.09202 3.21799L6.09202 3.21799L5.63803 2.32698ZM4.32698 3.63803L5.21799 4.09202L5.21799 4.09202L4.32698 3.63803ZM4.32698 20.362L5.21799 19.908L5.21799 19.908L4.32698 20.362ZM5.63803 21.673L5.18404 22.564H5.18404L5.63803 21.673ZM8.8 22L8.80003 21H8.8V22ZM9.00656 21.8L10.0044 21.8657V21.8657L9.00656 21.8ZM14.9934 21.8L15.9913 21.7343V21.7343L14.9934 21.8ZM15.2 22V21H15.2L15.2 22ZM18.362 21.673L18.816 22.564H18.816L18.362 21.673ZM19.673 20.362L18.782 19.908L18.782 19.908L19.673 20.362ZM21 11.3264C21 10.7741 20.5523 10.3264 20 10.3264C19.4477 10.3264 19 10.7741 19 11.3264H21ZM19 5C19 6.10457 18.1046 7 17 7V9C19.2091 9 21 7.20914 21 5H19ZM15 5C15 3.89543 15.8954 3 17 3V1C14.7909 1 13 2.79086 13 5H15ZM17 3C17.6537 3 18.2341 3.31254 18.6007 3.80058L20.1998 2.59942C19.4717 1.63012 18.3093 1 17 1V3ZM18.6007 3.80058C18.8517 4.13475 19 4.54861 19 5H21C21 4.10066 20.702 3.26804 20.1998 2.59942L18.6007 3.80058ZM17 7C16.3463 7 15.7659 6.68746 15.3993 6.19942L13.8002 7.40058C14.5283 8.36988 15.6907 9 17 9V7ZM15.3993 6.19942C15.1483 5.86525 15 5.45139 15 5H13C13 5.89933 13.298 6.73196 13.8002 7.40058L15.3993 6.19942ZM18.8003 2.39997L13.9998 5.99997L15.1997 7.60003L20.0002 4.00003L18.8003 2.39997ZM10 9H8V11H10V9ZM10.6921 3.51314C10.298 3.17203 10.0405 2.68295 10.0044 2.13435L8.00872 2.26573C8.08131 3.36827 8.60047 4.34789 9.38326 5.02539L10.6921 3.51314ZM10.0044 2.13434C9.96538 1.54163 9.47941 1 8.8 1V3C8.3415 3 8.03323 2.63801 8.00872 2.26574L10.0044 2.13434ZM8.8 1C7.97642 1 7.2986 0.999222 6.74817 1.04419C6.18608 1.09012 5.66937 1.18868 5.18404 1.43597L6.09202 3.21799C6.24842 3.1383 6.47262 3.07337 6.91104 3.03755C7.36113 3.00078 7.94342 3 8.8 3V1ZM5.18404 1.43597C4.43139 1.81947 3.81947 2.43139 3.43597 3.18404L5.21799 4.09202C5.40973 3.71569 5.7157 3.40973 6.09202 3.21799L5.18404 1.43597ZM3.43597 3.18404C3.18868 3.66937 3.09012 4.18608 3.04419 4.74817C2.99922 5.2986 3 5.97642 3 6.8H5C5 5.94342 5.00078 5.36113 5.03755 4.91104C5.07337 4.47262 5.1383 4.24842 5.21799 4.09202L3.43597 3.18404ZM3 6.8V17.2H5V6.8H3ZM3 17.2C3 18.0236 2.99922 18.7014 3.04419 19.2518C3.09012 19.8139 3.18868 20.3306 3.43597 20.816L5.21799 19.908C5.1383 19.7516 5.07337 19.5274 5.03755 19.089C5.00078 18.6389 5 18.0566 5 17.2H3ZM3.43597 20.816C3.81947 21.5686 4.43139 22.1805 5.18404 22.564L6.09202 20.782C5.71569 20.5903 5.40973 20.2843 5.21799 19.908L3.43597 20.816ZM5.18404 22.564C5.66937 22.8113 6.18608 22.9099 6.74817 22.9558C7.2986 23.0008 7.97642 23 8.8 23V21C7.94342 21 7.36113 20.9992 6.91104 20.9624C6.47262 20.9266 6.24842 20.8617 6.09202 20.782L5.18404 22.564ZM8.79997 23C9.47938 23 9.96538 22.4584 10.0044 21.8657L8.00872 21.7343C8.03323 21.362 8.34153 21 8.80003 21L8.79997 23ZM10.0044 21.8657C10.073 20.8242 10.9406 20 12 20V18C9.88009 18 8.14604 19.6485 8.00872 21.7343L10.0044 21.8657ZM12 20C13.0594 20 13.927 20.8242 13.9956 21.8657L15.9913 21.7343C15.854 19.6485 14.1199 18 12 18V20ZM13.9956 21.8657C14.0346 22.4584 14.5206 23 15.2 23L15.2 21C15.6585 21 15.9668 21.362 15.9913 21.7343L13.9956 21.8657ZM15.2 23C16.0236 23 16.7014 23.0008 17.2518 22.9558C17.8139 22.9099 18.3306 22.8113 18.816 22.564L17.908 20.782C17.7516 20.8617 17.5274 20.9266 17.089 20.9624C16.6389 20.9992 16.0566 21 15.2 21V23ZM18.816 22.564C19.5686 22.1805 20.1805 21.5686 20.564 20.816L18.782 19.908C18.5903 20.2843 18.2843 20.5903 17.908 20.782L18.816 22.564ZM20.564 20.816C20.8113 20.3306 20.9099 19.8139 20.9558 19.2518C21.0008 18.7014 21 18.0236 21 17.2H19C19 18.0566 18.9992 18.6389 18.9624 19.089C18.9266 19.5274 18.8617 19.7516 18.782 19.908L20.564 20.816ZM21 17.2V11.3264H19V17.2H21Z" fill="#131316"/>
</svg>
