<svg width="24" height="24" viewBox="0 0 24 24" fill="none" xmlns="http://www.w3.org/2000/svg">
<path d="M11 9C11 8.44772 10.5523 8 10 8C9.44772 8 9 8.44772 9 9H11ZM9 10C9 10.5523 9.44772 11 10 11C10.5523 11 11 10.5523 11 10H9ZM11 14C11 13.4477 10.5523 13 10 13C9.44772 13 9 13.4477 9 14H11ZM9 15C9 15.5523 9.44772 16 10 16C10.5523 16 11 15.5523 11 15H9ZM21.4002 5.2L22.1998 4.59942V4.59942L21.4002 5.2ZM16.5998 8.8L15.8002 9.40058L16.5998 8.8ZM22.9972 13.3346C23.001 12.7823 22.5564 12.3315 22.0041 12.3277C21.4518 12.3239 21.001 12.7685 20.9972 13.3208L22.9972 13.3346ZM13.0925 5.53715C13.443 5.11033 13.3811 4.48019 12.9543 4.12971C12.5274 3.77923 11.8973 3.84111 11.5468 4.26794L13.0925 5.53715ZM7.18433 4.03775L8.1226 3.69182C7.97132 3.2815 7.57096 3.01708 7.13419 3.039L7.18433 4.03775ZM4.73005 4.54497L5.18404 5.43597H5.18404L4.73005 4.54497ZM2.54497 6.73005L3.43597 7.18404L3.43597 7.18404L2.54497 6.73005ZM2.54497 17.27L3.43597 16.816L3.43597 16.816L2.54497 17.27ZM4.73005 19.455L5.18404 18.564H5.18404L4.73005 19.455ZM7.18434 19.9623L7.13419 20.961C7.57096 20.9829 7.97132 20.7185 8.1226 20.3082L7.18434 19.9623ZM12.8293 20L11.8865 20.3332C12.0277 20.7328 12.4055 21 12.8293 21V20ZM19.27 19.455L18.816 18.564H18.816L19.27 19.455ZM21.455 17.27L22.346 17.7239L21.455 17.27ZM9 9V10H11V9H9ZM9 14V15H11V14H9ZM21 7C21 8.10457 20.1046 9 19 9V11C21.2091 11 23 9.20914 23 7H21ZM17 7C17 5.89543 17.8954 5 19 5V3C16.7909 3 15 4.79086 15 7H17ZM19 5C19.6537 5 20.2341 5.31254 20.6007 5.80058L22.1998 4.59942C21.4717 3.63012 20.3093 3 19 3V5ZM20.6007 5.80058C20.8517 6.13475 21 6.54861 21 7H23C23 6.10066 22.702 5.26804 22.1998 4.59942L20.6007 5.80058ZM19 9C18.3463 9 17.7659 8.68746 17.3993 8.19942L15.8002 9.40058C16.5283 10.3699 17.6907 11 19 11V9ZM17.3993 8.19942C17.1483 7.86525 17 7.45139 17 7H15C15 7.89933 15.298 8.73196 15.8002 9.40058L17.3993 8.19942ZM20.8003 4.39997L15.9998 7.99997L17.1997 9.60003L22.0002 6.00003L20.8003 4.39997ZM10 7C11.2466 7 12.3605 6.42858 13.0925 5.53715L11.5468 4.26794C11.1784 4.71658 10.6227 5 10 5V7ZM6.24607 4.38367C6.80859 5.90941 8.27567 7 10 7V5C9.14019 5 8.40469 4.45695 8.1226 3.69182L6.24607 4.38367ZM5.18404 5.43597C5.62317 5.21223 6.19701 5.08858 7.23448 5.03649L7.13419 3.039C6.01396 3.09525 5.09756 3.23538 4.27606 3.65396L5.18404 5.43597ZM3.43597 7.18404C3.81947 6.43139 4.43139 5.81947 5.18404 5.43597L4.27606 3.65396C3.14709 4.2292 2.2292 5.14708 1.65396 6.27606L3.43597 7.18404ZM3 12C3 10.5834 3.00078 9.58104 3.0648 8.79744C3.12787 8.02552 3.24729 7.55435 3.43597 7.18404L1.65396 6.27606C1.29768 6.9753 1.14462 7.73898 1.07144 8.63458C0.999222 9.51851 1 10.6164 1 12H3ZM3.43597 16.816C3.24729 16.4457 3.12787 15.9745 3.0648 15.2026C3.00078 14.419 3 13.4166 3 12H1C1 13.3836 0.999222 14.4815 1.07144 15.3654C1.14462 16.261 1.29768 17.0247 1.65396 17.7239L3.43597 16.816ZM5.18404 18.564C4.43139 18.1805 3.81947 17.5686 3.43597 16.816L1.65396 17.7239C2.2292 18.8529 3.14709 19.7708 4.27606 20.346L5.18404 18.564ZM7.23448 18.9635C6.19702 18.9114 5.62317 18.7878 5.18404 18.564L4.27606 20.346C5.09756 20.7646 6.01397 20.9048 7.13419 20.961L7.23448 18.9635ZM10 17C8.27567 17 6.80859 18.0906 6.24607 19.6163L8.1226 20.3082C8.40469 19.543 9.14019 19 10 19V17ZM13.7721 19.6668C13.2235 18.1145 11.7432 17 10 17V19C10.8693 19 11.6114 19.5551 11.8865 20.3332L13.7721 19.6668ZM14 19H12.8293V21H14V19ZM18.816 18.564C18.4457 18.7527 17.9745 18.8721 17.2026 18.9352C16.419 18.9992 15.4166 19 14 19V21C15.3836 21 16.4815 21.0008 17.3654 20.9286C18.261 20.8554 19.0247 20.7023 19.7239 20.346L18.816 18.564ZM20.564 16.816C20.1805 17.5686 19.5686 18.1805 18.816 18.564L19.7239 20.346C20.8529 19.7708 21.7708 18.8529 22.346 17.7239L20.564 16.816ZM20.9972 13.3208C20.9836 15.31 20.8899 16.1764 20.564 16.816L22.346 17.7239C22.9224 16.5928 22.9841 15.2355 22.9972 13.3346L20.9972 13.3208Z" fill="#131316"/>
</svg>
