<svg width="24" height="24" viewBox="0 0 24 24" fill="none" xmlns="http://www.w3.org/2000/svg">
<path d="M10 11C10.5523 11 11 10.5523 11 10C11 9.44772 10.5523 9 10 9L10 11ZM8 9C7.44772 9 7 9.44772 7 10C7 10.5523 7.44771 11 8 11L8 9ZM16 11C16.5523 11 17 10.5523 17 10C17 9.44772 16.5523 9 16 9V11ZM14 9C13.4477 9 13 9.44772 13 10C13 10.5523 13.4477 11 14 11V9ZM5.63803 2.32698L5.18404 1.43597L5.18404 1.43597L5.63803 2.32698ZM4.32698 3.63803L5.21799 4.09202L5.21799 4.09202L4.32698 3.63803ZM4.32698 20.362L5.21799 19.908L5.21799 19.908L4.32698 20.362ZM5.63803 21.673L5.18404 22.564H5.18404L5.63803 21.673ZM8.8 22L8.80004 21H8.8V22ZM15.2 22V21H15.2L15.2 22ZM18.362 21.673L18.816 22.564H18.816L18.362 21.673ZM19.673 20.362L18.782 19.908L18.782 19.908L19.673 20.362ZM19.673 3.63803L18.782 4.09202L18.782 4.09202L19.673 3.63803ZM18.362 2.32698L18.816 1.43597L18.816 1.43597L18.362 2.32698ZM14.9934 2.20004L15.9913 2.26573L14.9934 2.20004ZM9.00656 21.8L8.00872 21.7343L9.00656 21.8ZM14.9934 21.8L15.9913 21.7343L14.9934 21.8ZM9.00656 2.20004L10.0044 2.13435L9.00656 2.20004ZM10 9L8 9L8 11L10 11L10 9ZM16 9L14 9V11L16 11V9ZM6.09202 3.21799C6.24842 3.1383 6.47262 3.07337 6.91104 3.03755C7.36113 3.00078 7.94342 3 8.8 3V1C7.97642 1 7.2986 0.999222 6.74817 1.04419C6.18608 1.09012 5.66937 1.18868 5.18404 1.43597L6.09202 3.21799ZM5.21799 4.09202C5.40973 3.7157 5.71569 3.40973 6.09202 3.21799L5.18404 1.43597C4.43139 1.81947 3.81947 2.43139 3.43597 3.18404L5.21799 4.09202ZM5 6.8C5 5.94342 5.00078 5.36113 5.03755 4.91104C5.07337 4.47262 5.1383 4.24842 5.21799 4.09202L3.43597 3.18404C3.18868 3.66937 3.09012 4.18608 3.04419 4.74817C2.99922 5.2986 3 5.97642 3 6.8H5ZM5 17.2V6.8H3V17.2H5ZM5.21799 19.908C5.1383 19.7516 5.07337 19.5274 5.03755 19.089C5.00078 18.6389 5 18.0566 5 17.2H3C3 18.0236 2.99922 18.7014 3.04419 19.2518C3.09012 19.8139 3.18868 20.3306 3.43597 20.816L5.21799 19.908ZM6.09202 20.782C5.71569 20.5903 5.40973 20.2843 5.21799 19.908L3.43597 20.816C3.81947 21.5686 4.43139 22.1805 5.18404 22.564L6.09202 20.782ZM8.8 21C7.94342 21 7.36113 20.9992 6.91104 20.9624C6.47262 20.9266 6.24842 20.8617 6.09202 20.782L5.18404 22.564C5.66937 22.8113 6.18608 22.9099 6.74817 22.9558C7.2986 23.0008 7.97642 23 8.8 23V21ZM12 18C9.88009 18 8.14604 19.6485 8.00872 21.7343L10.0044 21.8657C10.073 20.8242 10.9406 20 12 20V18ZM15.9913 21.7343C15.854 19.6485 14.1199 18 12 18V20C13.0594 20 13.927 20.8242 13.9956 21.8657L15.9913 21.7343ZM17.908 20.782C17.7516 20.8617 17.5274 20.9266 17.089 20.9624C16.6389 20.9992 16.0566 21 15.2 21V23C16.0236 23 16.7014 23.0008 17.2518 22.9558C17.8139 22.9099 18.3306 22.8113 18.816 22.564L17.908 20.782ZM18.782 19.908C18.5903 20.2843 18.2843 20.5903 17.908 20.782L18.816 22.564C19.5686 22.1805 20.1805 21.5686 20.564 20.816L18.782 19.908ZM19 17.2C19 18.0566 18.9992 18.6389 18.9624 19.089C18.9266 19.5274 18.8617 19.7516 18.782 19.908L20.564 20.816C20.8113 20.3306 20.9099 19.8139 20.9558 19.2518C21.0008 18.7014 21 18.0236 21 17.2H19ZM19 6.8V17.2H21V6.8H19ZM18.782 4.09202C18.8617 4.24842 18.9266 4.47262 18.9624 4.91104C18.9992 5.36113 19 5.94342 19 6.8H21C21 5.97642 21.0008 5.2986 20.9558 4.74817C20.9099 4.18608 20.8113 3.66937 20.564 3.18404L18.782 4.09202ZM17.908 3.21799C18.2843 3.40973 18.5903 3.7157 18.782 4.09202L20.564 3.18404C20.1805 2.43139 19.5686 1.81947 18.816 1.43597L17.908 3.21799ZM15.2 3C16.0566 3 16.6389 3.00078 17.089 3.03755C17.5274 3.07337 17.7516 3.1383 17.908 3.21799L18.816 1.43597C18.3306 1.18868 17.8139 1.09012 17.2518 1.04419C16.7014 0.999222 16.0236 1 15.2 1V3ZM13.9956 2.13435C13.927 3.17578 13.0594 3.99999 12 3.99999V5.99999C14.1199 5.99999 15.854 4.35147 15.9913 2.26573L13.9956 2.13435ZM12 3.99999C10.9406 3.99999 10.073 3.17578 10.0044 2.13435L8.00872 2.26573C8.14604 4.35147 9.88009 5.99999 12 5.99999V3.99999ZM15.2 1C14.5206 1 14.0346 1.54163 13.9956 2.13435L15.9913 2.26573C15.9668 2.63801 15.6585 3 15.2 3V1ZM8.79996 23C9.47938 23 9.96538 22.4584 10.0044 21.8657L8.00872 21.7343C8.03323 21.362 8.34153 21 8.80004 21L8.79996 23ZM13.9956 21.8657C14.0346 22.4584 14.5206 23 15.2 23L15.2 21C15.6585 21 15.9668 21.362 15.9913 21.7343L13.9956 21.8657ZM8.8 3C8.3415 3 8.03323 2.63801 8.00872 2.26573L10.0044 2.13435C9.96538 1.54163 9.47941 1 8.8 1V3Z" fill="#131316"/>
</svg>
