<svg width="24" height="24" viewBox="0 0 24 24" fill="none" xmlns="http://www.w3.org/2000/svg">
<path d="M8.49988 8.50003L5.99988 6.00003M12.5782 14.7609L8.14475 20.2517C6.97199 21.7042 4.79888 21.8197 3.47882 20.4996C2.15587 19.1767 2.27518 16.9979 3.73468 15.8273L9.21995 11.4278C8.26239 9.73858 8.36434 7.62358 9.5258 6.02497C9.7571 5.70661 10.0856 5.37816 10.7425 4.72126C11.3994 4.06435 11.7278 3.7359 12.0462 3.5046C13.7387 2.27492 16.01 2.23287 17.7421 3.37845L14.9851 6.13547C14.2041 6.91652 14.2041 8.18285 14.9851 8.9639C15.7661 9.74494 17.0325 9.74494 17.8135 8.9639L20.5705 6.20688C21.7161 7.93897 21.6741 10.2103 20.4444 11.9028C20.2131 12.2212 19.8846 12.5496 19.2277 13.2065C18.5708 13.8634 18.2424 14.1919 17.924 14.4232M12.5782 14.7609C14.2578 15.6842 16.3433 15.5716 17.924 14.4232M12.5782 14.7609L11.9802 15.5017L15.8152 20.2515C16.988 21.704 19.1611 21.8195 20.4812 20.4994C21.8041 19.1765 21.6848 16.9976 20.2253 15.827L18.1995 14.2023C18.1023 14.2869 18.0128 14.3587 17.924 14.4232M6.95007 4.12112L4.12165 6.94955L2.99988 4.41357L4.41409 2.99935L6.95007 4.12112Z" stroke="#131316" stroke-width="2" stroke-linecap="round" stroke-linejoin="round"/>
</svg>
