<svg width="24" height="24" viewBox="0 0 24 24" fill="none" xmlns="http://www.w3.org/2000/svg">
<path d="M12.0462 14.4236C13.7986 15.6968 16.1716 15.6968 17.924 14.4236C18.2424 14.1923 18.5708 13.8639 19.2278 13.207C19.8847 12.5501 20.2131 12.2216 20.4444 11.9032C21.6741 10.2107 21.7161 7.9394 20.5706 6.2073L17.8135 8.96432C17.0325 9.74537 15.7662 9.74537 14.9851 8.96432C14.2041 8.18327 14.2041 6.91694 14.9851 6.1359L17.7421 3.37888C16.01 2.23329 13.7387 2.27534 12.0462 3.50503C11.7278 3.73632 11.3994 4.06478 10.7425 4.72168C10.0856 5.37859 9.75711 5.70704 9.52581 6.0254C8.25259 7.77783 8.25259 10.1508 9.52581 11.9032M12.0462 14.4236C11.7278 14.1923 11.3994 13.8639 10.7425 13.207C10.0856 12.5501 9.75711 12.2216 9.52581 11.9032M12.0462 14.4236C12.218 14.5484 12.3957 14.6601 12.5783 14.7605L8.14475 20.2515C6.97199 21.704 4.79888 21.8194 3.47882 20.4994C2.15587 19.1764 2.27518 16.9976 3.73468 15.827L9.22006 11.4275C9.31218 11.59 9.41409 11.7495 9.52581 11.9032" stroke="#131316" stroke-width="2" stroke-linecap="round" stroke-linejoin="round"/>
</svg>
