<svg width="24" height="24" viewBox="0 0 24 24" fill="none" xmlns="http://www.w3.org/2000/svg">
<path d="M16 2H8M12 5V2M17 20L20 22M7 20L4 22M8 16.5V16.5099M16 16.5V16.5099M13.5 20H10.5C8.17029 20 7.00544 20 6.08658 19.6194C4.86144 19.1119 3.88807 18.1386 3.3806 16.9134C3 15.9946 3 14.8297 3 12.5C3 10.1703 3 9.00544 3.3806 8.08658C3.88807 6.86144 4.86144 5.88807 6.08658 5.3806C7.00544 5 8.17029 5 10.5 5H13.5C15.8297 5 16.9946 5 17.9134 5.3806C19.1386 5.88807 20.1119 6.86144 20.6194 8.08658C21 9.00544 21 10.1703 21 12.5C21 14.8297 21 15.9946 20.6194 16.9134C20.1119 18.1386 19.1386 19.1119 17.9134 19.6194C16.9946 20 15.8297 20 13.5 20ZM15 13H9C7.89543 13 7 12.1046 7 11C7 9.89543 7.89543 9 9 9H15C16.1046 9 17 9.89543 17 11C17 12.1046 16.1046 13 15 13Z" stroke="#131316" stroke-width="2" stroke-linecap="round" stroke-linejoin="round"/>
</svg>
