<svg width="24" height="24" viewBox="0 0 24 24" fill="none" xmlns="http://www.w3.org/2000/svg">
<path d="M7.47623 11.7876C6.45867 10.225 5.94989 9.44375 6.00389 8.799C6.05097 8.237 6.34847 7.72184 6.82008 7.38567C7.36113 7 8.32109 7 10.241 7H13.759C15.6789 7 16.6389 7 17.1799 7.38567C17.6515 7.72184 17.949 8.237 17.9961 8.799C18.0501 9.44375 17.5413 10.225 16.5238 11.7876L14.7648 14.4887C13.848 15.8966 13.3896 16.6005 12.8027 16.8419C12.2901 17.0527 11.7099 17.0527 11.1973 16.8419C10.6104 16.6005 10.152 15.8966 9.23521 14.4887L7.47623 11.7876Z" stroke="#131316" stroke-width="2" stroke-linecap="round" stroke-linejoin="round"/>
</svg>
