<svg width="24" height="24" viewBox="0 0 24 24" fill="none" xmlns="http://www.w3.org/2000/svg">
<path d="M12.2124 16.5238C13.775 17.5413 14.5563 18.0501 15.201 17.9961C15.763 17.949 16.2782 17.6515 16.6143 17.1799C17 16.6389 17 15.6789 17 13.759L17 10.241C17 8.32109 17 7.36113 16.6143 6.82008C16.2782 6.34847 15.763 6.05097 15.201 6.00389C14.5563 5.94989 13.775 6.45867 12.2124 7.47623L9.5113 9.23521C8.10344 10.152 7.39952 10.6104 7.15812 11.1973C6.94729 11.7099 6.94729 12.2901 7.15812 12.8027C7.39952 13.3896 8.10344 13.848 9.5113 14.7648L12.2124 16.5238Z" stroke="#131316" stroke-width="2" stroke-linecap="round" stroke-linejoin="round"/>
</svg>
