<svg width="24" height="24" viewBox="0 0 24 24" fill="none" xmlns="http://www.w3.org/2000/svg">
<path d="M9.09159 20.5C6.39451 20.5 5.04597 20.5 4.25499 19.9304C3.5648 19.4335 3.11422 18.6682 3.01318 17.8214C2.89739 16.851 3.54728 15.6644 4.84705 13.2913L7.75547 7.9812C9.13936 5.45451 9.83131 4.19116 10.7456 3.77321C11.5425 3.40893 12.4575 3.40893 13.2544 3.77321C14.1687 4.19116 14.8606 5.45451 16.2445 7.9812L19.153 13.2913C20.4527 15.6644 21.1026 16.851 20.9868 17.8214C20.8858 18.6682 20.4352 19.4335 19.745 19.9304C18.954 20.5 17.6055 20.5 14.9084 20.5H9.09159Z" stroke="#131316" stroke-width="2" stroke-linecap="round" stroke-linejoin="round"/>
</svg>
