<svg width="24" height="24" viewBox="0 0 24 24" fill="none" xmlns="http://www.w3.org/2000/svg">
<path d="M16 9C16 12.866 12.866 16 9 16M16 9C16 5.13401 12.866 2 9 2C5.13401 2 2 5.13401 2 9C2 12.866 5.13401 16 9 16M16 9C16 8.66048 15.9758 8.3266 15.9291 8H12.8C11.1198 8 10.2798 8 9.63803 8.32698C9.07354 8.6146 8.6146 9.07354 8.32698 9.63803C8 10.2798 8 11.1198 8 12.8V15.9291C8.3266 15.9758 8.66048 16 9 16M22 14V16.01M16.01 22H14M22 20C22 21.1046 21.1046 22 20 22M20 8C21.1046 8 22 8.89543 22 10M10 22C8.89543 22 8 21.1046 8 20" stroke="#131316" stroke-width="2" stroke-linecap="round" stroke-linejoin="round"/>
</svg>
