<svg width="24" height="24" viewBox="0 0 24 24" fill="none" xmlns="http://www.w3.org/2000/svg">
<path d="M10 12C11.1046 12 12 11.1046 12 10C12 8.89543 11.1046 8 10 8C8.89543 8 8 8.89543 8 10C8 11.1046 8.89543 12 10 12ZM10 12C12.2091 12 14 13.7909 14 16M10 12C7.79086 12 6 13.7909 6 16M17 9H18M17 13H18M10 21H14C16.8003 21 18.2004 21 19.27 20.455C20.2108 19.9757 20.9757 19.2108 21.455 18.27C22 17.2004 22 15.8003 22 13V11C22 8.19974 22 6.79961 21.455 5.73005C20.9757 4.78924 20.2108 4.02433 19.27 3.54497C18.2004 3 16.8003 3 14 3H10C7.19974 3 5.79961 3 4.73005 3.54497C3.78924 4.02433 3.02433 4.78924 2.54497 5.73005C2 6.79961 2 8.19974 2 11V13C2 15.8003 2 17.2004 2.54497 18.27C3.02433 19.2108 3.78924 19.9757 4.73005 20.455C5.79961 21 7.19974 21 10 21Z" stroke="#131316" stroke-width="2" stroke-linecap="round" stroke-linejoin="round"/>
</svg>
