<svg width="24" height="24" viewBox="0 0 24 24" fill="none" xmlns="http://www.w3.org/2000/svg">
<path d="M5 21V17C5 15.1387 5 14.2081 5.24472 13.4549C5.73931 11.9327 6.93273 10.7393 8.45492 10.2447C9.20808 10 10.1387 10 12 10M19 21V17C19 15.1387 19 14.2081 18.7553 13.4549C18.2607 11.9327 17.0673 10.7393 15.5451 10.2447C14.7919 10 13.8613 10 12 10M12 10C13.933 10 15.5 8.433 15.5 6.5C15.5 4.567 13.933 3 12 3C10.067 3 8.5 4.567 8.5 6.5C8.5 8.433 10.067 10 12 10Z" stroke="#131316" stroke-width="2" stroke-linecap="round" stroke-linejoin="round"/>
</svg>
