<svg width="24" height="24" viewBox="0 0 24 24" fill="none" xmlns="http://www.w3.org/2000/svg">
<path d="M9 19H10C11.8613 19 12.7919 19 13.5451 18.7553C15.0673 18.2607 16.2607 17.0673 16.7553 15.5451C17 14.7919 17 13.8613 17 12C17 10.1387 17 9.20808 16.7553 8.45492C16.2607 6.93272 15.0673 5.73931 13.5451 5.24472C12.7919 5 11.8613 5 10 5L9 5C7.13872 5 6.20808 5 5.45492 5.24472C3.93272 5.73931 2.73931 6.93272 2.24472 8.45492C2 9.20808 2 10.1387 2 12C2 13.8613 2 14.7919 2.24472 15.5451C2.73931 17.0673 3.93272 18.2607 5.45492 18.7553C6.20808 19 7.13872 19 9 19Z" stroke="#131316" stroke-width="2" stroke-linecap="round" stroke-linejoin="round"/>
<path d="M13 10.5C13 11.3284 12.3284 12 11.5 12C10.6716 12 10 11.3284 10 10.5C10 9.67157 10.6716 9 11.5 9C12.3284 9 13 9.67157 13 10.5Z" stroke="#131316" stroke-width="2" stroke-linecap="round" stroke-linejoin="round"/>
<path d="M17 10.4686V13.5314C17 13.876 17 14.0483 17.0243 14.2028C17.1233 14.8313 17.5153 15.3752 18.0802 15.6678C18.2191 15.7397 18.3826 15.7942 18.7094 15.9031C19.2985 16.0995 19.593 16.1977 19.8298 16.2179C20.8144 16.302 21.7127 15.6545 21.9443 14.6939C22 14.4628 22 14.1524 22 13.5314V10.4686C22 9.84764 22 9.53717 21.9443 9.30612C21.7127 8.34554 20.8144 7.69804 19.8298 7.7821C19.593 7.80233 19.2985 7.9005 18.7094 8.09686C18.3826 8.20581 18.2191 8.26029 18.0802 8.33224C17.5153 8.62483 17.1233 9.16873 17.0243 9.79719C17 9.95174 17 10.124 17 10.4686Z" stroke="#131316" stroke-width="2" stroke-linecap="round" stroke-linejoin="round"/>
</svg>
