<svg width="24" height="24" viewBox="0 0 24 24" fill="none" xmlns="http://www.w3.org/2000/svg">
<path d="M2.24472 10.4548C2.04405 11.0724 2.00793 11.8094 2.00143 13.0809C2 12.7453 2 12.386 2 12V11.6394C2 9.27666 2 8.0953 2.4257 7.13075C2.80104 6.28031 3.40603 5.55134 4.17274 5.0257C5.04231 4.42954 6.20344 4.21183 8.52569 3.77641C11.7778 3.16663 13.4039 2.86174 14.6745 3.31333C15.7891 3.7095 16.7272 4.48803 17.322 5.51057C17.5761 5.94744 17.735 6.45297 17.8343 7.08853C17.1805 6.99992 16.3267 6.99991 15 6.99991M2.24472 10.4548C2.73931 8.93264 3.93273 7.73922 5.45491 7.24463C6.20808 6.99991 7.13872 6.99991 9 6.99991H15M2.24472 10.4548C2 11.208 2 12.1387 2 14C2 14.3686 2 14.7008 2.0019 15.0022M15 6.99991C16.8613 6.99991 17.7919 7 18.5451 7.24472C20.0673 7.73931 21.2607 8.93272 21.7553 10.4549C22 11.2081 22 12.1387 22 14C22 15.8613 22 16.7919 21.7553 17.5451C21.2607 19.0673 20.0673 20.2607 18.5451 20.7553C17.7919 21 16.8613 21 15 21H9.99988M2 19H6M22 16H18C16.8954 16 16 15.1046 16 14C16 12.8954 16.8954 12 18 12H22V16Z" stroke="#131316" stroke-width="2" stroke-linecap="round" stroke-linejoin="round"/>
</svg>
