<svg width="24" height="24" viewBox="0 0 24 24" fill="none" xmlns="http://www.w3.org/2000/svg">
<path d="M2.01105 10C2 10.577 2 11.2365 2 12C2 14.8003 2 16.2004 2.54497 17.27C3.02433 18.2108 3.78924 18.9757 4.73005 19.455C5.79961 20 7.19974 20 10 20H12C14.8003 20 16.2004 20 17.27 19.455C18.2108 18.9757 18.9757 18.2108 19.455 17.27C19.7587 16.6739 19.8932 15.9752 19.9527 14.9888C19.6989 15 19.3903 15 19 15M19 15C18.0681 15 17.6022 15 17.2346 14.8478C16.7446 14.6448 16.3552 14.2554 16.1522 13.7654C16 13.3978 16 12.9319 16 12C16 11.0681 16 10.6022 16.1522 10.2346C16.3552 9.74458 16.7446 9.35523 17.2346 9.15224C17.6022 9 18.0681 9 19 9M19 15C19.9319 15 20.3978 15 20.7654 14.8478C21.2554 14.6448 21.6448 14.2554 21.8478 13.7654C22 13.3978 22 12.9319 22 12C22 11.0681 22 10.6022 21.8478 10.2346C21.6448 9.74458 21.2554 9.35523 20.7654 9.15224C20.3978 9 19.9319 9 19 9M19 9C19.3903 9 19.6989 9 19.9527 9.01119C19.8932 8.02476 19.7587 7.32607 19.455 6.73005C18.9757 5.78924 18.2108 5.02433 17.27 4.54497C16.2004 4 14.8003 4 12 4H10M2 6H6M7 15H9" stroke="#131316" stroke-width="2" stroke-linecap="round" stroke-linejoin="round"/>
</svg>
