<svg width="24" height="24" viewBox="0 0 24 24" fill="none" xmlns="http://www.w3.org/2000/svg">
<path d="M12 10V13H15M8 6V5.2C8 4.0799 8 3.51984 8.21799 3.09202C8.40973 2.71569 8.71569 2.40973 9.09202 2.21799C9.51984 2 10.0799 2 11.2 2L12.8 2C13.9201 2 14.4802 2 14.908 2.21799C15.2843 2.40973 15.5903 2.71569 15.782 3.09202C16 3.51984 16 4.0799 16 5.2V6M8 18V18.8C8 19.9201 8 20.4802 8.21799 20.908C8.40973 21.2843 8.71569 21.5903 9.09202 21.782C9.51984 22 10.0799 22 11.2 22H12.8C13.9201 22 14.4802 22 14.908 21.782C15.2843 21.5903 15.5903 21.2843 15.782 20.908C16 20.4802 16 19.9201 16 18.8V18M19 12C19 15.866 15.866 19 12 19C8.13401 19 5 15.866 5 12C5 8.13401 8.13401 5 12 5C15.866 5 19 8.13401 19 12Z" stroke="#131316" stroke-width="2" stroke-linecap="round" stroke-linejoin="round"/>
</svg>
