<svg width="24" height="24" viewBox="0 0 24 24" fill="none" xmlns="http://www.w3.org/2000/svg">
<path d="M16 17V17.0099M10.2984 4.60387C11.4656 6.07287 12.6 7.87391 12.6 9.2C12.6 11.851 10.451 14 7.8 14C6.79076 14 5.85426 13.6885 5.0814 13.1565M10.2984 4.60387C10.1399 4.40441 9.98081 4.21106 9.82386 4.02586C10.9636 2.79754 11.8556 2.00012 11.9998 2.00012C12.4442 2.00012 19.9998 9.58184 19.9998 14.0001C19.9998 18.4184 16.418 22.0001 11.9998 22.0001C7.58148 22.0001 3.99976 18.4184 3.99976 14.0001C3.99976 13.5128 4.09167 12.987 4.25582 12.4371C4.50242 12.707 4.77942 12.9486 5.0814 13.1565M10.2984 4.60387C9.13224 3.13622 7.93327 2 7.8 2C7.53333 2 3 6.54903 3 9.2C3 10.8417 3.8242 12.2909 5.0814 13.1565" stroke="#131316" stroke-width="2" stroke-linecap="round" stroke-linejoin="round"/>
</svg>
