<svg width="24" height="24" viewBox="0 0 24 24" fill="none" xmlns="http://www.w3.org/2000/svg">
<path d="M2 4L4.5 6C5.094 6.4752 5.39099 6.7128 5.69676 6.86026C6.5202 7.25741 7.4798 7.25741 8.30324 6.86027C8.60901 6.7128 8.906 6.4752 9.5 6C10.094 5.5248 10.391 5.28721 10.6968 5.13974C11.5202 4.74259 12.4798 4.74259 13.3032 5.13974C13.609 5.28721 13.906 5.5248 14.5 6L14.8928 6.31426C15.6131 6.89044 15.9732 7.17853 16.3742 7.3424C16.8222 7.52546 17.3078 7.59743 17.7896 7.55215C18.2209 7.51163 18.6491 7.34035 19.5055 6.99781L22 6M2 10L4.5 12C5.094 12.4752 5.39099 12.7128 5.69676 12.8603C6.5202 13.2574 7.4798 13.2574 8.30324 12.8603C8.60901 12.7128 8.906 12.4752 9.5 12C10.094 11.5248 10.391 11.2872 10.6968 11.1397C11.5202 10.7426 12.4798 10.7426 13.3032 11.1397C13.609 11.2872 13.906 11.5248 14.5 12L14.8928 12.3143C15.6131 12.8904 15.9732 13.1785 16.3742 13.3424C16.8222 13.5255 17.3078 13.5974 17.7896 13.5522C18.2209 13.5116 18.6491 13.3404 19.5055 12.9978L22 12M2 16L4.5 18C5.094 18.4752 5.39099 18.7128 5.69676 18.8603C6.5202 19.2574 7.4798 19.2574 8.30324 18.8603C8.60901 18.7128 8.906 18.4752 9.5 18C10.094 17.5248 10.391 17.2872 10.6968 17.1397C11.5202 16.7426 12.4798 16.7426 13.3032 17.1397C13.609 17.2872 13.906 17.5248 14.5 18L14.8928 18.3143C15.6131 18.8904 15.9732 19.1785 16.3742 19.3424C16.8222 19.5255 17.3078 19.5974 17.7896 19.5522C18.2209 19.5116 18.6491 19.3404 19.5055 18.9978L22 18" stroke="#131316" stroke-width="2" stroke-linecap="round" stroke-linejoin="round"/>
</svg>
