<svg width="24" height="24" viewBox="0 0 24 24" fill="none" xmlns="http://www.w3.org/2000/svg">
<path d="M17.9856 10.424C20.3422 11.2649 22 13.2657 22 15.6C22 16.7898 21.5693 17.8929 20.8349 18.8C20.3813 19.3603 20.375 22 20.375 22C20.375 22 17.8605 20.8605 17.125 21.0236C16.6056 21.1387 16.0611 21.2 15.5 21.2C12.4566 21.2 9.90177 19.398 9.19445 16.965M17.9856 10.424C17.2199 10.1508 16.3804 10 15.5 10C11.9101 10 9 12.5072 9 15.6C9 16.0708 9.06744 16.5281 9.19445 16.965M17.9856 10.424C17.9951 10.2838 18 10.1424 18 10C18 6.13401 14.4183 3 10 3C5.58172 3 2 6.13401 2 10C2 11.4872 2.53007 12.8662 3.43393 14C3.99227 14.7004 4 18 4 18C4 18 7.09473 16.5756 8 16.7795C8.38756 16.8668 8.78649 16.9293 9.19445 16.965M7.5 8V8.00995M12.5 8V8.00995M17.5 14V14.0099M13.5 14V14.0099" stroke="#131316" stroke-width="2" stroke-linecap="round" stroke-linejoin="round"/>
</svg>
