<svg width="24" height="24" viewBox="0 0 24 24" fill="none" xmlns="http://www.w3.org/2000/svg">
<path d="M7.41 19.74C8.76 20.55 10.38 21 12 21C16.95 21 21 16.95 21 12C21 7.05 16.95 3 12 3C7.05 3 3 7.05 3 12C3 13.62 3.45 15.15 4.17 16.5L3 21L7.41 19.74Z" stroke="#131316" stroke-width="2" stroke-linecap="round" stroke-linejoin="round"/>
<path d="M14.9415 15.9167C15.2258 15.8655 15.4737 15.7095 15.678 15.5052L16.0204 15.1628C16.5613 14.6219 16.5613 13.7447 16.0204 13.2038L15.8333 13.0167C15.3956 12.579 14.686 12.579 14.2483 13.0167C14.1253 13.1397 13.974 13.2348 13.8 13.2395C13.4249 13.2497 12.6782 13.1268 11.7757 12.2242C10.8731 11.3217 10.7502 10.575 10.7604 10.1998C10.7651 10.0259 10.8602 9.87457 10.9832 9.75155C11.4209 9.31388 11.4209 8.60428 10.9832 8.16662L10.7961 7.97954C10.2552 7.43856 9.37804 7.43855 8.83706 7.97954L8.49455 8.32205C8.29032 8.52628 8.13441 8.774 8.08316 9.05825C7.91925 9.96747 7.79274 12.1805 9.80578 14.1936C11.8187 16.2065 14.032 16.0804 14.9415 15.9167Z" stroke="#131316" stroke-width="2" stroke-linecap="round" stroke-linejoin="round"/>
</svg>
