<svg width="24" height="24" viewBox="0 0 24 24" fill="none" xmlns="http://www.w3.org/2000/svg">
<path d="M15 19.7324C15.2942 19.9026 15.6357 20 16 20C17.1046 20 18 19.1046 18 18C18 16.8954 17.1046 16 16 16H2M8 4.26756C8.29417 4.09739 8.63571 4 9 4C10.1046 4 11 4.89543 11 6C11 7.10457 10.1046 8 9 8H2M15.0352 8C15.2778 6.30385 16.7365 5 18.4997 5C20.4327 5 21.9997 6.567 21.9997 8.5C21.9997 10.433 20.4327 12 18.4997 12H2" stroke="#131316" stroke-width="2" stroke-linecap="round" stroke-linejoin="round"/>
</svg>
