<svg width="24" height="24" viewBox="0 0 24 24" fill="none" xmlns="http://www.w3.org/2000/svg">
<path d="M3 12C3 16.9706 7.02944 21 12 21C16.9706 21 21 16.9706 21 12C21 7.02944 16.9706 3 12 3C7.02944 3 3 7.02944 3 12ZM3 12C3 14.3051 3.86656 16.4077 5.29168 18H6L8.28246 17L7 13.5L9 12.5L8.72046 9L5 7H4.51555C3.55827 8.4301 3 10.1499 3 12ZM20.3542 15.3542C19.1442 18.3652 16.3535 20.5708 13.0093 20.944L14 15L17.5 14.5L20 15L20.3542 15.3542Z" stroke="#131316" stroke-width="2" stroke-linecap="round" stroke-linejoin="round"/>
</svg>
