<svg width="24" height="24" viewBox="0 0 24 24" fill="none" xmlns="http://www.w3.org/2000/svg">
<path d="M10.6766 16.3981C11.1638 16.6196 11.4075 16.7303 11.6611 16.774C11.8859 16.8127 12.1156 16.8127 12.3404 16.774C12.5941 16.7303 12.8377 16.6196 13.3249 16.3981L16.5918 14.9132C18.6278 13.9877 19.6459 13.5249 19.9617 12.8837C20.2362 12.3265 20.2362 11.6735 19.9617 11.1163C19.6459 10.475 18.6278 10.0123 16.5918 9.08681L13.3249 7.60188C12.8377 7.3804 12.5941 7.26966 12.3404 7.22595C12.1156 7.18722 11.8859 7.18722 11.6611 7.22595C11.4075 7.26966 11.1638 7.3804 10.6766 7.60188L7.40974 9.08681C5.37368 10.0123 4.35565 10.475 4.03981 11.1163C3.76537 11.6735 3.76537 12.3265 4.03981 12.8837C4.35565 13.5249 5.37368 13.9877 7.40975 14.9132L10.6766 16.3981Z" stroke="#131316" stroke-width="2" stroke-linecap="round" stroke-linejoin="round"/>
</svg>
