<svg width="24" height="24" viewBox="0 0 24 24" fill="none" xmlns="http://www.w3.org/2000/svg">
<path d="M16.8 12H17.2C18.8802 12 19.7202 12 20.362 11.673C20.9265 11.3854 21.3854 10.9265 21.673 10.362C22 9.72024 22 8.88016 22 7.2V6.8C22 5.11984 22 4.27976 21.673 3.63803C21.3854 3.07354 20.9265 2.6146 20.362 2.32698C19.7202 2 18.8802 2 17.2 2L16.8 2C15.1198 2 14.2798 2 13.638 2.32698C13.0735 2.6146 12.6146 3.07354 12.327 3.63803C12 4.27976 12 5.11984 12 6.8V7.2M16.8 12C15.1198 12 14.2798 12 13.638 11.673C13.0735 11.3854 12.6146 10.9265 12.327 10.362C12 9.72024 12 8.88016 12 7.2M16.8 12H17V12.2C17 13.8802 17 14.7202 16.673 15.362C16.3854 15.9265 15.9265 16.3854 15.362 16.673C14.7202 17 13.8802 17 12.2 17H11.8M12 7.2V7H11.8C10.1198 7 9.27976 7 8.63803 7.32698C8.07354 7.6146 7.6146 8.07354 7.32698 8.63803C7 9.27976 7 10.1198 7 11.8V12.2M7 12.2C7 13.8802 7 14.7202 7.32698 15.362C7.6146 15.9265 8.07354 16.3854 8.63803 16.673C9.27976 17 10.1198 17 11.8 17M7 12.2V12H6.8C5.11984 12 4.27976 12 3.63803 12.327C3.07354 12.6146 2.6146 13.0735 2.32698 13.638C2 14.2798 2 15.1198 2 16.8V17.2C2 18.8802 2 19.7202 2.32698 20.362C2.6146 20.9265 3.07354 21.3854 3.63803 21.673C4.27976 22 5.11984 22 6.8 22H7.2C8.88016 22 9.72024 22 10.362 21.673C10.9265 21.3854 11.3854 20.9265 11.673 20.362C12 19.7202 12 18.8802 12 17.2V17H11.8" stroke="#131316" stroke-width="2" stroke-linecap="round" stroke-linejoin="round"/>
</svg>
