<svg width="24" height="24" viewBox="0 0 24 24" fill="none" xmlns="http://www.w3.org/2000/svg">
<path d="M7.40801 9.91319L10.6749 11.3981C11.1621 11.6196 11.4057 11.7303 11.6594 11.774C11.8842 11.8128 12.1139 11.8128 12.3387 11.774C12.5923 11.7303 12.8359 11.6196 13.3232 11.3981L16.59 9.91318M7.40801 9.91319C5.37194 8.9877 4.35391 8.52496 4.03807 7.88373C3.76363 7.32654 3.76363 6.67348 4.03807 6.1163C4.35391 5.47506 5.37194 5.01232 7.408 4.08684L10.6749 2.60191C11.1621 2.38043 11.4057 2.26969 11.6594 2.22598C11.8842 2.18725 12.1139 2.18725 12.3387 2.22598C12.5923 2.26969 12.8359 2.38043 13.3232 2.60191L16.59 4.08684C18.6261 5.01232 19.6441 5.47506 19.96 6.1163C20.2344 6.67348 20.2344 7.32654 19.96 7.88373C19.6441 8.52496 18.6261 8.9877 16.59 9.91318M7.40801 9.91319C7.08066 9.76439 6.77938 9.62757 6.50335 9.50003C5.06252 10.1657 4.30292 10.5782 4.03786 11.1163C3.76342 11.6735 3.76342 12.3266 4.03786 12.8837C4.3537 13.525 5.37173 13.9877 7.4078 14.9132M16.59 9.91318C16.9174 9.76438 17.2182 9.62755 17.4942 9.50001C18.9351 10.1657 19.6947 10.5782 19.9598 11.1163C20.2342 11.6735 20.2342 12.3266 19.9598 12.8837C19.6439 13.525 18.6259 13.9877 16.5898 14.9132M7.4078 14.9132L10.6746 16.3981C11.1619 16.6196 11.4055 16.7303 11.6592 16.7741C11.8839 16.8128 12.1137 16.8128 12.3385 16.7741C12.5921 16.7303 12.8357 16.6196 13.323 16.3981L16.5898 14.9132M7.4078 14.9132C7.08045 14.7644 6.77938 14.6276 6.50335 14.5C5.06252 15.1657 4.30292 15.5782 4.03786 16.1163C3.76342 16.6735 3.76342 17.3266 4.03786 17.8837C4.3537 18.525 5.37173 18.9877 7.4078 19.9132L10.6746 21.3981C11.1619 21.6196 11.4055 21.7303 11.6592 21.7741C11.8839 21.8128 12.1137 21.8128 12.3385 21.7741C12.5921 21.7303 12.8357 21.6196 13.323 21.3981L16.5898 19.9132C18.6259 18.9877 19.6439 18.525 19.9598 17.8837C20.2342 17.3266 20.2342 16.6735 19.9598 16.1163C19.6947 15.5782 18.9351 15.1657 17.4942 14.5C17.2182 14.6276 16.9172 14.7644 16.5898 14.9132" stroke="#131316" stroke-width="2" stroke-linecap="round" stroke-linejoin="round"/>
</svg>
