<svg width="24" height="24" viewBox="0 0 24 24" fill="none" xmlns="http://www.w3.org/2000/svg">
<path d="M14 6.5C14 4.567 15.567 3 17.5 3C19.433 3 21 4.567 21 6.5C21 8.433 19.433 10 17.5 10C15.567 10 14 8.433 14 6.5ZM14 6.5C14 5.79221 14.2101 5.13348 14.5713 4.58279C14.3903 4.52893 14.1985 4.5 14 4.5H5C3.89543 4.5 3 5.39543 3 6.5C3 7.60457 3.89543 8.5 5 8.5H14C14.1985 8.5 14.3903 8.47107 14.5713 8.41721C14.2101 7.86652 14 7.20779 14 6.5ZM10 17.5C10 15.567 8.433 14 6.5 14C4.567 14 3 15.567 3 17.5C3 19.433 4.567 21 6.5 21C8.433 21 10 19.433 10 17.5ZM10 17.5C10 16.7922 9.7899 16.1335 9.42867 15.5828C9.6097 15.5289 9.80147 15.5 10 15.5H19C20.1046 15.5 21 16.3954 21 17.5C21 18.6046 20.1046 19.5 19 19.5H10C9.80147 19.5 9.6097 19.4711 9.42867 19.4172C9.7899 18.8665 10 18.2078 10 17.5Z" stroke="#131316" stroke-width="2" stroke-linecap="round" stroke-linejoin="round"/>
</svg>
