<svg width="24" height="24" viewBox="0 0 24 24" fill="none" xmlns="http://www.w3.org/2000/svg">
<path d="M7.9997 22H15.9997L13.9997 19L14.8235 4.99482C14.9191 3.37007 13.6273 2 11.9997 2C10.3721 2 9.08029 3.37007 9.17587 4.99482L9.9997 19L7.9997 22Z" stroke="#131316" stroke-width="2" stroke-linecap="round" stroke-linejoin="round"/>
<path d="M9.42805 9.28208L9.71166 14.1034C9.65261 14.1259 9.59214 14.1457 9.53039 14.1627C9.39098 14.2011 9.22661 14.2216 8.89786 14.2627L4.92605 14.7592C3.90333 14.8871 3 14.0896 3 13.059C3 12.41 3.36667 11.8167 3.94715 11.5264L7.52722 9.73621C8.03383 9.48289 8.28714 9.35622 8.48399 9.30372C8.80433 9.21828 9.12637 9.21561 9.42805 9.28208Z" stroke="#131316" stroke-width="2" stroke-linecap="round" stroke-linejoin="round"/>
<path d="M14.2877 14.1035L14.5713 9.28201C14.8729 9.21561 15.1949 9.21831 15.5151 9.30372C15.712 9.35622 15.9653 9.48289 16.4719 9.7362L20.0519 11.5264C20.6324 11.8167 20.9991 12.41 20.9991 13.059C20.9991 14.0896 20.0958 14.8871 19.0731 14.7592L15.1013 14.2627C14.7725 14.2216 14.6081 14.2011 14.4687 14.1627C14.4071 14.1457 14.3467 14.1259 14.2877 14.1035Z" stroke="#131316" stroke-width="2" stroke-linecap="round" stroke-linejoin="round"/>
</svg>
