<svg width="24" height="24" viewBox="0 0 24 24" fill="none" xmlns="http://www.w3.org/2000/svg">
<path d="M3 15.2793L8.72071 21L9.4358 17.4246L20.0399 7.99873C21.27 6.90523 21.326 5.00173 20.1621 3.83787C18.9983 2.67402 17.0948 2.72996 16.0013 3.96015L6.57544 14.5642L3 15.2793Z" stroke="#131316" stroke-width="2" stroke-linecap="round" stroke-linejoin="round"/>
<path d="M13.1158 7.20618L9.87096 10.8566C9.81265 10.8305 9.75524 10.8014 9.69892 10.7694C9.57178 10.6972 9.43954 10.5943 9.17507 10.3886L5.97982 7.90349C5.15707 7.26358 5.08135 6.04738 5.81837 5.31036C6.28247 4.84626 6.96893 4.68419 7.59159 4.89173L11.4318 6.17166C11.9752 6.35278 12.2469 6.44334 12.4252 6.54656C12.7154 6.71454 12.9476 6.94291 13.1158 7.20618Z" stroke="#131316" stroke-width="2" stroke-linecap="round" stroke-linejoin="round"/>
<path d="M13.1432 14.129L16.7938 10.884C17.0569 11.0522 17.2852 11.2844 17.4531 11.5744C17.5563 11.7527 17.6469 12.0245 17.828 12.5679L19.1079 16.4081C19.3155 17.0307 19.1534 17.7172 18.6893 18.1813C17.9523 18.9183 16.7361 18.8426 16.0962 18.0199L13.6111 14.8246C13.4054 14.5602 13.3025 14.4279 13.2303 14.3008C13.1983 14.2445 13.1693 14.1872 13.1432 14.129Z" stroke="#131316" stroke-width="2" stroke-linecap="round" stroke-linejoin="round"/>
</svg>
