<svg width="24" height="24" viewBox="0 0 24 24" fill="none" xmlns="http://www.w3.org/2000/svg">
<path d="M21 3L3 3M4 18V10C4 9.06812 4 8.60217 4.15224 8.23463C4.35523 7.74458 4.74458 7.35523 5.23463 7.15224C5.60218 7 6.06812 7 7 7C7.93188 7 8.39782 7 8.76537 7.15224C9.25542 7.35523 9.64477 7.74458 9.84776 8.23463C10 8.60217 10 9.06812 10 10V18C10 18.9319 10 19.3978 9.84776 19.7654C9.64477 20.2554 9.25542 20.6448 8.76537 20.8478C8.39782 21 7.93188 21 7 21C6.06812 21 5.60218 21 5.23463 20.8478C4.74458 20.6448 4.35523 20.2554 4.15224 19.7654C4 19.3978 4 18.9319 4 18ZM14 12V10C14 9.06812 14 8.60218 14.1522 8.23463C14.3552 7.74458 14.7446 7.35523 15.2346 7.15224C15.6022 7 16.0681 7 17 7C17.9319 7 18.3978 7 18.7654 7.15224C19.2554 7.35523 19.6448 7.74458 19.8478 8.23463C20 8.60218 20 9.06812 20 10V12C20 12.9319 20 13.3978 19.8478 13.7654C19.6448 14.2554 19.2554 14.6448 18.7654 14.8478C18.3978 15 17.9319 15 17 15C16.0681 15 15.6022 15 15.2346 14.8478C14.7446 14.6448 14.3552 14.2554 14.1522 13.7654C14 13.3978 14 12.9319 14 12Z" stroke="#131316" stroke-width="2" stroke-linecap="round" stroke-linejoin="round"/>
</svg>
