<svg width="24" height="24" viewBox="0 0 24 24" fill="none" xmlns="http://www.w3.org/2000/svg">
<path d="M12 2V4M12.0078 10L12 14M12.0078 20L12 22M18 10H6C5.06812 10 4.60217 10 4.23463 9.84776C3.74458 9.64477 3.35523 9.25542 3.15224 8.76537C3 8.39782 3 7.93188 3 7C3 6.06812 3 5.60218 3.15224 5.23463C3.35523 4.74458 3.74458 4.35523 4.23463 4.15224C4.60217 4 5.06812 4 6 4H18C18.9319 4 19.3978 4 19.7654 4.15224C20.2554 4.35523 20.6448 4.74458 20.8478 5.23463C21 5.60218 21 6.06812 21 7C21 7.93188 21 8.39782 20.8478 8.76537C20.6448 9.25542 20.2554 9.64477 19.7654 9.84776C19.3978 10 18.9319 10 18 10ZM14 20H10C9.06812 20 8.60217 20 8.23463 19.8478C7.74458 19.6448 7.35523 19.2554 7.15224 18.7654C7 18.3978 7 17.9319 7 17C7 16.0681 7 15.6022 7.15224 15.2346C7.35523 14.7446 7.74458 14.3552 8.23463 14.1522C8.60217 14 9.06812 14 10 14H14C14.9319 14 15.3978 14 15.7654 14.1522C16.2554 14.3552 16.6448 14.7446 16.8478 15.2346C17 15.6022 17 16.0681 17 17C17 17.9319 17 18.3978 16.8478 18.7654C16.6448 19.2554 16.2554 19.6448 15.7654 19.8478C15.3978 20 14.9319 20 14 20Z" stroke="#131316" stroke-width="2" stroke-linecap="round" stroke-linejoin="round"/>
</svg>
