<svg width="24" height="24" viewBox="0 0 24 24" fill="none" xmlns="http://www.w3.org/2000/svg">
<path d="M7 12.5H8H7ZM7 8.5H6H7ZM10 8.5H9H10ZM10 12.5H11H10ZM10.5945 7.63785L11.3754 8.26254L10.5945 7.63785ZM11.2741 6.7883L12.055 7.413V7.413L11.2741 6.7883ZM13.4275 8.2517L12.5592 7.75565V7.75565L13.4275 8.2517ZM13 9L12.1317 8.50395C11.9549 8.81346 11.9562 9.19368 12.1351 9.50197C12.314 9.81026 12.6435 10 13 10V9ZM10.7143 13.8571L11.4214 13.15L11.4214 13.15L10.7143 13.8571ZM10.4694 13.6017L9.70403 14.2454L9.70403 14.2454L10.4694 13.6017ZM10.0074 12.4865L11.0037 12.4005L10.0074 12.4865ZM12.0849 14.564L11.9989 15.5603H11.9989L12.0849 14.564ZM10.9697 14.1021L10.3261 14.8674L10.3261 14.8674L10.9697 14.1021ZM15.3975 9.17033L15.8013 8.25549L15.3975 9.17033ZM15.5754 13.231L14.7205 12.7122V12.7122L15.5754 13.231ZM16.573 11.2588L15.5814 11.1294V11.1294L16.573 11.2588ZM12.8264 6.41187L12.4185 7.32486L12.8264 6.41187ZM15.1038 13.9301L14.37 13.2508L15.1038 13.9301ZM14.0363 14.531L13.8362 13.5512L13.8362 13.5512L14.0363 14.531ZM10.2997 8.02951L11.1498 8.55601H11.1498L10.2997 8.02951ZM10.0144 8.84258L11.0072 8.96255L10.0144 8.84258ZM15.0113 18.9887L14.9918 17.9889C14.7334 17.9939 14.4869 18.0988 14.3042 18.2816L15.0113 18.9887ZM18.27 18.455L17.816 17.564H17.816L18.27 18.455ZM20.455 16.27L19.564 15.816V15.816L20.455 16.27ZM20.455 4.73005L19.564 5.18404V5.18404L20.455 4.73005ZM18.27 2.54497L17.816 3.43597L17.816 3.43597L18.27 2.54497ZM5.73005 2.54497L6.18404 3.43597L5.73005 2.54497ZM3.54497 4.73005L4.43597 5.18404L4.43597 5.18404L3.54497 4.73005ZM3.54497 16.27L4.43597 15.816L4.43597 15.816L3.54497 16.27ZM5.73005 18.455L6.18404 17.564H6.18404L5.73005 18.455ZM8.98874 18.9887L9.69584 18.2816C9.51306 18.0988 9.2666 17.9939 9.00816 17.9889L8.98874 18.9887ZM12 22L11.2929 22.7071C11.6834 23.0976 12.3166 23.0976 12.7071 22.7071L12 22ZM8 12.5V8.5H6V12.5H8ZM9 8.5V12.5H11V8.5H9ZM8.5 8C8.77614 8 9 8.22386 9 8.5H11C11 7.11929 9.88071 6 8.5 6V8ZM8 8.5C8 8.22386 8.22386 8 8.5 8V6C7.11929 6 6 7.11929 6 8.5H8ZM8.5 13C8.22386 13 8 12.7761 8 12.5H6C6 13.8807 7.11929 15 8.5 15V13ZM8.5 15C9.88071 15 11 13.8807 11 12.5H9C9 12.7761 8.77614 13 8.5 13V15ZM11.3754 8.26254L12.055 7.413L10.4932 6.16361L9.81361 7.01315L11.3754 8.26254ZM12.5592 7.75565L12.1317 8.50395L13.8683 9.49605L14.2958 8.74775L12.5592 7.75565ZM13 10H13.1939V8H13V10ZM13.1939 13.5714H12.4387V15.5714H13.1939V13.5714ZM9 9.33259V12.1327H11V9.33259H9ZM11.4214 13.15C11.283 13.0116 11.256 12.9834 11.2347 12.9581L9.70403 14.2454C9.79371 14.352 9.89302 14.4501 10.0072 14.5642L11.4214 13.15ZM9 12.1327C9 12.2942 8.99914 12.4337 9.01112 12.5725L11.0037 12.4005C11.0009 12.3675 11 12.3285 11 12.1327H9ZM11.2347 12.9581C11.1021 12.8004 11.0214 12.6057 11.0037 12.4005L9.01112 12.5725C9.06429 13.1882 9.30629 13.7724 9.70403 14.2454L11.2347 12.9581ZM12.4387 13.5714C12.2429 13.5714 12.2039 13.5706 12.171 13.5677L11.9989 15.5603C12.1377 15.5723 12.2773 15.5714 12.4387 15.5714V13.5714ZM10.0072 14.5642C10.1213 14.6784 10.2194 14.7777 10.3261 14.8674L11.6134 13.3368C11.588 13.3155 11.5598 13.2885 11.4214 13.15L10.0072 14.5642ZM12.171 13.5677C11.9657 13.55 11.771 13.4693 11.6134 13.3368L10.3261 14.8674C10.799 15.2651 11.3832 15.5071 11.9989 15.5603L12.171 13.5677ZM13.1939 10C13.8126 10 14.2312 10.0004 14.5449 10.0195C14.865 10.0389 14.9678 10.0737 14.9937 10.0852L15.8013 8.25549C15.4413 8.09659 15.0483 8.0463 14.6659 8.02312C14.2773 7.99956 13.787 8 13.1939 8V10ZM16.4303 13.7498C16.738 13.2428 16.9927 12.8238 17.1742 12.4794C17.3527 12.1405 17.5137 11.7784 17.5646 11.3882L15.5814 11.1294C15.5778 11.1575 15.5542 11.2634 15.4048 11.5471C15.2583 11.8252 15.0415 12.1832 14.7205 12.7122L16.4303 13.7498ZM14.9937 10.0852C15.3995 10.2643 15.6388 10.6895 15.5814 11.1294L17.5646 11.3882C17.7368 10.0684 17.0189 8.79296 15.8013 8.25549L14.9937 10.0852ZM12.4185 7.32486C12.5835 7.39861 12.6489 7.59869 12.5592 7.75565L14.2958 8.74775C14.9721 7.56398 14.4791 6.05509 13.2344 5.49888L12.4185 7.32486ZM12.055 7.413C12.1419 7.3043 12.2914 7.26806 12.4185 7.32486L13.2344 5.49888C12.2759 5.07056 11.1491 5.34381 10.4932 6.16361L12.055 7.413ZM14.7205 12.7122C14.4757 13.1156 14.4224 13.1942 14.37 13.2508L15.8376 14.6095C16.0598 14.3694 16.2294 14.0808 16.4303 13.7498L14.7205 12.7122ZM13.1939 15.5714C13.5811 15.5714 13.9158 15.5762 14.2363 15.5108L13.8362 13.5512C13.7607 13.5666 13.6658 13.5714 13.1939 13.5714V15.5714ZM14.37 13.2508C14.2279 13.4043 14.0412 13.5094 13.8362 13.5512L14.2363 15.5108C14.8512 15.3852 15.4113 15.07 15.8376 14.6095L14.37 13.2508ZM9.81361 7.01315C9.67408 7.18758 9.55189 7.33763 9.44948 7.503L11.1498 8.55601C11.1742 8.51665 11.2063 8.47385 11.3754 8.26254L9.81361 7.01315ZM11 9.33259C11 9.06199 11.0017 9.0085 11.0072 8.96255L9.02167 8.72261C8.99833 8.91572 9 9.10922 9 9.33259H11ZM9.44948 7.503C9.21996 7.87363 9.07397 8.28982 9.02167 8.72261L11.0072 8.96255C11.0247 8.81828 11.0733 8.67955 11.1498 8.55601L9.44948 7.503ZM15.0307 19.9885C16.56 19.9588 17.7222 19.8564 18.7239 19.346L17.816 17.564C17.2656 17.8444 16.5277 17.9591 14.9918 17.9889L15.0307 19.9885ZM18.7239 19.346C19.8529 18.7708 20.7708 17.8529 21.346 16.7239L19.564 15.816C19.1805 16.5686 18.5686 17.1805 17.816 17.564L18.7239 19.346ZM21.346 16.7239C21.7023 16.0247 21.8554 15.261 21.9286 14.3654C22.0008 13.4815 22 12.3836 22 11H20C20 12.4166 19.9992 13.419 19.9352 14.2026C19.8721 14.9745 19.7527 15.4457 19.564 15.816L21.346 16.7239ZM22 11V10H20V11H22ZM22 10C22 8.61637 22.0008 7.51851 21.9286 6.63458C21.8554 5.73898 21.7023 4.9753 21.346 4.27606L19.564 5.18404C19.7527 5.55435 19.8721 6.02552 19.9352 6.79744C19.9992 7.58104 20 8.58337 20 10H22ZM21.346 4.27606C20.7708 3.14708 19.8529 2.2292 18.7239 1.65396L17.816 3.43597C18.5686 3.81947 19.1805 4.43139 19.564 5.18404L21.346 4.27606ZM18.7239 1.65396C18.0247 1.29768 17.261 1.14462 16.3654 1.07144C15.4815 0.999222 14.3836 1 13 1V3C14.4166 3 15.419 3.00078 16.2026 3.0648C16.9745 3.12787 17.4457 3.24729 17.816 3.43597L18.7239 1.65396ZM13 1H11V3H13V1ZM11 1C9.61637 1 8.51851 0.999222 7.63458 1.07144C6.73898 1.14462 5.9753 1.29768 5.27606 1.65396L6.18404 3.43597C6.55435 3.24729 7.02552 3.12787 7.79744 3.0648C8.58104 3.00078 9.58337 3 11 3V1ZM5.27606 1.65396C4.14709 2.2292 3.2292 3.14708 2.65396 4.27606L4.43597 5.18404C4.81947 4.43139 5.43139 3.81947 6.18404 3.43597L5.27606 1.65396ZM2.65396 4.27606C2.29768 4.9753 2.14462 5.73898 2.07144 6.63458C1.99922 7.51851 2 8.61637 2 10H4C4 8.58337 4.00078 7.58104 4.0648 6.79744C4.12787 6.02552 4.24729 5.55435 4.43597 5.18404L2.65396 4.27606ZM2 10V11H4V10H2ZM2 11C2 12.3836 1.99922 13.4815 2.07144 14.3654C2.14462 15.261 2.29768 16.0247 2.65396 16.7239L4.43597 15.816C4.24729 15.4457 4.12787 14.9745 4.0648 14.2026C4.00078 13.419 4 12.4166 4 11H2ZM2.65396 16.7239C3.2292 17.8529 4.14709 18.7708 5.27606 19.346L6.18404 17.564C5.43139 17.1805 4.81947 16.5686 4.43597 15.816L2.65396 16.7239ZM5.27606 19.346C6.27778 19.8564 7.43997 19.9588 8.96931 19.9885L9.00816 17.9889C7.47228 17.9591 6.73437 17.8444 6.18404 17.564L5.27606 19.346ZM12.7071 21.2929L9.69584 18.2816L8.28163 19.6958L11.2929 22.7071L12.7071 21.2929ZM14.3042 18.2816L11.2929 21.2929L12.7071 22.7071L15.7184 19.6958L14.3042 18.2816Z" fill="#131316"/>
</svg>
