<svg width="24" height="24" viewBox="0 0 24 24" fill="none" xmlns="http://www.w3.org/2000/svg">
<path d="M7 8.07143H8H7ZM7 12.0714H6H7ZM10 12.0714H9H10ZM10 8.07143H11H10ZM10.5945 12.9336L11.3754 12.3089L10.5945 12.9336ZM11.2741 13.7831L12.055 13.1584L11.2741 13.7831ZM13.4275 12.3197L12.5592 12.8158V12.8158L13.4275 12.3197ZM13 11.5714V10.5714C12.6435 10.5714 12.314 10.7612 12.1351 11.0695C11.9562 11.3777 11.9549 11.758 12.1317 12.0675L13 11.5714ZM10.7143 6.71429L11.4214 7.42139L11.4214 7.42139L10.7143 6.71429ZM10.4694 6.9697L9.70403 6.32605L9.70403 6.32606L10.4694 6.9697ZM10.0074 8.08493L11.0037 8.17096V8.17096L10.0074 8.08493ZM12.0849 6.00742L11.9989 5.01112L11.9989 5.01112L12.0849 6.00742ZM10.9697 6.46936L10.3261 5.70403L10.3261 5.70404L10.9697 6.46936ZM15.3975 11.4011L15.8013 12.3159L15.3975 11.4011ZM15.5754 7.34046L14.7205 7.85927L15.5754 7.34046ZM16.573 9.31262L15.5814 9.44203V9.44203L16.573 9.31262ZM12.8264 14.1596L12.4185 13.2466L12.8264 14.1596ZM15.1038 6.64132L14.37 7.32066L15.1038 6.64132ZM14.0363 6.04043L13.8362 7.02021H13.8362L14.0363 6.04043ZM10.2997 12.5419L11.1498 12.0154H11.1498L10.2997 12.5419ZM10.0144 11.7288L11.0072 11.6089V11.6089L10.0144 11.7288ZM15.0113 18.9887L14.9918 17.9889C14.7334 17.9939 14.4869 18.0988 14.3042 18.2816L15.0113 18.9887ZM18.27 18.455L17.816 17.564H17.816L18.27 18.455ZM20.455 16.27L19.564 15.816V15.816L20.455 16.27ZM20.455 4.73005L19.564 5.18404V5.18404L20.455 4.73005ZM18.27 2.54497L17.816 3.43597L17.816 3.43597L18.27 2.54497ZM5.73005 2.54497L6.18404 3.43597L5.73005 2.54497ZM3.54497 4.73005L4.43597 5.18404L4.43597 5.18404L3.54497 4.73005ZM3.54497 16.27L4.43597 15.816L4.43597 15.816L3.54497 16.27ZM5.73005 18.455L6.18404 17.564H6.18404L5.73005 18.455ZM8.98874 18.9887L9.69584 18.2816C9.51306 18.0988 9.2666 17.9939 9.00816 17.9889L8.98874 18.9887ZM12 22L11.2929 22.7071C11.6834 23.0976 12.3166 23.0976 12.7071 22.7071L12 22ZM6 8.07143V12.0714H8V8.07143H6ZM11 12.0714V8.07143H9V12.0714H11ZM8.5 14.5714C9.88071 14.5714 11 13.4521 11 12.0714H9C9 12.3476 8.77614 12.5714 8.5 12.5714V14.5714ZM6 12.0714C6 13.4521 7.11929 14.5714 8.5 14.5714V12.5714C8.22386 12.5714 8 12.3476 8 12.0714H6ZM8.5 5.57143C7.11929 5.57143 6 6.69072 6 8.07143H8C8 7.79529 8.22386 7.57143 8.5 7.57143V5.57143ZM8.5 7.57143C8.77614 7.57143 9 7.79529 9 8.07143H11C11 6.69072 9.88071 5.57143 8.5 5.57143V7.57143ZM9.81361 13.5583L10.4932 14.4078L12.055 13.1584L11.3754 12.3089L9.81361 13.5583ZM14.2958 11.8237L13.8683 11.0754L12.1317 12.0675L12.5592 12.8158L14.2958 11.8237ZM13 12.5714H13.1939V10.5714H13V12.5714ZM13.1939 5H12.4387V7H13.1939V5ZM11 11.2388V8.43872H9V11.2388H11ZM10.0072 6.00718C9.89302 6.12134 9.79371 6.21943 9.70403 6.32605L11.2347 7.61335C11.256 7.58804 11.283 7.55983 11.4214 7.42139L10.0072 6.00718ZM11 8.43872C11 8.24295 11.0009 8.20391 11.0037 8.17096L9.01112 7.99889C8.99914 8.13769 9 8.27727 9 8.43872H11ZM9.70403 6.32606C9.30629 6.79899 9.06429 7.38322 9.01112 7.99889L11.0037 8.17096C11.0214 7.96574 11.1021 7.771 11.2347 7.61335L9.70403 6.32606ZM12.4387 5C12.2773 5 12.1377 4.99914 11.9989 5.01112L12.171 7.00371C12.2039 7.00086 12.2429 7 12.4387 7V5ZM11.4214 7.42139C11.5598 7.28296 11.588 7.25596 11.6134 7.23467L10.3261 5.70404C10.2194 5.79371 10.1213 5.89301 10.0072 6.00718L11.4214 7.42139ZM11.9989 5.01112C11.3832 5.06429 10.799 5.30629 10.3261 5.70403L11.6134 7.23468C11.771 7.1021 11.9657 7.02143 12.171 7.00371L11.9989 5.01112ZM13.1939 12.5714C13.787 12.5714 14.2773 12.5719 14.6659 12.5483C15.0483 12.5251 15.4413 12.4748 15.8013 12.3159L14.9937 10.4863C14.9678 10.4977 14.865 10.5326 14.5449 10.552C14.2312 10.571 13.8126 10.5714 13.1939 10.5714V12.5714ZM14.7205 7.85927C15.0415 8.3882 15.2583 8.74623 15.4048 9.02431C15.5542 9.30799 15.5778 9.41397 15.5814 9.44203L17.5646 9.18322C17.5137 8.79303 17.3527 8.43091 17.1742 8.09206C16.9927 7.7476 16.738 7.32866 16.4303 6.82164L14.7205 7.85927ZM15.8013 12.3159C17.0189 11.7785 17.7368 10.503 17.5646 9.18322L15.5814 9.44203C15.6388 9.88195 15.3995 10.3071 14.9937 10.4863L15.8013 12.3159ZM13.2344 15.0725C14.4791 14.5163 14.9721 13.0074 14.2958 11.8237L12.5592 12.8158C12.6489 12.9727 12.5835 13.1728 12.4185 13.2466L13.2344 15.0725ZM10.4932 14.4078C11.1491 15.2276 12.2759 15.5009 13.2344 15.0725L12.4185 13.2466C12.2914 13.3034 12.1419 13.2671 12.055 13.1584L10.4932 14.4078ZM16.4303 6.82164C16.2294 6.49063 16.0598 6.20199 15.8376 5.96198L14.37 7.32066C14.4224 7.37724 14.4757 7.45582 14.7205 7.85927L16.4303 6.82164ZM13.1939 7C13.6658 7 13.7607 7.00479 13.8362 7.02021L14.2363 5.06064C13.9158 4.99521 13.5811 5 13.1939 5V7ZM15.8376 5.96198C15.4113 5.50143 14.8512 5.18619 14.2363 5.06064L13.8362 7.02021C14.0412 7.06206 14.2279 7.16714 14.37 7.32066L15.8376 5.96198ZM11.3754 12.3089C11.2063 12.0976 11.1742 12.0548 11.1498 12.0154L9.44948 13.0684C9.55189 13.2338 9.67407 13.3838 9.81361 13.5583L11.3754 12.3089ZM9 11.2388C9 11.4622 8.99833 11.6557 9.02167 11.8488L11.0072 11.6089C11.0017 11.5629 11 11.5094 11 11.2388H9ZM11.1498 12.0154C11.0733 11.8919 11.0247 11.7531 11.0072 11.6089L9.02167 11.8488C9.07397 12.2816 9.21996 12.6978 9.44948 13.0684L11.1498 12.0154ZM15.0307 19.9885C16.56 19.9588 17.7222 19.8564 18.7239 19.346L17.816 17.564C17.2656 17.8444 16.5277 17.9591 14.9918 17.9889L15.0307 19.9885ZM18.7239 19.346C19.8529 18.7708 20.7708 17.8529 21.346 16.7239L19.564 15.816C19.1805 16.5686 18.5686 17.1805 17.816 17.564L18.7239 19.346ZM21.346 16.7239C21.7023 16.0247 21.8554 15.261 21.9286 14.3654C22.0008 13.4815 22 12.3836 22 11H20C20 12.4166 19.9992 13.419 19.9352 14.2026C19.8721 14.9745 19.7527 15.4457 19.564 15.816L21.346 16.7239ZM22 11V10H20V11H22ZM22 10C22 8.61637 22.0008 7.51851 21.9286 6.63458C21.8554 5.73898 21.7023 4.9753 21.346 4.27606L19.564 5.18404C19.7527 5.55435 19.8721 6.02552 19.9352 6.79744C19.9992 7.58104 20 8.58337 20 10H22ZM21.346 4.27606C20.7708 3.14708 19.8529 2.2292 18.7239 1.65396L17.816 3.43597C18.5686 3.81947 19.1805 4.43139 19.564 5.18404L21.346 4.27606ZM18.7239 1.65396C18.0247 1.29768 17.261 1.14462 16.3654 1.07144C15.4815 0.999222 14.3836 1 13 1V3C14.4166 3 15.419 3.00078 16.2026 3.0648C16.9745 3.12787 17.4457 3.24729 17.816 3.43597L18.7239 1.65396ZM13 1H11V3H13V1ZM11 1C9.61637 1 8.51851 0.999222 7.63458 1.07144C6.73898 1.14462 5.9753 1.29768 5.27606 1.65396L6.18404 3.43597C6.55435 3.24729 7.02552 3.12787 7.79744 3.0648C8.58104 3.00078 9.58337 3 11 3V1ZM5.27606 1.65396C4.14709 2.2292 3.2292 3.14708 2.65396 4.27606L4.43597 5.18404C4.81947 4.43139 5.43139 3.81947 6.18404 3.43597L5.27606 1.65396ZM2.65396 4.27606C2.29768 4.9753 2.14462 5.73898 2.07144 6.63458C1.99922 7.51851 2 8.61637 2 10H4C4 8.58337 4.00078 7.58104 4.0648 6.79744C4.12787 6.02552 4.24729 5.55435 4.43597 5.18404L2.65396 4.27606ZM2 10V11H4V10H2ZM2 11C2 12.3836 1.99922 13.4815 2.07144 14.3654C2.14462 15.261 2.29768 16.0247 2.65396 16.7239L4.43597 15.816C4.24729 15.4457 4.12787 14.9745 4.0648 14.2026C4.00078 13.419 4 12.4166 4 11H2ZM2.65396 16.7239C3.2292 17.8529 4.14709 18.7708 5.27606 19.346L6.18404 17.564C5.43139 17.1805 4.81947 16.5686 4.43597 15.816L2.65396 16.7239ZM5.27606 19.346C6.27778 19.8564 7.43997 19.9588 8.96931 19.9885L9.00816 17.9889C7.47228 17.9591 6.73437 17.8444 6.18404 17.564L5.27606 19.346ZM12.7071 21.2929L9.69584 18.2816L8.28163 19.6958L11.2929 22.7071L12.7071 21.2929ZM14.3042 18.2816L11.2929 21.2929L12.7071 22.7071L15.7184 19.6958L14.3042 18.2816Z" fill="#131316"/>
</svg>
