<svg width="24" height="24" viewBox="0 0 24 24" fill="none" xmlns="http://www.w3.org/2000/svg">
<path d="M12 8.40101L11.1956 8.99508C11.3841 9.25037 11.6826 9.40101 12 9.40101C12.3174 9.40101 12.6159 9.25037 12.8044 8.99508L12 8.40101ZM13.255 13.779L12.6975 12.9488L13.255 13.779ZM12.4687 14.157L12.703 15.1291L12.4687 14.157ZM10.745 13.779L11.3025 12.9488L10.745 13.779ZM11.5313 14.157L11.297 15.1291L11.5313 14.157ZM15.0113 18.9887L14.9918 17.9889C14.7334 17.9939 14.4869 18.0988 14.3042 18.2816L15.0113 18.9887ZM18.27 18.455L17.816 17.564H17.816L18.27 18.455ZM20.455 16.27L19.564 15.816V15.816L20.455 16.27ZM20.455 4.73005L19.564 5.18404V5.18404L20.455 4.73005ZM18.27 2.54497L17.816 3.43597L17.816 3.43597L18.27 2.54497ZM5.73005 2.54497L6.18404 3.43597L5.73005 2.54497ZM3.54497 4.73005L4.43597 5.18404L4.43597 5.18404L3.54497 4.73005ZM3.54497 16.27L4.43597 15.816L4.43597 15.816L3.54497 16.27ZM5.73005 18.455L6.18404 17.564H6.18404L5.73005 18.455ZM8.98874 18.9887L9.69584 18.2816C9.51306 18.0988 9.2666 17.9939 9.00816 17.9889L8.98874 18.9887ZM12 22L11.2929 22.7071C11.6834 23.0976 12.3166 23.0976 12.7071 22.7071L12 22ZM9 9.7485C9 9.04792 9.55819 8.5 10.224 8.5V6.5C8.43381 6.5 7 7.96326 7 9.7485H9ZM10.224 8.5C10.6183 8.5 10.9702 8.68989 11.1956 8.99508L12.8044 7.80694C12.2218 7.01805 11.2857 6.5 10.224 6.5V8.5ZM12.8044 8.99508C13.0292 8.69072 13.3847 8.5 13.776 8.5V6.5C12.7193 6.5 11.7788 7.01722 11.1956 7.80694L12.8044 8.99508ZM13.776 8.5C14.4418 8.5 15 9.04792 15 9.7485H17C17 7.96326 15.5662 6.5 13.776 6.5V8.5ZM15 9.7485C15 10.3732 14.7352 10.9705 14.2846 11.5373C13.8324 12.1061 13.2369 12.5866 12.6975 12.9488L13.8125 14.6092C14.4462 14.1836 15.2232 13.5705 15.8502 12.7819C16.4788 11.9911 17 10.9671 17 9.7485H15ZM11.3025 12.9488C10.7631 12.5866 10.1676 12.1061 9.71538 11.5373C9.26481 10.9705 9 10.3732 9 9.7485H7C7 10.9671 7.52116 11.9911 8.14984 12.7819C8.77682 13.5705 9.55379 14.1836 10.1875 14.6092L11.3025 12.9488ZM12.6975 12.9488C12.5391 13.0552 12.4815 13.0922 12.4284 13.1193C12.3941 13.1368 12.3469 13.1577 12.2343 13.1848L12.703 15.1291C13.231 15.0019 13.4981 14.8203 13.8125 14.6092L12.6975 12.9488ZM10.1875 14.6092C10.5019 14.8203 10.769 15.0019 11.297 15.1291L11.7657 13.1848C11.6531 13.1577 11.6059 13.1368 11.5716 13.1193C11.5185 13.0922 11.4609 13.0552 11.3025 12.9488L10.1875 14.6092ZM12.2343 13.1848C12.2499 13.1811 12.2346 13.1857 12.1781 13.1903C12.1282 13.1944 12.0663 13.1969 12 13.1969C11.9337 13.1969 11.8718 13.1944 11.8219 13.1903C11.7654 13.1857 11.75 13.1811 11.7657 13.1848L11.297 15.1291C11.5243 15.1839 11.798 15.1969 12 15.1969C12.202 15.1969 12.4757 15.1839 12.703 15.1291L12.2343 13.1848ZM15.0307 19.9885C16.56 19.9588 17.7222 19.8564 18.7239 19.346L17.816 17.564C17.2656 17.8444 16.5277 17.9591 14.9918 17.9889L15.0307 19.9885ZM18.7239 19.346C19.8529 18.7708 20.7708 17.8529 21.346 16.7239L19.564 15.816C19.1805 16.5686 18.5686 17.1805 17.816 17.564L18.7239 19.346ZM21.346 16.7239C21.7023 16.0247 21.8554 15.261 21.9286 14.3654C22.0008 13.4815 22 12.3836 22 11H20C20 12.4166 19.9992 13.419 19.9352 14.2026C19.8721 14.9745 19.7527 15.4457 19.564 15.816L21.346 16.7239ZM22 11V10H20V11H22ZM22 10C22 8.61637 22.0008 7.51851 21.9286 6.63458C21.8554 5.73898 21.7023 4.9753 21.346 4.27606L19.564 5.18404C19.7527 5.55435 19.8721 6.02552 19.9352 6.79744C19.9992 7.58104 20 8.58337 20 10H22ZM21.346 4.27606C20.7708 3.14708 19.8529 2.2292 18.7239 1.65396L17.816 3.43597C18.5686 3.81947 19.1805 4.43139 19.564 5.18404L21.346 4.27606ZM18.7239 1.65396C18.0247 1.29768 17.261 1.14462 16.3654 1.07144C15.4815 0.999222 14.3836 1 13 1V3C14.4166 3 15.419 3.00078 16.2026 3.0648C16.9745 3.12787 17.4457 3.24729 17.816 3.43597L18.7239 1.65396ZM13 1H11V3H13V1ZM11 1C9.61637 1 8.51851 0.999222 7.63458 1.07144C6.73898 1.14462 5.9753 1.29768 5.27606 1.65396L6.18404 3.43597C6.55435 3.24729 7.02552 3.12787 7.79744 3.0648C8.58104 3.00078 9.58337 3 11 3V1ZM5.27606 1.65396C4.14709 2.2292 3.2292 3.14708 2.65396 4.27606L4.43597 5.18404C4.81947 4.43139 5.43139 3.81947 6.18404 3.43597L5.27606 1.65396ZM2.65396 4.27606C2.29768 4.9753 2.14462 5.73898 2.07144 6.63458C1.99922 7.51851 2 8.61637 2 10H4C4 8.58337 4.00078 7.58104 4.0648 6.79744C4.12787 6.02552 4.24729 5.55435 4.43597 5.18404L2.65396 4.27606ZM2 10V11H4V10H2ZM2 11C2 12.3836 1.99922 13.4815 2.07144 14.3654C2.14462 15.261 2.29768 16.0247 2.65396 16.7239L4.43597 15.816C4.24729 15.4457 4.12787 14.9745 4.0648 14.2026C4.00078 13.419 4 12.4166 4 11H2ZM2.65396 16.7239C3.2292 17.8529 4.14709 18.7708 5.27606 19.346L6.18404 17.564C5.43139 17.1805 4.81947 16.5686 4.43597 15.816L2.65396 16.7239ZM5.27606 19.346C6.27778 19.8564 7.43997 19.9588 8.96931 19.9885L9.00816 17.9889C7.47228 17.9591 6.73437 17.8444 6.18404 17.564L5.27606 19.346ZM12.7071 21.2929L9.69584 18.2816L8.28163 19.6958L11.2929 22.7071L12.7071 21.2929ZM14.3042 18.2816L11.2929 21.2929L12.7071 22.7071L15.7184 19.6958L14.3042 18.2816Z" fill="#131316"/>
</svg>
