<svg width="24" height="24" viewBox="0 0 24 24" fill="none" xmlns="http://www.w3.org/2000/svg">
<path d="M20 11H22M19.8 6.49998L21.5 5.49998M19.8 15.5L21.5 16.5M5.01047 15.5845L9.41047 17.3524C11.6176 18.2392 12.7211 18.6826 13.6072 18.4994C14.382 18.3393 15.0623 17.8795 15.4997 17.2203C16 16.4663 16 15.277 16 12.8985V9.10149C16 6.72291 16 5.53362 15.4997 4.7797C15.0623 4.12042 14.382 3.66066 13.6072 3.50052C12.7211 3.31738 11.6176 3.76077 9.41047 4.64755L5.01047 6.41541C3.92339 6.85219 3.37984 7.07057 2.98008 7.43462C2.62685 7.75629 2.35555 8.15768 2.18876 8.60537C2 9.11203 2 9.6978 2 10.8694V11.1306C2 12.3021 2 12.8879 2.18876 13.3946C2.35555 13.8423 2.62685 14.2437 2.98008 14.5653C3.37984 14.9294 3.92339 15.1478 5.01047 15.5845ZM5.01047 15.5845L8.89838 17.1466L9.18307 18.1432C9.59532 19.5862 8.53068 21.0289 7.03026 21.0604C5.87126 21.0848 4.87702 20.2389 4.71547 19.0909L4.17397 15.2431C4.41171 15.344 4.68703 15.4546 5.01047 15.5845Z" stroke="#131316" stroke-width="2" stroke-linecap="round" stroke-linejoin="round"/>
</svg>
