<svg width="24" height="24" viewBox="0 0 24 24" fill="none" xmlns="http://www.w3.org/2000/svg">
<path d="M12 12V12.0099M8.71136 6.30454C8.26263 7.92073 7.99964 9.88359 7.99964 12C7.99964 12.7739 8.03481 13.5273 8.10136 14.2507M8.71136 6.30454C9.43362 3.70324 10.6371 2 11.9996 2C13.3622 2 14.5656 3.70322 15.2879 6.30451M8.71136 6.30454C6.09744 5.62938 4.02067 5.81998 3.33938 7C2.6581 8.18001 3.5314 10.0738 5.42303 11.9999M8.71136 6.30454C9.74152 6.57063 10.8551 6.97118 11.9996 7.49862M18.5761 11.9999C17.4008 10.8033 15.8325 9.59409 13.9996 8.5359C13.3294 8.14893 12.6594 7.80269 11.9996 7.49862M18.5761 11.9999C20.4678 13.9261 21.3412 15.82 20.6599 17C19.9786 18.18 17.9018 18.3706 15.2879 17.6955M18.5761 11.9999C17.8306 12.759 16.9269 13.5232 15.8979 14.2506M18.5761 11.9999C20.4678 10.0738 21.3411 8.18 20.6598 6.99999C19.9785 5.81998 17.9018 5.62937 15.2879 6.30451M8.71136 17.6954C6.09739 18.3706 4.02058 18.18 3.33929 17C2.65799 15.82 3.53134 13.9261 5.42303 11.9999M8.71136 17.6954C10.3354 17.2759 12.1667 16.5223 13.9995 15.4641C14.6698 15.0771 15.3047 14.67 15.8979 14.2506M8.71136 17.6954C9.43361 20.2967 10.6371 22 11.9996 22C13.3622 22 14.5657 20.2968 15.2879 17.6955M8.71136 17.6954C8.42672 16.6702 8.21681 15.5056 8.10136 14.2507M15.2879 6.30451C14.2577 6.57059 13.1441 6.97116 11.9996 7.49862M15.8979 14.2506C15.7825 15.5055 15.5726 16.6702 15.2879 17.6955M5.42303 11.9999C6.16857 12.7591 7.07229 13.5232 8.10136 14.2507" stroke="#131316" stroke-width="2" stroke-linecap="round" stroke-linejoin="round"/>
</svg>
