<svg width="24" height="24" viewBox="0 0 24 24" fill="none" xmlns="http://www.w3.org/2000/svg">
<path d="M13 6.5C13 5.10217 13 4.40326 13.2284 3.85195C13.5328 3.11687 14.1169 2.53284 14.852 2.22836C15.4033 2 16.1022 2 17.5 2C18.8978 2 19.5967 2 20.1481 2.22836C20.8831 2.53284 21.4672 3.11687 21.7716 3.85195C22 4.40326 22 5.10217 22 6.5C22 7.89782 22 8.59674 21.7716 9.14805C21.4672 9.88313 20.8831 10.4672 20.1481 10.7716C19.5967 11 18.8978 11 17.5 11M13 6.5C13 7.89782 13 8.59674 13.2284 9.14805C13.5328 9.88313 14.1169 10.4672 14.8519 10.7716C15.4033 11 16.1022 11 17.5 11M13 6.5C13 6.32243 13 6.15614 13.0005 6H10.8C9.11984 6 8.27976 6 7.63803 6.32698C7.07354 6.6146 6.6146 7.07354 6.32698 7.63803C6 8.27976 6 9.11984 6 10.8V13.0005C6.15614 13 6.32243 13 6.5 13M17.5 11C17.6776 11 17.8439 11 18 10.9995V13.2C18 14.8802 18 15.7202 17.673 16.362C17.3854 16.9265 16.9265 17.3854 16.362 17.673C15.7202 18 14.8802 18 13.2 18H10.9995C11 17.8439 11 17.6776 11 17.5M6.5 13C7.89782 13 8.59674 13 9.14805 13.2284C9.88313 13.5328 10.4672 14.1169 10.7716 14.8519C11 15.4033 11 16.1022 11 17.5M6.5 13C5.10218 13 4.40326 13 3.85195 13.2284C3.11687 13.5328 2.53284 14.1169 2.22836 14.8519C2 15.4033 2 16.1022 2 17.5C2 18.8978 2 19.5967 2.22836 20.1481C2.53284 20.8831 3.11687 21.4672 3.85195 21.7716C4.40326 22 5.10218 22 6.5 22C7.89782 22 8.59674 22 9.14805 21.7716C9.88313 21.4672 10.4672 20.8831 10.7716 20.1481C11 19.5967 11 18.8978 11 17.5" stroke="#131316" stroke-width="2" stroke-linecap="round" stroke-linejoin="round"/>
</svg>
