<svg width="24" height="24" viewBox="0 0 24 24" fill="none" xmlns="http://www.w3.org/2000/svg">
<path d="M18.0001 18L21.0001 21M21.0001 18L18.0001 21M14.0011 20.9989C13.6885 21 13.3555 21 13 21H11C8.19974 21 6.79961 21 5.73005 20.455C4.78924 19.9757 4.02433 19.2108 3.54497 18.27C3 17.2004 3 15.8003 3 13V7M20.9989 14.0011C21 13.6885 21 13.3555 21 13V7M21 7H3M21 7L20.4001 6.2C19.5201 5.02667 19.0801 4.44001 18.5225 4.01688C18.0286 3.64212 17.4693 3.36248 16.8732 3.19223C16.2001 3 15.4668 3 14.0001 3L10.0001 3C8.53344 3 7.80011 3 7.12703 3.19223C6.53089 3.36248 5.97161 3.64212 5.47772 4.01688C4.92009 4.44001 4.4801 5.02667 3.6001 6.2L3 7M15.0001 11V11.1814C15.0001 12.7381 13.7382 14 12.1815 14H11.8187C10.262 14 9.0001 12.7381 9.0001 11.1814V11" stroke="#131316" stroke-width="2" stroke-linecap="round" stroke-linejoin="round"/>
</svg>
