<svg width="24" height="24" viewBox="0 0 24 24" fill="none" xmlns="http://www.w3.org/2000/svg">
<path d="M20.3701 17C20.5299 16.2267 20.6399 15.2371 20.7903 13.8835L21.0125 11.8834C21.3541 8.80882 21.5249 7.27151 21.0306 6.0816C20.5964 5.03655 19.8205 4.16971 18.8298 3.62276C17.7018 3 16.155 3 13.0614 3H10.9377C7.84412 3 6.29735 3 5.16931 3.62276C4.1786 4.16971 3.40274 5.03655 2.96855 6.0816C2.47416 7.27151 2.64498 8.80882 2.9866 11.8834L3.20882 13.8835C3.48844 16.4 3.62825 17.6583 4.20875 18.6079C4.7201 19.4444 5.46609 20.1121 6.35393 20.5279C7.36181 21 8.62784 21 11.1599 21H12.8392C12.894 21 12.9481 21 13.0017 21M16.9997 21H20.9997M8.99965 7V8C8.99965 9.65685 10.3428 11 11.9997 11C13.6565 11 14.9997 9.65685 14.9997 8V7" stroke="#131316" stroke-width="2" stroke-linecap="round" stroke-linejoin="round"/>
</svg>
