<svg width="24" height="24" viewBox="0 0 24 24" fill="none" xmlns="http://www.w3.org/2000/svg">
<path d="M13 22H11C8.19974 22 6.79961 22 5.73005 21.455C4.78924 20.9757 4.02433 20.2108 3.54497 19.27C3 18.2004 3 16.8003 3 14C3 11.1997 3 9.79961 3.54497 8.73005C4.02433 7.78924 4.78924 7.02433 5.73005 6.54497C6.79961 6 8.19974 6 11 6H13C15.8003 6 17.2004 6 18.27 6.54497C19.2108 7.02433 19.9757 7.78924 20.455 8.73005C21 9.79961 21 11.1997 21 14M17.0001 20H21.0001M19.0001 18V22M8.5001 10C7.67167 10 7.0001 10.6716 7.0001 11.5C7.0001 12.3284 7.67167 13 8.5001 13C9.32853 13 10.0001 12.3284 10.0001 11.5C10.0001 10.6716 9.32853 10 8.5001 10ZM8.5001 10V5.5C8.5001 5.03558 8.5001 4.80337 8.52577 4.60842C8.703 3.26222 9.76232 2.2029 11.1085 2.02567C11.3035 2 11.5357 2 12.0001 2C12.4645 2 12.6967 2 12.8917 2.02567C14.2379 2.2029 15.2972 3.26222 15.4744 4.60842C15.5001 4.80337 15.5001 5.03558 15.5001 5.5V10M15.5001 10C14.6717 10 14.0001 10.6716 14.0001 11.5C14.0001 12.3284 14.6717 13 15.5001 13C16.3285 13 17.0001 12.3284 17.0001 11.5C17.0001 10.6716 16.3285 10 15.5001 10Z" stroke="#131316" stroke-width="2" stroke-linecap="round" stroke-linejoin="round"/>
</svg>
