<svg width="24" height="24" viewBox="0 0 24 24" fill="none" xmlns="http://www.w3.org/2000/svg">
<path d="M16.0001 9V6C16.0001 3.79086 14.2092 2 12.0001 2C9.79096 2 8.0001 3.79086 8.0001 6V9M18.0001 19L21.0001 22M21.0001 19L18.0001 22M14.0017 21.9983C13.674 22 13.3205 22 12.9378 22H11.0624C8.56201 22 7.31183 22 6.3118 21.5366C5.43073 21.1283 4.68761 20.4723 4.17319 19.6487C3.58933 18.7138 3.43426 17.4733 3.12414 14.9923C2.73567 11.8846 2.54144 10.3307 3.0285 9.12596C3.45618 8.06809 4.23282 7.18832 5.22948 6.63273C6.36452 6 7.93047 6 11.0624 6H12.9378C16.0697 6 17.6357 6 18.7707 6.63273C19.7674 7.18832 20.544 8.06809 20.9717 9.12596C21.4588 10.3307 21.2645 11.8849 20.876 14.9926C20.8697 15.0432 20.8634 15.0932 20.8572 15.1428" stroke="#131316" stroke-width="2" stroke-linecap="round" stroke-linejoin="round"/>
</svg>
