<svg width="24" height="24" viewBox="0 0 24 24" fill="none" xmlns="http://www.w3.org/2000/svg">
<path d="M6 6L9 3M18 6L15 3M4.58886 14.6804L4 11H20L19.4111 14.6804C19.092 16.6752 18.9324 17.6726 18.4941 18.4516C17.9123 19.4857 16.9818 20.2792 15.8687 20.6903C15.0302 21 14.0202 21 12 21C9.97984 21 8.96976 21 8.13128 20.6903C7.01823 20.2792 6.08765 19.4857 5.50587 18.4516C5.06761 17.6726 4.90803 16.6752 4.58886 14.6804ZM19.5 11H4.5C4.03535 11 3.80302 11 3.60982 10.9616C2.81644 10.8038 2.19624 10.1836 2.03843 9.39018C2 9.19698 2 8.96466 2 8.5C2 8.03534 2 7.80302 2.03843 7.60982C2.19624 6.81644 2.81644 6.19624 3.60982 6.03843C3.80302 6 4.03535 6 4.5 6H19.5C19.9647 6 20.197 6 20.3902 6.03843C21.1836 6.19624 21.8038 6.81644 21.9616 7.60982C22 7.80302 22 8.03534 22 8.5C22 8.96466 22 9.19698 21.9616 9.39018C21.8038 10.1836 21.1836 10.8038 20.3902 10.9616C20.197 11 19.9647 11 19.5 11Z" stroke="#131316" stroke-width="2" stroke-linecap="round" stroke-linejoin="round"/>
</svg>
