<svg width="24" height="24" viewBox="0 0 24 24" fill="none" xmlns="http://www.w3.org/2000/svg">
<path d="M11 2L5 2C3.89543 2 3 2.89543 3 4C3 5.10457 3.89543 6 5 6L11 6C12.1046 6 13 5.10457 13 4C13 2.89543 12.1046 2 11 2Z" stroke="#131316" stroke-width="2" stroke-linecap="round" stroke-linejoin="round"/>
<path d="M19 10L5 10C3.89543 10 3 10.8954 3 12C3 13.1046 3.89543 14 5 14L19 14C20.1046 14 21 13.1046 21 12C21 10.8954 20.1046 10 19 10Z" stroke="#131316" stroke-width="2" stroke-linecap="round" stroke-linejoin="round"/>
<path d="M11 18H5C3.89543 18 3 18.8954 3 20C3 21.1046 3.89543 22 5 22H11C12.1046 22 13 21.1046 13 20C13 18.8954 12.1046 18 11 18Z" stroke="#131316" stroke-width="2" stroke-linecap="round" stroke-linejoin="round"/>
</svg>
