<svg width="24" height="24" viewBox="0 0 24 24" fill="none" xmlns="http://www.w3.org/2000/svg">
<path d="M6 15C6.93188 15 7.39782 15 7.76537 15.1522C8.25542 15.3552 8.64477 15.7446 8.84776 16.2346C9 16.6022 9 17.0681 9 18C9 18.9319 9 19.3978 8.84776 19.7654C8.64477 20.2554 8.25542 20.6448 7.76537 20.8478C7.39782 21 6.93188 21 6 21C5.06812 21 4.60218 21 4.23463 20.8478C3.74458 20.6448 3.35523 20.2554 3.15224 19.7654C3 19.3978 3 18.9319 3 18C3 17.0681 3 16.6022 3.15224 16.2346C3.35523 15.7446 3.74458 15.3552 4.23463 15.1522C4.60218 15 5.06812 15 6 15ZM6 15H12C12.9319 15 13.3978 15 13.7654 14.8478C14.2554 14.6448 14.6448 14.2554 14.8478 13.7654C15 13.3978 15 12.9319 15 12C15 11.0681 15 10.6022 14.8478 10.2346C14.6448 9.74458 14.2554 9.35523 13.7654 9.15224C13.3978 9 12.9319 9 12 9L6 9M6 15C5.06812 15 4.60218 15 4.23463 14.8478C3.74458 14.6448 3.35523 14.2554 3.15224 13.7654C3 13.3978 3 12.9319 3 12C3 11.0681 3 10.6022 3.15224 10.2346C3.35523 9.74458 3.74458 9.35523 4.23463 9.15224C4.60218 9 5.06812 9 6 9M6 9L18 9C18.9319 9 19.3978 9 19.7654 8.84776C20.2554 8.64477 20.6448 8.25542 20.8478 7.76537C21 7.39783 21 6.93188 21 6C21 5.06812 21 4.60218 20.8478 4.23463C20.6448 3.74458 20.2554 3.35523 19.7654 3.15224C19.3978 3 18.9319 3 18 3L6 3C5.06812 3 4.60218 3 4.23463 3.15224C3.74458 3.35523 3.35523 3.74458 3.15224 4.23463C3 4.60218 3 5.06812 3 6C3 6.93188 3 7.39782 3.15224 7.76537C3.35523 8.25542 3.74458 8.64477 4.23463 8.84776C4.60218 9 5.06812 9 6 9Z" stroke="#131316" stroke-width="2" stroke-linecap="round" stroke-linejoin="round"/>
</svg>
