<svg width="24" height="24" viewBox="0 0 24 24" fill="none" xmlns="http://www.w3.org/2000/svg">
<path d="M6 9H10C10.9319 9 11.3978 9 11.7654 8.84776C12.2554 8.64477 12.6448 8.25542 12.8478 7.76537C13 7.39782 13 6.93188 13 6C13 5.06812 13 4.60218 12.8478 4.23463C12.6448 3.74458 12.2554 3.35523 11.7654 3.15224C11.3978 3 10.9319 3 10 3L6 3C5.06812 3 4.60218 3 4.23463 3.15224C3.74458 3.35523 3.35523 3.74458 3.15224 4.23463C3 4.60218 3 5.06812 3 6C3 6.93188 3 7.39782 3.15224 7.76537C3.35523 8.25542 3.74458 8.64477 4.23463 8.84776C4.60218 9 5.06812 9 6 9ZM6 9L18 9C18.9319 9 19.3978 9 19.7654 9.15224C20.2554 9.35523 20.6448 9.74458 20.8478 10.2346C21 10.6022 21 11.0681 21 12C21 12.9319 21 13.3978 20.8478 13.7654C20.6448 14.2554 20.2554 14.6448 19.7654 14.8478C19.3978 15 18.9319 15 18 15L6 15M6 9C5.06812 9 4.60218 9 4.23463 9.15224C3.74458 9.35523 3.35523 9.74458 3.15224 10.2346C3 10.6022 3 11.0681 3 12C3 12.9319 3 13.3978 3.15224 13.7654C3.35523 14.2554 3.74458 14.6448 4.23463 14.8478C4.60218 15 5.06812 15 6 15M6 15H14C14.9319 15 15.3978 15 15.7654 15.1522C16.2554 15.3552 16.6448 15.7446 16.8478 16.2346C17 16.6022 17 17.0681 17 18C17 18.9319 17 19.3978 16.8478 19.7654C16.6448 20.2554 16.2554 20.6448 15.7654 20.8478C15.3978 21 14.9319 21 14 21H6C5.06812 21 4.60218 21 4.23463 20.8478C3.74458 20.6448 3.35523 20.2554 3.15224 19.7654C3 19.3978 3 18.9319 3 18C3 17.0681 3 16.6022 3.15224 16.2346C3.35523 15.7446 3.74458 15.3552 4.23463 15.1522C4.60218 15 5.06812 15 6 15Z" stroke="#131316" stroke-width="2" stroke-linecap="round" stroke-linejoin="round"/>
</svg>
