<svg width="24" height="24" viewBox="0 0 24 24" fill="none" xmlns="http://www.w3.org/2000/svg">
<path d="M5 10.657V12.4856C3.7492 13.1726 3 14.0474 3 15C3 17.2091 7.02944 19 12 19C12.442 19 12.8765 18.9858 13.3014 18.9585M13.3014 18.9585C12.8766 18.9858 12.4427 19.0006 12.0008 19.0006C10.9879 19.0006 10.0141 18.9262 9.10547 18.7891C9.45162 20.0635 10.6168 21.0008 12.0008 21.0008C12.9165 21.0008 13.7364 20.5905 14.2867 19.9438L13.3014 18.9585ZM3 3L21 21M19 10C19 6.13401 15.866 3 12 3C9.55548 3 7.40362 4.25304 6.15168 6.15187L17.9866 17.9868C19.8356 17.2542 21 16.1875 21 15C21 14.0474 20.2508 13.1726 19 12.4856V10Z" stroke="#131316" stroke-width="2" stroke-linecap="round" stroke-linejoin="round"/>
</svg>
