<svg width="24" height="24" viewBox="0 0 24 24" fill="none" xmlns="http://www.w3.org/2000/svg">
<path d="M19 10C19 6.13401 15.866 3 12 3C8.13401 3 5 6.13401 5 10V12.4856C3.7492 13.1726 3 14.0474 3 15C3 17.2091 7.02944 19 12 19C16.9706 19 21 17.2091 21 15C21 14.0474 20.2508 13.1726 19 12.4856V10Z" stroke="#131316" stroke-width="2" stroke-linecap="round" stroke-linejoin="round"/>
<path d="M9.10547 18.7891C9.45162 20.0635 10.6168 21.0008 12.0008 21.0008C13.3849 21.0008 14.55 20.0635 14.8962 18.7891C13.9876 18.9262 13.0137 19.0006 12.0008 19.0006C10.9879 19.0006 10.0141 18.9262 9.10547 18.7891Z" stroke="#131316" stroke-width="2" stroke-linecap="round" stroke-linejoin="round"/>
</svg>
