<svg width="24" height="24" viewBox="0 0 24 24" fill="none" xmlns="http://www.w3.org/2000/svg">
<path d="M3.5 10C3.5 7.27367 6.20889 4.64952 9.875 4M14.125 4C17.7911 4.64952 20.5 7.27367 20.5 10M12 13V17M5 13H2L2 10H5V13ZM14 6H10V2L14 2V6ZM22 13H19V10H22V13ZM7.79662 15.6138L8.16293 15.1247C9.46331 13.3884 10.1135 12.5203 10.9107 12.2091C11.6116 11.9355 12.3897 11.9352 13.0908 12.2083C13.8881 12.519 14.5389 13.3867 15.8405 15.122L16.1999 15.6011C16.6288 16.1729 16.8432 16.4588 16.9775 16.7523C17.3404 17.5452 17.3403 18.4567 16.9773 19.2496C16.843 19.543 16.6285 19.8289 16.1995 20.4007C15.9069 20.7906 15.7606 20.9856 15.5945 21.1476C15.1483 21.5826 14.5777 21.8679 13.9619 21.9639C13.7326 21.9996 13.4889 21.9996 13.0014 21.9997L10.993 22C10.5092 22.0001 10.2672 22.0001 10.0397 21.965C9.4224 21.8698 8.85024 21.5843 8.403 21.1484C8.23811 20.9876 8.09266 20.7943 7.80176 20.4076C7.37451 19.8397 7.16089 19.5558 7.02659 19.2644C6.66021 18.4695 6.65922 17.5543 7.0239 16.7586C7.15758 16.467 7.37059 16.1826 7.79662 15.6138Z" stroke="#131316" stroke-width="2" stroke-linecap="round" stroke-linejoin="round"/>
</svg>
