<svg width="24" height="24" viewBox="0 0 24 24" fill="none" xmlns="http://www.w3.org/2000/svg">
<path d="M6 14V15C6.55228 15 7 14.5523 7 14H6ZM2 14H1C1 14.2652 1.10536 14.5196 1.29289 14.7071C1.48043 14.8946 1.73478 15 2 15V14ZM2 10V9C1.44772 9 1 9.44772 1 10H2ZM6 10H7C7 9.44772 6.55228 9 6 9V10ZM14 6V7C14.5523 7 15 6.55228 15 6H14ZM10 6L9 6C9 6.55228 9.44772 7 10 7V6ZM10 2V1C9.73478 1 9.48043 1.10536 9.29289 1.29289C9.10536 1.48043 9 1.73478 9 2H10ZM14 2H15C15 1.44772 14.5523 1 14 1V2ZM14 22V23C14.5523 23 15 22.5523 15 22H14ZM10 22H9C9 22.5523 9.44772 23 10 23V22ZM10 18V17C9.44772 17 9 17.4477 9 18H10ZM14 18H15C15 17.4477 14.5523 17 14 17V18ZM22 14V15C22.5523 15 23 14.5523 23 14H22ZM18 14H17C17 14.5523 17.4477 15 18 15V14ZM18 10V9C17.4477 9 17 9.44772 17 10H18ZM22 10H23C23 9.44772 22.5523 9 22 9V10ZM10 4.25115L11 4.25115C11 3.942 10.857 3.65023 10.6127 3.46082C10.3683 3.2714 10.0501 3.20565 9.75074 3.28271L10 4.25115ZM4.25179 10L3.28332 9.75085C3.2063 10.0502 3.27208 10.3684 3.46149 10.6127C3.6509 10.857 3.94266 11 4.25179 11L4.25179 10ZM4.25224 14V13C3.94307 13 3.65128 13.143 3.46187 13.3874C3.27246 13.6317 3.20674 13.95 3.28383 14.2494L4.25224 14ZM10 19.7471L9.75074 20.7155C10.0501 20.7926 10.3683 20.7268 10.6127 20.5374C10.857 20.348 11 20.0562 11 19.7471H10ZM14 19.7471H13C13 20.0562 13.143 20.348 13.3873 20.5374C13.6317 20.7268 13.9499 20.7926 14.2493 20.7155L14 19.7471ZM19.7477 14L20.7161 14.2494C20.7932 13.95 20.7275 13.6317 20.5381 13.3874C20.3487 13.143 20.0569 13 19.7477 13V14ZM19.7482 10V11C20.0573 11 20.3491 10.857 20.5385 10.6127C20.7279 10.3684 20.7937 10.0502 20.7166 9.75085L19.7482 10ZM14 4.25116L14.2493 3.28272C13.9499 3.20566 13.6317 3.27141 13.3873 3.46082C13.143 3.65023 13 3.94201 13 4.25116H14ZM6 13H2V15H6V13ZM3 14V10H1V14H3ZM2 11H6V9H2V11ZM5 10V14H7V10H5ZM14 5H10V7H14V5ZM11 6V2H9V6H11ZM10 3H14V1H10V3ZM13 2V6H15V2H13ZM14 21H10V23H14V21ZM11 22V18H9V22H11ZM10 19H14V17H10V19ZM13 18V22H15V18H13ZM22 13H18V15H22V13ZM19 14V10H17V14H19ZM18 11H22V9H18V11ZM21 10V14H23V10H21ZM9 4.25115L9 6L11 6L11 4.25115L9 4.25115ZM5.22026 10.2491C5.85279 7.7904 7.79061 5.85239 10.2493 5.21959L9.75074 3.28271C6.58635 4.09716 4.09743 6.58632 3.28332 9.75085L5.22026 10.2491ZM6 9L4.25179 9L4.25179 11L6 11L6 9ZM4.25224 15H6V13H4.25224V15ZM10.2493 18.7787C7.79113 18.146 5.8536 16.2086 5.22065 13.7506L3.28383 14.2494C4.09847 17.413 6.58701 19.9012 9.75074 20.7155L10.2493 18.7787ZM9 18L9 19.7471H11L11 18H9ZM15 19.7471V18H13V19.7471H15ZM18.7793 13.7506C18.1464 16.2086 16.2088 18.146 13.7507 18.7786L14.2493 20.7155C17.413 19.9012 19.9015 17.4129 20.7161 14.2494L18.7793 13.7506ZM18 15H19.7477V13H18V15ZM19.7482 9L18 9V11L19.7482 11V9ZM13.7507 5.2196C16.2094 5.85241 18.1472 7.79041 18.7797 10.2491L20.7166 9.75085C19.9025 6.58633 17.4136 4.09718 14.2493 3.28272L13.7507 5.2196ZM15 6V4.25116H13V6H15Z" fill="#131316"/>
</svg>
