<svg width="24" height="24" viewBox="0 0 24 24" fill="none" xmlns="http://www.w3.org/2000/svg">
<path d="M13.5 11.5L15 13M14 9.5C14 10.8807 12.8807 12 11.5 12C10.1193 12 9 10.8807 9 9.5C9 8.11929 10.1193 7 11.5 7C12.8807 7 14 8.11929 14 9.5ZM4 22L4 10C4 7.19974 4 5.79961 4.54497 4.73005C5.02433 3.78924 5.78924 3.02433 6.73005 2.54497C7.79961 2 9.19974 2 12 2C14.8003 2 16.2004 2 17.27 2.54497C18.2108 3.02433 18.9757 3.78924 19.455 4.73005C20 5.79961 20 7.19974 20 10V22L12 18L4 22Z" stroke="#131316" stroke-width="2" stroke-linecap="round" stroke-linejoin="round"/>
</svg>
