<svg width="24" height="24" viewBox="0 0 24 24" fill="none" xmlns="http://www.w3.org/2000/svg">
<path d="M3 7H7M3 12H7M3 17H7M5 14V10C5 7.19974 5 5.7996 5.54497 4.73005C6.02433 3.78924 6.78924 3.02433 7.73005 2.54497C8.79961 2 10.1997 2 13 2C15.8003 2 17.2004 2 18.27 2.54497C19.2108 3.02433 19.9757 3.78924 20.455 4.73005C21 5.7996 21 7.19974 21 10V14C21 16.8003 21 18.2004 20.455 19.27C19.9757 20.2108 19.2108 20.9757 18.27 21.455C17.2004 22 15.8003 22 13 22C10.1997 22 8.79961 22 7.73005 21.455C6.78924 20.9757 6.02433 20.2108 5.54497 19.27C5 18.2004 5 16.8003 5 14Z" stroke="#131316" stroke-width="2" stroke-linecap="round" stroke-linejoin="round"/>
</svg>
