<svg width="24" height="24" viewBox="0 0 24 24" fill="none" xmlns="http://www.w3.org/2000/svg">
<path d="M12 4.99997L8.17927 3.85375C6.08497 3.22546 5.03782 2.91132 4.20785 3.13854C3.48096 3.33753 2.8556 3.80282 2.45613 4.44187C2 5.17155 2 6.26481 2 8.45132L2 14.4286C2 15.71 2 16.3508 2.21826 16.8912C2.41093 17.3683 2.72308 17.7879 3.1247 18.1095C3.57966 18.4739 4.19335 18.658 5.42073 19.0262L12 21M12 4.99997V21M12 4.99997L15.8207 3.85375C17.915 3.22546 18.9622 2.91132 19.7922 3.13854C20.519 3.33753 21.1444 3.80282 21.5439 4.44187C22 5.17155 22 6.26481 22 8.45132V14.4286C22 15.71 22 16.3508 21.7817 16.8912C21.5891 17.3683 21.2769 17.7879 20.8753 18.1095C20.4203 18.4739 19.8066 18.658 18.5793 19.0262L12 21" stroke="#131316" stroke-width="2" stroke-linecap="round" stroke-linejoin="round"/>
</svg>
