<svg width="24" height="24" viewBox="0 0 24 24" fill="none" xmlns="http://www.w3.org/2000/svg">
<path d="M9.93726 10.0627L13 7C13.5523 6.44772 14.4477 6.44772 15 7C15.5523 7.55228 15.5523 8.44771 15 9L11.9373 12.0627C11.5914 12.4086 11.4184 12.5816 11.2166 12.7053C11.0376 12.8149 10.8425 12.8957 10.6385 12.9447C10.4083 13 10.1637 13 9.67452 13H9V12.3255C9 11.8363 9 11.5917 9.05526 11.3615C9.10425 11.1575 9.18506 10.9624 9.29472 10.7834C9.4184 10.5816 9.59136 10.4086 9.93726 10.0627Z" stroke="#131316" stroke-width="2" stroke-linecap="round" stroke-linejoin="round"/>
<path d="M4 10L4 22L12 18L20 22V10C20 7.19974 20 5.79961 19.455 4.73005C18.9757 3.78924 18.2108 3.02433 17.27 2.54497C16.2004 2 14.8003 2 12 2C9.19974 2 7.79961 2 6.73005 2.54497C5.78924 3.02433 5.02433 3.78924 4.54497 4.73005C4 5.79961 4 7.19974 4 10Z" stroke="#131316" stroke-width="2" stroke-linecap="round" stroke-linejoin="round"/>
</svg>
