<svg width="24" height="24" viewBox="0 0 24 24" fill="none" xmlns="http://www.w3.org/2000/svg">
<path d="M8 21H9.2C10.8802 21 11.7202 21 12.362 20.673C12.9265 20.3854 13.3854 19.9265 13.673 19.362C14 18.7202 14 17.8802 14 16.2V7.8M8 21V3M8 21H6.8C5.11984 21 4.27976 21 3.63803 20.673C3.07354 20.3854 2.6146 19.9265 2.32698 19.362C2 18.7202 2 17.8802 2 16.2L2 7.8M8 3L9.2 3C10.8802 3 11.7202 3 12.362 3.32698C12.9265 3.6146 13.3854 4.07354 13.673 4.63803C14 5.27976 14 6.11984 14 7.8M8 3L6.8 3C5.11984 3 4.27976 3 3.63803 3.32698C3.07354 3.6146 2.6146 4.07354 2.32698 4.63803C2 5.27976 2 6.11984 2 7.8M8 3V15M14 7.8V15H8M2 7.8L2 15H8M14.3679 6.31092L15.7053 18.3476C15.8731 19.8576 17.1494 21 18.6687 21C20.4458 21 21.8284 19.4553 21.6321 17.6891L20.2947 5.65238M14.3679 6.31092C14.1716 4.54469 15.5542 3 17.3313 3C18.8506 3 20.1269 4.14238 20.2947 5.65238M14.3679 6.31092L15.3333 15H21.3333L20.2947 5.65238" stroke="#131316" stroke-width="2" stroke-linecap="round" stroke-linejoin="round"/>
</svg>
