<svg width="24" height="24" viewBox="0 0 24 24" fill="none" xmlns="http://www.w3.org/2000/svg">
<path d="M21.1722 7.57812L22.0066 7.02704C21.7459 6.63222 21.2441 6.47418 20.8042 6.6483L21.1722 7.57812ZM19.6499 18.4689L20.1799 19.3169L19.6499 18.4689ZM16.1895 20.6317L15.6595 19.7837L16.1895 20.6317ZM14.3105 21.3319L13.4141 21.7752C13.6077 22.1667 14.033 22.3873 14.4646 22.3199L14.3105 21.3319ZM15.4099 11.1213L15.9399 11.9693L15.4099 11.1213ZM20.6861 7.82367L21.2161 8.67166L20.6861 7.82367ZM13.8111 21.3845L13.8654 22.383C14.2625 22.3614 14.6091 22.1065 14.7481 21.7339L13.8111 21.3845ZM11.6165 21.0073L11.2319 21.9303L11.6165 21.0073ZM12.1538 11.2302L12.5385 10.3071V10.3071L12.1538 11.2302ZM3.43008 7.59526L3.04546 8.51834H3.04546L3.43008 7.59526ZM2.60754 7.38281L2.71791 6.38892C2.31405 6.34407 1.9232 6.54807 1.72906 6.90505L2.60754 7.38281ZM1 13C1 13.5523 1.44772 14 2 14C2.55228 14 3 13.5523 3 13H1ZM10.3846 19.4106C9.87481 19.1982 9.28934 19.4393 9.07692 19.9491C8.86451 20.4589 9.10558 21.0444 9.61539 21.2568L10.3846 19.4106ZM2 18C1.44772 18 1 18.4477 1 19C1 19.5523 1.44772 20 2 20V18ZM6 20C6.55229 20 7 19.5523 7 19C7 18.4477 6.55229 18 6 18V20ZM5 17C5 16.4477 4.55228 16 4 16C3.44772 16 3 16.4477 3 17H5ZM3 21C3 21.5523 3.44772 22 4 22C4.55228 22 5 21.5523 5 21H3ZM21.1033 7.47633L21.8045 8.18934C22.152 7.84759 22.2025 7.30507 21.9241 6.90503L21.1033 7.47633ZM20.5898 7.88125L20.0598 7.03325L20.0598 7.03325L20.5898 7.88125ZM15.3136 11.1789L15.8436 12.0269L15.3136 11.1789ZM12.5698 11.4041L12.9544 10.4811V10.4811L12.5698 11.4041ZM3.846 7.76923L3.46138 8.69231L3.46138 8.69231L3.846 7.76923ZM2.80676 7.04714L1.96813 6.50244C1.71798 6.88757 1.76231 7.39357 2.0756 7.72934L2.80676 7.04714ZM4.34976 5.53092L3.81976 4.68292H3.81976L4.34976 5.53092ZM7.81015 3.36818L8.34015 4.21617L7.81015 3.36818ZM12.3832 2.99278L11.9986 3.91586V3.91586L12.3832 2.99278ZM18.9228 5.71762L18.5382 6.6407L18.9228 5.71762ZM20.3377 8.12921C20.761 8.7701 20.9999 9.53208 20.9999 10.3335H22.9999C22.9999 9.13156 22.641 7.98767 22.0066 7.02704L20.3377 8.12921ZM20.9999 10.3335V14.2289H22.9999V10.3335H20.9999ZM20.9999 14.2289C20.9999 15.6081 20.2894 16.89 19.1199 17.6209L20.1799 19.3169C21.9342 18.2205 22.9999 16.2977 22.9999 14.2289H20.9999ZM19.1199 17.6209L15.6595 19.7837L16.7195 21.4797L20.1799 19.3169L19.1199 17.6209ZM15.6595 19.7837C15.1948 20.0741 14.683 20.2617 14.1563 20.3438L14.4646 22.3199C15.2545 22.1967 16.0226 21.9152 16.7195 21.4797L15.6595 19.7837ZM15.2068 20.8886C15.0733 20.6185 14.9999 20.3169 14.9999 20.0026H12.9999C12.9999 20.6303 13.1468 21.2348 13.4141 21.7752L15.2068 20.8886ZM14.9999 20.0026V13.6653H12.9999V20.0026H14.9999ZM14.9999 13.6653C14.9999 12.9757 15.3551 12.3348 15.9399 11.9693L14.8799 10.2733C13.7104 11.0043 12.9999 12.2861 12.9999 13.6653H14.9999ZM15.9399 11.9693L21.2161 8.67166L20.1561 6.97567L14.8799 10.2733L15.9399 11.9693ZM21.2161 8.67166C21.32 8.60673 21.4285 8.55214 21.5402 8.50795L20.8042 6.6483C20.5806 6.7368 20.3636 6.84603 20.1561 6.97567L21.2161 8.67166ZM13.7568 20.386C13.1644 20.4182 12.5643 20.3188 12.0012 20.0842L11.2319 21.9303C12.0766 22.2823 12.9771 22.4313 13.8654 22.383L13.7568 20.386ZM13 20.3367C13 20.5789 12.9562 20.8149 12.8741 21.0351L14.7481 21.7339C14.9124 21.2932 15 20.8207 15 20.3367H13ZM13 13.9994V20.3367H15V13.9994H13ZM11.7692 12.1532C12.5145 12.4638 13 13.192 13 13.9994H15C15 12.3846 14.0291 10.9282 12.5385 10.3071L11.7692 12.1532ZM3.04546 8.51834L11.7692 12.1532L12.5385 10.3071L3.81469 6.67218L3.04546 8.51834ZM2.49717 8.3767C2.68345 8.39739 2.86802 8.4444 3.04546 8.51834L3.8147 6.67218C3.46021 6.52448 3.0908 6.43033 2.71791 6.38892L2.49717 8.3767ZM3 9.77161C3 9.09299 3.17192 8.43815 3.48603 7.86058L1.72906 6.90505C1.25807 7.77107 1 8.75379 1 9.77161H3ZM3 13V9.77161H1V13H3ZM12.0012 20.0842L10.3846 19.4106L9.61539 21.2568L11.2319 21.9303L12.0012 20.0842ZM2 20H6V18H2V20ZM3 17L3 21H5L5 17H3ZM20.4022 6.76332C20.2995 6.86431 20.185 6.95501 20.0598 7.03325L21.1198 8.72925C21.3697 8.57309 21.5988 8.39164 21.8045 8.18934L20.4022 6.76332ZM20.0598 7.03325L14.7836 10.3309L15.8436 12.0269L21.1198 8.72925L20.0598 7.03325ZM14.7836 10.3309C14.2342 10.6743 13.5525 10.7303 12.9544 10.4811L12.1851 12.3272C13.3813 12.8256 14.7448 12.7137 15.8436 12.0269L14.7836 10.3309ZM12.9544 10.4811L4.23061 6.84615L3.46138 8.69231L12.1851 12.3272L12.9544 10.4811ZM4.23061 6.84615C3.96224 6.73433 3.72812 6.56878 3.53792 6.36493L2.0756 7.72934C2.4564 8.13747 2.92561 8.46907 3.46138 8.69231L4.23061 6.84615ZM3.64539 7.59184C3.9586 7.10962 4.37659 6.69339 4.87976 6.37892L3.81976 4.68292C3.06523 5.1545 2.43789 5.77918 1.96813 6.50244L3.64539 7.59184ZM4.87976 6.37892L8.34015 4.21617L7.28015 2.52018L3.81976 4.68292L4.87976 6.37892ZM8.34015 4.21617C9.439 3.52939 10.8025 3.41747 11.9986 3.91586L12.7678 2.06971C10.9736 1.32212 8.92843 1.49 7.28015 2.52018L8.34015 4.21617ZM11.9986 3.91586L18.5382 6.6407L19.3074 4.79454L12.7678 2.06971L11.9986 3.91586ZM18.5382 6.6407C19.2577 6.9405 19.8559 7.43456 20.2826 8.04764L21.9241 6.90503C21.2844 5.986 20.3865 5.24415 19.3074 4.79454L18.5382 6.6407Z" fill="#131316"/>
</svg>
