<svg width="24" height="24" viewBox="0 0 24 24" fill="none" xmlns="http://www.w3.org/2000/svg">
<path d="M2.70712 17.2929C2.3166 16.9024 1.68343 16.9024 1.29291 17.2929C0.902384 17.6834 0.902384 18.3166 1.29291 18.7071L2.70712 17.2929ZM4.29291 21.7071C4.68344 22.0976 5.3166 22.0976 5.70713 21.7071C6.09765 21.3166 6.09765 20.6834 5.70713 20.2929L4.29291 21.7071ZM5.70712 18.7071C6.09764 18.3166 6.09765 17.6834 5.70712 17.2929C5.3166 16.9024 4.68344 16.9024 4.29291 17.2929L5.70712 18.7071ZM1.2929 20.2929C0.90237 20.6834 0.902368 21.3166 1.29289 21.7071C1.68341 22.0976 2.31658 22.0976 2.7071 21.7071L1.2929 20.2929ZM21.1722 7.57812L22.0066 7.02704C21.7459 6.63222 21.2441 6.47418 20.8042 6.6483L21.1722 7.57812ZM19.6499 18.4689L20.1799 19.3169L19.6499 18.4689ZM16.1895 20.6317L15.6595 19.7837L16.1895 20.6317ZM14.3105 21.3319L13.4141 21.7752C13.6077 22.1667 14.033 22.3873 14.4646 22.3199L14.3105 21.3319ZM15.4099 11.1213L15.9399 11.9693L15.4099 11.1213ZM20.6862 7.82367L21.2162 8.67167L20.6862 7.82367ZM11.6166 21.0073L11.2319 21.9303L11.6166 21.0073ZM13.8111 21.3845L13.8654 22.383C14.2625 22.3614 14.6091 22.1065 14.7481 21.7339L13.8111 21.3845ZM8.72779 18.7203C8.21799 18.5079 7.63252 18.7489 7.4201 19.2587C7.20768 19.7685 7.44876 20.354 7.95856 20.5664L8.72779 18.7203ZM1.00858 13.9882C1.03803 14.5397 1.50898 14.9629 2.06048 14.9335C2.61197 14.904 3.03518 14.4331 3.00573 13.8816L1.00858 13.9882ZM2.60756 7.38281L2.71793 6.38892C2.31406 6.34407 1.92321 6.54807 1.72907 6.90505L2.60756 7.38281ZM3.43009 7.59526L3.04548 8.51834H3.04548L3.43009 7.59526ZM12.1539 11.2302L12.5385 10.3071L12.5385 10.3071L12.1539 11.2302ZM21.1034 7.47633L21.8045 8.18934C22.152 7.84759 22.2026 7.30507 21.9241 6.90503L21.1034 7.47633ZM20.5899 7.88125L20.0599 7.03325L20.0599 7.03325L20.5899 7.88125ZM15.3136 11.1789L15.8436 12.0269L15.3136 11.1789ZM12.5698 11.4041L12.9544 10.4811L12.9544 10.4811L12.5698 11.4041ZM3.84601 7.76923L3.4614 8.69231L3.4614 8.69231L3.84601 7.76923ZM2.80678 7.04714L1.96814 6.50244C1.718 6.88757 1.76232 7.39357 2.07561 7.72934L2.80678 7.04714ZM4.34977 5.53092L3.81977 4.68292L4.34977 5.53092ZM7.81016 3.36818L8.34016 4.21617L8.34016 4.21617L7.81016 3.36818ZM12.3832 2.99278L11.9986 3.91586H11.9986L12.3832 2.99278ZM18.9228 5.71762L18.5382 6.6407L18.9228 5.71762ZM1.29291 18.7071L4.29291 21.7071L5.70713 20.2929L2.70712 17.2929L1.29291 18.7071ZM4.29291 17.2929L1.2929 20.2929L2.7071 21.7071L5.70712 18.7071L4.29291 17.2929ZM20.3377 8.12921C20.761 8.7701 20.9999 9.53208 20.9999 10.3335H22.9999C22.9999 9.13156 22.6411 7.98767 22.0066 7.02704L20.3377 8.12921ZM20.9999 10.3335V14.2289H22.9999V10.3335H20.9999ZM20.9999 14.2289C20.9999 15.6081 20.2894 16.89 19.1199 17.6209L20.1799 19.3169C21.9342 18.2205 22.9999 16.2977 22.9999 14.2289H20.9999ZM19.1199 17.6209L15.6595 19.7837L16.7195 21.4797L20.1799 19.3169L19.1199 17.6209ZM15.6595 19.7837C15.1948 20.0741 14.683 20.2617 14.1563 20.3438L14.4646 22.3199C15.2545 22.1967 16.0226 21.9152 16.7195 21.4797L15.6595 19.7837ZM15.2068 20.8886C15.0733 20.6185 14.9999 20.3169 14.9999 20.0026H12.9999C12.9999 20.6303 13.1468 21.2348 13.4141 21.7752L15.2068 20.8886ZM14.9999 20.0026V13.6653H12.9999V20.0026H14.9999ZM14.9999 13.6653C14.9999 12.9757 15.3552 12.3348 15.9399 11.9693L14.8799 10.2733C13.7104 11.0043 12.9999 12.2861 12.9999 13.6653H14.9999ZM15.9399 11.9693L21.2162 8.67167L20.1562 6.97567L14.8799 10.2733L15.9399 11.9693ZM21.2162 8.67167C21.32 8.60673 21.4285 8.55215 21.5402 8.50795L20.8042 6.6483C20.5806 6.7368 20.3636 6.84603 20.1562 6.97567L21.2162 8.67167ZM11.2319 21.9303C12.0766 22.2823 12.9771 22.4313 13.8654 22.383L13.7568 20.386C13.1645 20.4182 12.5644 20.3188 12.0012 20.0842L11.2319 21.9303ZM7.95856 20.5664L11.2319 21.9303L12.0012 20.0842L8.72779 18.7203L7.95856 20.5664ZM1.00001 13.667C1.00001 13.7745 1.00289 13.8816 1.00858 13.9882L3.00573 13.8816C3.00194 13.8104 3.00001 13.7389 3.00001 13.667H1.00001ZM1.00001 9.7716V13.667H3.00001V9.7716H1.00001ZM1.72907 6.90505C1.25808 7.77107 1.00001 8.75379 1.00001 9.7716H3.00001C3.00001 9.09299 3.17193 8.43815 3.48605 7.86058L1.72907 6.90505ZM3.81471 6.67218C3.46023 6.52448 3.09082 6.43033 2.71793 6.38892L2.49719 8.3767C2.68346 8.39739 2.86804 8.4444 3.04548 8.51834L3.81471 6.67218ZM12.5385 10.3071L3.81471 6.67218L3.04548 8.51834L11.7692 12.1532L12.5385 10.3071ZM15 13.9994C15 12.3846 14.0291 10.9282 12.5385 10.3071L11.7692 12.1532C12.5145 12.4638 13 13.192 13 13.9994H15ZM15 20.3367V13.9994H13V20.3367H15ZM14.7481 21.7339C14.9124 21.2932 15 20.8207 15 20.3367H13C13 20.5789 12.9562 20.8149 12.8741 21.0351L14.7481 21.7339ZM20.4022 6.76332C20.2995 6.86431 20.185 6.95501 20.0599 7.03325L21.1199 8.72925C21.3697 8.57309 21.5988 8.39164 21.8045 8.18934L20.4022 6.76332ZM20.0599 7.03325L14.7836 10.3309L15.8436 12.0269L21.1199 8.72925L20.0599 7.03325ZM14.7836 10.3309C14.2342 10.6743 13.5525 10.7303 12.9544 10.4811L12.1852 12.3272C13.3813 12.8256 14.7448 12.7137 15.8436 12.0269L14.7836 10.3309ZM12.9544 10.4811L4.23063 6.84615L3.4614 8.69231L12.1852 12.3272L12.9544 10.4811ZM4.23063 6.84615C3.96225 6.73433 3.72814 6.56878 3.53794 6.36493L2.07561 7.72934C2.45642 8.13747 2.92562 8.46907 3.4614 8.69231L4.23063 6.84615ZM3.64541 7.59184C3.95861 7.10962 4.37661 6.69339 4.87977 6.37892L3.81977 4.68292C3.06525 5.1545 2.43791 5.77918 1.96814 6.50244L3.64541 7.59184ZM4.87977 6.37892L8.34016 4.21617L7.28016 2.52018L3.81977 4.68292L4.87977 6.37892ZM8.34016 4.21617C9.43901 3.52939 10.8025 3.41747 11.9986 3.91586L12.7678 2.06971C10.9736 1.32212 8.92844 1.49 7.28016 2.52018L8.34016 4.21617ZM11.9986 3.91586L18.5382 6.6407L19.3075 4.79454L12.7678 2.06971L11.9986 3.91586ZM18.5382 6.6407C19.2578 6.9405 19.8559 7.43456 20.2826 8.04764L21.9241 6.90503C21.2844 5.986 20.3865 5.24415 19.3075 4.79454L18.5382 6.6407Z" fill="#131316"/>
</svg>
