<svg width="24" height="24" viewBox="0 0 24 24" fill="none" xmlns="http://www.w3.org/2000/svg">
<path d="M20.9717 9.12596C21.4588 10.3307 21.2645 11.8846 20.8761 14.9923C20.5659 17.4733 20.4109 18.7138 19.827 19.6487C19.3126 20.4723 18.5695 21.1283 17.6884 21.5366C16.6884 22 15.4382 22 12.9378 22H11.0624C8.56201 22 7.31183 22 6.3118 21.5366C5.43073 21.1283 4.68761 20.4723 4.17319 19.6487C3.58933 18.7138 3.43426 17.4733 3.12414 14.9923C2.73567 11.8846 2.54144 10.3307 3.0285 9.12596M20.9717 9.12596C20.544 8.06809 19.7674 7.18832 18.7707 6.63273C17.6357 6 16.0697 6 12.9378 6H11.0624C7.93047 6 6.36452 6 5.22948 6.63273C4.23282 7.18832 3.45618 8.06809 3.0285 9.12596M20.9717 9.12596C21.0609 9.34653 21.1272 9.57881 21.1737 9.83018L14.0001 13.0909V13M3.0285 9.12596C2.93933 9.34653 2.87299 9.57881 2.8265 9.83018L10.0001 13.0909V13M14.0001 13C14.0001 11.8954 13.1047 11 12.0001 11C10.8955 11 10.0001 11.8954 10.0001 13M14.0001 13L14.0001 14C14.0001 15.1046 13.1047 16 12.0001 16C10.8955 16 10.0001 15.1046 10.0001 14V13M8.0001 6V5.2C8.0001 4.0799 8.0001 3.51984 8.21809 3.09202C8.40983 2.71569 8.7158 2.40973 9.09212 2.21799C9.51994 2 10.08 2 11.2001 2L12.8001 2C13.9202 2 14.4803 2 14.9081 2.21799C15.2844 2.40973 15.5904 2.71569 15.7821 3.09202C16.0001 3.51984 16.0001 4.0799 16.0001 5.2V6H8.0001Z" stroke="#131316" stroke-width="2" stroke-linecap="round" stroke-linejoin="round"/>
</svg>
