<svg width="24" height="24" viewBox="0 0 24 24" fill="none" xmlns="http://www.w3.org/2000/svg">
<path d="M6.8 21H17.2C18.8802 21 19.7202 21 20.362 20.673C20.9265 20.3854 21.3854 19.9265 21.673 19.362C22 18.7202 22 17.8802 22 16.2V12.8C22 11.1198 22 10.2798 21.673 9.63803C21.3854 9.07354 20.9265 8.6146 20.362 8.32698C19.7202 8 18.8802 8 17.2 8H6.8C5.11984 8 4.27976 8 3.63803 8.32698C3.07354 8.6146 2.6146 9.07354 2.32698 9.63803C2 10.2798 2 11.1198 2 12.8L2 16.2C2 17.8802 2 18.7202 2.32698 19.362C2.6146 19.9265 3.07354 20.3854 3.63803 20.673C4.27976 21 5.11984 21 6.8 21Z" stroke="#131316" stroke-width="2" stroke-linecap="round" stroke-linejoin="round"/>
<path d="M6 21H18V8H6V21Z" stroke="#131316" stroke-width="2" stroke-linecap="round" stroke-linejoin="round"/>
<path d="M8 6.2V8H16V6.2C16 5.0799 16 4.51984 15.782 4.09202C15.5903 3.71569 15.2843 3.40973 14.908 3.21799C14.4802 3 13.9201 3 12.8 3L11.2 3C10.0799 3 9.51984 3 9.09202 3.21799C8.71569 3.40973 8.40973 3.71569 8.21799 4.09202C8 4.51984 8 5.0799 8 6.2Z" stroke="#131316" stroke-width="2" stroke-linecap="round" stroke-linejoin="round"/>
</svg>
