<svg width="24" height="24" viewBox="0 0 24 24" fill="none" xmlns="http://www.w3.org/2000/svg">
<path d="M2 11L2 13C2 15.8003 2 17.2004 2.54497 18.27C3.02433 19.2108 3.78924 19.9757 4.73005 20.455C5.79961 21 7.19974 21 10 21H14C16.8003 21 18.2004 21 19.27 20.455C20.2108 19.9757 20.9757 19.2108 21.455 18.27C22 17.2004 22 15.8003 22 13V11M2 11C2 8.19974 2 6.79961 2.54497 5.73005C3.02433 4.78924 3.78924 4.02433 4.73005 3.54497C5.79961 3 7.19974 3 10 3L14 3C16.8003 3 18.2004 3 19.27 3.54497C20.2108 4.02433 20.9757 4.78924 21.455 5.73005C22 6.79961 22 8.19974 22 11M2 11L22 11M7 7V7.00995M11 7V7.00995" stroke="#131316" stroke-width="2" stroke-linecap="round" stroke-linejoin="round"/>
</svg>
