<svg width="24" height="24" viewBox="0 0 24 24" fill="none" xmlns="http://www.w3.org/2000/svg">
<path d="M13 2V5M17 2V7M13 16H11C8.19974 16 6.79961 16 5.73005 15.455C4.78924 14.9757 4.02433 14.2108 3.54497 13.27C3 12.2004 3 10.8003 3 8L3 2L21 2V8C21 10.8003 21 12.2004 20.455 13.27C19.9757 14.2108 19.2108 14.9757 18.27 15.455C17.2004 16 15.8003 16 13 16ZM9 19V16H15V19C15 20.6569 13.6569 22 12 22C10.3431 22 9 20.6569 9 19Z" stroke="#131316" stroke-width="2" stroke-linecap="round" stroke-linejoin="round"/>
</svg>
