<svg width="24" height="24" viewBox="0 0 24 24" fill="none" xmlns="http://www.w3.org/2000/svg">
<path d="M12.7946 14.9813C13.2806 14.7109 13.7058 14.3262 14.5561 13.5568L19.9227 8.70131C21.311 7.44521 21.365 5.28273 20.0412 3.95886C18.7173 2.63496 16.5548 2.68903 15.2987 4.07743L10.3732 9.52187C9.62915 10.3443 9.25712 10.7556 8.99175 11.2247M12.7946 14.9813C12.3637 15.2212 11.8988 15.3941 11.4159 15.4943C10.8713 15.6072 10.2981 15.5939 9.15173 15.5674L8.36068 15.5491L8.36078 14.7451C8.36092 13.636 8.36099 13.0814 8.47898 12.5555C8.58362 12.0891 8.7564 11.6407 8.99175 11.2247M12.7946 14.9813C13.2288 14.7397 13.6144 14.4065 14.2979 13.7898L10.2101 9.70183C9.57327 10.4066 9.23697 10.7912 8.99175 11.2247M8.36018 15.64C9.52753 16.8074 9.52747 18.7001 8.36024 19.8674C7.193 21.0346 3.00011 20.9999 3.00011 20.9999C3.00011 20.9999 2.96564 16.8072 4.13287 15.6399C5.30011 14.4727 7.19283 14.4726 8.36018 15.64Z" stroke="#131316" stroke-width="2" stroke-linecap="round" stroke-linejoin="round"/>
</svg>
