<svg width="24" height="24" viewBox="0 0 24 24" fill="none" xmlns="http://www.w3.org/2000/svg">
<path d="M20 15V21M20 15C18.8954 15 18 14.1046 18 13C18 12.4878 18.1925 12.0206 18.5092 11.6668C18.5031 11.612 18.5 11.5564 18.5 11.5C18.5 10.6716 19.1716 10 20 10C20.8284 10 21.5 10.6716 21.5 11.5C21.5 11.5564 21.4969 11.612 21.4908 11.6668C21.8075 12.0206 22 12.4878 22 13C22 14.1046 21.1046 15 20 15ZM22 21H2M2 21H14V7.8C14 6.11984 14 5.27976 13.673 4.63803C13.3854 4.07354 12.9265 3.6146 12.362 3.32698C11.7202 3 10.8802 3 9.2 3L6.8 3C5.11984 3 4.27976 3 3.63803 3.32698C3.07354 3.6146 2.6146 4.07354 2.32698 4.63803C2 5.27976 2 6.11984 2 7.8L2 21ZM6 8V8.00995M10 8V8.00995M6 12V12.0099M10 12V12.0099" stroke="#131316" stroke-width="2" stroke-linecap="round" stroke-linejoin="round"/>
</svg>
