<svg width="24" height="24" viewBox="0 0 24 24" fill="none" xmlns="http://www.w3.org/2000/svg">
<path d="M22 21H2M12 7.49999V7.50993M20.5007 6.40025L13.1885 3.47537C12.7494 3.29975 12.5299 3.21194 12.3032 3.17717C12.1023 3.14635 11.8977 3.14635 11.6968 3.17717C11.4701 3.21194 11.2506 3.29975 10.8115 3.47537L3.49934 6.40025C3.26694 6.49322 3.15068 6.53972 3.04972 6.59423C2.47485 6.90465 2.08784 7.47629 2.01312 8.12533C2 8.23932 2 8.36448 2 8.61482C2 8.97263 2 9.15153 2.02283 9.30134C2.15468 10.1664 2.83359 10.8453 3.69864 10.9772C3.84846 11 4.02736 11 4.38516 11L19.6148 11C19.9726 11 20.1515 11 20.3014 10.9772C21.1664 10.8453 21.8453 10.1664 21.9772 9.30134C22 9.15153 22 8.97263 22 8.61482C22 8.36448 22 8.23931 21.9869 8.12533C21.9122 7.47628 21.5251 6.90465 20.9503 6.59423C20.8493 6.53971 20.7331 6.49323 20.5007 6.40025ZM9 21H4V11H9V21ZM20 21H15V11H20V21Z" stroke="#131316" stroke-width="2" stroke-linecap="round" stroke-linejoin="round"/>
</svg>
