<svg width="24" height="24" viewBox="0 0 24 24" fill="none" xmlns="http://www.w3.org/2000/svg">
<path d="M22 6.99999L13.1885 3.47537C12.7494 3.29975 12.5299 3.21194 12.3032 3.17717C12.1023 3.14635 11.8977 3.14635 11.6968 3.17717C11.4701 3.21194 11.2506 3.29975 10.8115 3.47537L2 6.99999M9 18C9 17.0681 9 16.6022 8.84776 16.2346C8.64477 15.7446 8.25542 15.3552 7.76537 15.1522C7.39782 15 6.93188 15 6 15C5.06812 15 4.60218 15 4.23463 15.1522C3.74458 15.3552 3.35523 15.7446 3.15224 16.2346C3 16.6022 3 17.0681 3 18C3 18.9319 3 19.3978 3.15224 19.7654C3.35523 20.2554 3.74458 20.6448 4.23463 20.8477C4.60218 21 5.06812 21 6 21C6.93188 21 7.39782 21 7.76537 20.8477C8.25542 20.6448 8.64477 20.2554 8.84776 19.7654C9 19.3978 9 18.9319 9 18ZM9 18C9 17.0681 9 16.6022 9.15224 16.2346C9.35523 15.7446 9.74458 15.3552 10.2346 15.1522C10.6022 15 11.0681 15 12 15C12.9319 15 13.3978 15 13.7654 15.1522C14.2554 15.3552 14.6448 15.7446 14.8478 16.2346C15 16.6022 15 17.0681 15 18M9 18C9 18.9319 9 19.3978 9.15224 19.7654C9.35523 20.2554 9.74458 20.6448 10.2346 20.8477C10.6022 21 11.0681 21 12 21C12.9319 21 13.3978 21 13.7654 20.8477C14.2554 20.6448 14.6448 20.2554 14.8478 19.7654C15 19.3978 15 18.9319 15 18M15 18C15 17.0681 15 16.6022 15.1522 16.2346C15.3552 15.7446 15.7446 15.3552 16.2346 15.1522C16.6022 15 17.0681 15 18 15C18.9319 15 19.3978 15 19.7654 15.1522C20.2554 15.3552 20.6448 15.7446 20.8478 16.2346C21 16.6022 21 17.0681 21 18C21 18.9319 21 19.3978 20.8478 19.7654C20.6448 20.2554 20.2554 20.6448 19.7654 20.8477C19.3978 21 18.9319 21 18 21C17.0681 21 16.6022 21 16.2346 20.8477C15.7446 20.6448 15.3552 20.2554 15.1522 19.7654C15 19.3978 15 18.9319 15 18ZM12 12C12 11.0681 12 10.6022 11.8478 10.2346C11.6448 9.74456 11.2554 9.35522 10.7654 9.15223C10.3978 8.99999 9.93188 8.99999 9 8.99999C8.06812 8.99999 7.60218 8.99999 7.23463 9.15223C6.74458 9.35522 6.35523 9.74456 6.15224 10.2346C6 10.6022 6 11.0681 6 12C6 12.9319 6 13.3978 6.15224 13.7654C6.35523 14.2554 6.74458 14.6448 7.23463 14.8477C7.60218 15 8.06812 15 9 15C9.93188 15 10.3978 15 10.7654 14.8477C11.2554 14.6448 11.6448 14.2554 11.8478 13.7654C12 13.3978 12 12.9319 12 12ZM12 12C12 11.0681 12 10.6022 12.1522 10.2346C12.3552 9.74456 12.7446 9.35522 13.2346 9.15223C13.6022 8.99999 14.0681 8.99999 15 8.99999C15.9319 8.99999 16.3978 8.99999 16.7654 9.15223C17.2554 9.35522 17.6448 9.74456 17.8478 10.2346C18 10.6022 18 11.0681 18 12C18 12.9319 18 13.3978 17.8478 13.7654C17.6448 14.2554 17.2554 14.6448 16.7654 14.8477C16.3978 15 15.9319 15 15 15C14.0681 15 13.6022 15 13.2346 14.8477C12.7446 14.6448 12.3552 14.2554 12.1522 13.7654C12 13.3978 12 12.9319 12 12Z" stroke="#131316" stroke-width="2" stroke-linecap="round" stroke-linejoin="round"/>
</svg>
