<svg width="24" height="24" viewBox="0 0 24 24" fill="none" xmlns="http://www.w3.org/2000/svg">
<path d="M9 2V7M7 4L11 4M15 22H7.8C6.11984 22 5.27976 22 4.63803 21.673C4.07354 21.3854 3.6146 20.9265 3.32698 20.362C3 19.7202 3 18.8802 3 17.2L3 13.5689C3 12.6297 3 12.1601 3.12945 11.7338C3.24406 11.3564 3.43194 11.0054 3.68236 10.7007C3.96523 10.3565 4.35597 10.096 5.13744 9.57504L6.33744 8.77504C7.29971 8.13353 7.78085 7.81277 8.30088 7.68815C8.76046 7.57802 9.23954 7.57802 9.69912 7.68815C10.2192 7.81277 10.7003 8.13353 11.6626 8.77504L12.8626 9.57504C13.644 10.096 14.0348 10.3565 14.3176 10.7007C14.5681 11.0054 14.7559 11.3564 14.8705 11.7338C15 12.1601 15 12.6297 15 13.5689V22ZM15 22H17.8C18.9201 22 19.4802 22 19.908 21.782C20.2843 21.5903 20.5903 21.2843 20.782 20.908C21 20.4802 21 19.9201 21 18.8V17.2C21 16.0799 21 15.5198 20.782 15.092C20.5903 14.7157 20.2843 14.4097 19.908 14.218C19.4802 14 18.9201 14 17.8 14H15V22ZM9 13V13.0099" stroke="#131316" stroke-width="2" stroke-linecap="round" stroke-linejoin="round"/>
</svg>
