<svg width="24" height="24" viewBox="0 0 24 24" fill="none" xmlns="http://www.w3.org/2000/svg">
<path d="M3 3L21 21M15.3429 21H6.8C5.11984 21 4.27976 21 3.63803 20.673C3.07354 20.3854 2.6146 19.9265 2.32698 19.362C2 18.7202 2 17.8802 2 16.2V10.8C2 9.32213 2 8.49423 2.22253 7.87956M10.3255 15.9825C10.2186 15.9941 10.11 16 10 16C8.34315 16 7 14.6569 7 13C7 12.89 7.00592 12.7814 7.01745 12.6745M13.1716 4.9526L13.8 6H17.2C18.8802 6 19.7202 6 20.362 6.32698C20.9265 6.6146 21.3854 7.07354 21.673 7.63803C22 8.27976 22 9.11984 22 10.8V16.2C22 17.8802 22 18.7202 21.673 19.362C21.4201 19.8584 21.0346 20.2732 20.5614 20.5616L13 13C13 11.3431 11.6567 10 9.9998 10L5.85709 5.85728L5.98874 5.52814C6.23557 4.91108 6.35898 4.60254 6.52701 4.34787C6.96488 3.6842 7.64831 3.2215 8.42713 3.06142C8.72599 3 9.05829 3 9.72289 3C10.2845 3 10.5653 3 10.8252 3.04607C11.5007 3.16583 12.1147 3.5135 12.565 4.03113C12.7381 4.23023 12.8826 4.47102 13.1716 4.9526Z" stroke="#131316" stroke-width="2" stroke-linecap="round" stroke-linejoin="round"/>
</svg>
