<svg width="24" height="24" viewBox="0 0 24 24" fill="none" xmlns="http://www.w3.org/2000/svg">
<path d="M22 21H2M12 17.2426L10.5858 18.6568M15.2869 21C15.7621 20.5516 16.3031 20.0106 16.9497 19.3639L18.3639 17.9497C20.344 15.9696 21.3341 14.9796 21.705 13.838C22.0313 12.8337 22.0313 11.752 21.705 10.7478C21.3341 9.60615 20.344 8.6161 18.3639 6.63602C16.3839 4.65593 15.3938 3.66589 14.2522 3.29495C13.248 2.96866 12.1662 2.96866 11.162 3.29495C10.0204 3.66589 9.03032 4.65593 7.05024 6.63602L5.63603 8.05023C3.65594 10.0303 2.6659 11.0204 2.29496 12.162C1.96867 13.1662 1.96867 14.248 2.29496 15.2522C2.6659 16.3938 3.65594 17.3839 5.63603 19.3639C6.28265 20.0106 6.82369 20.5516 7.2989 21L15.2869 21ZM16.9497 5.22181L4.22182 17.9497C3.56491 17.2928 3.23646 16.9644 3.00516 16.646C1.73194 14.8936 1.73194 12.5206 3.00516 10.7682C3.23646 10.4498 3.56491 10.1214 4.22182 9.46445L8.46446 5.22181C9.12136 4.5649 9.44982 4.23645 9.76817 4.00515C11.5206 2.73193 13.8936 2.73193 15.646 4.00515C15.9644 4.23645 16.2928 4.5649 16.9497 5.22181Z" stroke="#131316" stroke-width="2" stroke-linecap="round" stroke-linejoin="round"/>
</svg>
