<svg width="24" height="24" viewBox="0 0 24 24" fill="none" xmlns="http://www.w3.org/2000/svg">
<path d="M6.8 6C6.50996 6 6.24496 6 6.00168 6.00168C6.00974 4.83571 6.05645 4.16898 6.32698 3.63803C6.6146 3.07354 7.07354 2.6146 7.63803 2.32698C8.27976 2 9.11984 2 10.8 2H17.2C18.8802 2 19.7202 2 20.362 2.32698C20.9265 2.6146 21.3854 3.07354 21.673 3.63803C22 4.27976 22 5.11984 22 6.8V13.2C22 14.8802 22 15.7202 21.673 16.362C21.3854 16.9265 20.9265 17.3854 20.362 17.673C19.831 17.9436 19.1643 17.9903 17.9983 17.9983C18 17.755 18 17.49 18 17.2M6.8 6H13.2C14.8802 6 15.7202 6 16.362 6.32698C16.9265 6.6146 17.3854 7.07354 17.673 7.63803C18 8.27976 18 9.11984 18 10.8M6.8 6C5.11984 6 4.27976 6 3.63803 6.32698C3.07354 6.6146 2.6146 7.07354 2.32698 7.63803C2 8.27976 2 9.11984 2 10.8M18 10.8V17.2M18 10.8V12H2L2 10.8M18 17.2C18 18.8802 18 19.7202 17.673 20.362C17.3854 20.9265 16.9265 21.3854 16.362 21.673C15.7202 22 14.8802 22 13.2 22H6.8C5.11984 22 4.27976 22 3.63803 21.673C3.07354 21.3854 2.6146 20.9265 2.32698 20.362C2 19.7202 2 18.8802 2 17.2L2 10.8M8 17H6" stroke="#131316" stroke-width="2" stroke-linecap="round" stroke-linejoin="round"/>
</svg>
