<svg width="24" height="24" viewBox="0 0 24 24" fill="none" xmlns="http://www.w3.org/2000/svg">
<path d="M21 12.0708V12.2005C21 13.8806 21 14.7207 20.673 15.3625C20.3854 15.9269 19.9265 16.3859 19.362 16.6735C18.7202 17.0005 17.8802 17.0005 16.2 17.0005H9.8C8.11984 17.0005 7.27976 17.0005 6.63803 16.6735C6.07354 16.3859 5.6146 15.9269 5.32698 15.3625C5 14.7207 5 13.8806 5 12.2005V10.8005C5 9.12033 5 8.28025 5.32698 7.63852C5.6146 7.07403 6.07354 6.61509 6.63803 6.32747C7.27976 6.00049 8.11984 6.00049 9.8 6.00049H13.6148M21 3L17 6.99998M17 3L21 7M5 12V5C5 3.89543 4.10457 3 3 3M14 11H16M8 21V21.0099M18 21V21.0099" stroke="#131316" stroke-width="2" stroke-linecap="round" stroke-linejoin="round"/>
</svg>
