<svg width="24" height="24" viewBox="0 0 24 24" fill="none" xmlns="http://www.w3.org/2000/svg">
<path d="M5 12V5C5 3.89543 4.10457 3 3 3M14 11H16M8 21V21.0099M18 21V21.0099M16.2 17H9.8C8.11984 17 7.27976 17 6.63803 16.673C6.07354 16.3854 5.6146 15.9265 5.32698 15.362C5 14.7202 5 13.8802 5 12.2V10.8C5 9.11984 5 8.27976 5.32698 7.63803C5.6146 7.07354 6.07354 6.6146 6.63803 6.32698C7.27976 6 8.11984 6 9.8 6H16.2C17.8802 6 18.7202 6 19.362 6.32698C19.9265 6.6146 20.3854 7.07354 20.673 7.63803C21 8.27976 21 9.11984 21 10.8V12.2C21 13.8802 21 14.7202 20.673 15.362C20.3854 15.9265 19.9265 16.3854 19.362 16.673C18.7202 17 17.8802 17 16.2 17Z" stroke="#131316" stroke-width="2" stroke-linecap="round" stroke-linejoin="round"/>
</svg>
