<svg width="24" height="24" viewBox="0 0 24 24" fill="none" xmlns="http://www.w3.org/2000/svg">
<path d="M11 12C11.5523 12 12 11.5523 12 11C12 10.4477 11.5523 10 11 10V12ZM7 10C6.44772 10 6 10.4477 6 11C6 11.5523 6.44772 12 7 12V10ZM9 8C9.55228 8 10 7.55228 10 7C10 6.44772 9.55228 6 9 6V8ZM7 6C6.44772 6 6 6.44772 6 7C6 7.55228 6.44772 8 7 8V6ZM10.2667 16V15C10.12 15 9.97506 15.0323 9.84223 15.0945L10.2667 16ZM14.362 15.673L14.816 16.564L14.362 15.673ZM15.673 14.362L16.564 14.816L15.673 14.362ZM15.673 3.63803L14.782 4.09202V4.09202L15.673 3.63803ZM14.362 2.32698L13.908 3.21799L13.908 3.21799L14.362 2.32698ZM3.63803 2.32698L4.09202 3.21799L4.09202 3.21799L3.63803 2.32698ZM2.32698 3.63803L3.21799 4.09202L3.21799 4.09202L2.32698 3.63803ZM2.32698 14.362L1.43597 14.816L2.32698 14.362ZM3.63803 15.673L4.09202 14.782H4.09202L3.63803 15.673ZM6 15.9983H7C7 15.4487 6.55651 15.0021 6.00695 14.9983L6 15.9983ZM6 18H5C5 18.3421 5.17486 18.6604 5.46355 18.8439C5.75224 19.0274 6.1147 19.0506 6.42443 18.9055L6 18ZM13.6671 18.9944C13.1149 18.985 12.6596 19.425 12.6501 19.9772C12.6407 20.5294 13.0806 20.9847 13.6328 20.9941L13.6671 18.9944ZM20.29 7.22554C19.7614 7.06539 19.2031 7.36405 19.043 7.8926C18.8828 8.42116 19.1815 8.97946 19.71 9.13961L20.29 7.22554ZM20.362 8.32698L19.908 9.21799L19.908 9.21799L20.362 8.32698ZM21.673 9.63803L20.782 10.092V10.092L21.673 9.63803ZM21.673 18.362L22.564 18.816L21.673 18.362ZM20.362 19.673L19.908 18.782L20.362 19.673ZM19 19.9712L18.9391 18.9731C18.4114 19.0053 18 19.4426 18 19.9712H19ZM19 22L18.5756 22.9055C18.8853 23.0506 19.2478 23.0274 19.5365 22.8439C19.8251 22.6604 20 22.3421 20 22H19ZM14.7333 20L15.1578 19.0945C15.0249 19.0323 14.8801 19 14.7334 19L14.7333 20ZM11 10H7V12H11V10ZM9 6H7V8H9V6ZM10.2667 17H11.2V15H10.2667V17ZM11.2 17C12.0236 17 12.7014 17.0008 13.2518 16.9558C13.8139 16.9099 14.3306 16.8113 14.816 16.564L13.908 14.782C13.7516 14.8617 13.5274 14.9266 13.089 14.9624C12.6389 14.9992 12.0566 15 11.2 15V17ZM14.816 16.564C15.5686 16.1805 16.1805 15.5686 16.564 14.816L14.782 13.908C14.5903 14.2843 14.2843 14.5903 13.908 14.782L14.816 16.564ZM16.564 14.816C16.8113 14.3306 16.9099 13.8139 16.9558 13.2518C17.0008 12.7014 17 12.0236 17 11.2H15C15 12.0566 14.9992 12.6389 14.9624 13.089C14.9266 13.5274 14.8617 13.7516 14.782 13.908L16.564 14.816ZM17 11.2V6.8H15V11.2H17ZM17 6.8C17 5.97642 17.0008 5.2986 16.9558 4.74817C16.9099 4.18608 16.8113 3.66937 16.564 3.18404L14.782 4.09202C14.8617 4.24842 14.9266 4.47262 14.9624 4.91104C14.9992 5.36113 15 5.94342 15 6.8H17ZM16.564 3.18404C16.1805 2.43139 15.5686 1.81947 14.816 1.43597L13.908 3.21799C14.2843 3.40973 14.5903 3.7157 14.782 4.09202L16.564 3.18404ZM14.816 1.43597C14.3306 1.18868 13.8139 1.09012 13.2518 1.04419C12.7014 0.999222 12.0236 1 11.2 1V3C12.0566 3 12.6389 3.00078 13.089 3.03755C13.5274 3.07337 13.7516 3.1383 13.908 3.21799L14.816 1.43597ZM11.2 1H6.8V3H11.2V1ZM6.8 1C5.97642 1 5.2986 0.999222 4.74817 1.04419C4.18608 1.09012 3.66937 1.18868 3.18404 1.43597L4.09202 3.21799C4.24842 3.1383 4.47262 3.07337 4.91104 3.03755C5.36113 3.00078 5.94342 3 6.8 3V1ZM3.18404 1.43597C2.43139 1.81947 1.81947 2.43139 1.43597 3.18404L3.21799 4.09202C3.40973 3.7157 3.7157 3.40973 4.09202 3.21799L3.18404 1.43597ZM1.43597 3.18404C1.18868 3.66937 1.09012 4.18608 1.04419 4.74817C0.999222 5.2986 1 5.97642 1 6.8H3C3 5.94342 3.00078 5.36113 3.03755 4.91104C3.07337 4.47262 3.1383 4.24842 3.21799 4.09202L1.43597 3.18404ZM1 6.8V11.2H3V6.8H1ZM1 11.2C1 12.0236 0.999222 12.7014 1.04419 13.2518C1.09012 13.8139 1.18868 14.3306 1.43597 14.816L3.21799 13.908C3.1383 13.7516 3.07337 13.5274 3.03755 13.089C3.00078 12.6389 3 12.0566 3 11.2H1ZM1.43597 14.816C1.81947 15.5686 2.43139 16.1805 3.18404 16.564L4.09202 14.782C3.7157 14.5903 3.40973 14.2843 3.21799 13.908L1.43597 14.816ZM3.18404 16.564C3.96036 16.9596 4.87189 16.9905 5.99305 16.9983L6.00695 14.9983C4.79825 14.9899 4.3771 14.9273 4.09202 14.782L3.18404 16.564ZM7 18V15.9983H5V18H7ZM9.84223 15.0945L5.57557 17.0945L6.42443 18.9055L10.6911 16.9055L9.84223 15.0945ZM19.71 9.13961C19.7871 9.16295 19.8512 9.18907 19.908 9.21799L20.816 7.43597C20.6461 7.34944 20.4713 7.28048 20.29 7.22554L19.71 9.13961ZM19.908 9.21799C20.2843 9.40973 20.5903 9.71569 20.782 10.092L22.564 9.18404C22.1805 8.43139 21.5686 7.81947 20.816 7.43597L19.908 9.21799ZM20.782 10.092C20.8617 10.2484 20.9266 10.4726 20.9624 10.911C20.9992 11.3611 21 11.9434 21 12.8H23C23 11.9764 23.0008 11.2986 22.9558 10.7482C22.9099 10.1861 22.8113 9.66937 22.564 9.18404L20.782 10.092ZM21 12.8V15.2H23V12.8H21ZM21 15.2C21 16.0566 20.9992 16.6389 20.9624 17.089C20.9266 17.5274 20.8617 17.7516 20.782 17.908L22.564 18.816C22.8113 18.3306 22.9099 17.8139 22.9558 17.2518C23.0008 16.7014 23 16.0236 23 15.2H21ZM20.782 17.908C20.5903 18.2843 20.2843 18.5903 19.908 18.782L20.816 20.564C21.5686 20.1805 22.1805 19.5686 22.564 18.816L20.782 17.908ZM19.908 18.782C19.733 18.8712 19.4772 18.9402 18.9391 18.9731L19.0609 20.9694C19.6994 20.9304 20.2784 20.8379 20.816 20.564L19.908 18.782ZM18 19.9712V22H20V19.9712H18ZM19.4244 21.0945L15.1578 19.0945L14.3089 20.9055L18.5756 22.9055L19.4244 21.0945ZM14.7334 19C14.3233 19 13.9741 18.9997 13.6671 18.9944L13.6328 20.9941C13.96 20.9997 14.3266 21 14.7333 21L14.7334 19Z" fill="#131316"/>
</svg>
