<svg width="24" height="24" viewBox="0 0 24 24" fill="none" xmlns="http://www.w3.org/2000/svg">
<path d="M8.00569 4.14844C7.51109 4.22908 7.10072 4.35249 6.73005 4.54136C5.78924 5.02072 5.02433 5.78563 4.54497 6.72644C4 7.796 4 9.19613 4 11.9964V13.9964C4 16.7967 4 18.1968 4.54497 19.2663C5.02433 20.2072 5.78924 20.9721 6.73005 21.4514C7.79961 21.9964 9.19974 21.9964 12 21.9964C14.8003 21.9964 16.2004 21.9964 17.27 21.4514C18.2108 20.9721 18.9757 20.2072 19.455 19.2663C20 18.1968 20 16.7967 20 13.9964V11.9964C20 9.19613 20 7.796 19.455 6.72644C18.9757 5.78563 18.2108 5.02072 17.27 4.54136C16.8993 4.35249 16.4889 4.22908 15.9943 4.14844C15.9166 5.18198 15.0534 5.99639 14 5.99639H10C8.94658 5.99639 8.08339 5.18198 8.00569 4.14844Z" stroke="#131316" stroke-width="2" stroke-linecap="round" stroke-linejoin="round"/>
<path d="M8 4C8 2.89543 8.89543 2 10 2H14C15.1046 2 16 2.89543 16 4C16 5.10457 15.1046 6 14 6H10C8.89543 6 8 5.10457 8 4Z" stroke="#131316" stroke-width="2" stroke-linecap="round" stroke-linejoin="round"/>
</svg>
