<svg width="24" height="24" viewBox="0 0 24 24" fill="none" xmlns="http://www.w3.org/2000/svg">
<path d="M3.99998 17.3336C3.99998 17.3336 3.5147 16.6866 3.51471 12.0003C3.51471 7.31409 7.31366 3.51514 11.9999 3.51514C12.9475 3.51514 13.8589 3.67048 14.7099 3.95709M3.99998 17.3336L2 15.3336M3.99998 17.3336L5.99996 15.3336M19.9998 6.66706C19.9998 6.66706 20.4851 7.31409 20.4851 12.0003C20.4851 16.6866 16.6862 20.4856 11.9999 20.4855C11.0523 20.4855 10.1409 20.3302 9.28994 20.0436M19.9998 6.66706L21.9998 8.66704M19.9998 6.66706L17.9999 8.66704M11.9999 8.00001V12L14.9999 14" stroke="#131316" stroke-width="2" stroke-linecap="round" stroke-linejoin="round"/>
</svg>
