<svg width="24" height="24" viewBox="0 0 24 24" fill="none" xmlns="http://www.w3.org/2000/svg">
<path d="M9 15C9 14.4477 8.55228 14 8 14C7.44772 14 7 14.4477 7 15H9ZM7 20C7 20.5523 7.44772 21 8 21C8.55228 21 9 20.5523 9 20H7ZM13 17C13 16.4477 12.5523 16 12 16C11.4477 16 11 16.4477 11 17H13ZM11 22C11 22.5523 11.4477 23 12 23C12.5523 23 13 22.5523 13 22H11ZM17 15C17 14.4477 16.5523 14 16 14C15.4477 14 15 14.4477 15 15H17ZM15 20C15 20.5523 15.4477 21 16 21C16.5523 21 17 20.5523 17 20H15ZM19.4993 14.5993C19.0212 14.8758 18.8579 15.4875 19.1344 15.9656C19.4109 16.4437 20.0227 16.607 20.5007 16.3305L19.4993 14.5993ZM17.9292 8.00062L16.9393 8.14213C17.0106 8.64127 17.4424 9.00922 17.9465 9.00047L17.9292 8.00062ZM4.01579 8.52604L4.51257 9.39392C4.80316 9.22758 4.99123 8.92684 5.01357 8.59275L4.01579 8.52604ZM3.49927 16.3305C3.97733 16.607 4.58906 16.4437 4.86561 15.9656C5.14215 15.4875 4.97879 14.8758 4.50073 14.5993L3.49927 16.3305ZM7 15V20H9V15H7ZM11 17V22H13V17H11ZM15 15V20H17V15H15ZM20.5007 16.3305C21.9926 15.4675 23 13.852 23 12H21C21 13.1092 20.3986 14.079 19.4993 14.5993L20.5007 16.3305ZM23 12C23 9.23858 20.7614 7 18 7V9C19.6569 9 21 10.3431 21 12H23ZM18 7C17.9704 7 17.941 7.00026 17.9119 7.00077L17.9465 9.00047C17.9645 9.00016 17.9823 9 18 9V7ZM18.9191 7.85911C18.3648 3.98092 15.0314 1 11 1V3C14.022 3 16.5237 5.23512 16.9393 8.14213L18.9191 7.85911ZM11 1C6.76336 1 3.2966 4.29269 3.01802 8.45933L5.01357 8.59275C5.22239 5.46946 7.82322 3 11 3V1ZM3.51902 7.65816C2.01624 8.51835 1 10.1399 1 12H3C3 10.886 3.60673 9.91242 4.51257 9.39392L3.51902 7.65816ZM1 12C1 13.852 2.00738 15.4675 3.49927 16.3305L4.50073 14.5993C3.60141 14.079 3 13.1092 3 12H1Z" fill="#131316"/>
</svg>
