<svg width="24" height="24" viewBox="0 0 24 24" fill="none" xmlns="http://www.w3.org/2000/svg">
<path d="M3 3L21 21M4.47085 9.47085C4.22109 10.1152 4.06395 10.8057 4.01579 11.526C2.81149 12.2154 2 13.5129 2 15C2 17.2091 3.79086 19 6 19H14M11 5C9.32168 5 7.78131 5.59065 6.57542 6.57542L18.8987 18.8987C20.6751 18.4909 22 16.9002 22 15C22 12.7909 20.2091 11 18 11C17.9764 11 17.9528 11.0002 17.9292 11.0006C17.4442 7.60802 14.5267 5 11 5Z" stroke="#131316" stroke-width="2" stroke-linecap="round" stroke-linejoin="round"/>
</svg>
