<svg width="24" height="24" viewBox="0 0 24 24" fill="none" xmlns="http://www.w3.org/2000/svg">
<path d="M8 20C7.44772 20 7 20.4477 7 21C7 21.5523 7.44772 22 8 22V20ZM16 22C16.5523 22 17 21.5523 17 21C17 20.4477 16.5523 20 16 20V22ZM2 16C1.44772 16 1 16.4477 1 17C1 17.5523 1.44772 18 2 18L2 16ZM22 18C22.5523 18 23 17.5523 23 17C23 16.4477 22.5523 16 22 16V18ZM20.9055 12.7507C20.7679 13.2856 21.0899 13.8308 21.6247 13.9684C22.1596 14.1061 22.7048 13.7841 22.8424 13.2493L20.9055 12.7507ZM1.15758 13.2493C1.29524 13.7841 1.84042 14.1061 2.37528 13.9684C2.91013 13.8308 3.23212 13.2856 3.09445 12.7507L1.15758 13.2493ZM17.9292 8.00062L16.9393 8.14213C17.0106 8.64127 17.4424 9.00922 17.9465 9.00047L17.9292 8.00062ZM4.01579 8.52604L4.51257 9.39392C4.80316 9.22758 4.99123 8.92684 5.01357 8.59275L4.01579 8.52604ZM8 22H16V20H8V22ZM2 18L22 18V16L2 16L2 18ZM22.8424 13.2493C22.9455 12.8489 23 12.4301 23 12H21C21 12.2605 20.967 12.5119 20.9055 12.7507L22.8424 13.2493ZM23 12C23 9.23858 20.7614 7 18 7V9C19.6569 9 21 10.3431 21 12H23ZM18 7C17.9704 7 17.941 7.00026 17.9119 7.00077L17.9465 9.00047C17.9645 9.00016 17.9823 9 18 9V7ZM18.9191 7.85911C18.3648 3.98092 15.0314 1 11 1V3C14.022 3 16.5237 5.23512 16.9393 8.14213L18.9191 7.85911ZM11 1C6.76336 1 3.2966 4.29269 3.01802 8.45933L5.01357 8.59275C5.22239 5.46946 7.82322 3 11 3V1ZM3.51902 7.65816C2.01624 8.51835 1 10.1399 1 12H3C3 10.886 3.60673 9.91242 4.51257 9.39392L3.51902 7.65816ZM1 12C1 12.4301 1.05453 12.8489 1.15758 13.2493L3.09445 12.7507C3.03297 12.5119 3 12.2605 3 12H1Z" fill="#131316"/>
</svg>
