<svg width="24" height="24" viewBox="0 0 24 24" fill="none" xmlns="http://www.w3.org/2000/svg">
<path d="M17.9408 12.0213C17.5419 8.75111 15.1698 6.09021 12.0512 5.26537C13.0512 3.89233 14.6713 2.99994 16.5 2.99994C16.7506 2.99994 16.9972 3.0167 17.2389 3.04916C17.084 3.50432 17 3.99225 17 4.49982C17 6.9851 19.0147 8.99982 21.5 8.99982C21.6621 8.99982 21.8221 8.99125 21.9798 8.97454C21.8499 10.4936 21.1026 11.8365 19.9899 12.751C19.3921 12.3532 18.6936 12.0945 17.9408 12.0213ZM17.9408 12.0213C20.2192 12.2428 22 14.1634 22 16.5C22 18.9853 19.9853 21 17.5 21H10C5.58172 21 2 17.4183 2 13C2 8.58172 5.58172 4.99999 10 4.99999C14.087 4.99999 17.4581 8.06468 17.9408 12.0213Z" stroke="#131316" stroke-width="2" stroke-linecap="round" stroke-linejoin="round"/>
</svg>
