<svg width="24" height="24" viewBox="0 0 24 24" fill="none" xmlns="http://www.w3.org/2000/svg">
<path d="M9 15C9 14.4477 8.55228 14 8 14C7.44772 14 7 14.4477 7 15H9ZM7 18C7 18.5523 7.44772 19 8 19C8.55228 19 9 18.5523 9 18H7ZM9 21C9 20.4477 8.55228 20 8 20C7.44772 20 7 20.4477 7 21H9ZM7 22C7 22.5523 7.44772 23 8 23C8.55228 23 9 22.5523 9 22H7ZM13 20C13 19.4477 12.5523 19 12 19C11.4477 19 11 19.4477 11 20H13ZM11 21C11 21.5523 11.4477 22 12 22C12.5523 22 13 21.5523 13 21H11ZM17 21C17 20.4477 16.5523 20 16 20C15.4477 20 15 20.4477 15 21H17ZM15 22C15 22.5523 15.4477 23 16 23C16.5523 23 17 22.5523 17 22H15ZM13 13C13 12.4477 12.5523 12 12 12C11.4477 12 11 12.4477 11 13H13ZM11 17C11 17.5523 11.4477 18 12 18C12.5523 18 13 17.5523 13 17H11ZM17 15C17 14.4477 16.5523 14 16 14C15.4477 14 15 14.4477 15 15H17ZM15 18C15 18.5523 15.4477 19 16 19C16.5523 19 17 18.5523 17 18H15ZM19.4993 14.5993C19.0212 14.8758 18.8579 15.4875 19.1344 15.9656C19.4109 16.4437 20.0227 16.607 20.5007 16.3305L19.4993 14.5993ZM17.9292 8.00062L16.9393 8.14213C17.0106 8.64127 17.4424 9.00922 17.9465 9.00047L17.9292 8.00062ZM4.01579 8.52604L4.51257 9.39392C4.80316 9.22758 4.99123 8.92684 5.01357 8.59275L4.01579 8.52604ZM3.49927 16.3305C3.97733 16.607 4.58906 16.4437 4.86561 15.9656C5.14215 15.4875 4.97879 14.8758 4.50073 14.5993L3.49927 16.3305ZM7 15V18H9V15H7ZM7 21V22H9V21H7ZM11 20V21H13V20H11ZM15 21V22H17V21H15ZM11 13V17H13V13H11ZM15 15V18H17V15H15ZM20.5007 16.3305C21.9926 15.4675 23 13.852 23 12H21C21 13.1092 20.3986 14.079 19.4993 14.5993L20.5007 16.3305ZM23 12C23 9.23858 20.7614 7 18 7V9C19.6569 9 21 10.3431 21 12H23ZM18 7C17.9704 7 17.941 7.00026 17.9119 7.00077L17.9465 9.00047C17.9645 9.00016 17.9823 9 18 9V7ZM18.9191 7.85911C18.3648 3.98092 15.0314 1 11 1V3C14.022 3 16.5237 5.23512 16.9393 8.14213L18.9191 7.85911ZM11 1C6.76336 1 3.2966 4.29269 3.01802 8.45933L5.01357 8.59275C5.22239 5.46946 7.82322 3 11 3V1ZM3.51902 7.65816C2.01624 8.51835 1 10.1399 1 12H3C3 10.886 3.60673 9.91242 4.51257 9.39392L3.51902 7.65816ZM1 12C1 13.852 2.00738 15.4675 3.49927 16.3305L4.50073 14.5993C3.60141 14.079 3 13.1092 3 12H1Z" fill="#131316"/>
</svg>
