<svg width="24" height="24" viewBox="0 0 24 24" fill="none" xmlns="http://www.w3.org/2000/svg">
<path d="M15 12C15 14.2091 12.0899 16 8.5 16C4.91015 16 2 14.2091 2 12M15 12V17M15 12V7M15 17C15 19.2091 12.0899 21 8.5 21C4.91015 21 2 19.2091 2 17V12M15 17V13.9883M15 17C15 17.6959 14.7112 18.3504 14.2033 18.9204C14.6223 18.9726 15.056 19 15.5 19C19.0899 19 22 17.2091 22 15V10M2 12V7M15 7C15 9.20914 12.0899 11 8.5 11C4.91015 11 2 9.20914 2 7M15 7C15 4.79086 12.0899 3 8.5 3C4.91015 3 2 4.79086 2 7M15 13.9883V6.01166C15.165 6.00393 15.3318 6 15.5 6C19.0899 6 22 7.79086 22 10M15 13.9883C15.165 13.9961 15.3318 14 15.5 14C19.0899 14 22 12.2091 22 10" stroke="#131316" stroke-width="2" stroke-linecap="round" stroke-linejoin="round"/>
</svg>
