<svg width="24" height="24" viewBox="0 0 24 24" fill="none" xmlns="http://www.w3.org/2000/svg">
<path d="M19.5 8.53846H20.3333C21.0031 8.53846 21.5806 8.92138 21.8455 9.47367M19.5 8.53846H18.7857C17.7995 8.53846 17 9.31335 17 10.2692C17 11.2251 17.7995 12 18.7857 12H20.2143C21.2005 12 22 12.7749 22 13.7308C22 14.6866 21.2005 15.4615 20.2143 15.4615H19.5M19.5 8.53846V7.5M19.5 15.4615H18.6667C17.9682 15.4615 17.3702 15.0452 17.1222 14.4545M19.5 15.4615V16.5M13 12C13 13.6569 10.5376 15 7.5 15C4.46243 15 2 13.6569 2 12M13 12V17C13 18.6569 10.5376 20 7.5 20C4.46243 20 2 18.6569 2 17V12M13 12V7M2 12V7M13 7C13 8.65685 10.5376 10 7.5 10C4.46243 10 2 8.65685 2 7M13 7C13 5.34315 10.5376 4 7.5 4C4.46243 4 2 5.34315 2 7" stroke="#131316" stroke-width="2" stroke-linecap="round" stroke-linejoin="round"/>
</svg>
