<svg width="24" height="24" viewBox="0 0 24 24" fill="none" xmlns="http://www.w3.org/2000/svg">
<path d="M13.9906 14.6619C13.3677 14.8809 12.6978 15 12 15M13.9906 14.6619C13.9969 14.7738 14 14.8865 14 15M13.9906 14.6619C16.2246 13.8765 17.8535 11.8063 17.9906 9.33811C20.3259 10.1591 22 12.3841 22 15C22 18.3137 19.3137 21 16 21C14.4634 21 13.0616 20.4223 12.0001 19.4723C13.2276 18.3737 14 16.7769 14 15M12 15C8.79976 15 6.1847 12.4945 6.00937 9.33811C3.67409 10.1591 2 12.3841 2 15C2 18.3137 4.68629 21 8 21C11.3137 21 14 18.3137 14 15M12 15C15.3137 15 18 12.3137 18 9C18 5.68629 15.3137 3 12 3C8.68629 3 6 5.68629 6 9C6 12.3137 8.68629 15 12 15Z" stroke="#131316" stroke-width="2" stroke-linecap="round" stroke-linejoin="round"/>
</svg>
