<svg width="24" height="24" viewBox="0 0 24 24" fill="none" xmlns="http://www.w3.org/2000/svg">
<path d="M8 13V13.0099M11 17V17.0099M16 17V17.0099M13 22C7.47715 22 3 17.5228 3 12C3 6.47715 7.47715 2 13 2C16.6201 2 19.8421 4.46682 19.8421 8.31579C19.8421 9.96182 19.2124 11.4608 18.1808 12.5849C20.0873 12.2127 21.9474 13.7218 21.9474 15.6842C21.9474 19.8947 16.8226 22 13 22ZM15 8C15 9.10457 14.1046 10 13 10C11.8954 10 11 9.10457 11 8C11 6.89543 11.8954 6 13 6C14.1046 6 15 6.89543 15 8Z" stroke="#131316" stroke-width="2" stroke-linecap="round" stroke-linejoin="round"/>
</svg>
