<svg width="24" height="24" viewBox="0 0 24 24" fill="none" xmlns="http://www.w3.org/2000/svg">
<path d="M22 17V19C22 20.1046 21.1046 21 20 21C18.8954 21 18 20.1046 18 19V17C18 15.8954 18.8954 15 20 15C21.1046 15 22 15.8954 22 17Z" stroke="#131316" stroke-width="2" stroke-linecap="round" stroke-linejoin="round"/>
<path d="M14 11V19C14 20.1046 13.1046 21 12 21C10.8954 21 10 20.1046 10 19V11C10 9.89543 10.8954 9 12 9C13.1046 9 14 9.89543 14 11Z" stroke="#131316" stroke-width="2" stroke-linecap="round" stroke-linejoin="round"/>
<path d="M6 5V19C6 20.1046 5.10457 21 4 21C2.89543 21 2 20.1046 2 19L2 5C2 3.89543 2.89543 3 4 3C5.10457 3 6 3.89543 6 5Z" stroke="#131316" stroke-width="2" stroke-linecap="round" stroke-linejoin="round"/>
</svg>
