<svg width="24" height="24" viewBox="0 0 24 24" fill="none" xmlns="http://www.w3.org/2000/svg">
<path d="M2 13L2 19C2 20.1046 2.89543 21 4 21C5.10457 21 6 20.1046 6 19V13C6 11.8954 5.10457 11 4 11C2.89543 11 2 11.8954 2 13Z" stroke="#131316" stroke-width="2" stroke-linecap="round" stroke-linejoin="round"/>
<path d="M10 5V19C10 20.1046 10.8954 21 12 21C13.1046 21 14 20.1046 14 19V5C14 3.89543 13.1046 3 12 3C10.8954 3 10 3.89543 10 5Z" stroke="#131316" stroke-width="2" stroke-linecap="round" stroke-linejoin="round"/>
<path d="M18 13V19C18 20.1046 18.8954 21 20 21C21.1046 21 22 20.1046 22 19V13C22 11.8954 21.1046 11 20 11C18.8954 11 18 11.8954 18 13Z" stroke="#131316" stroke-width="2" stroke-linecap="round" stroke-linejoin="round"/>
</svg>
