<svg width="24" height="24" viewBox="0 0 24 24" fill="none" xmlns="http://www.w3.org/2000/svg">
<path d="M15 18C15 17.0681 15 16.6022 15.1522 16.2346C15.3552 15.7446 15.7446 15.3552 16.2346 15.1522C16.6022 15 17.0681 15 18 15C18.9319 15 19.3978 15 19.7654 15.1522C20.2554 15.3552 20.6448 15.7446 20.8478 16.2346C21 16.6022 21 17.0681 21 18C21 18.9319 21 19.3978 20.8478 19.7654C20.6448 20.2554 20.2554 20.6448 19.7654 20.8478C19.3978 21 18.9319 21 18 21C17.0681 21 16.6022 21 16.2346 20.8478C15.7446 20.6448 15.3552 20.2554 15.1522 19.7654C15 19.3978 15 18.9319 15 18ZM15 18V12C15 11.0681 15 10.6022 14.8478 10.2346C14.6448 9.74458 14.2554 9.35523 13.7654 9.15224C13.3978 9 12.9319 9 12 9C11.0681 9 10.6022 9 10.2346 9.15224C9.74458 9.35523 9.35523 9.74458 9.15224 10.2346C9 10.6022 9 11.0681 9 12V18M15 18C15 18.9319 15 19.3978 14.8478 19.7654C14.6448 20.2554 14.2554 20.6448 13.7654 20.8478C13.3978 21 12.9319 21 12 21C11.0681 21 10.6022 21 10.2346 20.8478C9.74458 20.6448 9.35523 20.2554 9.15224 19.7654C9 19.3978 9 18.9319 9 18M9 18V6C9 5.06812 9 4.60217 8.84776 4.23463C8.64477 3.74458 8.25542 3.35523 7.76537 3.15224C7.39782 3 6.93188 3 6 3C5.06812 3 4.60218 3 4.23463 3.15224C3.74458 3.35523 3.35523 3.74458 3.15224 4.23463C3 4.60217 3 5.06812 3 6L3 18C3 18.9319 3 19.3978 3.15224 19.7654C3.35523 20.2554 3.74458 20.6448 4.23463 20.8478C4.60218 21 5.06812 21 6 21C6.93188 21 7.39782 21 7.76537 20.8478C8.25542 20.6448 8.64477 20.2554 8.84776 19.7654C9 19.3978 9 18.9319 9 18Z" stroke="#131316" stroke-width="2" stroke-linecap="round" stroke-linejoin="round"/>
</svg>
