<svg width="24" height="24" viewBox="0 0 24 24" fill="none" xmlns="http://www.w3.org/2000/svg">
<path d="M9 18V14C9 13.0681 9 12.6022 8.84776 12.2346C8.64477 11.7446 8.25542 11.3552 7.76537 11.1522C7.39782 11 6.93188 11 6 11C5.06812 11 4.60218 11 4.23463 11.1522C3.74458 11.3552 3.35523 11.7446 3.15224 12.2346C3 12.6022 3 13.0681 3 14L3 18C3 18.9319 3 19.3978 3.15224 19.7654C3.35523 20.2554 3.74458 20.6448 4.23463 20.8478C4.60218 21 5.06812 21 6 21C6.93188 21 7.39782 21 7.76537 20.8478C8.25542 20.6448 8.64477 20.2554 8.84776 19.7654C9 19.3978 9 18.9319 9 18ZM9 18V6C9 5.06812 9 4.60217 9.15224 4.23463C9.35523 3.74458 9.74458 3.35523 10.2346 3.15224C10.6022 3 11.0681 3 12 3C12.9319 3 13.3978 3 13.7654 3.15224C14.2554 3.35523 14.6448 3.74458 14.8478 4.23463C15 4.60217 15 5.06812 15 6V18M9 18C9 18.9319 9 19.3978 9.15224 19.7654C9.35523 20.2554 9.74458 20.6448 10.2346 20.8478C10.6022 21 11.0681 21 12 21C12.9319 21 13.3978 21 13.7654 20.8478C14.2554 20.6448 14.6448 20.2554 14.8478 19.7654C15 19.3978 15 18.9319 15 18M15 18V11C15 10.0681 15 9.60217 15.1522 9.23463C15.3552 8.74458 15.7446 8.35523 16.2346 8.15224C16.6022 8 17.0681 8 18 8C18.9319 8 19.3978 8 19.7654 8.15224C20.2554 8.35523 20.6448 8.74458 20.8478 9.23463C21 9.60217 21 10.0681 21 11V18C21 18.9319 21 19.3978 20.8478 19.7654C20.6448 20.2554 20.2554 20.6448 19.7654 20.8478C19.3978 21 18.9319 21 18 21C17.0681 21 16.6022 21 16.2346 20.8478C15.7446 20.6448 15.3552 20.2554 15.1522 19.7654C15 19.3978 15 18.9319 15 18Z" stroke="#131316" stroke-width="2" stroke-linecap="round" stroke-linejoin="round"/>
</svg>
