<svg width="24" height="24" viewBox="0 0 24 24" fill="none" xmlns="http://www.w3.org/2000/svg">
<path d="M9 9H15M9 9V15M9 9H6C4.35 9 3 7.65 3 6C3 4.35 4.35 3 6 3C7.65 3 9 4.35 9 6V9ZM15 9V15M15 9H18C19.65 9 21 7.65 21 6C21 4.35 19.65 3 18 3C16.35 3 15 4.35 15 6V9ZM15 15H9M15 15H18C19.65 15 21 16.35 21 18C21 19.65 19.65 21 18 21C16.35 21 15 19.65 15 18V15ZM9 15V18C9 19.65 7.65 21 6 21C4.35 21 3 19.65 3 18C3 16.35 4.35 15 6 15H9Z" stroke="#131316" stroke-width="2" stroke-linecap="round" stroke-linejoin="round"/>
</svg>
