<svg width="24" height="24" viewBox="0 0 24 24" fill="none" xmlns="http://www.w3.org/2000/svg">
<path d="M12 10C13.3807 10 14.5 8.88071 14.5 7.5C14.5 6.11929 13.3807 5 12 5C10.6193 5 9.5 6.11929 9.5 7.5C9.5 8.88071 10.6193 10 12 10ZM12 10C14.2091 10 16 11.7909 16 14V19M12 10C9.79086 10 8 11.7909 8 14V19M18.9827 10.033C20.6873 10.2682 22 11.7308 22 13.5V17M5.01726 10.033C3.31271 10.2682 2 11.7308 2 13.5V17M21 8.5C21 9.32843 20.3284 10 19.5 10C18.6716 10 18 9.32843 18 8.5C18 7.67157 18.6716 7 19.5 7C20.3284 7 21 7.67157 21 8.5ZM6 8.5C6 9.32843 5.32843 10 4.5 10C3.67157 10 3 9.32843 3 8.5C3 7.67157 3.67157 7 4.5 7C5.32843 7 6 7.67157 6 8.5Z" stroke="#131316" stroke-width="2" stroke-linecap="round" stroke-linejoin="round"/>
</svg>
