<svg width="24" height="24" viewBox="0 0 24 24" fill="none" xmlns="http://www.w3.org/2000/svg">
<path d="M3 3L21 21M4.27089 9.92815C4.0942 10.589 4 11.2835 4 12C4 16.4183 7.58172 20 12 20C12.7165 20 13.411 19.9058 14.0718 19.7291M12 2V6M12 18V22M2 12H6M18 12H22M17.6566 17.6571C19.1045 16.2093 20 14.2093 20 12C20 7.58172 16.4183 4 12 4C9.79076 4 7.79067 4.89551 6.34294 6.34335L10.5856 10.586C10.9475 10.2239 11.4476 10 12 10C13.1046 10 14 10.8954 14 12C14 12.5524 13.7761 13.0525 13.414 13.4144L17.6566 17.6571Z" stroke="#131316" stroke-width="2" stroke-linecap="round" stroke-linejoin="round"/>
</svg>
