<svg width="24" height="24" viewBox="0 0 24 24" fill="none" xmlns="http://www.w3.org/2000/svg">
<path d="M12 20.1453C12 20.5874 12.0972 21.0147 12.2758 21.4018C12.9492 21.3646 13.6167 21.1912 14.2361 20.8816L19.2361 18.3816C20.93 17.5346 22 15.8033 22 13.9094V10.0898C22 9.13819 21.7299 8.22764 21.2462 7.44969C21.045 7.50193 20.8479 7.57542 20.6584 7.67019L13.6584 11.1702C12.642 11.6784 12 12.7172 12 13.8535M12 20.1453V13.8535M12 20.1453C12 20.5874 11.9028 21.0147 11.7242 21.4018C11.0508 21.3646 10.3832 21.1912 9.76393 20.8816L4.76393 18.3816C3.07001 17.5346 2 15.8033 2 13.9094V10.0898C2 9.13816 2.27016 8.22758 2.75387 7.44962C2.95507 7.50185 3.15212 7.57535 3.34164 7.67011L10.3416 11.1701C11.358 11.6783 12 12.7172 12 13.8535M21.1247 7.26391C20.8995 7.4899 20.6363 7.68184 20.3416 7.82918L13.3416 11.3292C12.4971 11.7515 11.5029 11.7515 10.6584 11.3292L3.65836 7.82918C3.36364 7.68182 3.1004 7.48984 2.87516 7.2638C3.34608 6.57637 3.98983 6.00471 4.76384 5.61771L9.76384 3.11771C11.1715 2.41389 12.8283 2.41389 14.236 3.11771L19.236 5.61771C20.01 6.00473 20.6538 6.57643 21.1247 7.26391Z" stroke="#131316" stroke-width="2" stroke-linecap="round" stroke-linejoin="round"/>
</svg>
