<svg width="24" height="24" viewBox="0 0 24 24" fill="none" xmlns="http://www.w3.org/2000/svg">
<path d="M12 10L16 14M16 10L12 14M14 20H12C10.5333 20 9.80001 20 9.12693 19.8078C8.53079 19.6375 7.97151 19.3579 7.47762 18.9831C6.92 18.56 6.48 17.9733 5.6 16.8L2 12L5.6 7.2C6.48 6.02667 6.92 5.44001 7.47762 5.01688C7.97151 4.64212 8.53079 4.36248 9.12693 4.19223C9.80001 4 10.5333 4 12 4L14 4C16.8003 4 18.2004 4 19.27 4.54497C20.2108 5.02433 20.9757 5.78924 21.455 6.73005C22 7.79961 22 9.19974 22 12C22 14.8003 22 16.2004 21.455 17.27C20.9757 18.2108 20.2108 18.9757 19.27 19.455C18.2004 20 16.8003 20 14 20Z" stroke="#131316" stroke-width="2" stroke-linecap="round" stroke-linejoin="round"/>
</svg>
