<svg width="24" height="24" viewBox="0 0 24 24" fill="none" xmlns="http://www.w3.org/2000/svg">
<path d="M18 14C15 14 14 16 14 16H11L10.8574 15.7757C9.99651 14.4217 9.56608 13.7447 8.98702 13.2539C8.47447 12.8195 7.87963 12.4928 7.238 12.2933C6.51311 12.0681 5.71088 12.0681 4.10642 12.0681H2M18 14C21 14 22 16 22 16M18 14L16.4778 5.62757C16.3078 4.69293 16.2229 4.22561 15.9848 3.87545C15.7748 3.56672 15.4827 3.32291 15.1414 3.17161C14.7543 3 14.2793 3 13.3294 3L13 3M3.00001 9H5.00001M4.00001 6H8.00001M17 8H18.4189C19.4427 8 20.1657 6.99695 19.8419 6.02566C19.6377 5.41314 19.0645 5 18.4189 5H16.5M8.00001 18C8.00001 19.6569 6.65687 21 5.00001 21C3.34316 21 2.00001 19.6569 2.00001 18C2.00001 16.3431 3.34316 15 5.00001 15C6.65687 15 8.00001 16.3431 8.00001 18ZM20 19C20 20.1046 19.1046 21 18 21C16.8954 21 16 20.1046 16 19C16 17.8954 16.8954 17 18 17C19.1046 17 20 17.8954 20 19Z" stroke="#131316" stroke-width="2" stroke-linecap="round" stroke-linejoin="round"/>
</svg>
