<svg width="24" height="24" viewBox="0 0 24 24" fill="none" xmlns="http://www.w3.org/2000/svg">
<path d="M2.93783 8.78815L3.86371 6.18917C4.27286 5.04069 4.47743 4.46646 4.84227 4.04268C5.16452 3.66837 5.5742 3.37942 6.03495 3.20147C6.55659 3 7.16618 3 8.38535 3L15.6144 3C16.8335 3 17.4431 3 17.9648 3.20147C18.4255 3.37942 18.8352 3.66837 19.1574 4.04268C19.5223 4.46646 19.7269 5.0407 20.136 6.18917L21.0619 8.78815M2.93783 8.78815C2.59627 9.74692 2.42549 10.2263 2.41311 10.7047C2.40217 11.128 2.48094 11.5488 2.64425 11.9394C2.82884 12.3809 3.16147 12.7661 3.82671 13.5364L8.3671 18.7937C9.61959 20.2439 10.2458 20.969 10.9899 21.235C11.6429 21.4686 12.3568 21.4686 13.0099 21.235C13.7539 20.969 14.3801 20.2439 15.6326 18.7937L20.173 13.5364C20.8382 12.7661 21.1709 12.3809 21.3555 11.9394C21.5188 11.5488 21.5975 11.128 21.5866 10.7047C21.5742 10.2263 21.4034 9.74692 21.0619 8.78815M2.93783 8.78815C2.65302 9.58762 2.48695 10.0538 2.43246 10.464C2.8109 10.6791 3.32334 10.8713 4.11446 11.168L8.18487 12.6944C8.48949 12.8086 8.6418 12.8657 8.79834 12.9059C8.9374 12.9416 9.07885 12.9672 9.22159 12.9826C9.38226 13 9.54493 13 9.87026 13H14.1294C14.4548 13 14.6175 13 14.7781 12.9826C14.9209 12.9672 15.0623 12.9416 15.2014 12.9059C15.3579 12.8657 15.5102 12.8086 15.8148 12.6944L19.8852 11.168C20.6764 10.8713 21.1888 10.6791 21.5672 10.464C21.5128 10.0538 21.3467 9.58761 21.0619 8.78815" stroke="#131316" stroke-width="2" stroke-linecap="round" stroke-linejoin="round"/>
</svg>
