<svg width="24" height="24" viewBox="0 0 24 24" fill="none" xmlns="http://www.w3.org/2000/svg">
<path d="M13.5421 18.8602C15.2809 19.5924 16.1504 19.9585 16.673 19.993C18.6376 20.1228 20.23 18.4231 19.9726 16.4709C19.9042 15.9516 19.4823 15.1078 18.6385 13.4202L16.466 9.07495C15.0286 6.1999 14.3099 4.76238 13.3373 4.30108C12.491 3.89964 11.509 3.89964 10.6627 4.30108C9.69012 4.76238 8.9714 6.1999 7.53397 9.07495L5.36146 13.4202C4.51771 15.1078 4.09583 15.9516 4.02737 16.4709C3.77002 18.4231 5.36243 20.1228 7.32703 19.993C7.84965 19.9585 8.71907 19.5924 10.4579 18.8602C10.7832 18.7233 10.9458 18.6548 11.1089 18.6062C11.6903 18.4329 12.3097 18.4329 12.8911 18.6062C13.0542 18.6548 13.2168 18.7233 13.5421 18.8602Z" stroke="#131316" stroke-width="2" stroke-linecap="round" stroke-linejoin="round"/>
</svg>
