<svg width="24" height="24" viewBox="0 0 24 24" fill="none" xmlns="http://www.w3.org/2000/svg">
<path d="M5.13978 10.4579C4.4076 8.71907 4.0415 7.84965 4.00698 7.32703C3.8772 5.36243 5.57695 3.77002 7.52906 4.02737C8.04835 4.09583 8.89216 4.51771 10.5798 5.36146L14.9251 7.53397C17.8001 8.9714 19.2376 9.69012 19.6989 10.6627C20.1004 11.509 20.1004 12.491 19.6989 13.3373C19.2376 14.3099 17.8001 15.0286 14.9251 16.466L10.5798 18.6385C8.89216 19.4823 8.04835 19.9042 7.52906 19.9726C5.57695 20.23 3.8772 18.6376 4.00698 16.673C4.0415 16.1504 4.4076 15.2809 5.13978 13.5421C5.27675 13.2168 5.34523 13.0542 5.39382 12.8911C5.56707 12.3097 5.56707 11.6903 5.39382 11.1089C5.34523 10.9458 5.27675 10.7832 5.13978 10.4579Z" stroke="#131316" stroke-width="2" stroke-linecap="round" stroke-linejoin="round"/>
</svg>
