<svg width="24" height="24" viewBox="0 0 24 24" fill="none" xmlns="http://www.w3.org/2000/svg">
<path d="M3 3L21 21M5.24984 10.7207C5.31771 10.8851 5.36045 10.9969 5.39382 11.1089C5.56707 11.6903 5.56707 12.3097 5.39382 12.8911C5.34523 13.0542 5.27675 13.2168 5.13978 13.5421C4.4076 15.2809 4.0415 16.1504 4.00698 16.673C3.8772 18.6376 5.57695 20.23 7.52906 19.9726C8.04835 19.9042 8.89216 19.4823 10.5798 18.6385L12.3053 17.7758M16.2264 15.8121C18.2456 14.7859 19.3133 14.1503 19.6989 13.3373C20.1004 12.491 20.1004 11.509 19.6989 10.6627C19.2376 9.69012 17.8001 8.9714 14.9251 7.53397L10.5798 5.36146C8.89216 4.51771 8.04835 4.09583 7.52906 4.02737C6.62266 3.90788 5.77067 4.18717 5.13097 4.71735" stroke="#131316" stroke-width="2" stroke-linecap="round" stroke-linejoin="round"/>
</svg>
