<svg width="24" height="24" viewBox="0 0 24 24" fill="none" xmlns="http://www.w3.org/2000/svg">
<path d="M15.9812 13.3072H10.2524M13.1168 9.48798V9.49747M13.1168 17.1263V17.1358M8.79947 18.2515L5.29426 14.7462C4.40041 13.8524 3.95349 13.4055 3.64494 12.8812C3.3715 12.4165 3.17875 11.9089 3.07486 11.3798C2.95764 10.7828 2.99529 10.1519 3.0706 8.89008L3.23682 6.10472C3.29398 5.14697 3.32256 4.66809 3.52328 4.29633C3.70012 3.96881 3.96882 3.70012 4.29633 3.52328C4.66809 3.32255 5.14697 3.29398 6.10473 3.23682L8.89008 3.0706C10.1519 2.9953 10.7828 2.95764 11.3798 3.07486C11.9089 3.17875 12.4165 3.3715 12.8812 3.64494C13.4055 3.95349 13.8524 4.40041 14.7462 5.29425L18.2514 8.79946C19.5081 10.0561 20.1364 10.6844 20.4797 11.3581C21.1734 12.7197 21.1734 14.3312 20.4797 15.6928C20.1364 16.3665 19.5081 16.9948 18.2515 18.2515C16.9948 19.5081 16.3665 20.1364 15.6928 20.4797C14.3312 21.1734 12.7197 21.1734 11.3581 20.4797C10.6844 20.1364 10.0561 19.5081 8.79947 18.2515ZM9.29761 8.05578C9.29761 8.84676 8.6564 9.48798 7.86542 9.48798C7.07444 9.48798 6.43323 8.84676 6.43323 8.05578C6.43323 7.26481 7.07444 6.62359 7.86542 6.62359C8.6564 6.62359 9.29761 7.26481 9.29761 8.05578Z" stroke="#131316" stroke-width="2" stroke-linecap="round" stroke-linejoin="round"/>
</svg>
