<svg width="24" height="24" viewBox="0 0 24 24" fill="none" xmlns="http://www.w3.org/2000/svg">
<path d="M22 20L2 20M22 4L2 4M17 15H7C6.06812 15 5.60217 15 5.23463 14.8478C4.74458 14.6448 4.35523 14.2554 4.15224 13.7654C4 13.3978 4 12.9319 4 12C4 11.0681 4 10.6022 4.15224 10.2346C4.35523 9.74458 4.74458 9.35523 5.23463 9.15224C5.60217 9 6.06812 9 7 9H17C17.9319 9 18.3978 9 18.7654 9.15224C19.2554 9.35523 19.6448 9.74458 19.8478 10.2346C20 10.6022 20 11.0681 20 12C20 12.9319 20 13.3978 19.8478 13.7654C19.6448 14.2554 19.2554 14.6448 18.7654 14.8478C18.3978 15 17.9319 15 17 15Z" stroke="#131316" stroke-width="2" stroke-linecap="round" stroke-linejoin="round"/>
</svg>
