<svg width="24" height="24" viewBox="0 0 24 24" fill="none" xmlns="http://www.w3.org/2000/svg">
<path d="M18.1256 5.40627C16.5191 3.91314 14.3662 3 12 3C10.6722 3 9.41156 3.28754 8.27695 3.80375M18.1256 5.40627C19.8938 7.04966 21 9.39565 21 12C21 12.3106 20.9843 12.6175 20.9535 12.92M18.1256 5.40627C15.4381 9.57393 10.6496 11.9284 5.67 11.48L3.03175 11.2387M8.27695 3.80375L10.8099 6.95C12.9399 9.59 14.4499 12.66 15.2499 15.95L16.2201 19.9513M8.27695 3.80375C5.3833 5.12026 3.30938 7.92409 3.03175 11.2387M3.03175 11.2387C3.01072 11.4897 3 11.7436 3 12C3 14.6362 4.13343 17.0077 5.93955 18.6537M5.93955 18.6537C7.53886 20.1113 9.66565 21 12 21C13.525 21 14.9615 20.6207 16.2201 19.9513M5.93955 18.6537C8.63889 14.5485 13.3904 12.2353 18.33 12.68L20.9535 12.92M16.2201 19.9513C18.8075 18.5752 20.6435 15.9732 20.9535 12.92" stroke="#131316" stroke-width="2" stroke-miterlimit="10" stroke-linecap="round" stroke-linejoin="round"/>
</svg>
