<svg width="24" height="24" viewBox="0 0 24 24" fill="none" xmlns="http://www.w3.org/2000/svg">
<path d="M7 6V6.00995M11 6V6.00995M7 18V18.0099M11 18V18.0099M17 22H7C6.07003 22 5.60504 22 5.22354 21.8978C4.18827 21.6204 3.37962 20.8117 3.10222 19.7765C3 19.395 3 18.93 3 18C3 17.07 3 16.605 3.10222 16.2235C3.37962 15.1883 4.18827 14.3796 5.22354 14.1022C5.60504 14 6.07003 14 7 14H17C17.93 14 18.395 14 18.7765 14.1022C19.8117 14.3796 20.6204 15.1883 20.8978 16.2235C21 16.605 21 17.07 21 18C21 18.93 21 19.395 20.8978 19.7765C20.6204 20.8117 19.8117 21.6204 18.7765 21.8978C18.395 22 17.93 22 17 22ZM17 10H7C6.07003 10 5.60504 10 5.22354 9.89778C4.18827 9.62038 3.37962 8.81173 3.10222 7.77646C3 7.39496 3 6.92997 3 6C3 5.07003 3 4.60504 3.10222 4.22354C3.37962 3.18827 4.18827 2.37962 5.22354 2.10222C5.60504 2 6.07003 2 7 2L17 2C17.93 2 18.395 2 18.7765 2.10222C19.8117 2.37962 20.6204 3.18827 20.8978 4.22354C21 4.60504 21 5.07003 21 6C21 6.92997 21 7.39496 20.8978 7.77646C20.6204 8.81173 19.8117 9.62038 18.7765 9.89778C18.395 10 17.93 10 17 10Z" stroke="#131316" stroke-width="2" stroke-linecap="round" stroke-linejoin="round"/>
</svg>
