<svg width="24" height="24" viewBox="0 0 24 24" fill="none" xmlns="http://www.w3.org/2000/svg">
<path d="M16.125 3.83642L5.04712 14.9143C4.66146 15.3 4.46863 15.4928 4.31541 15.7125C4.17941 15.9075 4.06684 16.1178 3.98003 16.3392C3.88223 16.5885 3.82875 16.8559 3.72179 17.3907L3 21L6.60924 20.278C7.14395 20.1711 7.41132 20.1176 7.66063 20.0198C7.88193 19.933 8.09223 19.8204 8.28721 19.6844C8.50687 19.5312 8.69968 19.3385 9.08529 18.9529L20.1635 7.87521M16.125 3.83642C17.2402 2.72118 19.0483 2.7212 20.1636 3.83644C21.2788 4.95172 21.2788 6.75997 20.1635 7.87521M16.125 3.83642L11.5818 8.37966L15.6204 12.4182L20.1635 7.87521M9.0577 5.8556L18.1442 14.9422" stroke="#131316" stroke-width="2" stroke-linecap="round" stroke-linejoin="round"/>
</svg>
