<svg width="24" height="24" viewBox="0 0 24 24" fill="none" xmlns="http://www.w3.org/2000/svg">
<path d="M8 21C8 21.5523 8.44772 22 9 22C9.55228 22 10 21.5523 10 21H8ZM10 8C10 7.44772 9.55228 7 9 7C8.44772 7 8 7.44772 8 8H10ZM16 8C16 7.44772 15.5523 7 15 7C14.4477 7 14 7.44772 14 8H16ZM14 21C14 21.5523 14.4477 22 15 22C15.5523 22 16 21.5523 16 21H14ZM7.5 16.5H8.5H7.5ZM7.5 14.5H6.5H7.5ZM10.5 14.5H9.5H10.5ZM10.5 16.5H11.5H10.5ZM17.4152 3.45228L16.8862 2.60366L17.4152 3.45228ZM17.4152 8.54772L17.9442 7.69909L17.4152 8.54772ZM6.5848 3.45228L7.1138 2.60366L6.5848 3.45228ZM6.5848 8.54772L6.0558 7.69909L6.5848 8.54772ZM8 18V21H10V18H8ZM8 8V13H10V8H8ZM14 8L14 21H16L16 8H14ZM8.5 16.5V14.5H6.5V16.5H8.5ZM9.5 14.5V16.5H11.5V14.5H9.5ZM9 14C9.27614 14 9.5 14.2239 9.5 14.5H11.5C11.5 13.1193 10.3807 12 9 12V14ZM8.5 14.5C8.5 14.2239 8.72386 14 9 14V12C7.61929 12 6.5 13.1193 6.5 14.5H8.5ZM9 17C8.72386 17 8.5 16.7761 8.5 16.5H6.5C6.5 17.8807 7.61929 19 9 19V17ZM9 19C10.3807 19 11.5 17.8807 11.5 16.5H9.5C9.5 16.7761 9.27614 17 9 17V19ZM16.8862 9.39634C17.5002 9.77906 18.2258 10 19 10V8C18.6106 8 18.25 7.8897 17.9442 7.69909L16.8862 9.39634ZM19 10C21.2091 10 23 8.20914 23 6H21C21 7.10457 20.1046 8 19 8V10ZM23 6C23 3.79086 21.2091 2 19 2V4C20.1046 4 21 4.89543 21 6H23ZM19 2C18.2258 2 17.5002 2.22094 16.8862 2.60366L17.9442 4.30091C18.25 4.1103 18.6106 4 19 4V2ZM15 6.08993V5.91007H13V6.08993H15ZM13 6.08993C13 7.69712 14.3029 9 15.9101 9V7C15.4075 7 15 6.59255 15 6.08993H13ZM16.8862 2.60366C16.4391 2.88238 16.1484 3 15.9101 3V5C16.7584 5 17.4692 4.59701 17.9442 4.30091L16.8862 2.60366ZM15.9101 3C14.3029 3 13 4.30288 13 5.91007H15C15 5.40745 15.4075 5 15.9101 5V3ZM17.9442 7.69909C17.4692 7.40299 16.7584 7 15.9101 7V9C16.1484 9 16.4391 9.11762 16.8862 9.39634L17.9442 7.69909ZM6.0558 7.69909C5.75002 7.8897 5.38942 8 5 8V10C5.77419 10 6.49984 9.77906 7.1138 9.39634L6.0558 7.69909ZM5 8C3.89543 8 3 7.10457 3 6H1C1 8.20914 2.79086 10 5 10V8ZM3 6C3 4.89543 3.89543 4 5 4V2C2.79086 2 1 3.79086 1 6H3ZM5 4C5.38942 4 5.75002 4.1103 6.0558 4.30091L7.1138 2.60366C6.49984 2.22094 5.77419 2 5 2V4ZM11 6.08993V5.91007H9V6.08993H11ZM9 6.08993C9 6.59255 8.59255 7 8.08993 7V9C9.69712 9 11 7.69712 11 6.08993H9ZM6.0558 4.30091C6.53081 4.59701 7.24162 5 8.08993 5V3C7.85163 3 7.56092 2.88238 7.1138 2.60366L6.0558 4.30091ZM8.08993 5C8.59255 5 9 5.40745 9 5.91007H11C11 4.30288 9.69712 3 8.08993 3V5ZM7.1138 9.39634C7.56092 9.11762 7.85163 9 8.08993 9V7C7.24162 7 6.53081 7.40299 6.0558 7.69909L7.1138 9.39634Z" fill="#131316"/>
</svg>
