<svg width="24" height="24" viewBox="0 0 24 24" fill="none" xmlns="http://www.w3.org/2000/svg">
<path d="M6.2 21H6.8C7.9201 21 8.48016 21 8.90798 20.782C9.28431 20.5903 9.59027 20.2843 9.78201 19.908C10 19.4802 10 18.9201 10 17.8V6.2C10 5.07989 10 4.51984 9.78201 4.09202C9.59027 3.71569 9.28431 3.40973 8.90798 3.21799C8.48016 3 7.9201 3 6.8 3L6.2 3C5.0799 3 4.51984 3 4.09202 3.21799C3.71569 3.40973 3.40973 3.71569 3.21799 4.09202C3 4.51984 3 5.07989 3 6.2L3 17.8C3 18.9201 3 19.4802 3.21799 19.908C3.40973 20.2843 3.71569 20.5903 4.09202 20.782C4.51984 21 5.0799 21 6.2 21Z" stroke="#131316" stroke-width="2" stroke-linecap="round" stroke-linejoin="round"/>
<path d="M17.2 12H17.8C18.9201 12 19.4802 12 19.908 11.782C20.2843 11.5903 20.5903 11.2843 20.782 10.908C21 10.4802 21 9.92011 21 8.8V6.2C21 5.07989 21 4.51984 20.782 4.09202C20.5903 3.71569 20.2843 3.40973 19.908 3.21799C19.4802 3 18.9201 3 17.8 3L17.2 3C16.0799 3 15.5198 3 15.092 3.21799C14.7157 3.40973 14.4097 3.71569 14.218 4.09202C14 4.51984 14 5.07989 14 6.2V8.8C14 9.9201 14 10.4802 14.218 10.908C14.4097 11.2843 14.7157 11.5903 15.092 11.782C15.5198 12 16.0799 12 17.2 12Z" stroke="#131316" stroke-width="2" stroke-linecap="round" stroke-linejoin="round"/>
<path d="M16.5 21H18.5C18.9647 21 19.197 21 19.3902 20.9616C20.1836 20.8038 20.8038 20.1836 20.9616 19.3902C21 19.197 21 18.9647 21 18.5C21 18.0353 21 17.803 20.9616 17.6098C20.8038 16.8164 20.1836 16.1962 19.3902 16.0384C19.197 16 18.9647 16 18.5 16H16.5C16.0353 16 15.803 16 15.6098 16.0384C14.8164 16.1962 14.1962 16.8164 14.0384 17.6098C14 17.803 14 18.0353 14 18.5C14 18.9647 14 19.197 14.0384 19.3902C14.1962 20.1836 14.8164 20.8038 15.6098 20.9616C15.803 21 16.0353 21 16.5 21Z" stroke="#131316" stroke-width="2" stroke-linecap="round" stroke-linejoin="round"/>
</svg>
