<svg width="24" height="24" viewBox="0 0 24 24" fill="none" xmlns="http://www.w3.org/2000/svg">
<path d="M22 21H2M11.8585 19.2129C10.946 20.1254 10.3839 20.6875 9.86184 21H7.06703C6.54498 20.6875 5.98289 20.1254 5.07032 19.2129M11.8585 19.2129L19.2125 11.859C20.4005 10.6709 20.9945 10.0769 21.2171 9.39189C21.4129 8.78936 21.4129 8.14032 21.2171 7.53779C20.9945 6.8528 20.4005 6.25878 19.2125 5.07073L18.9296 4.78789C17.7416 3.59983 17.1475 3.00581 16.4626 2.78324C15.86 2.58747 15.211 2.58747 14.6084 2.78324C13.9235 3.00581 13.3294 3.59983 12.1414 4.78789L4.78748 12.1418M11.8585 19.2129C10.9452 20.1262 10.383 20.6885 9.86063 21.0008H7.06835C6.54595 20.6885 5.98363 20.1262 5.07032 19.2129M11.8585 19.2129L15.5356 15.536L12 12.0004M4.78748 12.1418C3.59943 13.3298 3.0054 13.9239 2.78283 14.6089C2.58706 15.2114 2.58706 15.8604 2.78284 16.463C3.0054 17.1479 3.59943 17.742 4.78748 18.93M4.78748 12.1418L8.46447 8.46446L12 12.0004M4.78748 18.93L5.07032 19.2129M4.78748 18.93L4.92896 19.0715M5.07032 19.2129L4.92896 19.0715M12 12.0004L4.92896 19.0715" stroke="#131316" stroke-width="2" stroke-linecap="round" stroke-linejoin="round"/>
</svg>
