<svg width="24" height="24" viewBox="0 0 24 24" fill="none" xmlns="http://www.w3.org/2000/svg">
<path d="M13 21V20V21ZM11 21V22V21ZM3 13H4H3ZM3 11H2H3ZM11 3V4V3ZM13 3V2V3ZM21 11H20H21ZM21 13H22H21ZM18.27 3.54497L18.7239 2.65396L18.7239 2.65396L18.27 3.54497ZM20.455 5.73005L21.346 5.27606V5.27606L20.455 5.73005ZM3.54497 5.73005L4.43597 6.18404L4.43597 6.18404L3.54497 5.73005ZM5.73005 3.54497L5.27606 2.65396L5.27606 2.65396L5.73005 3.54497ZM5.73005 20.455L5.27606 21.346H5.27606L5.73005 20.455ZM3.54497 18.27L4.43597 17.816L4.43597 17.816L3.54497 18.27ZM18.27 20.455L17.816 19.564L18.27 20.455ZM20.455 18.27L19.564 17.816L20.455 18.27ZM15 9C15.5523 9 16 8.55228 16 8C16 7.44772 15.5523 7 15 7V9ZM10 20C10 20.5523 10.4477 21 11 21C11.5523 21 12 20.5523 12 20H10ZM9 12C8.44772 12 8 12.4477 8 13C8 13.5523 8.44772 14 9 14V12ZM15 14C15.5523 14 16 13.5523 16 13C16 12.4477 15.5523 12 15 12V14ZM13 20H11V22H13V20ZM4 13V11H2V13H4ZM11 4H13V2H11V4ZM20 11V13H22V11H20ZM13 4C14.4166 4 15.419 4.00078 16.2026 4.0648C16.9745 4.12787 17.4457 4.24729 17.816 4.43597L18.7239 2.65396C18.0247 2.29768 17.261 2.14462 16.3654 2.07144C15.4815 1.99922 14.3836 2 13 2V4ZM22 11C22 9.61637 22.0008 8.5185 21.9286 7.63458C21.8554 6.73898 21.7023 5.9753 21.346 5.27606L19.564 6.18404C19.7527 6.55435 19.8721 7.02552 19.9352 7.79744C19.9992 8.58103 20 9.58337 20 11H22ZM17.816 4.43597C18.5686 4.81947 19.1805 5.43139 19.564 6.18404L21.346 5.27606C20.7708 4.14708 19.8529 3.2292 18.7239 2.65396L17.816 4.43597ZM4 11C4 9.58337 4.00078 8.58103 4.0648 7.79744C4.12787 7.02552 4.24729 6.55435 4.43597 6.18404L2.65396 5.27606C2.29768 5.9753 2.14462 6.73898 2.07144 7.63458C1.99922 8.5185 2 9.61637 2 11H4ZM11 2C9.61637 2 8.51851 1.99922 7.63458 2.07144C6.73898 2.14462 5.97531 2.29768 5.27606 2.65396L6.18404 4.43597C6.55435 4.24729 7.02552 4.12787 7.79744 4.0648C8.58104 4.00078 9.58337 4 11 4V2ZM4.43597 6.18404C4.81947 5.43139 5.43139 4.81947 6.18404 4.43597L5.27606 2.65396C4.14709 3.2292 3.2292 4.14708 2.65396 5.27606L4.43597 6.18404ZM11 20C9.58337 20 8.58104 19.9992 7.79744 19.9352C7.02552 19.8721 6.55435 19.7527 6.18404 19.564L5.27606 21.346C5.9753 21.7023 6.73898 21.8554 7.63458 21.9286C8.51851 22.0008 9.61637 22 11 22V20ZM2 13C2 14.3836 1.99922 15.4815 2.07144 16.3654C2.14462 17.261 2.29768 18.0247 2.65396 18.7239L4.43597 17.816C4.24729 17.4457 4.12787 16.9745 4.0648 16.2026C4.00078 15.419 4 14.4166 4 13H2ZM6.18404 19.564C5.43139 19.1805 4.81947 18.5686 4.43597 17.816L2.65396 18.7239C3.2292 19.8529 4.14709 20.7708 5.27606 21.346L6.18404 19.564ZM13 22C14.3836 22 15.4815 22.0008 16.3654 21.9286C17.261 21.8554 18.0247 21.7023 18.7239 21.346L17.816 19.564C17.4457 19.7527 16.9745 19.8721 16.2026 19.9352C15.419 19.9992 14.4166 20 13 20V22ZM20 13C20 14.4166 19.9992 15.419 19.9352 16.2026C19.8721 16.9745 19.7527 17.4457 19.564 17.816L21.346 18.7239C21.7023 18.0247 21.8554 17.261 21.9286 16.3654C22.0008 15.4815 22 14.3836 22 13H20ZM18.7239 21.346C19.8529 20.7708 20.7708 19.8529 21.346 18.7239L19.564 17.816C19.1805 18.5686 18.5686 19.1805 17.816 19.564L18.7239 21.346ZM15 7H14V9H15V7ZM10 11V20H12V11H10ZM14 7C11.7909 7 10 8.79086 10 11H12C12 9.89543 12.8954 9 14 9V7ZM9 14H15V12H9V14Z" fill="#131316"/>
</svg>
