<svg width="24" height="24" viewBox="0 0 24 24" fill="none" xmlns="http://www.w3.org/2000/svg">
<path d="M9.52599 13.972L17.0551 14.976M3 21C3.50188 19.494 7.01516 14.4741 15.047 9.95632M19.0634 12.9681L15.8172 16.2141C14.7978 17.2335 14.2881 17.7431 13.6873 18.0811C13.1552 18.3805 12.5729 18.5803 11.969 18.6707C11.2872 18.7727 10.572 18.6833 9.14153 18.5045L5.00757 17.9878L5.00757 14.287C5.00757 13.0592 5.00757 12.4453 5.14627 11.8676C5.26924 11.3554 5.47207 10.8658 5.74731 10.4166C6.05775 9.91006 6.49185 9.47597 7.36006 8.60781L11.0315 4.93653C11.4646 4.50349 11.6811 4.28696 11.8823 4.12354C13.7265 2.62549 16.3684 2.62549 18.2126 4.12354C18.4138 4.28696 18.6303 4.50349 19.0634 4.93654C19.4964 5.36959 19.713 5.58611 19.8764 5.78729C21.3745 7.63141 21.3745 10.2732 19.8764 12.1173C19.713 12.3185 19.4964 12.535 19.0634 12.9681Z" stroke="#131316" stroke-width="2" stroke-linecap="round" stroke-linejoin="round"/>
</svg>
