<svg width="24" height="24" viewBox="0 0 24 24" fill="none" xmlns="http://www.w3.org/2000/svg">
<path d="M9.46353 6.02866C9.197 6 8.91932 6 8.36396 6C7.0962 6 6.46232 6 5.93692 6.11432C4.02435 6.53048 2.53048 8.02435 2.11432 9.93692C2 10.4623 2 11.0962 2 12.364V15.5C2 16.8945 2 17.5918 2.13815 18.1672C2.57707 19.9955 4.00453 21.4229 5.83277 21.8618C6.40821 22 7.10547 22 8.5 22C9.89453 22 10.5918 22 11.1672 21.8618C12.9955 21.4229 14.4229 19.9955 14.8618 18.1672C15 17.5918 15 16.8945 15 15.5M9.46353 6.02866C10.4165 6.13114 11.3199 6.50534 12.0662 7.10671C12.2749 7.27491 12.4713 7.47126 12.864 7.86396L13 8C13.5266 8.52655 13.7898 8.78983 14.0051 9.0779C14.5048 9.74646 14.8291 10.5295 14.9485 11.3555C15 11.7114 15 12.0838 15 12.8284V15.5M9.46353 6.02866C9.35107 6.01657 9.23662 6.00958 9.10016 6.00554C9.10467 5.98244 9.10939 5.95958 9.11432 5.93692C9.53048 4.02435 11.0244 2.53048 12.9369 2.11432C13.4623 2 14.0962 2 15.364 2C15.9193 2 16.197 2 16.4635 2.02866C17.4165 2.13114 18.3199 2.50534 19.0662 3.10671C19.2749 3.27491 19.4713 3.47126 19.864 3.86396L20 4C20.5266 4.52655 20.7898 4.78983 21.0051 5.0779C21.5048 5.74646 21.8291 6.52947 21.9485 7.35551C22 7.71144 22 8.08377 22 8.82843V11.5C22 12.8945 22 13.5918 21.8619 14.1672C21.4229 15.9955 19.9955 17.4229 18.1672 17.8618C17.5918 18 16.8945 18 15.5 18C15.283 18 15.083 18 14.8976 17.9995C15 17.4531 15 16.7621 15 15.5" stroke="#131316" stroke-width="2" stroke-linecap="round" stroke-linejoin="round"/>
</svg>
