<svg width="24" height="24" viewBox="0 0 24 24" fill="none" xmlns="http://www.w3.org/2000/svg">
<path d="M14 2.35469V4.7998C14 5.91991 14 6.47996 14.218 6.90778C14.4097 7.28411 14.7157 7.59007 15.092 7.78182C15.5198 7.9998 16.0799 7.9998 17.2 7.9998H20.4397M14 2.35469C13.7426 2.2522 13.4768 2.17116 13.2053 2.11256C12.6839 2 12.1325 2 11.0296 2C10.2538 2 9.58467 2 9 2.01135M14 2.35469C14.1812 2.42683 14.3582 2.50959 14.5301 2.60263C14.9993 2.85653 15.4152 3.213 16.2469 3.92595L18.2063 5.60543C19.2339 6.48619 19.7477 6.92657 20.1167 7.46196C20.2357 7.6346 20.3435 7.81426 20.4397 7.9998M20.4397 7.9998C20.6077 8.32413 20.7399 8.66646 20.8337 9.02079C21 9.64942 21 10.3261 21 11.6795V14C21 16.8003 21 18.2004 20.455 19.27C19.9757 20.2108 19.2108 20.9757 18.27 21.455C17.2004 22 15.8003 22 13 22H11C8.19974 22 6.79961 22 5.73005 21.455C4.78924 20.9757 4.02433 20.2108 3.54497 19.27C3 18.2004 3 16.8003 3 14V10C3 7.19974 3 5.79961 3.54497 4.73005C4.02433 3.78924 4.78924 3.02433 5.73005 2.54497C6.50535 2.14993 7.45954 2.04125 9 2.01135M3 11L6 8.75L9 11V2.01135" stroke="#131316" stroke-width="2" stroke-linecap="round" stroke-linejoin="round"/>
</svg>
