<svg width="24" height="24" viewBox="0 0 24 24" fill="none" xmlns="http://www.w3.org/2000/svg">
<path d="M8.20925 6C8.6596 6 8.88477 6 9.10252 6.01907C10.0178 6.09925 10.8933 6.43008 11.6329 6.97523C11.8088 7.10492 11.9777 7.25383 12.3155 7.55166L13.3867 8.49603C14.2893 9.29176 14.7405 9.68962 15.0757 10.1612C15.4509 10.6892 15.72 11.2851 15.8679 11.9158C16 12.479 16 13.0807 16 14.2839V15M8.20925 6C7.08555 6 6.5237 6 6.05596 6.08993C4.04712 6.47616 2.47616 8.04712 2.08993 10.056C2 10.5237 2 11.0855 2 12.2092V15C2 16.8613 2 17.7919 2.24472 18.5451C2.73931 20.0673 3.93273 21.2607 5.45492 21.7553C6.20808 22 7.13872 22 9 22C10.8613 22 11.7919 22 12.5451 21.7553C14.0673 21.2607 15.2607 20.0673 15.7553 18.5451C16 17.7919 16 16.8613 16 15M8.20925 6C8.17258 6 8.13651 6 8.10102 6C8.50543 4.01799 10.0658 2.47257 12.056 2.08993C12.5237 2 13.0855 2 14.2092 2C14.6596 2 14.8848 2 15.1025 2.01907C16.0178 2.09925 16.8933 2.43008 17.6329 2.97523C17.8088 3.10492 17.9777 3.25383 18.3155 3.55166L19.3867 4.49603C20.2893 5.29176 20.7405 5.68962 21.0757 6.16119C21.4509 6.68922 21.72 7.28514 21.8679 7.9158C22 8.47904 22 9.08066 22 10.2839V11C22 12.8613 22 13.7919 21.7553 14.5451C21.2607 16.0673 20.0673 17.2607 18.5451 17.7553C17.9222 17.9577 17.178 17.9927 15.8865 17.9987C16 17.3239 16 16.4408 16 15M10 7.7978V6.1853C10.5857 6.34743 11.1395 6.6157 11.6329 6.97934C11.8088 7.10903 11.9777 7.25794 12.3155 7.55577L13.3867 8.50015C14.2893 9.29587 14.7405 9.69373 15.0757 10.1653C15.2619 10.4274 15.4221 10.7063 15.5542 10.9978H13.2C12.0799 10.9978 11.5198 10.9978 11.092 10.7798C10.7157 10.5881 10.4097 10.2821 10.218 9.90578C10 9.47795 10 8.9179 10 7.7978Z" stroke="#131316" stroke-width="2" stroke-linecap="round" stroke-linejoin="round"/>
</svg>
