<svg width="24" height="24" viewBox="0 0 24 24" fill="none" xmlns="http://www.w3.org/2000/svg">
<path d="M12.714 11.7902L10.6517 13.8526C10.1635 14.3408 10.1635 15.1322 10.6517 15.6204C11.1398 16.1086 11.9313 16.1086 12.4194 15.6204L14.4818 13.558C15.4581 12.5817 15.4581 10.9988 14.4818 10.0225C13.5055 9.04616 11.9226 9.04616 10.9463 10.0225L8 12.9688M11.7782 2C12.9105 2 13.4766 2 14.0113 2.11855C14.5806 2.24479 15.1235 2.46965 15.6153 2.78296C16.0772 3.07721 16.4775 3.47753 17.2782 4.27818L17.6569 4.65685C18.5216 5.52161 18.954 5.95399 19.2632 6.45858C19.5373 6.90594 19.7394 7.39366 19.8618 7.90384C20 8.47928 20 9.09076 20 10.3137V14C20 16.8003 20 18.2004 19.455 19.27C18.9757 20.2108 18.2108 20.9757 17.27 21.455C16.2004 22 14.8003 22 12 22C9.19974 22 7.79961 22 6.73005 21.455C5.78924 20.9757 5.02433 20.2108 4.54497 19.27C4 18.2004 4 16.8003 4 14V9.77817C4 7.18697 4 5.89136 4.46859 4.88663C4.96536 3.82147 5.82147 2.96536 6.88663 2.46859C7.89136 2 9.18697 2 11.7782 2Z" stroke="#131316" stroke-width="2" stroke-linecap="round" stroke-linejoin="round"/>
</svg>
