<svg width="24" height="24" viewBox="0 0 24 24" fill="none" xmlns="http://www.w3.org/2000/svg">
<path d="M9 8V4V3.00111M9 16V20V20.9989M15 8V4V3.00111M12 8V16M15 16V20V20.9989M9 3.00111C9.31227 3 9.64488 3 10 3L14 3C14.3551 3 14.6877 3 15 3.00111M9 3.00111C6.84993 3.00876 5.66397 3.06911 4.73005 3.54497C3.78924 4.02433 3.02433 4.78924 2.54497 5.73005C2.24243 6.32382 2.10784 7.01947 2.04797 8M15 3.00111C17.1501 3.00876 18.336 3.06911 19.27 3.54497C20.2108 4.02433 20.9757 4.78924 21.455 5.73005C21.7576 6.32382 21.8922 7.01947 21.952 8M15 20.9989C14.6877 21 14.3551 21 14 21H10C9.64488 21 9.31227 21 9 20.9989M15 20.9989C17.1501 20.9912 18.336 20.9309 19.27 20.455C20.2108 19.9757 20.9757 19.2108 21.455 18.27C21.7576 17.6762 21.8922 16.9805 21.952 16M9 20.9989C6.84993 20.9912 5.66397 20.9309 4.73005 20.455C3.78924 19.9757 3.02433 19.2108 2.54497 18.27C2.24243 17.6762 2.10784 16.9805 2.04797 16M21.952 16C22 15.2143 22 14.2457 22 13V11C22 9.75432 22 8.7857 21.952 8M21.952 16H21H3H2.04797M21.952 8H21H3H2.04797M2.04797 8C2 8.7857 2 9.75432 2 11L2 13C2 14.2457 2 15.2143 2.04797 16" stroke="#131316" stroke-width="2" stroke-linecap="round" stroke-linejoin="round"/>
</svg>
