<svg width="24" height="24" viewBox="0 0 24 24" fill="none" xmlns="http://www.w3.org/2000/svg">
<path d="M9.99999 22.0001C13 16.976 13 10.0386 13 10.0386M3 18.077C5 14.0578 5 9.82028 5 9.82028C5 5.01444 8.82355 2 12.8 2C13.8782 2 14.9746 2.22163 16 2.6405M20 18.077C20 18.077 21 14.6261 21 9.82028C21 7.797 20.2514 6.09124 19.0878 4.79425M15 20.0867C17 15.565 17 10.0385 17 10.0385C17 7.81877 15.2091 6.01929 13 6.01929C10.7908 6.01929 8.99998 7.81877 8.99998 10.0385C8.99998 10.0385 8.99998 11.2323 8.73567 13M5.99998 21.0915C6.79825 19.7546 7.38411 18.3466 7.81408 17" stroke="#131316" stroke-width="2" stroke-linecap="round" stroke-linejoin="round"/>
</svg>
