<svg width="24" height="24" viewBox="0 0 24 24" fill="none" xmlns="http://www.w3.org/2000/svg">
<path d="M10 9L12 11L14 9M22 15H2M14 21H10C7.19974 21 5.79961 21 4.73005 20.455C3.78924 19.9757 3.02433 19.2108 2.54497 18.27C2 17.2004 2 15.8003 2 13L2 11C2 8.19974 2 6.79961 2.54497 5.73005C3.02433 4.78924 3.78924 4.02433 4.73005 3.54497C5.79961 3 7.19974 3 10 3L14 3C16.8003 3 18.2004 3 19.27 3.54497C20.2108 4.02433 20.9757 4.78924 21.455 5.73005C22 6.79961 22 8.19974 22 11V13C22 15.8003 22 17.2004 21.455 18.27C20.9757 19.2108 20.2108 19.9757 19.27 20.455C18.2004 21 16.8003 21 14 21Z" stroke="#131316" stroke-width="2" stroke-linecap="round" stroke-linejoin="round"/>
</svg>
