<svg width="24" height="24" viewBox="0 0 24 24" fill="none" xmlns="http://www.w3.org/2000/svg">
<path d="M10.8 18H13.2C14.8802 18 15.7202 18 16.362 17.673C16.9265 17.3854 17.3854 16.9265 17.673 16.362C18 15.7202 18 14.8802 18 13.2V10.8M10.8 18C9.11984 18 8.27976 18 7.63803 17.673C7.07354 17.3854 6.6146 16.9265 6.32698 16.362C6 15.7202 6 14.8802 6 13.2M10.8 18H10.9995C10.9963 19.073 10.971 19.6668 10.7716 20.1481C10.4672 20.8831 9.88313 21.4672 9.14805 21.7716C8.59674 22 7.89782 22 6.5 22C5.10218 22 4.40326 22 3.85195 21.7716C3.11687 21.4672 2.53284 20.8831 2.22836 20.1481C2 19.5967 2 18.8978 2 17.5C2 16.1022 2 15.4033 2.22836 14.8519C2.53284 14.1169 3.11687 13.5328 3.85195 13.2284C4.33323 13.029 4.92699 13.0037 6 13.0005V13.2M6 13.2V10.8C6 9.11984 6 8.27976 6.32698 7.63803C6.6146 7.07354 7.07354 6.6146 7.63803 6.32698C8.27976 6 9.11984 6 10.8 6H13.2M13.2 6C14.8802 6 15.7202 6 16.362 6.32698C16.9265 6.6146 17.3854 7.07354 17.673 7.63803C18 8.27976 18 9.11984 18 10.8M13.2 6H13.0005C13.0037 4.92699 13.029 4.33323 13.2284 3.85195C13.5328 3.11687 14.1169 2.53284 14.852 2.22836C15.4033 2 16.1022 2 17.5 2C18.8978 2 19.5967 2 20.1481 2.22836C20.8831 2.53284 21.4672 3.11687 21.7716 3.85195C22 4.40326 22 5.10217 22 6.5C22 7.89782 22 8.59674 21.7716 9.14805C21.4672 9.88313 20.8831 10.4672 20.1481 10.7716C19.6668 10.971 19.073 10.9963 18 10.9995V10.8" stroke="#131316" stroke-width="2" stroke-linecap="round" stroke-linejoin="round"/>
</svg>
