<svg width="24" height="24" viewBox="0 0 24 24" fill="none" xmlns="http://www.w3.org/2000/svg">
<path d="M8 8V12M6 10L10 10M18 9V9.00995M15 12V12.0099M2 16.2918L2 12C2 9.19974 2 7.79961 2.54497 6.73005C3.02433 5.78924 3.78924 5.02433 4.73005 4.54497C5.79961 4 7.19974 4 10 4L14 4C16.8003 4 18.2004 4 19.27 4.54497C20.2108 5.02433 20.9757 5.78924 21.455 6.73005C22 7.79961 22 9.19974 22 12V16.2918C22 18.3398 20.305 20 18.257 20C16.8866 20 15.6129 19.2257 15 18L14.8944 17.7889C14.3463 16.6925 13.2257 16 12 16C10.7743 16 9.65374 16.6925 9.10557 17.7889L9 18C8.38713 19.2257 7.11338 20 5.74297 20C3.69498 20 2 18.3398 2 16.2918Z" stroke="#131316" stroke-width="2" stroke-linecap="round" stroke-linejoin="round"/>
</svg>
