<svg width="24" height="24" viewBox="0 0 24 24" fill="none" xmlns="http://www.w3.org/2000/svg">
<path d="M9 17V22M9 17C6.23858 17 4 14.7614 4 12C4 9.58102 5.71776 7.56327 8 7.1M9 17C10.1256 17 11.1643 16.628 12 16.0003M7 20H11M20.4304 5.65644L19.6516 2.74866M19.6516 2.74866L16.7437 3.52773M19.6516 2.74866L17.2762 6.99989M12 16.0003C13.2144 15.0881 14 13.6358 14 12C14 10.3644 13.2147 8.91221 12.0005 7.99998M12 16.0003C10.7856 15.0881 10 13.6358 10 12C10 10.3641 10.786 8.91218 12.0005 7.99998M16 16.9C18.2822 16.4367 20 14.4189 20 12C20 9.23856 17.7614 6.99998 15 6.99998C13.8745 6.99998 12.8361 7.37235 12.0005 7.99998" stroke="#131316" stroke-width="2" stroke-linecap="round" stroke-linejoin="round"/>
</svg>
