<svg width="24" height="24" viewBox="0 0 24 24" fill="none" xmlns="http://www.w3.org/2000/svg">
<path d="M4 11V13C4 15.8003 4 17.2004 4.54497 18.2699C5.02433 19.2108 5.78924 19.9757 6.73005 20.455C7.79961 21 9.19974 21 12 21C14.8003 21 16.2004 21 17.2699 20.455C18.2108 19.9757 18.9757 19.2108 19.455 18.27C20 17.2004 20 15.8003 20 13L20 11M4 11H20M4 11C2.89543 11 2 10.1046 2 9C2 7.89543 2.89543 7 4 7H20C21.1046 7 22 7.89543 22 9C22 10.1046 21.1046 11 20 11M15.8638 6.99897H11.5996C11.5996 6.99897 12.7102 3.00103 15.8638 3.00103C16.4116 2.98378 16.9438 3.18459 17.3436 3.55938C17.7434 3.93416 17.9782 4.45229 17.9963 5C17.9782 5.54771 17.7434 6.06584 17.3436 6.44062C16.9438 6.81541 16.4116 7.01622 15.8638 6.99897ZM8.13227 6.99897H12.3965C12.3965 6.99897 11.2859 3.00103 8.13227 3.00103C7.58453 2.98378 7.05233 3.18459 6.6525 3.55938C6.25268 3.93416 6.01793 4.45229 5.99977 5C6.01793 5.54771 6.25268 6.06584 6.6525 6.44062C7.05233 6.81541 7.58453 7.01622 8.13227 6.99897Z" stroke="#131316" stroke-width="2" stroke-linecap="round" stroke-linejoin="round"/>
</svg>
