<svg width="24" height="24" viewBox="0 0 24 24" fill="none" xmlns="http://www.w3.org/2000/svg">
<path d="M13 5H14.8C15.9201 5 16.4802 5 16.908 5.21799C17.2843 5.40973 17.5903 5.71569 17.782 6.09202C18 6.51984 18 7.0799 18 8.2V16M13 5L15 3M13 5L15 7M18 16C16.3431 16 15 17.3431 15 19C15 20.6569 16.3431 22 18 22C19.6569 22 21 20.6569 21 19C21 17.3431 19.6569 16 18 16ZM6 22L6 8M6 8C7.65686 8 9 6.65685 9 5C9 3.34315 7.65685 2 6 2C4.34315 2 3 3.34315 3 5C3 6.65685 4.34315 8 6 8Z" stroke="#131316" stroke-width="2" stroke-linecap="round" stroke-linejoin="round"/>
</svg>
