<svg width="24" height="24" viewBox="0 0 24 24" fill="none" xmlns="http://www.w3.org/2000/svg">
<path d="M21 12C21 16.9706 16.9706 21 12 21M21 12C21 7.02944 16.9706 3 12 3M21 12C21 12.6138 20.9386 13.2132 20.8215 13.7925C18.8159 14.5254 15.6112 15 12 15C8.38881 15 5.18405 14.5254 3.17851 13.7925C3.06144 13.2132 3 12.6138 3 12M21 12C21 11.3862 20.9386 10.7868 20.8215 10.2075C18.8159 9.47459 15.6112 9 12 9C8.38881 9 5.18405 9.47458 3.17851 10.2075C3.06144 10.7868 3 11.3862 3 12M12 21C7.02944 21 3 16.9706 3 12M12 21C11.3862 21 10.7868 20.9386 10.2075 20.8215C9.47458 18.8159 9 15.6112 9 12C9 8.38881 9.47458 5.18405 10.2075 3.17851C10.7868 3.06144 11.3862 3 12 3M12 21C12.6138 21 13.2132 20.9386 13.7925 20.8215C14.5254 18.8159 15 15.6112 15 12C15 8.38881 14.5254 5.18405 13.7925 3.17851C13.2132 3.06144 12.6138 3 12 3M3 12C3 7.02944 7.02944 3 12 3" stroke="#131316" stroke-width="2" stroke-linecap="round" stroke-linejoin="round"/>
</svg>
