<svg width="24" height="24" viewBox="0 0 24 24" fill="none" xmlns="http://www.w3.org/2000/svg">
<path d="M22 9.38333V14.5527M13.6545 15.1166L18.3466 12.2522C19.8772 11.3178 20.6426 10.8506 20.902 10.2426C21.1283 9.71216 21.1295 9.10742 20.9051 8.57602C20.648 7.96701 19.8845 7.49667 18.3574 6.55598L13.6654 3.66568C13.0733 3.30098 12.7773 3.11863 12.4616 3.04733C12.1824 2.98425 11.8934 2.98422 11.6141 3.04725C11.2985 3.11849 11.0024 3.30079 10.4103 3.66538L5.71634 6.55568C4.18855 7.49641 3.42465 7.96678 3.16748 8.57588C2.94308 9.10736 2.94423 9.71222 3.17065 10.2428C3.43014 10.8508 4.19582 11.3181 5.72717 12.2525L10.4211 15.1169M13.6545 15.1166C13.0662 15.4758 12.772 15.6554 12.4586 15.7256C12.1813 15.7878 11.8945 15.7878 11.6172 15.7257C11.3038 15.6555 11.0096 15.476 10.4211 15.1169M13.6545 15.1166L17.5198 12.757L17.8534 13.9684C18.2632 15.4567 18.4681 16.2008 18.3666 16.8752C18.2771 17.4695 18.0231 18.0239 17.6354 18.471C17.1953 18.9785 16.5098 19.2833 15.1386 19.8931L13.9197 20.4351C13.2251 20.7439 12.8778 20.8984 12.5177 20.9594C12.1985 21.0135 11.8729 21.0135 11.5537 20.9594C11.1935 20.8984 10.8462 20.7439 10.1516 20.435L8.93276 19.8931C7.5616 19.2833 6.87602 18.9785 6.43599 18.471C6.0483 18.0239 5.79425 17.4695 5.70479 16.8752C5.60325 16.2008 5.80816 15.4567 6.21798 13.9684L6.55189 12.7558L10.4211 15.1169" stroke="#131316" stroke-width="2" stroke-linecap="round" stroke-linejoin="round"/>
</svg>
