<svg width="24" height="24" viewBox="0 0 24 24" fill="none" xmlns="http://www.w3.org/2000/svg">
<path d="M13.6118 14.1321L18.285 11.264C19.8095 10.3284 20.5717 9.86062 20.8301 9.2519C21.0555 8.72074 21.0567 8.11523 20.8333 7.58314C20.5772 6.97336 19.8167 6.50241 18.2958 5.56052L13.6226 2.66653C13.0329 2.30136 12.738 2.11878 12.4237 2.04739C12.1456 1.98423 11.8577 1.9842 11.5796 2.04731C11.2652 2.11864 10.9703 2.30118 10.3806 2.66623L5.70544 5.56022C4.18378 6.50215 3.42295 6.97312 3.1668 7.583C2.9433 8.11516 2.94445 8.72079 3.16996 9.25203C3.42841 9.86085 4.19102 10.3287 5.71622 11.2643L10.3913 14.1324M13.6118 14.1321C13.0257 14.4917 12.7327 14.6715 12.4206 14.7419C12.1445 14.8041 11.8588 14.8041 11.5826 14.742C11.2705 14.6717 10.9774 14.4919 10.3913 14.1324M13.6118 14.1321L17.954 11.4672V16.19C17.954 17.3048 17.954 17.8622 17.7913 18.3543C17.6474 18.7894 17.4125 19.1858 17.1037 19.5147C16.7546 19.8866 16.2766 20.1358 15.3207 20.6344L14.1298 21.2555C13.3487 21.6629 12.9581 21.8666 12.5484 21.9467C12.1856 22.0178 11.8132 22.0178 11.4504 21.9467C11.0407 21.8666 10.6502 21.6629 9.86903 21.2555L8.67811 20.6344C7.72221 20.1358 7.24427 19.8866 6.89508 19.5147C6.58628 19.1858 6.35144 18.7894 6.20754 18.3543C6.04482 17.8622 6.04482 17.3048 6.04482 16.19V11.4659L10.3913 14.1324" stroke="#131316" stroke-width="2" stroke-linecap="round" stroke-linejoin="round"/>
</svg>
