<svg width="24" height="24" viewBox="0 0 24 24" fill="none" xmlns="http://www.w3.org/2000/svg">
<path d="M7.5 15.8947V11.25C7.5 10.2835 6.7165 9.5 5.75 9.5C4.7835 9.5 4 10.2835 4 11.25L4 15.75C4 16.9116 4 17.4925 4.09607 17.9755C4.49061 19.9589 6.0411 21.5094 8.02455 21.9039C8.50754 22 9.08836 22 10.25 22H13C14.8613 22 15.7919 22 16.5451 21.7553C18.0673 21.2607 19.2607 20.0673 19.7553 18.5451C20 17.7919 20 16.8613 20 15V9.75C20 8.7835 19.2165 8 18.25 8C17.2835 8 16.5 8.7835 16.5 9.75V12V6.5C16.5 5.67157 15.8284 5 15 5C14.1716 5 13.5 5.67157 13.5 6.5V12M7.5 12V5.5C7.5 4.67157 8.17157 4 9 4C9.82843 4 10.5 4.67157 10.5 5.5V12M10.5 11V3.5C10.5 2.67157 11.1716 2 12 2C12.8284 2 13.5 2.67157 13.5 3.5V11" stroke="#131316" stroke-width="2" stroke-linecap="round" stroke-linejoin="round"/>
</svg>
