<svg width="24" height="24" viewBox="0 0 24 24" fill="none" xmlns="http://www.w3.org/2000/svg">
<path d="M16.5238 17.0441C16.5238 16.1522 16.1827 15.2969 15.5754 14.6663C14.9681 14.0356 14.1445 13.6814 13.2857 13.6814H12.5587C12.2713 13.6814 12.1277 13.6814 11.9928 13.6629C11.7337 13.6275 11.8886 13.6632 11.6402 13.5817C11.5109 13.5392 10.8648 13.2248 9.57259 12.5959C9.43784 12.5303 9.29867 12.4718 9.15608 12.4196C8.4722 12.1695 8.13026 12.0444 7.55234 12.1771C7.1407 12.2716 6.5534 12.6821 6.3232 13.0362C6 13.5334 6 14.0889 6 15.2V16.2285C6 16.835 6 17.1382 6.08156 17.4149C6.15378 17.66 6.27229 17.889 6.43068 18.0895C6.60955 18.3159 6.8571 18.491 7.35219 18.8411L10.1783 20.8399C10.5971 21.1362 10.8065 21.2843 11.0392 21.3739C11.2441 21.4528 11.4649 21.498 11.6843 21.5061C11.9334 21.5153 12.1813 21.4621 12.6771 21.3558C14.5088 20.963 17.8324 20.2362 20.3901 19.5979C21.6332 19.2877 22.0667 17.8078 21.2276 16.8396C20.7821 16.3256 20.0833 16.1094 19.4255 16.2822L16.5238 17.0441ZM16.5238 17.0441H11.6667M17.5 3.03846H18.3333C19.0031 3.03846 19.5806 3.42138 19.8455 3.97367M17.5 3.03846H16.7857C15.7995 3.03846 15 3.81335 15 4.76923C15 5.72511 15.7995 6.5 16.7857 6.5H18.2143C19.2005 6.5 20 7.27489 20 8.23077C20 9.18665 19.2005 9.96154 18.2143 9.96154H17.5M17.5 3.03846V2M17.5 9.96154H16.6667C15.9682 9.96154 15.3702 9.54516 15.1222 8.95455M17.5 9.96154V11M2 12V18C2 19.1046 2.89543 20 4 20C5.10457 20 6 19.1046 6 18V12C6 10.8954 5.10457 10 4 10C2.89543 10 2 10.8954 2 12Z" stroke="#131316" stroke-width="2" stroke-linecap="round" stroke-linejoin="round"/>
</svg>
