<svg width="24" height="24" viewBox="0 0 24 24" fill="none" xmlns="http://www.w3.org/2000/svg">
<path d="M6 14.8947V11.5C6 10.3954 5.10457 9.5 4 9.5C2.89543 9.5 2 10.3954 2 11.5L2 15.25C2 15.9466 2 16.2949 2.03466 16.5877C2.30638 18.8835 4.11654 20.6936 6.41231 20.9653C6.70513 21 7.05342 21 7.75 21H15C16.8613 21 17.7919 21 18.5451 20.7553C20.0673 20.2607 21.2607 19.0673 21.7553 17.5451C22 16.7919 22 15.8613 22 14V9C22 7.89543 21.1046 7 20 7C18.8954 7 18 7.89543 18 9V12.8947M6 13V6C6 4.89543 6.89543 4 8 4C9.10457 4 10 4.89543 10 6V13M10 12V5C10 3.89543 10.8954 3 12 3C13.1046 3 14 3.89543 14 5V12M14 13V6C14 4.89543 14.8954 4 16 4C17.1046 4 18 4.89543 18 6V13" stroke="#131316" stroke-width="2" stroke-linecap="round" stroke-linejoin="round"/>
</svg>
