<svg width="24" height="24" viewBox="0 0 24 24" fill="none" xmlns="http://www.w3.org/2000/svg">
<path d="M20 12H4M7 16.5V16.5099M11 16.5V16.5099M3 12L3 13C3 15.8003 3 17.2004 3.54497 18.27C4.02433 19.2108 4.78924 19.9757 5.73005 20.455C6.79961 21 8.19974 21 11 21H13C15.8003 21 17.2004 21 18.27 20.455C19.2108 19.9757 19.9757 19.2108 20.455 18.27C21 17.2004 21 15.8003 21 13V12M3 12H21M3 12L4.17661 8.47018C4.83229 6.50313 5.16013 5.5196 5.76822 4.79245C6.3052 4.15034 6.99479 3.65331 7.77377 3.34694C8.65589 3 9.69875 3 11.7844 3C13.6773 3 14.6238 3 15.4452 3.29593C16.1714 3.55751 16.8271 3.98364 17.361 4.54094C17.9651 5.17142 18.3472 6.03124 19.1115 7.75089L21 12" stroke="#131316" stroke-width="2" stroke-linecap="round" stroke-linejoin="round"/>
</svg>
