<svg width="24" height="24" viewBox="0 0 24 24" fill="none" xmlns="http://www.w3.org/2000/svg">
<path d="M5.5 11V9.5C5.5 8.10547 5.5 7.40821 5.63815 6.83277C6.07707 5.00453 7.50453 3.57707 9.33277 3.13815C9.90821 3 10.6055 3 12 3C13.3945 3 14.0918 3 14.6672 3.13815C16.4955 3.57707 17.9229 5.00453 18.3618 6.83277C18.5 7.40821 18.5 8.10547 18.5 9.5V11M5.5 11C6.88071 11 8 12.1193 8 13.5V14.5C8 15.8807 6.88071 17 5.5 17C4.11929 17 3 15.8807 3 14.5L3 13.5C3 12.1193 4.11929 11 5.5 11ZM18.5 11C19.8807 11 21 12.1193 21 13.5V14.5C21 15.8807 19.8807 17 18.5 17M18.5 11C17.1193 11 16 12.1193 16 13.5V14.5C16 15.8807 17.1193 17 18.5 17M14.5 21C16.7091 21 18.5 19.2091 18.5 17" stroke="#131316" stroke-width="2" stroke-linecap="round" stroke-linejoin="round"/>
</svg>
