<svg width="24" height="24" viewBox="0 0 24 24" fill="none" xmlns="http://www.w3.org/2000/svg">
<path d="M2 18L2 11C2 8.19974 2 6.79961 2.54497 5.73005C3.02433 4.78924 3.78924 4.02433 4.73005 3.54497C5.79961 3 7.19974 3 10 3L14 3C16.8003 3 18.2004 3 19.27 3.54497C20.2108 4.02433 20.9757 4.78924 21.455 5.73005C22 6.79961 22 8.19974 22 11V18M6 19V16C6 14.8954 6.89543 14 8 14C9.10457 14 10 14.8954 10 16V19C10 20.1046 9.10457 21 8 21C6.89543 21 6 20.1046 6 19ZM14 19V16C14 14.8954 14.8954 14 16 14C17.1046 14 18 14.8954 18 16V19C18 20.1046 17.1046 21 16 21C14.8954 21 14 20.1046 14 19Z" stroke="#131316" stroke-width="2" stroke-linecap="round" stroke-linejoin="round"/>
</svg>
