<svg width="24" height="24" viewBox="0 0 24 24" fill="none" xmlns="http://www.w3.org/2000/svg">
<path d="M2.99997 3L21 21M14.0988 19.7558C13.8469 19.9212 13.61 20.0711 13.3926 20.2049C12.9734 20.4629 12.7637 20.5919 12.4378 20.6651C12.1946 20.7196 11.8054 20.7196 11.5622 20.6651C11.2363 20.5919 11.0266 20.4629 10.6074 20.2049C7.85875 18.5133 2 14.2477 2 8.62126C2 8.31683 2.0239 8.01809 2.06991 7.72685M4.16701 4.1671C5.10592 3.43514 6.28277 3 7.56 3C9.38 3 10.99 3.88492 12 5.25253C13.01 3.88492 14.63 3 16.44 3C19.51 3 22 5.51398 22 8.62126C22 12.1492 19.6966 15.1421 17.3007 17.3009L4.16701 4.1671Z" stroke="#131316" stroke-width="2" stroke-linecap="round" stroke-linejoin="round"/>
</svg>
