<svg width="24" height="24" viewBox="0 0 24 24" fill="none" xmlns="http://www.w3.org/2000/svg">
<path d="M12 12L17.087 9.09315C17.476 8.87083 17.6706 8.75967 17.8365 8.63124C18.4549 8.15246 18.8619 7.45109 18.9708 6.67659C19 6.46883 19 6.24479 19 5.79669C19 5.05623 19 4.686 18.935 4.37881C18.6892 3.21779 17.7822 2.31075 16.6212 2.06502C16.314 2 15.9438 2 15.2033 2L8.79669 2C8.05623 2 7.686 2 7.37881 2.06502C6.21779 2.31075 5.31075 3.21779 5.06502 4.37881C5 4.686 5 5.05623 5 5.79669C5 6.24479 5 6.46883 5.0292 6.67659C5.13806 7.45109 5.54508 8.15246 6.16353 8.63124C6.32942 8.75967 6.52395 8.87083 6.91301 9.09315L12 12ZM12 12L17.087 14.9069C17.476 15.1292 17.6706 15.2403 17.8365 15.3688C18.4549 15.8475 18.8619 16.5489 18.9708 17.3234C19 17.5312 19 17.7552 19 18.2033C19 18.9438 19 19.314 18.935 19.6212C18.6892 20.7822 17.7822 21.6893 16.6212 21.935C16.314 22 15.9438 22 15.2033 22H8.79669C8.05623 22 7.686 22 7.37881 21.935C6.21779 21.6893 5.31075 20.7822 5.06502 19.6212C5 19.314 5 18.9438 5 18.2033C5 17.7552 5 17.5312 5.0292 17.3234C5.13806 16.5489 5.54508 15.8475 6.16353 15.3688C6.32942 15.2403 6.52395 15.1292 6.91301 14.9069L12 12Z" stroke="#131316" stroke-width="2" stroke-linecap="round" stroke-linejoin="round"/>
</svg>
