<svg width="24" height="24" viewBox="0 0 24 24" fill="none" xmlns="http://www.w3.org/2000/svg">
<path d="M16 5L21 5M12 3H11C8.19974 3 6.79961 3 5.73005 3.54497C4.78924 4.02433 4.02433 4.78924 3.54497 5.73005C3 6.79961 3 8.19974 3 11V13C3 15.8003 3 17.2004 3.54497 18.27C4.02433 19.2108 4.78924 19.9757 5.73005 20.455C6.79961 21 8.19974 21 11 21M11 21H13C15.8003 21 17.2004 21 18.27 20.455C19.2108 19.9757 19.9757 19.2108 20.455 18.27M11 21C9.3177 21 8.14073 21 7.23718 20.8818C7.25282 20.6231 7.32028 20.3604 7.44734 20.1063L9.21127 16.5784C9.94832 15.1043 12.0519 15.1043 12.789 16.5784L13 17.0005L15.2112 12.578C15.9483 11.1039 18.0519 11.1039 18.789 12.578L20.8817 16.7635C20.8032 17.3636 20.6725 17.8431 20.455 18.27M20.455 18.27C21 17.2004 21 15.8003 21 13V11C21 10.2278 21 9.5621 20.9886 8.98043M8 8V8.00995" stroke="#131316" stroke-width="2" stroke-linecap="round" stroke-linejoin="round"/>
</svg>
