<svg width="24" height="24" viewBox="0 0 24 24" fill="none" xmlns="http://www.w3.org/2000/svg">
<path d="M8 8V8.00995M12 22C9.19974 22 7.79961 22 6.73005 21.455C5.78924 20.9757 5.02433 20.2108 4.54497 19.27C4 18.2004 4 16.8003 4 14L4 10C4 7.19974 4 5.7996 4.54497 4.73005C5.02433 3.78924 5.78924 3.02433 6.73005 2.54497C7.79961 2 9.19974 2 12 2C14.8003 2 16.2004 2 17.27 2.54497C18.2108 3.02433 18.9757 3.78924 19.455 4.73005C20 5.7996 20 7.19974 20 10V14C20 16.8003 20 18.2004 19.455 19.27M12 22C14.8003 22 16.2004 22 17.27 21.455C18.2108 20.9757 18.9757 20.2108 19.455 19.27M12 22C9.71705 22 8.36473 21.9998 7.36343 21.7045C7.1765 21.2115 7.18052 20.64 7.44735 20.1063L9.21128 16.5785C9.94833 15.1044 12.0519 15.1044 12.789 16.5785L13 17.0005L15.2113 12.578C15.9483 11.1039 18.0519 11.1039 18.789 12.578L19.9989 14.9979C19.9913 17.1492 19.931 18.3358 19.455 19.27" stroke="#131316" stroke-width="2" stroke-linecap="round" stroke-linejoin="round"/>
</svg>
