<svg width="24" height="24" viewBox="0 0 24 24" fill="none" xmlns="http://www.w3.org/2000/svg">
<path d="M17.5 2V7M15 4.5L20 4.5M11 2.00111C8.84993 2.00876 7.66397 2.06911 6.73005 2.54497C5.78924 3.02433 5.02433 3.78924 4.54497 4.73005C4 5.7996 4 7.19974 4 10V14C4 16.8003 4 18.2004 4.54497 19.27C5.02433 20.2108 5.78924 20.9757 6.73005 21.455C7.79961 22 9.19974 22 12 22M20 11V14C20 16.8003 20 18.2004 19.455 19.27M19.455 19.27C18.9757 20.2108 18.2108 20.9757 17.27 21.455C16.2004 22 14.8003 22 12 22M19.455 19.27C19.931 18.3358 19.9913 17.1494 19.9989 14.9981L18.789 12.5782C18.0519 11.1041 15.9483 11.1041 15.2112 12.5782L13 17.0007L12.789 16.5787C12.0519 15.1046 9.94832 15.1046 9.21127 16.5787L7.44734 20.1065C7.18051 20.6402 7.17649 21.2117 7.36342 21.7047C8.36472 22 9.71705 22 12 22M8 8V8.00995" stroke="#131316" stroke-width="2" stroke-linecap="round" stroke-linejoin="round"/>
</svg>
