<svg width="24" height="24" viewBox="0 0 24 24" fill="none" xmlns="http://www.w3.org/2000/svg">
<path d="M13 21V20V21ZM11 21V22V21ZM3 13H2H3ZM3 11H4H3ZM11 3V2V3ZM13 3V4V3ZM21 11H20H21ZM21 13H22H21ZM18.27 3.54497L18.7239 2.65396L18.7239 2.65396L18.27 3.54497ZM20.455 5.73005L21.346 5.27606V5.27606L20.455 5.73005ZM3.54497 5.73005L4.43597 6.18404L4.43597 6.18404L3.54497 5.73005ZM5.73005 3.54497L5.27606 2.65396L5.27606 2.65396L5.73005 3.54497ZM5.73005 20.455L5.27606 21.346H5.27606L5.73005 20.455ZM3.54497 18.27L4.43597 17.816L4.43597 17.816L3.54497 18.27ZM18.27 20.455L17.816 19.564L18.27 20.455ZM20.455 18.27L19.564 17.816L20.455 18.27ZM13.5 9L14.3638 8.49613C14.1846 8.18891 13.8557 8 13.5 8C13.1443 8 12.8154 8.18891 12.6362 8.49613L13.5 9ZM11.3125 12.75L10.5125 13.35C10.7136 13.6181 11.0356 13.7677 11.3702 13.7483C11.7048 13.729 12.0074 13.5434 12.1763 13.2539L11.3125 12.75ZM17 15V16C17.3581 16 17.6888 15.8086 17.8671 15.4981C18.0455 15.1876 18.0442 14.8054 17.8638 14.4961L17 15ZM7 15L6.2 14.4C5.97274 14.703 5.93618 15.1084 6.10557 15.4472C6.27496 15.786 6.62123 16 7 16V15ZM10 11L10.8 10.4C10.6111 10.1482 10.3148 10 10 10C9.68524 10 9.38885 10.1482 9.2 10.4L10 11ZM13 20H11V22H13V20ZM4 13V11H2V13H4ZM11 4H13V2H11V4ZM20 11V13H22V11H20ZM13 4C14.4166 4 15.419 4.00078 16.2026 4.0648C16.9745 4.12787 17.4457 4.24729 17.816 4.43597L18.7239 2.65396C18.0247 2.29768 17.261 2.14462 16.3654 2.07144C15.4815 1.99922 14.3836 2 13 2V4ZM22 11C22 9.61637 22.0008 8.5185 21.9286 7.63458C21.8554 6.73898 21.7023 5.9753 21.346 5.27606L19.564 6.18404C19.7527 6.55435 19.8721 7.02552 19.9352 7.79744C19.9992 8.58103 20 9.58337 20 11H22ZM17.816 4.43597C18.5686 4.81947 19.1805 5.43139 19.564 6.18404L21.346 5.27606C20.7708 4.14708 19.8529 3.2292 18.7239 2.65396L17.816 4.43597ZM4 11C4 9.58337 4.00078 8.58103 4.0648 7.79744C4.12787 7.02552 4.24729 6.55435 4.43597 6.18404L2.65396 5.27606C2.29768 5.9753 2.14462 6.73898 2.07144 7.63458C1.99922 8.5185 2 9.61637 2 11H4ZM11 2C9.61637 2 8.51851 1.99922 7.63458 2.07144C6.73898 2.14462 5.97531 2.29768 5.27606 2.65396L6.18404 4.43597C6.55435 4.24729 7.02552 4.12787 7.79744 4.0648C8.58104 4.00078 9.58337 4 11 4V2ZM4.43597 6.18404C4.81947 5.43139 5.43139 4.81947 6.18404 4.43597L5.27606 2.65396C4.14709 3.2292 3.2292 4.14708 2.65396 5.27606L4.43597 6.18404ZM11 20C9.58337 20 8.58104 19.9992 7.79744 19.9352C7.02552 19.8721 6.55435 19.7527 6.18404 19.564L5.27606 21.346C5.9753 21.7023 6.73898 21.8554 7.63458 21.9286C8.51851 22.0008 9.61637 22 11 22V20ZM2 13C2 14.3836 1.99922 15.4815 2.07144 16.3654C2.14462 17.261 2.29768 18.0247 2.65396 18.7239L4.43597 17.816C4.24729 17.4457 4.12787 16.9745 4.0648 16.2026C4.00078 15.419 4 14.4166 4 13H2ZM6.18404 19.564C5.43139 19.1805 4.81947 18.5686 4.43597 17.816L2.65396 18.7239C3.2292 19.8529 4.14709 20.7708 5.27606 21.346L6.18404 19.564ZM13 22C14.3836 22 15.4815 22.0008 16.3654 21.9286C17.261 21.8554 18.0247 21.7023 18.7239 21.346L17.816 19.564C17.4457 19.7527 16.9745 19.8721 16.2026 19.9352C15.419 19.9992 14.4166 20 13 20V22ZM20 13C20 14.4166 19.9992 15.419 19.9352 16.2026C19.8721 16.9745 19.7527 17.4457 19.564 17.816L21.346 18.7239C21.7023 18.0247 21.8554 17.261 21.9286 16.3654C22.0008 15.4815 22 14.3836 22 13H20ZM18.7239 21.346C19.8529 20.7708 20.7708 19.8529 21.346 18.7239L19.564 17.816C19.1805 18.5686 18.5686 19.1805 17.816 19.564L18.7239 21.346ZM12.6362 8.49613L10.4487 12.2461L12.1763 13.2539L14.3638 9.50387L12.6362 8.49613ZM17.8638 14.4961L14.3638 8.49613L12.6362 9.50387L16.1362 15.5039L17.8638 14.4961ZM9.2 10.4L6.2 14.4L7.8 15.6L10.8 11.6L9.2 10.4ZM12.1125 12.15L10.8 10.4L9.2 11.6L10.5125 13.35L12.1125 12.15ZM7 16H17V14H7V16Z" fill="#131316"/>
</svg>
