<svg width="24" height="24" viewBox="0 0 24 24" fill="none" xmlns="http://www.w3.org/2000/svg">
<path d="M9 21H15C16.8613 21 17.7919 21 18.5451 20.7553M9 21C7.13872 21 6.20808 21 5.45491 20.7553C3.93272 20.2607 2.73931 19.0673 2.24472 17.5451C2 16.7919 2 15.8613 2 14C2 12.1387 2 11.2081 2.24472 10.4549C2.73931 8.93273 3.93272 7.73931 5.45491 7.24472C6.20808 7 7.13872 7 9 7H15C16.8613 7 17.7919 7 18.5451 7.24472C20.0673 7.73931 21.2607 8.93273 21.7553 10.4549C22 11.2081 22 12.1387 22 14C22 15.8613 22 16.7919 21.7553 17.5451C21.2607 19.0673 20.0673 20.2607 18.5451 20.7553M9 21C8.2896 21 7.71481 21 7.23367 20.9864C7.23573 20.6943 7.30317 20.3949 7.44735 20.1066L9.21128 16.5787C9.94833 15.1046 12.0519 15.1046 12.789 16.5787L13 17.0007L15.2113 12.5782C15.9483 11.1041 18.0519 11.1041 18.789 12.5782L21.5435 18.0874C20.9644 19.3483 19.8814 20.3211 18.5451 20.7553M6 3L18 3M7 12V12.0099" stroke="#131316" stroke-width="2" stroke-linecap="round" stroke-linejoin="round"/>
</svg>
