<svg width="24" height="24" viewBox="0 0 24 24" fill="none" xmlns="http://www.w3.org/2000/svg">
<path d="M9 9V9.00995M12 20.9998C15.7108 20.9998 18.897 18.754 20.2737 15.5476L18.789 12.578C18.0519 11.1039 15.9483 11.1039 15.2113 12.578L13 17.0005L12.789 16.5785C12.0519 15.1044 9.94833 15.1044 9.21128 16.5785L7.57983 19.8414C8.88541 20.5789 10.3936 20.9998 12 20.9998ZM12 20.9998C16.9706 20.9998 21 16.9706 21 12C21 7.02944 16.9706 3 12 3C7.02944 3 3 7.02944 3 12C3 16.9706 7.02945 20.9998 12 20.9998Z" stroke="#131316" stroke-width="2" stroke-linecap="round" stroke-linejoin="round"/>
</svg>
