<svg width="24" height="24" viewBox="0 0 24 24" fill="none" xmlns="http://www.w3.org/2000/svg">
<path d="M16 5L21 5M12 3C7.02944 3 3 7.02944 3 12C3 16.9706 7.02944 21 12 21M12 21C16.9706 21 21 16.9706 21 12C21 10.9478 20.8194 9.93782 20.4876 8.99927M12 21C10.3936 21 8.88541 20.5789 7.57982 19.8414L9.21127 16.5784C9.94832 15.1043 12.0519 15.1043 12.789 16.5784L13 17.0005L15.2112 12.578C15.9483 11.1039 18.0519 11.1039 18.789 12.578L20.2737 15.5475C18.897 18.754 15.7107 21 12 21ZM9 9V9.00995" stroke="#131316" stroke-width="2" stroke-linecap="round" stroke-linejoin="round"/>
</svg>
