<svg width="24" height="24" viewBox="0 0 24 24" fill="none" xmlns="http://www.w3.org/2000/svg">
<path d="M17 6L22 6M13 4H10C7.19974 4 5.79961 4 4.73005 4.54497C3.78924 5.02433 3.02433 5.78924 2.54497 6.73005C2 7.79961 2 9.19974 2 12C2 14.8003 2 16.2004 2.54497 17.27C3.02433 18.2108 3.78924 18.9757 4.73005 19.455C5.79961 20 7.19974 20 10 20M10 20H14C16.8003 20 18.2004 20 19.27 19.455M10 20C9.01232 20 8.19882 19.9998 7.51257 19.9758L9.21127 16.5784C9.94832 15.1044 12.0519 15.1043 12.789 16.5784L13 17.0005L15.2112 12.578C15.9483 11.1039 18.0519 11.1039 18.789 12.578L21.2867 17.5735C20.8053 18.3753 20.1073 19.0284 19.27 19.455M19.27 19.455C20.2108 18.9757 20.9757 18.2108 21.455 17.27C22 16.2004 22 14.8003 22 12C22 11.2363 22 10.5767 21.9889 9.99956M7 10V10.0099" stroke="#131316" stroke-width="2" stroke-linecap="round" stroke-linejoin="round"/>
</svg>
