<svg width="24" height="24" viewBox="0 0 24 24" fill="none" xmlns="http://www.w3.org/2000/svg">
<path d="M18.5 3V8M16 5.5L21 5.5M21 12C21 16.9706 16.9706 21 12 21M12 21C7.02944 21 3 16.9706 3 12C3 7.02944 7.02944 3 12 3M12 21C15.7107 21 18.897 18.7543 20.2737 15.5478L18.789 12.5782C18.6749 12.3502 18.5282 12.1575 18.359 12C17.0985 11.9997 16.4303 11.9927 15.9062 11.7932C15.6242 11.9764 15.3813 12.2381 15.2112 12.5782L13 17.0007L12.789 16.5787C12.0519 15.1046 9.94832 15.1046 9.21127 16.5787L7.57982 19.8416C8.88541 20.5791 10.3936 21 12 21ZM9 9V9.00995" stroke="#131316" stroke-width="2" stroke-linecap="round" stroke-linejoin="round"/>
</svg>
