<svg width="24" height="24" viewBox="0 0 24 24" fill="none" xmlns="http://www.w3.org/2000/svg">
<path d="M8 8V8.00995M11 21H13C15.8003 21 17.2004 21 18.27 20.455C19.2108 19.9757 19.9757 19.2108 20.455 18.27M11 21C8.19974 21 6.79961 21 5.73005 20.455C4.78924 19.9757 4.02433 19.2108 3.54497 18.27C3 17.2004 3 15.8003 3 13L3 11C3 8.19974 3 6.79961 3.54497 5.73005C4.02433 4.78924 4.78924 4.02433 5.73005 3.54497C6.79961 3 8.19974 3 11 3L13 3C15.8003 3 17.2004 3 18.27 3.54497C19.2108 4.02433 19.9757 4.78924 20.455 5.73005C21 6.79961 21 8.19974 21 11V13C21 15.8003 21 17.2004 20.455 18.27M11 21C9.3177 21 8.14073 21 7.23719 20.8818C7.25283 20.6231 7.32029 20.3604 7.44735 20.1063L9.21128 16.5785C9.94833 15.1044 12.0519 15.1044 12.789 16.5785L13 17.0005L15.2113 12.578C15.9483 11.1039 18.0519 11.1039 18.789 12.578L20.8817 16.7635C20.8032 17.3636 20.6725 17.8431 20.455 18.27" stroke="#131316" stroke-width="2" stroke-linecap="round" stroke-linejoin="round"/>
</svg>
