<svg width="24" height="24" viewBox="0 0 24 24" fill="none" xmlns="http://www.w3.org/2000/svg">
<path d="M14 21V20V21ZM10 21V22V21ZM2 13H1H2ZM2 11H3H2ZM14 3V4V3ZM22 11H21H22ZM22 13H23H22ZM19.27 3.54497L18.816 4.43597V4.43597L19.27 3.54497ZM21.455 5.73005L22.346 5.27606V5.27606L21.455 5.73005ZM2.54497 5.73005L3.43597 6.18404L2.54497 5.73005ZM4.73005 3.54497L5.18404 4.43597L4.73005 3.54497ZM4.73005 20.455L4.27606 21.346H4.27606L4.73005 20.455ZM2.54497 18.27L3.43597 17.816L3.43597 17.816L2.54497 18.27ZM19.27 20.455L18.816 19.564L19.27 20.455ZM21.455 18.27L20.564 17.816L21.455 18.27ZM2.00002 13.2676L1.4993 12.4019C1.19024 12.5807 0.999944 12.9107 1.00002 13.2678L2.00002 13.2676ZM8.45585 14.3675L9.40453 14.0513L9.40453 14.0513L8.45585 14.3675ZM8.54415 14.6325L7.59547 14.9487L7.59547 14.9487L8.54415 14.6325ZM15.4558 14.6325L16.4045 14.9487L15.4558 14.6325ZM15.5442 14.3675L14.5955 14.0513L14.5955 14.0513L15.5442 14.3675ZM22 13.2676L23 13.2678C23.0001 12.9107 22.8098 12.5807 22.5007 12.4019L22 13.2676ZM14 20H10V22H14V20ZM3 13V11H1V13H3ZM10 4H14V2H10V4ZM21 11V13H23V11H21ZM14 4C15.4166 4 16.419 4.00078 17.2026 4.0648C17.9745 4.12787 18.4457 4.24729 18.816 4.43597L19.7239 2.65396C19.0247 2.29768 18.261 2.14462 17.3654 2.07144C16.4815 1.99922 15.3836 2 14 2V4ZM23 11C23 9.61637 23.0008 8.51851 22.9286 7.63458C22.8554 6.73898 22.7023 5.9753 22.346 5.27606L20.564 6.18404C20.7527 6.55435 20.8721 7.02552 20.9352 7.79744C20.9992 8.58104 21 9.58337 21 11H23ZM18.816 4.43597C19.5686 4.81947 20.1805 5.43139 20.564 6.18404L22.346 5.27606C21.7708 4.14709 20.8529 3.2292 19.7239 2.65396L18.816 4.43597ZM3 11C3 9.58337 3.00078 8.58104 3.0648 7.79744C3.12787 7.02552 3.24729 6.55435 3.43597 6.18404L1.65396 5.27606C1.29768 5.9753 1.14462 6.73898 1.07144 7.63458C0.999222 8.51851 1 9.61637 1 11H3ZM10 2C8.61637 2 7.51851 1.99922 6.63458 2.07144C5.73898 2.14462 4.9753 2.29768 4.27606 2.65396L5.18404 4.43597C5.55435 4.24729 6.02552 4.12787 6.79744 4.0648C7.58104 4.00078 8.58337 4 10 4V2ZM3.43597 6.18404C3.81947 5.43139 4.43139 4.81947 5.18404 4.43597L4.27606 2.65396C3.14709 3.2292 2.2292 4.14709 1.65396 5.27606L3.43597 6.18404ZM10 20C8.58337 20 7.58104 19.9992 6.79744 19.9352C6.02552 19.8721 5.55435 19.7527 5.18404 19.564L4.27606 21.346C4.9753 21.7023 5.73898 21.8554 6.63458 21.9286C7.51851 22.0008 8.61637 22 10 22V20ZM1 13C1 14.3836 0.999222 15.4815 1.07144 16.3654C1.14462 17.261 1.29768 18.0247 1.65396 18.7239L3.43597 17.816C3.24729 17.4457 3.12787 16.9745 3.0648 16.2026C3.00078 15.419 3 14.4166 3 13H1ZM5.18404 19.564C4.43139 19.1805 3.81947 18.5686 3.43597 17.816L1.65396 18.7239C2.2292 19.8529 3.14709 20.7708 4.27606 21.346L5.18404 19.564ZM14 22C15.3836 22 16.4815 22.0008 17.3654 21.9286C18.261 21.8554 19.0247 21.7023 19.7239 21.346L18.816 19.564C18.4457 19.7527 17.9745 19.8721 17.2026 19.9352C16.419 19.9992 15.4166 20 14 20V22ZM21 13C21 14.4166 20.9992 15.419 20.9352 16.2026C20.8721 16.9745 20.7527 17.4457 20.564 17.816L22.346 18.7239C22.7023 18.0247 22.8554 17.261 22.9286 16.3654C23.0008 15.4815 23 14.3836 23 13H21ZM19.7239 21.346C20.8529 20.7708 21.7708 19.8529 22.346 18.7239L20.564 17.816C20.1805 18.5686 19.5686 19.1805 18.816 19.564L19.7239 21.346ZM1.00002 13.2678C1.00029 14.5661 1.00391 15.6061 1.07885 16.4525C1.15482 17.3105 1.3091 18.0471 1.65396 18.7239L3.43597 17.816C3.25351 17.4578 3.13558 17.0048 3.07105 16.2761C3.0055 15.5357 3.0003 14.592 3.00002 13.2673L1.00002 13.2678ZM2.50074 14.1332C2.6468 14.0487 2.8162 14 3 14V12C2.45524 12 1.94158 12.1461 1.4993 12.4019L2.50074 14.1332ZM3 14H6.55848V12H3V14ZM6.55848 14C6.98891 14 7.37105 14.2754 7.50717 14.6838L9.40453 14.0513C8.99619 12.8263 7.84977 12 6.55848 12V14ZM7.50717 14.6838L7.59547 14.9487L9.49284 14.3162L9.40453 14.0513L7.50717 14.6838ZM7.59547 14.9487C8.00381 16.1737 9.15023 17 10.4415 17V15C10.0111 15 9.62895 14.7246 9.49284 14.3162L7.59547 14.9487ZM10.4415 17H13.5585V15H10.4415V17ZM13.5585 17C14.8498 17 15.9962 16.1737 16.4045 14.9487L14.5072 14.3162C14.3711 14.7246 13.9889 15 13.5585 15V17ZM16.4045 14.9487L16.4928 14.6838L14.5955 14.0513L14.5072 14.3162L16.4045 14.9487ZM16.4928 14.6838C16.6289 14.2754 17.0111 14 17.4415 14V12C16.1502 12 15.0038 12.8263 14.5955 14.0513L16.4928 14.6838ZM17.4415 14H21V12H17.4415V14ZM21 14C21.1838 14 21.3532 14.0487 21.4993 14.1332L22.5007 12.4019C22.0584 12.1461 21.5448 12 21 12V14ZM22.346 18.7239C22.6909 18.0471 22.8452 17.3105 22.9212 16.4525C22.9961 15.6061 22.9997 14.5661 23 13.2678L21 13.2673C20.9997 14.592 20.9945 15.5357 20.9289 16.2761C20.8644 17.0048 20.7465 17.4578 20.564 17.816L22.346 18.7239Z" fill="#131316"/>
</svg>
