<svg width="24" height="24" viewBox="0 0 24 24" fill="none" xmlns="http://www.w3.org/2000/svg">
<path d="M15.2929 5.29289C14.9024 5.68342 14.9024 6.31658 15.2929 6.70711C15.6834 7.09763 16.3166 7.09763 16.7071 6.70711L15.2929 5.29289ZM19 3L19.7071 2.29289C19.3166 1.90237 18.6834 1.90237 18.2929 2.29289L19 3ZM21.2929 6.70711C21.6834 7.09763 22.3166 7.09763 22.7071 6.70711C23.0976 6.31658 23.0976 5.68342 22.7071 5.29289L21.2929 6.70711ZM18 9.00009C18 9.55238 18.4477 10.0001 19 10.0001C19.5523 10.0001 20 9.55238 20 9.00009H18ZM13.017 4.00014C13.5693 4.00071 14.0175 3.55346 14.018 3.00117C14.0186 2.44889 13.5714 2.00071 13.0191 2.00014L13.017 4.00014ZM21.9894 13.6382L20.9916 13.7031V13.7031L21.9894 13.6382ZM21.8211 17.3255L22.7853 17.5906V17.5906L21.8211 17.3255ZM18.3255 20.8211L18.5906 21.7853H18.5906L18.3255 20.8211ZM5.67447 20.8211L5.40937 21.7853H5.40937L5.67447 20.8211ZM2.1789 17.3255L1.21468 17.5906L1.21468 17.5906L2.1789 17.3255ZM2.01056 13.6382L3.00845 13.7031L3.00845 13.7031L2.01056 13.6382ZM2.24681 12.4114L3.19745 12.7217L3.19745 12.7217L2.24681 12.4114ZM2.47978 11.8005L3.40826 12.1719L3.40826 12.1719L2.47978 11.8005ZM3.98845 8.02888L3.05997 7.65748L3.05997 7.65749L3.98845 8.02888ZM5.68472 4.63746L6.42481 5.30997L6.42481 5.30996L5.68472 4.63746ZM7.63743 3.3154L7.28789 2.37849L7.28788 2.37849L7.63743 3.3154ZM2.05282 13.2381L1.57855 12.3577C1.30024 12.5076 1.10921 12.7803 1.06338 13.0931L2.05282 13.2381ZM8.45585 14.3675L9.40453 14.0513L9.40453 14.0513L8.45585 14.3675ZM8.54415 14.6325L7.59547 14.9487L7.59547 14.9487L8.54415 14.6325ZM15.4558 14.6325L14.5072 14.3162L14.5072 14.3162L15.4558 14.6325ZM15.5442 14.3675L16.4928 14.6838L16.4928 14.6838L15.5442 14.3675ZM16.7071 6.70711L19.7071 3.70711L18.2929 2.29289L15.2929 5.29289L16.7071 6.70711ZM18.2929 3.70711L21.2929 6.70711L22.7071 5.29289L19.7071 2.29289L18.2929 3.70711ZM20 9.00009V3H18V9.00009H20ZM23 14.2919C23 13.9765 23.0005 13.7753 22.9873 13.5732L20.9916 13.7031C20.9995 13.8255 21 13.9519 21 14.2919H23ZM22.7853 17.5906C23.009 16.777 23 15.8145 23 14.2919H21C21 15.9466 20.991 16.5727 20.8569 17.0604L22.7853 17.5906ZM18.5906 21.7853C20.6306 21.2244 22.2244 19.6306 22.7853 17.5906L20.8569 17.0604C20.483 18.4204 19.4204 19.483 18.0604 19.8569L18.5906 21.7853ZM15.2919 22C16.8145 22 17.777 22.009 18.5906 21.7853L18.0604 19.8569C17.5727 19.991 16.9466 20 15.2919 20V22ZM8.70813 22H15.2919V20H8.70813V22ZM5.40937 21.7853C6.223 22.009 7.18553 22 8.70813 22V20C7.05345 20 6.42733 19.991 5.93958 19.8569L5.40937 21.7853ZM1.21468 17.5906C1.77556 19.6306 3.36938 21.2244 5.40937 21.7853L5.93958 19.8569C4.57959 19.483 3.51704 18.4204 3.14312 17.0604L1.21468 17.5906ZM1 14.2919C1 15.8145 0.990981 16.777 1.21468 17.5906L3.14312 17.0604C3.00902 16.5727 3 15.9466 3 14.2919H1ZM1.01267 13.5732C0.999519 13.7753 1 13.9765 1 14.2919H3C3 13.9519 3.00048 13.8255 3.00845 13.7031L1.01267 13.5732ZM1.29617 12.1011C1.1405 12.578 1.04525 13.0726 1.01267 13.5732L3.00845 13.7031C3.03017 13.3694 3.09366 13.0397 3.19745 12.7217L1.29617 12.1011ZM1.55131 11.4292C1.43419 11.7219 1.359 11.9086 1.29617 12.1011L3.19745 12.7217C3.2355 12.6051 3.28199 12.4876 3.40826 12.1719L1.55131 11.4292ZM3.05997 7.65749L1.55131 11.4292L3.40826 12.1719L4.91693 8.40027L3.05997 7.65749ZM4.94463 3.96495C4.18723 4.79845 3.75661 5.9159 3.05997 7.65748L4.91693 8.40027C5.67287 6.51041 5.96857 5.81205 6.42481 5.30997L4.94463 3.96495ZM7.28788 2.37849C6.39149 2.71292 5.58806 3.25686 4.94463 3.96495L6.42481 5.30996C6.85376 4.83791 7.38938 4.47528 7.98698 4.25232L7.28788 2.37849ZM11.4163 2C9.54049 2 8.34307 1.98482 7.28789 2.37849L7.98698 4.25232C8.62261 4.01518 9.3808 4 11.4163 4V2ZM12.5837 2H11.4163V4H12.5837V2ZM13.0191 2.00014C12.8792 2 12.7341 2 12.5837 2V4C12.7343 4 12.8784 4 13.017 4.00014L13.0191 2.00014ZM1.06338 13.0931C1.04006 13.2523 1.02313 13.4124 1.01267 13.5732L3.00845 13.7031C3.01542 13.5959 3.02671 13.4891 3.04225 13.383L1.06338 13.0931ZM2.52709 14.1184C2.66688 14.0431 2.82691 14 3 14V12C2.48771 12 2.00263 12.1292 1.57855 12.3577L2.52709 14.1184ZM3 14H6.55848V12H3V14ZM6.55848 14C6.98891 14 7.37105 14.2754 7.50716 14.6838L9.40453 14.0513C8.99619 12.8263 7.84977 12 6.55848 12V14ZM7.50716 14.6838L7.59547 14.9487L9.49284 14.3162L9.40453 14.0513L7.50716 14.6838ZM7.59547 14.9487C8.00381 16.1737 9.15023 17 10.4415 17V15C10.0111 15 9.62895 14.7246 9.49284 14.3162L7.59547 14.9487ZM10.4415 17H13.5585V15H10.4415V17ZM13.5585 17C14.8498 17 15.9962 16.1737 16.4045 14.9487L14.5072 14.3162C14.3711 14.7246 13.9889 15 13.5585 15V17ZM16.4045 14.9487L16.4928 14.6838L14.5955 14.0513L14.5072 14.3162L16.4045 14.9487ZM16.4928 14.6838C16.6289 14.2754 17.0111 14 17.4415 14V12C16.1502 12 15.0038 12.8263 14.5955 14.0513L16.4928 14.6838ZM17.4415 14H21V12H17.4415V14ZM21 14C21.1113 14 21.1838 14.005 21.2305 14.0119C21.2787 14.019 21.2656 14.0234 21.223 14.0014C21.1697 13.9738 21.0969 13.918 21.0428 13.8297C20.9922 13.7472 20.9907 13.6896 20.9916 13.7031L22.9873 13.5732C22.9704 13.3126 22.9034 13.0382 22.7481 12.7846C22.5891 12.5252 22.372 12.3442 22.143 12.2256C21.734 12.0137 21.2781 12 21 12V14Z" fill="#131316"/>
</svg>
