<svg width="24" height="24" viewBox="0 0 24 24" fill="none" xmlns="http://www.w3.org/2000/svg">
<path d="M12.3414 3H11.4163C9.46065 3 8.48284 3 7.63743 3.3154C6.89043 3.5941 6.22091 4.04739 5.68472 4.63746C5.0779 5.30525 4.71475 6.21312 3.98846 8.02884L2.47979 11.8005C2.3581 12.1048 2.29725 12.2569 2.24681 12.4114C2.11708 12.8088 2.03771 13.221 2.01056 13.6382M2.01056 13.6382C2 13.8004 2 13.9642 2 14.2919C2 15.8805 2 16.6748 2.1789 17.3255C2.6463 19.0255 3.97448 20.3537 5.67447 20.8211C6.32516 21 7.11949 21 8.70813 21H15.2919C16.8805 21 17.6748 21 18.3255 20.8211C20.0255 20.3537 21.3537 19.0255 21.8211 17.3255C22 16.6748 22 15.8805 22 14.2919C22 13.9642 22 13.8004 21.9894 13.6382M2.01056 13.6382C2.01928 13.5042 2.03339 13.3707 2.05282 13.2381C2.33475 13.0862 2.65731 13 3 13H6.55848C7.41934 13 8.18362 13.5509 8.45585 14.3675L8.54415 14.6325C8.81638 15.4491 9.58066 16 10.4415 16H13.5585C14.4193 16 15.1836 15.4491 15.4558 14.6325L15.5442 14.3675C15.8164 13.5509 16.5807 13 17.4415 13H21C21.3427 13 21.6652 13.0862 21.9472 13.2381C21.9666 13.3707 21.9807 13.5042 21.9894 13.6382M21.9894 13.6382C21.9623 13.221 21.8829 12.8088 21.7532 12.4114C21.7028 12.2569 21.6419 12.1048 21.5202 11.8005L20.9013 10.2532M20 5C20 6.10457 19.1046 7 18 7C16.8954 7 16 6.10457 16 5C16 3.89543 16.8954 3 18 3C19.1046 3 20 3.89543 20 5Z" stroke="#131316" stroke-width="2" stroke-linecap="round" stroke-linejoin="round"/>
</svg>
