<svg width="24" height="24" viewBox="0 0 24 24" fill="none" xmlns="http://www.w3.org/2000/svg">
<path d="M21 9.5L3 9.5M21 4.5L3 4.5M21 19.5L13 19.5M21 14.5L13 14.5M6 14C6.93188 14 7.39782 14 7.76537 14.1522C8.25542 14.3552 8.64477 14.7446 8.84776 15.2346C9 15.6022 9 16.0681 9 17C9 17.9319 9 18.3978 8.84776 18.7654C8.64477 19.2554 8.25542 19.6448 7.76537 19.8478C7.39782 20 6.93188 20 6 20C5.06812 20 4.60218 20 4.23463 19.8478C3.74458 19.6448 3.35523 19.2554 3.15224 18.7654C3 18.3978 3 17.9319 3 17C3 16.0681 3 15.6022 3.15224 15.2346C3.35523 14.7446 3.74458 14.3552 4.23463 14.1522C4.60218 14 5.06812 14 6 14Z" stroke="#131316" stroke-width="2" stroke-linecap="round" stroke-linejoin="round"/>
</svg>
