<svg width="24" height="24" viewBox="0 0 24 24" fill="none" xmlns="http://www.w3.org/2000/svg">
<path d="M11 9.5L3 9.5M11 4.5L3 4.5M21 19.5L3 19.5M21 14.5L3 14.5M18 4C18.9319 4 19.3978 4 19.7654 4.15224C20.2554 4.35523 20.6448 4.74458 20.8478 5.23463C21 5.60218 21 6.06812 21 7C21 7.93188 21 8.39782 20.8478 8.76537C20.6448 9.25542 20.2554 9.64477 19.7654 9.84776C19.3978 10 18.9319 10 18 10C17.0681 10 16.6022 10 16.2346 9.84776C15.7446 9.64477 15.3552 9.25542 15.1522 8.76537C15 8.39782 15 7.93188 15 7C15 6.06812 15 5.60218 15.1522 5.23463C15.3552 4.74458 15.7446 4.35523 16.2346 4.15224C16.6022 4 17.0681 4 18 4Z" stroke="#131316" stroke-width="2" stroke-linecap="round" stroke-linejoin="round"/>
</svg>
