<svg width="24" height="24" viewBox="0 0 24 24" fill="none" xmlns="http://www.w3.org/2000/svg">
<path d="M11 2C12.6569 2 14 3.34315 14 5H14.2C15.8802 5 16.7202 5 17.362 5.32698C17.9265 5.6146 18.3854 6.07354 18.673 6.63803C19 7.27976 19 8.11984 19 9.8V10C20.6569 10 22 11.3431 22 13C22 14.6569 20.6569 16 19 16V16.2C19 17.8802 19 18.7202 18.673 19.362C18.3854 19.9265 17.9265 20.3854 17.362 20.673C16.7202 21 15.8802 21 14.2 21H13.8293C13.4175 19.8348 12.3062 19 11 19C9.69378 19 8.58254 19.8348 8.17071 21H7.8C6.11984 21 5.27976 21 4.63803 20.673C4.07354 20.3854 3.6146 19.9265 3.32698 19.362C3 18.7202 3 17.8802 3 16.2V15.8293C4.16519 15.4175 5 14.3062 5 13C5 11.6938 4.16519 10.5825 3 10.1707V9.8C3 8.11984 3 7.27976 3.32698 6.63803C3.6146 6.07354 4.07354 5.6146 4.63803 5.32698C5.27976 5 6.11984 5 7.8 5H8C8 3.34315 9.34315 2 11 2Z" stroke="#131316" stroke-width="2" stroke-linecap="round" stroke-linejoin="round"/>
</svg>
