<svg width="24" height="24" viewBox="0 0 24 24" fill="none" xmlns="http://www.w3.org/2000/svg">
<path d="M10.6054 10.7073L9.19121 12.1215M13.4345 13.5356L12.0203 14.9499M2.00293 21.9965L4.49963 19.5M22.0003 2L20.0003 4M4.9488 12.1214L5.45387 11.6163C5.64151 11.4287 5.73532 11.3349 5.82314 11.2649C6.55267 10.6831 7.58756 10.6831 8.3171 11.2649C8.40491 11.3349 8.49873 11.4287 8.68636 11.6163L12.5249 15.4549C12.7126 15.6426 12.8064 15.7364 12.8764 15.8242C13.4582 16.5537 13.4582 17.5886 12.8764 18.3181C12.8064 18.406 12.7126 18.4998 12.5249 18.6874L12.0199 19.1925C10.0672 21.1451 6.90142 21.1451 4.9488 19.1925C2.99618 17.2399 2.99618 14.074 4.9488 12.1214ZM19.4825 4.16943L19.9015 4.5884C21.7384 6.42531 21.7384 9.40349 19.9016 11.2405C19.1668 11.9753 17.9755 11.9753 17.2407 11.2405L12.8304 6.8303C12.0957 6.09557 12.0957 4.90435 12.8304 4.16958C14.6672 2.33255 17.6455 2.33248 19.4825 4.16943Z" stroke="#131316" stroke-width="2" stroke-linecap="round" stroke-linejoin="round"/>
</svg>
