<svg width="24" height="24" viewBox="0 0 24 24" fill="none" xmlns="http://www.w3.org/2000/svg">
<path d="M14 14H10M6 10V10.0099M10 10V10.0099M14 10V10.0099M18 10V10.0099M6 14V14.0099M18 14V14.0099M15 19H9C7.13872 19 6.20808 19 5.45491 18.7553C3.93272 18.2607 2.73931 17.0673 2.24472 15.5451C2 14.7919 2 13.8613 2 12C2 10.1387 2 9.20808 2.24472 8.45492C2.73931 6.93272 3.93272 5.73931 5.45491 5.24472C6.20808 5 7.13872 5 9 5L15 5C16.8613 5 17.7919 5 18.5451 5.24472C20.0673 5.73931 21.2607 6.93272 21.7553 8.45492C22 9.20808 22 10.1387 22 12C22 13.8613 22 14.7919 21.7553 15.5451C21.2607 17.0673 20.0673 18.2607 18.5451 18.7553C17.7919 19 16.8613 19 15 19Z" stroke="#131316" stroke-width="2" stroke-linecap="round" stroke-linejoin="round"/>
</svg>
