<svg width="24" height="24" viewBox="0 0 24 24" fill="none" xmlns="http://www.w3.org/2000/svg">
<path d="M9 5L12 3L15 5M14 17H10M6 13V13.0099M10 13V13.0099M14 13V13.0099M18 13V13.0099M6 17V17.0099M18 17V17.0099M17.2 21H6.8C5.11984 21 4.27976 21 3.63803 20.673C3.07354 20.3854 2.6146 19.9265 2.32698 19.362C2 18.7202 2 17.8802 2 16.2L2 13.8C2 12.1198 2 11.2798 2.32698 10.638C2.6146 10.0735 3.07354 9.6146 3.63803 9.32698C4.27976 9 5.11984 9 6.8 9H17.2C18.8802 9 19.7202 9 20.362 9.32698C20.9265 9.6146 21.3854 10.0735 21.673 10.638C22 11.2798 22 12.1198 22 13.8V16.2C22 17.8802 22 18.7202 21.673 19.362C21.3854 19.9265 20.9265 20.3854 20.362 20.673C19.7202 21 18.8802 21 17.2 21Z" stroke="#131316" stroke-width="2" stroke-linecap="round" stroke-linejoin="round"/>
</svg>
