<svg width="24" height="24" viewBox="0 0 24 24" fill="none" xmlns="http://www.w3.org/2000/svg">
<path d="M9 17V22M9 17C6.23858 17 4 14.7614 4 12C4 9.58104 5.71776 7.56329 8 7.10002M9 17C10.1256 17 11.1643 16.6281 12 16.0004M17.2317 7.33013L19.7317 3M7 20H11M20.4641 5.73198L17 3.73198M12 16.0004C13.2144 15.0882 14 13.6358 14 12C14 10.3644 13.2147 8.91223 12.0005 8M12 16.0004C10.7856 15.0882 10 13.6358 10 12C10 10.3641 10.786 8.9122 12.0005 8M16 16.9C18.2822 16.4367 20 14.419 20 12C20 9.23858 17.7614 7 15 7C13.8745 7 12.8361 7.37237 12.0005 8" stroke="#131316" stroke-width="2" stroke-linecap="round" stroke-linejoin="round"/>
</svg>
