<svg width="24" height="24" viewBox="0 0 24 24" fill="none" xmlns="http://www.w3.org/2000/svg">
<path d="M2 8.74317L2 16.9144C2 18.6067 3.37899 19.9786 5.08005 19.9786C6.78112 19.9786 8.1601 18.6067 8.1601 16.9144V8.74317C8.1601 7.05086 6.78112 5.67897 5.08005 5.67897C3.37899 5.67897 2 7.05086 2 8.74317Z" stroke="#131316" stroke-width="2" stroke-linecap="round" stroke-linejoin="round"/>
<path d="M11.2695 3.85497L9.24 6.37885C8.83975 6.87658 8.63963 7.12545 8.49732 7.40257C8.37106 7.64843 8.27878 7.91015 8.22299 8.1806C8.1601 8.48544 8.1601 8.80415 8.1601 9.44156V15.905C8.1601 16.6545 8.1601 17.0292 8.2452 17.3819C8.32065 17.6945 8.4451 17.9934 8.61398 18.2676C8.80445 18.5768 9.0708 18.8418 9.6035 19.3718L9.79675 19.564C10.3295 20.094 10.5958 20.359 10.9066 20.5485C11.1822 20.7165 11.4826 20.8403 11.7969 20.9153C12.1514 21 12.5281 21 13.2814 21H15.1415C16.3289 21 16.9226 21 17.4378 20.8113C17.8931 20.6445 18.3024 20.373 18.6323 20.0191C19.0055 19.6185 19.2339 19.0733 19.6905 17.9829L20.7172 15.5316C21.6679 13.2618 22.1432 12.1269 21.962 11.214C21.8037 10.4158 21.3327 9.71307 20.6531 9.26065C19.8757 8.74317 18.6398 8.74317 16.1682 8.74317H15.3469V5.27787C15.3469 4.29746 14.7163 3.42704 13.7814 3.11701C12.8714 2.81524 11.8688 3.1098 11.2695 3.85497Z" stroke="#131316" stroke-width="2" stroke-linecap="round" stroke-linejoin="round"/>
</svg>
