<svg width="24" height="24" viewBox="0 0 24 24" fill="none" xmlns="http://www.w3.org/2000/svg">
<path d="M7 11L4 14M9.5 11L12 14M19 10L15 14M10 9.5C10 10.3284 9.32843 11 8.5 11C7.67157 11 7 10.3284 7 9.5C7 8.67157 7.67157 8 8.5 8C9.32843 8 10 8.67157 10 9.5ZM15 15.5C15 16.3284 14.3284 17 13.5 17C12.6716 17 12 16.3284 12 15.5C12 14.6716 12.6716 14 13.5 14C14.3284 14 15 14.6716 15 15.5ZM22 8.5C22 9.32843 21.3284 10 20.5 10C19.6716 10 19 9.32843 19 8.5C19 7.67157 19.6716 7 20.5 7C21.3284 7 22 7.67157 22 8.5ZM5 15.5C5 16.3284 4.32843 17 3.5 17C2.67157 17 2 16.3284 2 15.5C2 14.6716 2.67157 14 3.5 14C4.32843 14 5 14.6716 5 15.5Z" stroke="#131316" stroke-width="2" stroke-linecap="round" stroke-linejoin="round"/>
</svg>
