<svg width="24" height="24" viewBox="0 0 24 24" fill="none" xmlns="http://www.w3.org/2000/svg">
<path d="M19 9V7.5C19 7.0357 19 6.80355 18.9846 6.6077C18.7916 4.15582 16.8442 2.20838 14.3923 2.01541C14.1965 2 13.9643 2 13.5 2C13.0357 2 12.8035 2 12.6077 2.01541C10.1558 2.20838 8.20838 4.15582 8.01541 6.60771C8 6.80355 8 7.0357 8 7.5L8 10.7C8 13.0748 9.92518 15 12.3 15M5 15L5 16.5C5 16.9643 5 17.1965 5.01541 17.3923C5.20838 19.8442 7.15582 21.7916 9.60771 21.9846C9.80355 22 10.0357 22 10.5 22C10.9643 22 11.1965 22 11.3923 21.9846C13.8442 21.7916 15.7916 19.8442 15.9846 17.3923C16 17.1965 16 16.9643 16 16.5V13.3C16 10.9252 14.0748 9 11.7 9" stroke="#131316" stroke-width="2" stroke-linecap="round" stroke-linejoin="round"/>
</svg>
