<svg width="24" height="24" viewBox="0 0 24 24" fill="none" xmlns="http://www.w3.org/2000/svg">
<path d="M22 17H20M17 22V20M4 7H2M7 2V4M19.5622 12.9019L20.3122 11.6029C20.5443 11.2008 20.6604 10.9997 20.745 10.8224C21.8038 8.60255 21.091 5.9423 19.0641 4.54924C18.9022 4.43797 18.7011 4.3219 18.299 4.08975C17.8969 3.8576 17.6959 3.74152 17.5186 3.65695C15.2987 2.59812 12.6384 3.31093 11.2454 5.33784C11.1341 5.49974 11.018 5.70079 10.7859 6.10289L9.1859 8.87417C7.99849 10.9308 8.70315 13.5607 10.7598 14.7481M4.43782 11.0981L3.68782 12.3971C3.45567 12.7992 3.3396 13.0003 3.25502 13.1776C2.1962 15.3974 2.90901 18.0577 4.93592 19.4508C5.09782 19.562 5.29887 19.6781 5.70096 19.9103C6.10306 20.1424 6.30411 20.2585 6.48142 20.3431C8.7013 21.4019 11.3616 20.6891 12.7546 18.6622C12.8659 18.5003 12.982 18.2992 13.2141 17.8971L14.8141 15.1258C16.0015 13.0692 15.2969 10.4393 13.2402 9.25192" stroke="#131316" stroke-width="2" stroke-linecap="round" stroke-linejoin="round"/>
</svg>
