<svg width="24" height="24" viewBox="0 0 24 24" fill="none" xmlns="http://www.w3.org/2000/svg">
<path d="M16.9497 12.7071L19.0711 10.5858C20.6332 9.02369 20.6332 6.49103 19.0711 4.92893C17.509 3.36684 14.9763 3.36684 13.4142 4.92893L11.2929 7.05025M12.7071 16.9497L10.5858 19.0711C9.02369 20.6332 6.49103 20.6332 4.92893 19.0711C3.36683 17.509 3.36683 14.9763 4.92893 13.4142L7.05025 11.2929M9.87868 14.1213L14.1213 9.87868M20.4141 20.4143L18.9998 19.0001M22 15H20M15 22V20M3.58594 3.58569L5.00015 4.99991M2 9H4M9 2V4" stroke="#131316" stroke-width="2" stroke-linecap="round" stroke-linejoin="round"/>
</svg>
