<svg width="24" height="24" viewBox="0 0 24 24" fill="none" xmlns="http://www.w3.org/2000/svg">
<path d="M11.5 3.99997H11C8.19974 3.99997 6.79961 3.99997 5.73005 4.54494C4.78924 5.02431 4.02433 5.78921 3.54497 6.73002C3 7.79958 3 9.19971 3 12V13C3 15.8002 3 17.2004 3.54497 18.2699C4.02433 19.2107 4.78924 19.9756 5.73005 20.455C6.79961 21 8.19974 21 11 21H12C14.8003 21 16.2004 21 17.27 20.455C18.2108 19.9756 18.9757 19.2107 19.455 18.2699C20 17.2004 20 15.8002 20 13V12.5M17 3.00006L21.0001 3.00027M21.0001 3.00027L21.0007 7.00041M21.0001 3.00027L12.0007 11.9999" stroke="#131316" stroke-width="2" stroke-linecap="round" stroke-linejoin="round"/>
</svg>
