<svg width="24" height="24" viewBox="0 0 24 24" fill="none" xmlns="http://www.w3.org/2000/svg">
<path d="M14.4002 9.2C13.8529 8.47133 12.9815 8 12 8C10.3431 8 9 9.34315 9 11C9 11.6754 9.22317 12.2986 9.59978 12.8M14.4002 9.2C14.7768 9.7014 15 10.3246 15 11C15 12.6569 13.6569 14 12 14C11.0185 14 10.1471 13.5287 9.59978 12.8M14.4002 9.2L9.59978 12.8M20 11C20 16.4183 13 21 12 21C11 21 4 16.4183 4 11C4 6.58172 7.58172 3 12 3C16.4183 3 20 6.58172 20 11Z" stroke="#131316" stroke-width="2" stroke-linecap="round" stroke-linejoin="round"/>
</svg>
