<svg width="24" height="24" viewBox="0 0 24 24" fill="none" xmlns="http://www.w3.org/2000/svg">
<path d="M11 7.17071C9.83481 7.58254 9 8.69378 9 10C9 11.6569 10.3431 13 12 13C12.3506 13 12.6872 12.9398 13 12.8293M13.8075 2.19251C13.2266 2.06604 12.6216 2 12 2C7.58172 2 4 5.33626 4 10C4 12.8644 5.88608 14.8508 8.03649 17.1156C9.38736 18.5383 10.8425 20.0709 12 22C13.1575 20.0709 14.6126 18.5383 15.9635 17.1156C17.45 15.55 18.8102 14.1175 19.5084 12.436M19 3L15.9373 6.06274C15.5914 6.40864 15.4184 6.5816 15.2947 6.78343C15.1851 6.96237 15.1043 7.15746 15.0553 7.36154C15 7.59171 15 7.8363 15 8.32548V9H15.6745C16.1637 9 16.4083 9 16.6385 8.94474C16.8425 8.89575 17.0376 8.81494 17.2166 8.70528C17.4184 8.5816 17.5914 8.40865 17.9373 8.06274L21 5C21.5523 4.44771 21.5523 3.55228 21 3C20.4477 2.44772 19.5523 2.44772 19 3Z" stroke="#131316" stroke-width="2" stroke-linecap="round" stroke-linejoin="round"/>
</svg>
