<svg width="24" height="24" viewBox="0 0 24 24" fill="none" xmlns="http://www.w3.org/2000/svg">
<path d="M15 4L17 6L21 2M11 2.05791C7.05369 2.51925 4 5.69374 4 10C4 12.8644 5.88608 14.8508 8.03649 17.1156C9.38736 18.5383 10.8425 20.0709 12 22C13.1575 20.0709 14.6126 18.5383 15.9635 17.1156C18.1139 14.8508 20 12.8644 20 10C20 9.77021 19.9913 9.54363 19.9742 9.32052M14.9821 9.66998C14.9939 9.77836 15 9.88847 15 10C15 11.6569 13.6569 13 12 13C10.3431 13 9 11.6569 9 10C9 8.34315 10.3431 7.00001 12 7.00001C12.0471 7.00001 12.0939 7.0011 12.1405 7.00324" stroke="#131316" stroke-width="2" stroke-linecap="round" stroke-linejoin="round"/>
</svg>
