<svg width="24" height="24" viewBox="0 0 24 24" fill="none" xmlns="http://www.w3.org/2000/svg">
<path d="M13 2.0579C12.6724 2.0196 12.3387 2 12 2C7.58172 2 4 5.33626 4 10C4 12.8644 5.88608 14.8508 8.03649 17.1156C9.38736 18.5383 10.8425 20.0709 12 22C13.1575 20.0709 14.6126 18.5383 15.9635 17.1156C18.1139 14.8508 20 12.8644 20 10M17 4H21M19 2V6M12 13C10.3431 13 9 11.6569 9 10C9 8.34315 10.3431 7 12 7C13.6569 7 15 8.34315 15 10C15 11.6569 13.6569 13 12 13Z" stroke="#131316" stroke-width="2" stroke-linecap="round" stroke-linejoin="round"/>
</svg>
