<svg width="24" height="24" viewBox="0 0 24 24" fill="none" xmlns="http://www.w3.org/2000/svg">
<path d="M14.1547 8.87868C12.9831 7.70711 11.0836 7.70711 9.91201 8.87868C8.74044 10.0503 8.7 10.3333 8.7 10.3333M8.7 10.3333V8.66667M8.7 10.3333H10.3667M9.91201 13.1213C11.0836 14.2929 12.9831 14.2929 14.1547 13.1213C15.3262 11.9497 15.3667 11.6667 15.3667 11.6667M15.3667 11.6667V13.3333M15.3667 11.6667H13.7M20 11C20 16.4183 13 21 12 21C11 21 4 16.4183 4 11C4 6.58172 7.58172 3 12 3C16.4183 3 20 6.58172 20 11Z" stroke="#131316" stroke-width="2" stroke-linecap="round" stroke-linejoin="round"/>
</svg>
