<svg width="24" height="24" viewBox="0 0 24 24" fill="none" xmlns="http://www.w3.org/2000/svg">
<path d="M19.5 6.5L21 8M11.492 2.01482C7.31041 2.25968 4 5.51638 4 10C4 12.8644 5.88608 14.8508 8.03649 17.1156C9.38736 18.5383 10.8425 20.0709 12 22C13.1575 20.0709 14.6126 18.5383 15.9635 17.1156C17.6323 15.3581 19.1418 13.7682 19.7344 11.8056M11.5146 7.03907C10.0886 7.27107 9 8.50841 9 10C9 11.6569 10.3431 13 12 13C13.4916 13 14.7289 11.9114 14.9609 10.4854M20 4.5C20 5.88071 18.8807 7 17.5 7C16.1193 7 15 5.88071 15 4.5C15 3.11929 16.1193 2 17.5 2C18.8807 2 20 3.11929 20 4.5Z" stroke="#131316" stroke-width="2" stroke-linecap="round" stroke-linejoin="round"/>
</svg>
