<svg width="24" height="24" viewBox="0 0 24 24" fill="none" xmlns="http://www.w3.org/2000/svg">
<path d="M19.9996 10.0708C19.9688 12.8972 18.0962 14.8695 15.9635 17.1156C14.6126 18.5383 13.1575 20.0709 12 22C10.8425 20.0709 9.38736 18.5383 8.03649 17.1156C5.88608 14.8508 4 12.8644 4 10C4 5.36124 7.54346 2.03577 11.9291 2.00029M17 2L21 6M21 2L17 5.99998M9 10C9 11.6569 10.3431 13 12 13C13.6569 13 15 11.6569 15 10C15 8.34315 13.6569 7 12 7C10.3431 7 9 8.34315 9 10Z" stroke="#131316" stroke-width="2" stroke-linecap="round" stroke-linejoin="round"/>
</svg>
