<svg width="24" height="24" viewBox="0 0 24 24" fill="none" xmlns="http://www.w3.org/2000/svg">
<path d="M19.4547 2.87868C18.2831 1.70711 16.3836 1.70711 15.212 2.87868C14.0404 4.05025 14 4.33333 14 4.33333M14 4.33333V2.66667M14 4.33333H15.6667M15.212 7.12132C16.3836 8.29289 18.2831 8.29289 19.4547 7.12132C20.6262 5.94975 20.6667 5.66667 20.6667 5.66667M20.6667 5.66667V7.33333M20.6667 5.66667H19M10.3738 2.15517C6.73529 2.86261 4 5.92443 4 10C4 12.8644 5.88608 14.8508 8.03649 17.1156C9.38736 18.5383 10.8425 20.0709 12 22C13.1575 20.0709 14.6126 18.5383 15.9635 17.1156C17.6769 15.311 19.2225 13.6832 19.78 11.6472M14.6359 11.4337C14.1273 12.3669 13.1376 13 12 13C10.3431 13 9 11.6569 9 10C9 8.86244 9.63316 7.87275 10.5663 7.36413" stroke="#131316" stroke-width="2" stroke-linecap="round" stroke-linejoin="round"/>
</svg>
