<svg width="24" height="24" viewBox="0 0 24 24" fill="none" xmlns="http://www.w3.org/2000/svg">
<path d="M7.8 21H16.2C17.8802 21 18.7202 21 19.362 20.673C19.9265 20.3854 20.3854 19.9265 20.673 19.362C21 18.7202 21 17.8802 21 16.2V13.8C21 12.1198 21 11.2798 20.673 10.638C20.3854 10.0735 19.9265 9.6146 19.362 9.32698C18.7202 9 17.8802 9 16.2 9H7.8C6.11984 9 5.27976 9 4.63803 9.32698C4.07354 9.6146 3.6146 10.0735 3.32698 10.638C3 11.2798 3 12.1198 3 13.8L3 16.2C3 17.8802 3 18.7202 3.32698 19.362C3.6146 19.9265 4.07354 20.3854 4.63803 20.673C5.27976 21 6.11984 21 7.8 21Z" stroke="#131316" stroke-width="2" stroke-linecap="round" stroke-linejoin="round"/>
<path d="M12.2 3H11.8C10.1198 3 9.27976 3 8.63803 3.32698C8.07354 3.6146 7.6146 4.07354 7.32698 4.63803C7 5.27976 7 6.11984 7 7.8V9H17V7.8C17 6.11984 17 5.27976 16.673 4.63803C16.3854 4.07354 15.9265 3.6146 15.362 3.32698C14.7202 3 13.8802 3 12.2 3Z" stroke="#131316" stroke-width="2" stroke-linecap="round" stroke-linejoin="round"/>
</svg>
