<svg width="24" height="24" viewBox="0 0 24 24" fill="none" xmlns="http://www.w3.org/2000/svg">
<path d="M3 3L21 21M4.05712 9.71414C3.75683 9.96938 3.50799 10.2828 3.327 10.638C3.00002 11.2798 3.00002 12.1198 3.00002 13.8V16.2C3.00002 17.8802 3.00002 18.7202 3.327 19.362C3.61462 19.9265 4.07356 20.3854 4.63805 20.673C5.27978 21 6.11986 21 7.80002 21H15.3429M8.99982 9H16.2C17.8802 9 18.7203 9 19.362 9.32698C19.9265 9.6146 20.3854 10.0735 20.673 10.638C21 11.2798 21 12.1198 21 13.8V16.2C21 17.8802 21 18.7202 20.673 19.362C20.5292 19.6443 20.3425 19.9002 20.1212 20.1214L8.99982 9ZM8.99982 9H17V7.8C17 6.11984 17 5.27976 16.673 4.63803C16.3854 4.07354 15.9265 3.6146 15.362 3.32698C14.7202 3 13.8802 3 12.2 3H11.8C10.1198 3 9.27976 3 8.63803 3.32698C8.07354 3.6146 7.6146 4.07354 7.32698 4.63803C7.05643 5.16901 7.00974 5.83579 7.00168 7.00187L8.99982 9Z" stroke="#131316" stroke-width="2" stroke-linecap="round" stroke-linejoin="round"/>
</svg>
