<svg width="24" height="24" viewBox="0 0 24 24" fill="none" xmlns="http://www.w3.org/2000/svg">
<path d="M8 16V16.0099M12 16V16.0099M16 16V16.0099M15.2 22H8.8C7.11984 22 6.27976 22 5.63803 21.673C5.07354 21.3854 4.6146 20.9265 4.32698 20.362C4 19.7202 4 18.8802 4 17.2L4 14.8C4 13.1198 4 12.2798 4.32698 11.638C4.6146 11.0735 5.07354 10.6146 5.63803 10.327C6.27976 10 7.11984 10 8.8 10H15.2C16.8802 10 17.7202 10 18.362 10.327C18.9265 10.6146 19.3854 11.0735 19.673 11.638C20 12.2798 20 13.1198 20 14.8V17.2C20 18.8802 20 19.7202 19.673 20.362C19.3854 20.9265 18.9265 21.3854 18.362 21.673C17.7202 22 16.8802 22 15.2 22ZM16 6V10H8V6C8 3.79086 9.79086 2 12 2C14.2091 2 16 3.79086 16 6Z" stroke="#131316" stroke-width="2" stroke-linecap="round" stroke-linejoin="round"/>
</svg>
