<svg width="24" height="24" viewBox="0 0 24 24" fill="none" xmlns="http://www.w3.org/2000/svg">
<path d="M22 6.14282V17.0439C22 19.2288 20.241 21 18.0712 21C16.9077 21 15.8622 20.4906 15.1429 19.6813M2 7.98558C2.95327 6.65448 4.65939 5.88781 6.40533 6.01337C8.68187 6.1767 10 7.40558 10 9.05447V16M10 13.0943C8.99313 15.0448 6.94536 15.97 5.03369 15.9996C3.68153 16.02 2.30039 15.3123 2.03954 14.0644C1.81397 12.9881 2.55116 11.73 4.31413 11.3001C6.07711 10.8702 10 11.0285 10 11.0285M22 10.7143C22 13.239 20.2091 15.2857 18 15.2857C15.7909 15.2857 14 13.239 14 10.7143C14 8.18952 15.7909 6.14282 18 6.14282C20.2091 6.14282 22 8.18952 22 10.7143Z" stroke="#131316" stroke-width="2" stroke-linecap="round" stroke-linejoin="round"/>
</svg>
