<svg width="24" height="24" viewBox="0 0 24 24" fill="none" xmlns="http://www.w3.org/2000/svg">
<path d="M8 20V22M10 10V16M16 20V22M14 10V16M14.2 20H9.8C8.11984 20 7.27976 20 6.63803 19.673C6.07354 19.3854 5.6146 18.9265 5.32698 18.362C5 17.7202 5 16.8802 5 15.2L5 10.8C5 9.11984 5 8.27976 5.32698 7.63803C5.6146 7.07354 6.07354 6.6146 6.63803 6.32698C7.27976 6 8.11984 6 9.8 6H14.2C15.8802 6 16.7202 6 17.362 6.32698C17.9265 6.6146 18.3854 7.07354 18.673 7.63803C19 8.27976 19 9.11984 19 10.8V15.2C19 16.8802 19 17.7202 18.673 18.362C18.3854 18.9265 17.9265 19.3854 17.362 19.673C16.7202 20 15.8802 20 14.2 20ZM14 6H10V4C10 2.89543 10.8954 2 12 2C13.1046 2 14 2.89543 14 4V6Z" stroke="#131316" stroke-width="2" stroke-linecap="round" stroke-linejoin="round"/>
</svg>
