<svg width="24" height="24" viewBox="0 0 24 24" fill="none" xmlns="http://www.w3.org/2000/svg">
<path d="M21 21L18 18M11.0462 4.35099C10.7296 4.58732 10.5713 4.70549 10.4042 4.78904C10.018 4.98211 9.5817 5.05134 9.15474 4.9873C8.96996 4.95958 8.78309 4.8963 8.40936 4.76973C7.14702 4.34221 6.51585 4.12846 6.08196 4.16442C5.06007 4.24912 4.24912 5.06007 4.16442 6.08196C4.12846 6.51585 4.34221 7.14702 4.76973 8.40936C4.8963 8.78309 4.95958 8.96996 4.9873 9.15474C5.05134 9.5817 4.98211 10.018 4.78904 10.4042C4.70549 10.5713 4.58732 10.7296 4.35099 11.0462C3.55558 12.1116 3.15788 12.6444 3.05743 13.0659C2.81873 14.0675 3.34215 15.0942 4.29291 15.4895C4.69301 15.6558 5.35657 15.647 6.6837 15.6293C7.0774 15.624 7.27425 15.6214 7.45823 15.6518C7.88531 15.7225 8.28007 15.9235 8.58839 16.2274C8.72121 16.3583 8.83488 16.5191 9.06222 16.8406C9.82886 17.925 10.2122 18.4672 10.5824 18.693C11.4603 19.2285 12.5969 19.0487 13.2667 18.2686C13.5492 17.9395 13.7471 17.3038 14.1428 16.0325C14.2606 15.654 14.3195 15.4647 14.406 15.2985C14.6048 14.9164 14.9164 14.6048 15.2985 14.406C15.4647 14.3195 15.654 14.2606 16.0325 14.1428C17.3038 13.7471 17.9395 13.5492 18.2686 13.2667C19.0487 12.5969 19.2285 11.4603 18.693 10.5824C18.4672 10.2122 17.925 9.82885 16.8406 9.06222C16.5191 8.83488 16.3583 8.72121 16.2274 8.58839C15.9235 8.28007 15.7225 7.88531 15.6518 7.45823C15.6214 7.27425 15.624 7.0774 15.6293 6.6837C15.647 5.35657 15.6558 4.69301 15.4895 4.29291C15.0942 3.34215 14.0675 2.81873 13.0659 3.05743C12.6444 3.15787 12.1116 3.55558 11.0462 4.35099Z" stroke="#131316" stroke-width="2" stroke-linecap="round" stroke-linejoin="round"/>
</svg>
