<svg width="24" height="24" viewBox="0 0 24 24" fill="none" xmlns="http://www.w3.org/2000/svg">
<path d="M4.03488 7.11217C4.46525 6.55192 5.06164 6.11248 6.25441 5.2336L7.25441 4.49676C8.95831 3.24125 9.81027 2.61349 10.7436 2.37119C11.5675 2.15727 12.4325 2.15728 13.2564 2.37119C14.1897 2.61349 15.0417 3.24125 16.7456 4.49676L17.7456 5.2336C18.9384 6.11248 19.5347 6.55192 19.9651 7.11217M4.03488 7.11217C3.65372 7.60835 3.36908 8.17165 3.19573 8.77283C3 9.45165 3 10.1925 3 11.6741L3 14C3 16.8003 3 18.2004 3.54497 19.27C4.02433 20.2108 4.78924 20.9757 5.73005 21.455C6.79961 22 8.19974 22 11 22H13C15.8003 22 17.2004 22 18.27 21.455C19.2108 20.9757 19.9757 20.2108 20.455 19.27C21 18.2004 21 16.8003 21 14V11.674C21 10.1924 21 9.45165 20.8043 8.77283C20.6309 8.17165 20.3463 7.60835 19.9651 7.11217M4.03488 7.11217C3.72028 7.5217 3.47144 7.97696 3.29665 8.46151L10.3894 12.9751C11.3721 13.6004 12.6279 13.6004 13.6106 12.9751L20.7034 8.46151C20.5286 7.97697 20.2797 7.5217 19.9651 7.11217" stroke="#131316" stroke-width="2" stroke-linecap="round" stroke-linejoin="round"/>
</svg>
