<svg width="24" height="24" viewBox="0 0 24 24" fill="none" xmlns="http://www.w3.org/2000/svg">
<path d="M18.27 2.54497C17.2004 2 15.8003 2 13 2L11 2C8.19974 2 6.79961 2 5.73005 2.54497M18.27 2.54497C19.2108 3.02433 19.9757 3.78924 20.455 4.73005C21 5.79961 21 7.19974 21 10V14C21 16.8003 21 18.2004 20.455 19.27M18.27 2.54497C18.9535 2.89326 19.5442 3.39229 20 4L14.1213 9.87868M5.73005 2.54497C4.78924 3.02433 4.02433 3.78924 3.54497 4.73005C3 5.79961 3 7.19974 3 10L3 14C3 16.8003 3 18.2004 3.54497 19.27M5.73005 2.54497C5.04649 2.89326 4.45579 3.39228 4 3.99999L9.87869 9.87868M3.54497 19.27C4.02433 20.2108 4.78924 20.9757 5.73005 21.455C6.79961 22 8.19974 22 11 22H13C15.8003 22 17.2004 22 18.27 21.455C19.2108 20.9757 19.9757 20.2108 20.455 19.27M3.54497 19.27C3.06904 18.3359 3.0086 17.1497 3.00096 14.9991L9.00001 9L9.87869 9.87868M20.455 19.27C20.931 18.3358 20.9911 17.1496 20.9987 14.9987L15 9L14.1213 9.87868M9.87869 9.87868C11.0503 11.0503 12.9498 11.0503 14.1213 9.87868" stroke="#131316" stroke-width="2" stroke-linecap="round" stroke-linejoin="round"/>
</svg>
