<svg width="24" height="24" viewBox="0 0 24 24" fill="none" xmlns="http://www.w3.org/2000/svg">
<path d="M8 14H2M7 18H3M7.78785 21.9375C8.60993 22 9.63978 22 11 22H13C15.8003 22 17.2004 22 18.27 21.455C19.2108 20.9757 19.9757 20.2108 20.455 19.27M3 10C3 7.19974 3 5.79961 3.54497 4.73005C4.02433 3.78924 4.78924 3.02433 5.73005 2.54497M5.73005 2.54497C6.79961 2 8.19974 2 11 2H13C15.8003 2 17.2004 2 18.27 2.54497M5.73005 2.54497C5.04649 2.89326 4.45579 3.39228 4 3.99999L9.87847 9.87868M18.27 2.54497C19.2108 3.02433 19.9757 3.78924 20.455 4.73005C21 5.79961 21 7.19974 21 10V14C21 16.8003 21 18.2004 20.455 19.27M18.27 2.54497C18.9535 2.89326 19.5442 3.39229 20 4L14.1211 9.87868M20.455 19.27C20.931 18.3358 20.9909 17.1496 20.9985 14.9987L14.9998 9L14.1211 9.87868M14.1211 9.87868C12.9495 11.0502 11.05 11.0503 9.87847 9.87868M9.87847 9.87868L8.99979 9L7.91531 10.0845" stroke="#131316" stroke-width="2" stroke-linecap="round" stroke-linejoin="round"/>
</svg>
