<svg width="24" height="24" viewBox="0 0 24 24" fill="none" xmlns="http://www.w3.org/2000/svg">
<path d="M6 8L9.39488 10.2384C10.3605 10.875 10.8433 11.1934 11.364 11.3153C11.8241 11.4231 12.3033 11.4207 12.7623 11.3082C13.2817 11.1809 13.7612 10.8576 14.7202 10.2111L18 8M14 20H10C7.19974 20 5.79961 20 4.73005 19.455C3.78924 18.9757 3.02433 18.2108 2.54497 17.27C2 16.2004 2 14.8003 2 12C2 9.19974 2 7.79961 2.54497 6.73005C3.02433 5.78924 3.78924 5.02433 4.73005 4.54497C5.79961 4 7.19974 4 10 4L14 4C16.8003 4 18.2004 4 19.27 4.54497C20.2108 5.02433 20.9757 5.78924 21.455 6.73005C22 7.79961 22 9.19974 22 12C22 14.8003 22 16.2004 21.455 17.27C20.9757 18.2108 20.2108 18.9757 19.27 19.455C18.2004 20 16.8003 20 14 20Z" stroke="#131316" stroke-width="2" stroke-linecap="round" stroke-linejoin="round"/>
</svg>
