<svg width="24" height="24" viewBox="0 0 24 24" fill="none" xmlns="http://www.w3.org/2000/svg">
<path d="M10.8 10.5333C10.8 11.9324 9.3 12.5 8.4 14C7.5 12.5 6 11.9324 6 10.5333C6 9.13417 7.07452 7.99996 8.4 7.99996C9.72548 7.99996 10.8 9.13417 10.8 10.5333Z" stroke="#131316" stroke-width="2" stroke-linecap="round" stroke-linejoin="round"/>
<path d="M2 8.10309L2 15.6874C2 17.4392 2 18.315 2.36829 18.8347C2.69072 19.2896 3.18843 19.5892 3.74134 19.6614C4.37289 19.7437 5.14699 19.3339 6.69519 18.5143C7.17471 18.2604 7.41447 18.1335 7.66836 18.0746C7.89399 18.0223 8.127 18.0096 8.35698 18.0371C8.61576 18.068 8.8679 18.1681 9.37217 18.3683L14.6272 20.4549C15.1321 20.6554 15.3845 20.7556 15.6436 20.7864C15.8732 20.8138 16.1058 20.8011 16.3311 20.749C16.5853 20.6901 16.8253 20.563 17.3054 20.3089L20.2972 18.725C20.9162 18.3973 21.2257 18.2334 21.4514 17.9953C21.6511 17.7847 21.8025 17.5332 21.8952 17.2583C22 16.9474 22 16.5972 22 15.8968V8.31254C22 6.56076 22 5.68487 21.6317 5.16526C21.3093 4.71034 20.8116 4.41068 20.2587 4.33857C19.6271 4.2562 18.853 4.66602 17.3048 5.48565C16.8253 5.73951 16.5855 5.86645 16.3316 5.92529C16.106 5.97758 15.873 5.99028 15.643 5.96283C15.3842 5.93194 15.1321 5.83183 14.6278 5.6316L9.37277 3.54503C8.86792 3.34457 8.61547 3.24434 8.35638 3.21349C8.12679 3.18616 7.8942 3.19884 7.66895 3.25097C7.41474 3.3098 7.1747 3.43688 6.69462 3.69104L3.70276 5.27497C3.08379 5.60266 2.77428 5.76652 2.54858 6.0046C2.34894 6.21518 2.19751 6.46669 2.10481 6.74166C2 7.05253 2 7.40272 2 8.10309Z" stroke="#131316" stroke-width="2" stroke-linecap="round" stroke-linejoin="round"/>
</svg>
