<svg width="24" height="24" viewBox="0 0 24 24" fill="none" xmlns="http://www.w3.org/2000/svg">
<path d="M16 5.97333C15.8812 5.98047 15.7617 5.977 15.643 5.96283C15.3842 5.93194 15.1321 5.83183 14.6278 5.6316L9.37277 3.54503C8.86792 3.34457 8.61547 3.24434 8.35638 3.21349C8.23791 3.19939 8.11865 3.19593 8 3.20306M16 5.97333C16.1115 5.96664 16.2224 5.9506 16.3316 5.92529C16.5855 5.86645 16.8253 5.73951 17.3048 5.48565C18.853 4.66602 19.6271 4.2562 20.2587 4.33857C20.8116 4.41068 21.3093 4.71034 21.6317 5.16526C22 5.68487 22 6.56076 22 8.31254V15.8968C22 16.5972 22 16.9474 21.8952 17.2583C21.8025 17.5332 21.6511 17.7847 21.4514 17.9953C21.2257 18.2334 20.9162 18.3973 20.2972 18.725L17.3054 20.3089C16.8253 20.563 16.5853 20.6901 16.3311 20.749C16.222 20.7742 16.1113 20.7902 16 20.7969M16 5.97333L16 20.7969M16 20.7969C15.8814 20.804 15.7621 20.8005 15.6436 20.7864C15.3845 20.7556 15.1321 20.6554 14.6272 20.4549L9.37217 18.3683C8.8679 18.1681 8.61576 18.068 8.35698 18.0371C8.23831 18.0229 8.11884 18.0195 8 18.0266M8 18.0266C7.88851 18.0333 7.77757 18.0493 7.66836 18.0746C7.41447 18.1335 7.17471 18.2604 6.69519 18.5143C5.14699 19.3339 4.37289 19.7437 3.74134 19.6614C3.18843 19.5892 2.69072 19.2896 2.36829 18.8347C2 18.315 2 17.4392 2 15.6874L2 8.10309C2 7.40272 2 7.05253 2.10481 6.74166C2.19751 6.46669 2.34894 6.21518 2.54858 6.0046C2.77428 5.76652 3.08379 5.60266 3.70276 5.27497L6.69462 3.69104C7.1747 3.43688 7.41474 3.3098 7.66895 3.25097C7.77797 3.22574 7.88871 3.20975 8 3.20306M8 18.0266L8 3.20306" stroke="#131316" stroke-width="2" stroke-linecap="round" stroke-linejoin="round"/>
</svg>
