<svg width="24" height="24" viewBox="0 0 24 24" fill="none" xmlns="http://www.w3.org/2000/svg">
<path d="M12 16C15.866 16 19 12.866 19 9C19 5.13401 15.866 2 12 2C8.13401 2 5 5.13401 5 9C5 12.866 8.13401 16 12 16ZM12 16C13.4872 16 14.8662 15.5362 16 14.7453V22L12 21L8 22V14.7453C9.13383 15.5362 10.5128 16 12 16ZM10.5348 7.59661L9.52814 7.74398C9.02367 7.81784 8.82153 8.43708 9.18527 8.79435L9.91962 9.51565C10.0637 9.65712 10.1293 9.86014 10.0955 10.0592L9.92301 11.0727C9.83715 11.5772 10.3677 11.9608 10.8199 11.7212L11.7112 11.2489C11.8918 11.1532 12.1082 11.1532 12.2888 11.2489L13.1801 11.7212C13.6323 11.9608 14.1629 11.5772 14.077 11.0727L13.9045 10.0592C13.8707 9.86014 13.9363 9.65712 14.0804 9.51565L14.8147 8.79435C15.1785 8.43708 14.9763 7.81784 14.4719 7.74398L13.4652 7.59661C13.2639 7.56714 13.0901 7.4403 13.0006 7.25758L12.554 6.34553C12.3283 5.88482 11.6717 5.88482 11.446 6.34553L10.9994 7.25758C10.9099 7.4403 10.7361 7.56714 10.5348 7.59661Z" stroke="#131316" stroke-width="2" stroke-linecap="round" stroke-linejoin="round"/>
</svg>
