<svg width="24" height="24" viewBox="0 0 24 24" fill="none" xmlns="http://www.w3.org/2000/svg">
<path d="M12 6V10M9.06955 13.1932L7.05628 13.488C6.04733 13.6357 5.64305 14.8742 6.37053 15.5887L7.83924 17.0313C8.12732 17.3142 8.25868 17.7203 8.19095 18.1184L7.84601 20.1454C7.6743 21.1545 8.73532 21.9217 9.63978 21.4424L11.4224 20.4978C11.7837 20.3064 12.2163 20.3064 12.5776 20.4978L14.3602 21.4424C15.2647 21.9217 16.3257 21.1545 16.154 20.1454L15.8091 18.1184C15.7413 17.7203 15.8727 17.3142 16.1608 17.0313L17.6295 15.5887C18.3569 14.8742 17.9527 13.6357 16.9437 13.488L14.9304 13.1932C14.5278 13.1343 14.1802 12.8806 14.0012 12.5152L13.1079 10.6911C12.6567 9.76965 11.3433 9.76965 10.8921 10.6911L9.99877 12.5152C9.8198 12.8806 9.47216 13.1343 9.06955 13.1932ZM8.19258 2L15.8074 2C16.4661 2 17 2.53394 17 3.19258C17 3.68023 16.7031 4.11876 16.2503 4.29987L13.1885 5.52462C12.7494 5.70024 12.5299 5.78805 12.3032 5.82281C12.1023 5.85364 11.8977 5.85364 11.6968 5.82281C11.4701 5.78805 11.2506 5.70024 10.8115 5.52462L7.74967 4.29987C7.2969 4.11876 7 3.68023 7 3.19258C7 2.53394 7.53394 2 8.19258 2Z" stroke="#131316" stroke-width="2" stroke-linecap="round" stroke-linejoin="round"/>
</svg>
