<svg width="24" height="24" viewBox="0 0 24 24" fill="none" xmlns="http://www.w3.org/2000/svg">
<path d="M12 8.90629L11.1622 9.45228C11.3468 9.7355 11.6619 9.90629 12 9.90629C12.3381 9.90629 12.6532 9.7355 12.8378 9.45228L12 8.90629ZM12 14L11.5091 14.8712C11.8139 15.0429 12.1861 15.0429 12.4909 14.8712L12 14ZM14.0022 18.9989L13.9987 17.9989C13.8446 17.9994 13.6928 18.0356 13.555 18.1045L14.0022 18.9989ZM18.27 18.455L17.816 17.564H17.816L18.27 18.455ZM20.455 16.27L19.564 15.816V15.816L20.455 16.27ZM20.455 4.73005L19.564 5.18404V5.18404L20.455 4.73005ZM18.27 2.54497L17.816 3.43597L17.816 3.43597L18.27 2.54497ZM5.73005 2.54497L6.18404 3.43597L5.73005 2.54497ZM3.54497 4.73005L4.43597 5.18404L4.43597 5.18404L3.54497 4.73005ZM3.54497 16.27L4.43597 15.816L4.43597 15.816L3.54497 16.27ZM5.73005 18.455L6.18404 17.564H6.18404L5.73005 18.455ZM8 18.952H9C9 18.4234 8.58858 17.9861 8.06095 17.9539L8 18.952ZM8 22H7C7 22.3466 7.17945 22.6684 7.47427 22.8507C7.76909 23.0329 8.13723 23.0494 8.44721 22.8944L8 22ZM13.5909 7C12.5318 7 11.6659 7.58737 11.1622 8.36031L12.8378 9.45228C13.0341 9.15109 13.3136 9 13.5909 9V7ZM12.8378 8.36031C12.3341 7.58737 11.4682 7 10.4091 7V9C10.6864 9 10.9659 9.15109 11.1622 9.45228L12.8378 8.36031ZM10.4091 7C8.75708 7 7.5 8.40508 7.5 10.014H9.5C9.5 9.40751 9.9611 9 10.4091 9V7ZM7.5 10.014C7.5 10.8037 7.83893 11.5054 8.22802 12.0605C8.62279 12.6236 9.12887 13.1212 9.60184 13.5237C10.0793 13.9301 10.5519 14.264 10.9027 14.4953C11.079 14.6115 11.2269 14.7034 11.3323 14.7671C11.385 14.799 11.4273 14.8239 11.4573 14.8414C11.4723 14.8502 11.4843 14.8571 11.493 14.862C11.4973 14.8645 11.5009 14.8666 11.5036 14.8681C11.5049 14.8689 11.5061 14.8695 11.507 14.87C11.5074 14.8703 11.5079 14.8705 11.5082 14.8707C11.5084 14.8708 11.5086 14.8709 11.5087 14.871C11.5089 14.8711 11.5091 14.8712 12 14C12.4909 13.1288 12.4911 13.1289 12.4912 13.129C12.4912 13.129 12.4914 13.1291 12.4915 13.1291C12.4916 13.1292 12.4917 13.1292 12.4917 13.1293C12.4918 13.1293 12.4917 13.1292 12.4914 13.129C12.4907 13.1287 12.4892 13.1278 12.4869 13.1265C12.4824 13.1239 12.4747 13.1195 12.4641 13.1133C12.4429 13.1009 12.4099 13.0815 12.367 13.0556C12.2809 13.0036 12.1554 12.9256 12.0036 12.8255C11.6981 12.6241 11.2957 12.3391 10.8982 12.0007C10.4961 11.6585 10.1272 11.2855 9.86573 10.9124C9.59857 10.5313 9.5 10.2313 9.5 10.014H7.5ZM12 14C12.4909 14.8712 12.4911 14.8711 12.4913 14.871C12.4914 14.8709 12.4916 14.8708 12.4918 14.8707C12.4921 14.8705 12.4926 14.8703 12.493 14.87C12.4939 14.8695 12.4951 14.8689 12.4964 14.8681C12.4991 14.8666 12.5027 14.8645 12.507 14.862C12.5157 14.8571 12.5277 14.8502 12.5427 14.8414C12.5727 14.8239 12.615 14.799 12.6677 14.7671C12.7731 14.7034 12.921 14.6115 13.0973 14.4953C13.4481 14.264 13.9207 13.9301 14.3982 13.5237C14.8711 13.1212 15.3772 12.6236 15.772 12.0605C16.1611 11.5054 16.5 10.8037 16.5 10.014H14.5C14.5 10.2313 14.4014 10.5313 14.1343 10.9124C13.8728 11.2855 13.5039 11.6585 13.1018 12.0007C12.7043 12.3391 12.3019 12.6241 11.9964 12.8255C11.8446 12.9256 11.7191 13.0036 11.633 13.0556C11.5901 13.0815 11.5571 13.1009 11.5359 13.1133C11.5253 13.1195 11.5176 13.1239 11.5131 13.1265C11.5108 13.1278 11.5093 13.1287 11.5086 13.129C11.5083 13.1292 11.5082 13.1293 11.5083 13.1293C11.5083 13.1292 11.5084 13.1292 11.5085 13.1291C11.5086 13.1291 11.5088 13.129 11.5088 13.129C11.5089 13.1289 11.5091 13.1288 12 14ZM16.5 10.014C16.5 8.40508 15.2429 7 13.5909 7V9C14.0389 9 14.5 9.40751 14.5 10.014H16.5ZM14.0058 19.9989C16.091 19.9914 17.5374 19.9506 18.7239 19.346L17.816 17.564C17.1353 17.9108 16.2107 17.991 13.9987 17.9989L14.0058 19.9989ZM18.7239 19.346C19.8529 18.7708 20.7708 17.8529 21.346 16.7239L19.564 15.816C19.1805 16.5686 18.5686 17.1805 17.816 17.564L18.7239 19.346ZM21.346 16.7239C21.7023 16.0247 21.8554 15.261 21.9286 14.3654C22.0008 13.4815 22 12.3836 22 11H20C20 12.4166 19.9992 13.419 19.9352 14.2026C19.8721 14.9745 19.7527 15.4457 19.564 15.816L21.346 16.7239ZM22 11V10H20V11H22ZM22 10C22 8.61637 22.0008 7.51851 21.9286 6.63458C21.8554 5.73898 21.7023 4.9753 21.346 4.27606L19.564 5.18404C19.7527 5.55435 19.8721 6.02552 19.9352 6.79744C19.9992 7.58104 20 8.58337 20 10H22ZM21.346 4.27606C20.7708 3.14708 19.8529 2.2292 18.7239 1.65396L17.816 3.43597C18.5686 3.81947 19.1805 4.43139 19.564 5.18404L21.346 4.27606ZM18.7239 1.65396C18.0247 1.29768 17.261 1.14462 16.3654 1.07144C15.4815 0.999222 14.3836 1 13 1V3C14.4166 3 15.419 3.00078 16.2026 3.0648C16.9745 3.12787 17.4457 3.24729 17.816 3.43597L18.7239 1.65396ZM13 1H11V3H13V1ZM11 1C9.61637 1 8.51851 0.999222 7.63458 1.07144C6.73898 1.14462 5.9753 1.29768 5.27606 1.65396L6.18404 3.43597C6.55435 3.24729 7.02552 3.12787 7.79744 3.0648C8.58104 3.00078 9.58337 3 11 3V1ZM5.27606 1.65396C4.14709 2.2292 3.2292 3.14708 2.65396 4.27606L4.43597 5.18404C4.81947 4.43139 5.43139 3.81947 6.18404 3.43597L5.27606 1.65396ZM2.65396 4.27606C2.29768 4.9753 2.14462 5.73898 2.07144 6.63458C1.99922 7.51851 2 8.61637 2 10H4C4 8.58337 4.00078 7.58104 4.0648 6.79744C4.12787 6.02552 4.24729 5.55435 4.43597 5.18404L2.65396 4.27606ZM2 10V11H4V10H2ZM2 11C2 12.3836 1.99922 13.4815 2.07144 14.3654C2.14462 15.261 2.29768 16.0247 2.65396 16.7239L4.43597 15.816C4.24729 15.4457 4.12787 14.9745 4.0648 14.2026C4.00078 13.419 4 12.4166 4 11H2ZM2.65396 16.7239C3.2292 17.8529 4.14709 18.7708 5.27606 19.346L6.18404 17.564C5.43139 17.1805 4.81947 16.5686 4.43597 15.816L2.65396 16.7239ZM5.27606 19.346C6.05112 19.741 6.90835 19.8872 7.93905 19.9502L8.06095 17.9539C7.13059 17.8971 6.59651 17.7742 6.18404 17.564L5.27606 19.346ZM9 22V18.952H7V22H9ZM13.555 18.1045L7.55279 21.1056L8.44721 22.8944L14.4495 19.8933L13.555 18.1045Z" fill="#131316"/>
</svg>
