<svg width="24" height="24" viewBox="0 0 24 24" fill="none" xmlns="http://www.w3.org/2000/svg">
<path d="M9.99992 12H13.9999M9.99992 12C8.89535 12 7.99992 12.8954 7.99992 14C7.99992 15.1046 8.89535 16 9.99992 16H13.9999C15.1045 16 15.9999 15.1046 15.9999 14C15.9999 12.8954 15.1045 12 13.9999 12M9.99992 12V10C9.99992 8.89543 10.8953 8 11.9999 8C13.1045 8 13.9999 8.89543 13.9999 10V12M21 12C21 16.9706 16.9706 21 12 21C10.7098 21 8.23 21 6.19959 21C5.07976 21 4.51984 21 4.09202 20.782C3.71569 20.5903 3.40973 20.2843 3.21799 19.908C3 19.4802 3 18.9202 3 17.8002C3 15.7996 3 13.3539 3 12C3 7.02944 7.02944 3 12 3C16.9706 3 21 7.02944 21 12Z" stroke="#131316" stroke-width="2" stroke-linecap="round" stroke-linejoin="round"/>
</svg>
