<svg width="24" height="24" viewBox="0 0 24 24" fill="none" xmlns="http://www.w3.org/2000/svg">
<path d="M15 2.01105C14.423 2 13.7635 2 13 2H11C8.19974 2 6.79961 2 5.73005 2.54497C4.78924 3.02433 4.02433 3.78924 3.54497 4.73005C3 5.79961 3 7.19974 3 10V11C3 13.8003 3 15.2004 3.54497 16.27C4.02433 17.2108 4.78924 17.9757 5.73005 18.455C6.32382 18.7576 7.01947 18.8922 8 18.952V22L14.0022 18.9989C16.1509 18.9912 17.3364 18.9307 18.27 18.455C19.2108 17.9757 19.9757 17.2108 20.455 16.27C20.8514 15.492 20.9595 14.5392 20.989 13M19 2V4.99995M19 8.99005V9" stroke="#131316" stroke-width="2" stroke-linecap="round" stroke-linejoin="round"/>
</svg>
