<svg width="24" height="24" viewBox="0 0 24 24" fill="none" xmlns="http://www.w3.org/2000/svg">
<path d="M10 12H14M10 12C8.89543 12 8 12.8954 8 14C8 15.1046 8.89543 16 10 16H14C15.1046 16 16 15.1046 16 14C16 12.8954 15.1046 12 14 12M10 12V10C10 8.89543 10.8954 8 12 8C13.1046 8 14 8.89543 14 10V12M21.0002 12C21.0002 16.9706 16.9707 21 12.0002 21C10.6759 21 9.41851 20.714 8.28628 20.2004L3 21L3.91676 15.9617C3.32978 14.7663 3.00017 13.4216 3.00017 12C3.00017 7.02944 7.02961 3 12.0002 3C16.9707 3 21.0002 7.02944 21.0002 12Z" stroke="#131316" stroke-width="2" stroke-linecap="round" stroke-linejoin="round"/>
</svg>
