<svg width="24" height="24" viewBox="0 0 24 24" fill="none" xmlns="http://www.w3.org/2000/svg">
<path d="M10 9.875C10 8.83947 10.8395 8 11.875 8C12.9105 8 13.75 8.83947 13.75 9.875C13.75 10.4728 13.4702 11.0053 13.0344 11.3486C12.4922 11.7759 11.875 12.3096 11.875 13M11.875 16V16.01M21.0002 12C21.0002 16.9706 16.9707 21 12.0002 21C10.6759 21 9.41851 20.714 8.28628 20.2004L3 21L3.91676 15.9617C3.32978 14.7663 3.00017 13.4216 3.00017 12C3.00017 7.02944 7.02961 3 12.0002 3C16.9707 3 21.0002 7.02944 21.0002 12Z" stroke="#131316" stroke-width="2" stroke-linecap="round" stroke-linejoin="round"/>
</svg>
