<svg width="24" height="24" viewBox="0 0 24 24" fill="none" xmlns="http://www.w3.org/2000/svg">
<path d="M19 9V15C19 16.8613 19 17.7919 18.7553 18.5451C18.2607 20.0673 17.0673 21.2607 15.5451 21.7553C14.7919 22 13.8613 22 12 22C10.1387 22 9.20808 22 8.45492 21.7553C6.93273 21.2607 5.73931 20.0673 5.24472 18.5451C5 17.7919 5 16.8613 5 15L5 9M19 9C19 7.13872 19 6.20808 18.7553 5.45491C18.2607 3.93273 17.0673 2.73931 15.5451 2.24472C14.7919 2 13.8613 2 12 2M19 9H12M5 9C5 7.13872 5 6.20808 5.24472 5.45491C5.73931 3.93273 6.93273 2.73931 8.45492 2.24472C9.20808 2 10.1387 2 12 2M5 9H12M12 2V3V8L12 9" stroke="#131316" stroke-width="2" stroke-linecap="round" stroke-linejoin="round"/>
</svg>
