<svg width="24" height="24" viewBox="0 0 24 24" fill="none" xmlns="http://www.w3.org/2000/svg">
<path d="M8 18V9.16303M8 18C8 19.6569 6.65685 21 5 21C3.34315 21 2 19.6569 2 18C2 16.3432 3.34315 15 5 15C6.65685 15 8 16.3432 8 18ZM22 18V8.53446C22 6.62543 22 5.67092 21.6126 4.98455C21.2726 4.38203 20.7347 3.91556 20.0902 3.66414C19.3559 3.37774 18.411 3.51273 16.5212 3.7827L12.1212 4.41127M22 18C22 19.6569 20.6569 21 19 21C17.3431 21 16 19.6569 16 18C16 16.3432 17.3431 15 19 15C20.6569 15 22 16.3432 22 18ZM8 9.16303C8 7.68692 8 6.94886 8.27144 6.35492C8.51065 5.8315 8.89535 5.38794 9.37967 5.07712C9.92926 4.7244 10.6599 4.62003 12.1212 4.41127M8 9.16303L8 10L22 8.00001C22 6.58651 22 5.87976 21.7843 5.34212C21.4239 4.44374 20.6522 3.77445 19.7119 3.54474C19.1492 3.40727 18.4495 3.50722 17.0503 3.70712L12.1212 4.41127" stroke="#131316" stroke-width="2" stroke-linecap="round" stroke-linejoin="round"/>
</svg>
