<svg width="24" height="24" viewBox="0 0 24 24" fill="none" xmlns="http://www.w3.org/2000/svg">
<path d="M8 18V7.8C8 6.11984 8 5.27976 8.32698 4.63803C8.6146 4.07354 9.07354 3.6146 9.63803 3.32698C10.2798 3 11.1198 3 12.8 3L17.2 3C18.8802 3 19.7202 3 20.362 3.32698C20.9265 3.6146 21.3854 4.07354 21.673 4.63803C22 5.27976 22 6.11984 22 7.8V18M8 18C8 19.6569 6.65685 21 5 21C3.34315 21 2 19.6569 2 18C2 16.3431 3.34315 15 5 15C6.65685 15 8 16.3431 8 18ZM22 18C22 19.6569 20.6569 21 19 21C17.3431 21 16 19.6569 16 18C16 16.3431 17.3431 15 19 15C20.6569 15 22 16.3431 22 18Z" stroke="#131316" stroke-width="2" stroke-linecap="round" stroke-linejoin="round"/>
</svg>
