<svg width="24" height="24" viewBox="0 0 24 24" fill="none" xmlns="http://www.w3.org/2000/svg">
<path d="M12 19C12 20.6569 10.6569 22 9 22C7.34315 22 6 20.6569 6 19C6 17.3432 7.34315 16 9 16C10.6569 16 12 17.3432 12 19ZM12 19L12 5.85415C12 4.42888 12 3.71625 12.2532 3.26219C12.5907 2.65677 13.2176 2.26929 13.9101 2.23814C14.4294 2.21477 15.0668 2.53347 16.3416 3.17087C16.8763 3.43818 17.1436 3.57184 17.3492 3.75976C17.6234 4.01033 17.8224 4.33229 17.9239 4.68958C18 4.95755 18 5.25641 18 5.85415V6.00005M16 20L20 20" stroke="#131316" stroke-width="2" stroke-linecap="round" stroke-linejoin="round"/>
</svg>
