<svg width="24" height="24" viewBox="0 0 24 24" fill="none" xmlns="http://www.w3.org/2000/svg">
<path d="M12 20H11C8.19974 20 6.79961 20 5.73005 19.455C4.78924 18.9757 4.02433 18.2108 3.54497 17.27C3 16.2004 3 14.8003 3 12M12 20C12 18.8954 12.8954 18 14 18H19C20.1046 18 21 18.8954 21 20C21 21.1046 20.1046 22 19 22H14C12.8954 22 12 21.1046 12 20ZM3 12L3 2M3 12H12M12 12C12 10.8954 12.8954 10 14 10H19C20.1046 10 21 10.8954 21 12C21 13.1046 20.1046 14 19 14H14C12.8954 14 12 13.1046 12 12ZM12 4H3M12 4C12 2.89543 12.8954 2 14 2L19 2C20.1046 2 21 2.89543 21 4C21 5.10457 20.1046 6 19 6H14C12.8954 6 12 5.10457 12 4Z" stroke="#131316" stroke-width="2" stroke-linecap="round" stroke-linejoin="round"/>
</svg>
