<svg width="24" height="24" viewBox="0 0 24 24" fill="none" xmlns="http://www.w3.org/2000/svg">
<path d="M4.27159 9.79712L11.1912 2.87753M4.27159 9.79712C3.08354 10.9852 2.48951 11.5792 2.26695 12.2642C2.07117 12.8667 2.07117 13.5158 2.26695 14.1183C2.48951 14.8033 3.08354 15.3973 4.27159 16.5854L5.96865 18.2824C7.1567 19.4705 7.75072 20.0645 8.43571 20.287C9.03824 20.4828 9.68728 20.4828 10.2898 20.287C10.9748 20.0645 11.5688 19.4705 12.7569 18.2824M4.27159 9.79712L4.50045 9.5685L15.0395 16L12.7569 18.2824M11.1912 2.87753L16.2824 7.9687C17.4704 9.15675 18.0644 9.75077 18.287 10.4358C18.4828 11.0383 18.4828 11.6873 18.287 12.2899C18.0644 12.9748 17.4704 13.5689 16.2824 14.7569L12.7569 18.2824M11.1912 2.87753L10.3138 2.00012M22.0005 20C22.0005 21.1046 21.105 22 20.0005 22C18.8959 22 18.0005 21.1046 18.0005 20C18.0005 18.8954 20.0005 17 20.0005 17C20.0005 17 22.0005 18.8954 22.0005 20Z" stroke="#131316" stroke-width="2" stroke-linecap="round" stroke-linejoin="round"/>
</svg>
