<svg width="24" height="24" viewBox="0 0 24 24" fill="none" xmlns="http://www.w3.org/2000/svg">
<path d="M3 7L3 17C3 17.9319 3 18.3978 3.15224 18.7654C3.35523 19.2554 3.74458 19.6448 4.23463 19.8478C4.60218 20 5.06812 20 6 20C6.93188 20 7.39782 20 7.76537 19.8478C8.25542 19.6448 8.64477 19.2554 8.84776 18.7654C9 18.3978 9 17.9319 9 17V7C9 6.06812 9 5.60217 8.84776 5.23463C8.64477 4.74458 8.25542 4.35523 7.76537 4.15224C7.39782 4 6.93188 4 6 4C5.06812 4 4.60218 4 4.23463 4.15224C3.74458 4.35523 3.35523 4.74458 3.15224 5.23463C3 5.60217 3 6.06812 3 7Z" stroke="#131316" stroke-width="2" stroke-linecap="round" stroke-linejoin="round"/>
<path d="M15 7V17C15 17.9319 15 18.3978 15.1522 18.7654C15.3552 19.2554 15.7446 19.6448 16.2346 19.8478C16.6022 20 17.0681 20 18 20C18.9319 20 19.3978 20 19.7654 19.8478C20.2554 19.6448 20.6448 19.2554 20.8478 18.7654C21 18.3978 21 17.9319 21 17V7C21 6.06812 21 5.60217 20.8478 5.23463C20.6448 4.74458 20.2554 4.35523 19.7654 4.15224C19.3978 4 18.9319 4 18 4C17.0681 4 16.6022 4 16.2346 4.15224C15.7446 4.35523 15.3552 4.74458 15.1522 5.23463C15 5.60217 15 6.06812 15 7Z" stroke="#131316" stroke-width="2" stroke-linecap="round" stroke-linejoin="round"/>
</svg>
