<svg width="24" height="24" viewBox="0 0 24 24" fill="none" xmlns="http://www.w3.org/2000/svg">
<path d="M6.77968 2C5.7655 2 4.91187 2.75909 4.79337 3.76632L3.26396 16.7663C3.12408 17.9553 4.05308 19 5.25026 19H6.22268C7.23685 19 8.09048 18.2409 8.20898 17.2337L8.82471 12H11.9022C14.2856 12 16.3376 10.3177 16.8051 7.98058C17.4239 4.88662 15.0574 2 11.9022 2H8.00118V2.01528C7.91967 2.0052 7.83655 2 7.75209 2H6.77968Z" stroke="#131316" stroke-width="2" stroke-linecap="round" stroke-linejoin="round"/>
<path d="M9.02422 12.002H11.904C14.2874 12.002 16.3395 10.3197 16.8069 7.98255C16.8662 7.6862 16.898 7.39175 16.9045 7.10156C19.5389 7.63428 21.357 10.2261 20.8057 12.9826C20.3383 15.3197 18.2862 17.002 15.9028 17.002H13.2625L12.7596 20.3029C12.6107 21.2799 11.7706 22.0016 10.7824 22.0016H9.82855C8.60396 22.0016 7.66692 20.911 7.85136 19.7004L9.02422 12.002Z" stroke="#131316" stroke-width="2" stroke-linecap="round" stroke-linejoin="round"/>
</svg>
