<svg width="24" height="24" viewBox="0 0 24 24" fill="none" xmlns="http://www.w3.org/2000/svg">
<path d="M4.16344 4.1494L7.06142 7.01241M18.136 4.59265L22 4.59265M3.37496 10.9214L3.13519 8.07898C2.97865 6.22309 2.90037 5.29514 3.22807 4.60385C3.51564 3.99722 4.0094 3.50942 4.62344 3.22532C5.32318 2.90158 6.26246 2.97891 8.14101 3.13356L11.0182 3.37044C12.1901 3.46691 12.776 3.51515 13.2615 3.74759C13.6904 3.95289 14.0613 4.2595 14.3416 4.64025C14.6589 5.07133 14.8104 5.63259 15.1134 6.75512L15.5152 8.24391C15.7662 9.17366 15.8917 9.63853 15.8673 10.0908C15.8457 10.491 15.7393 10.8823 15.555 11.2393C15.3467 11.6428 15.0024 11.983 14.3137 12.6634L12.7814 14.1771C12.0927 14.8575 11.7483 15.1977 11.3399 15.4035C10.9786 15.5855 10.5825 15.6906 10.1775 15.7119C9.71966 15.736 9.24913 15.6121 8.30806 15.3641L6.80106 14.9671C5.66479 14.6678 5.09666 14.5182 4.66031 14.2047C4.2749 13.9278 3.96454 13.5613 3.75672 13.1377C3.52144 12.658 3.47261 12.0792 3.37496 10.9214ZM11.8328 15.1003L15.2481 11.7262C15.5653 11.4128 15.7239 11.2561 15.8746 11.1419C16.9152 10.353 18.3624 10.353 19.403 11.1419C19.5537 11.2561 19.7123 11.4128 20.0295 11.7262C20.3467 12.0396 20.5054 12.1963 20.621 12.3452C21.4195 13.3732 21.4195 14.8029 20.621 15.831C20.5054 15.9798 20.3467 16.1365 20.0295 16.4499L16.6142 19.824C16.297 20.1374 16.1384 20.2941 15.9877 20.4084C14.9471 21.1972 13.4999 21.1972 12.4593 20.4084C12.3086 20.2941 12.15 20.1374 11.8328 19.824C11.5156 19.5106 11.3569 19.3539 11.2413 19.2051C10.4428 18.177 10.4428 16.7473 11.2413 15.7193C11.3569 15.5704 11.5156 15.4137 11.8328 15.1003ZM10.4081 8.41001C10.4081 9.46414 9.54309 10.3187 8.47608 10.3187C7.40908 10.3187 6.5441 9.46414 6.5441 8.41001C6.5441 7.35587 7.40908 6.50133 8.47608 6.50133C9.54309 6.50133 10.4081 7.35587 10.4081 8.41001Z" stroke="#131316" stroke-width="2" stroke-linecap="round" stroke-linejoin="round"/>
</svg>
