<svg width="24" height="24" viewBox="0 0 24 24" fill="none" xmlns="http://www.w3.org/2000/svg">
<path d="M12.003 3.26199V7.42599M5.94933 7.88472L8.21278 4.98588C9.50779 3.32733 10.1553 2.49805 10.9369 2.19759C11.6221 1.93414 12.3769 1.93414 13.0622 2.19759C13.8437 2.49805 14.4912 3.32733 15.7862 4.98588L18.0513 7.88675C18.8016 8.84769 19.1767 9.32816 19.3488 9.8678C19.5008 10.3446 19.5389 10.852 19.4599 11.3472C19.3704 11.9076 19.0715 12.4417 18.4735 13.5098L17.4518 15.3349C16.9413 16.2466 16.6861 16.7025 16.3287 17.0341C16.0125 17.3275 15.6398 17.5491 15.2349 17.6846C14.7772 17.8378 14.2659 17.8379 13.2432 17.8379L10.7612 17.8382C9.73906 17.8382 9.22801 17.8383 8.77055 17.6853C8.36578 17.55 7.9932 17.3287 7.67698 17.0356C7.31959 16.7044 7.06423 16.249 6.5535 15.3382L5.5288 13.5108C4.92969 12.4424 4.63014 11.9082 4.54036 11.3475C4.46104 10.852 4.499 10.3443 4.65101 9.86717C4.82306 9.32716 5.19849 8.84635 5.94933 7.88472ZM7.95543 17.836H16.0506C17.1683 17.836 18.0744 18.7681 18.0744 19.918C18.0744 21.0679 17.1683 22 16.0506 22H7.95543C6.83771 22 5.93163 21.0679 5.93163 19.918C5.93163 18.7681 6.83771 17.836 7.95543 17.836ZM14.0268 9.77231C14.0268 10.9222 13.1207 11.8543 12.003 11.8543C10.8853 11.8543 9.97922 10.9222 9.97922 9.77231C9.97922 8.62245 10.8853 7.69031 12.003 7.69031C13.1207 7.69031 14.0268 8.62245 14.0268 9.77231Z" stroke="#131316" stroke-width="2" stroke-linecap="round" stroke-linejoin="round"/>
</svg>
