<svg width="24" height="24" viewBox="0 0 24 24" fill="none" xmlns="http://www.w3.org/2000/svg">
<path d="M4.1494 4.1494L7.01241 7.01241M11.7262 15.1003L15.1003 11.7262C15.4137 11.4128 15.5704 11.2561 15.7193 11.1419C16.7473 10.353 18.177 10.353 19.2051 11.1419C19.3539 11.2561 19.5106 11.4128 19.824 11.7262C20.1374 12.0396 20.2941 12.1963 20.4084 12.3452C21.1972 13.3732 21.1972 14.8029 20.4084 15.831C20.2941 15.9798 20.1374 16.1365 19.824 16.4499L16.4499 19.824C16.1365 20.1374 15.9798 20.2941 15.831 20.4084C14.8029 21.1972 13.3732 21.1972 12.3452 20.4084C12.1963 20.2941 12.0396 20.1374 11.7262 19.824C11.4128 19.5106 11.2561 19.3539 11.1419 19.2051C10.353 18.177 10.353 16.7473 11.1419 15.7193C11.2561 15.5704 11.4128 15.4137 11.7262 15.1003ZM3.37043 10.9214L3.13356 8.07898C2.97891 6.22309 2.90158 5.29514 3.22532 4.60385C3.50942 3.99722 3.99722 3.50942 4.60385 3.22532C5.29514 2.90158 6.22309 2.97891 8.07898 3.13356L10.9215 3.37044C12.0792 3.46691 12.6581 3.51515 13.1377 3.74759C13.5614 3.95289 13.9278 4.2595 14.2047 4.64025C14.5182 5.07133 14.6678 5.63259 14.9672 6.75512L15.3642 8.24391C15.6121 9.17366 15.7361 9.63853 15.712 10.0908C15.6907 10.491 15.5856 10.8823 15.4035 11.2393C15.1978 11.6428 14.8575 11.983 14.1771 12.6634L12.6633 14.1771C11.983 14.8575 11.6428 15.1977 11.2393 15.4035C10.8823 15.5855 10.491 15.6906 10.0909 15.7119C9.63858 15.736 9.17372 15.6121 8.24401 15.3641L6.75519 14.9671C5.63263 14.6678 5.07136 14.5182 4.64027 14.2047C4.25951 13.9278 3.9529 13.5613 3.74759 13.1377C3.51515 12.658 3.46691 12.0792 3.37043 10.9214ZM10.3187 8.41001C10.3187 9.46414 9.46414 10.3187 8.41001 10.3187C7.35587 10.3187 6.50133 9.46414 6.50133 8.41001C6.50133 7.35587 7.35587 6.50133 8.41001 6.50133C9.46414 6.50133 10.3187 7.35587 10.3187 8.41001Z" stroke="#131316" stroke-width="2" stroke-linecap="round" stroke-linejoin="round"/>
</svg>
