<svg width="24" height="24" viewBox="0 0 24 24" fill="none" xmlns="http://www.w3.org/2000/svg">
<path d="M7.46484 16.5356L3 21.0005M12.4431 5.47209C11.83 4.68738 11.8845 3.5505 12.6066 2.8284C13.3877 2.04735 14.654 2.04735 15.435 2.8284L21.0919 8.48526C21.8729 9.2663 21.8729 10.5326 21.0919 11.3137C20.3698 12.0358 19.2329 12.0903 18.4482 11.4772L15.7656 15.9482C16.5937 17.1191 16.4835 18.7505 15.435 19.799C14.2635 20.9705 12.364 20.9705 11.1924 19.799L4.12132 12.7279C2.94975 11.5563 2.94975 9.65683 4.12132 8.48526C5.16976 7.43682 6.80114 7.32662 7.97212 8.15467L12.4431 5.47209Z" stroke="#131316" stroke-width="2" stroke-linecap="round" stroke-linejoin="round"/>
</svg>
