<svg width="24" height="24" viewBox="0 0 24 24" fill="none" xmlns="http://www.w3.org/2000/svg">
<path d="M7.5 16.5L3 21M9.87508 18.0883L5.98279 14.196C4.47976 12.693 3.72824 11.9415 3.53057 11.1194C3.35736 10.3991 3.45681 9.64011 3.80978 8.98874C4.2126 8.24536 5.13237 7.71285 6.97193 6.64785L11.8085 3.8477C12.951 3.18627 13.5223 2.85555 14.1144 2.77709C14.6369 2.70786 15.1685 2.77751 15.6555 2.97905C16.2074 3.20743 16.6741 3.67416 17.6076 4.60764L19.4634 6.46346C20.3969 7.39693 20.8637 7.86367 21.092 8.41558C21.2936 8.90263 21.3632 9.43418 21.294 9.95671C21.2155 10.5488 20.8848 11.1201 20.2234 12.2625L17.4232 17.0992C16.3582 18.9387 15.8257 19.8585 15.0823 20.2613C14.431 20.6143 13.672 20.7137 12.9517 20.5405C12.1296 20.3428 11.3781 19.5913 9.87508 18.0883Z" stroke="#131316" stroke-width="2" stroke-linecap="round" stroke-linejoin="round"/>
</svg>
