<svg width="24" height="24" viewBox="0 0 24 24" fill="none" xmlns="http://www.w3.org/2000/svg">
<path d="M12.0002 17V22M14.7525 17H9.24793C7.12233 17 6.05952 17 5.33845 16.5585C4.70663 16.1716 4.2403 15.5646 4.02929 14.8545C3.78847 14.044 4.06231 13.0171 4.61 10.9632L6.05 5.56322C6.39015 4.28766 6.56023 3.64988 6.92344 3.17571C7.24397 2.75727 7.66908 2.43066 8.15598 2.22877C8.70773 2 9.3678 2 10.6879 2L13.3125 2C14.6326 2 15.2927 2 15.8444 2.22877C16.3313 2.43066 16.7564 2.75727 17.0769 3.17571C17.4402 3.64988 17.6102 4.28766 17.9504 5.56322L19.3904 10.9632C19.9381 13.0171 20.2119 14.044 19.9711 14.8545C19.7601 15.5646 19.2938 16.1716 18.6619 16.5585C17.9409 17 16.8781 17 14.7525 17Z" stroke="#131316" stroke-width="2" stroke-linecap="round" stroke-linejoin="round"/>
</svg>
