<svg width="24" height="24" viewBox="0 0 24 24" fill="none" xmlns="http://www.w3.org/2000/svg">
<path d="M11.317 13.9364C11.317 15.7976 11.317 16.7282 11.7137 17.2412C12.0593 17.6881 12.5876 17.9646 13.1595 17.998C13.8159 18.0363 14.6076 17.5201 16.1908 16.4877L19.1603 14.5514C20.4685 13.6983 21.1226 13.2718 21.3505 12.7341C21.5498 12.2641 21.5498 11.7359 21.3505 11.2659C21.1226 10.7282 20.4685 10.3017 19.1603 9.44863L16.1908 7.51227C14.6076 6.47986 13.8159 5.96365 13.1595 6.00199C12.5876 6.03539 12.0593 6.31194 11.7137 6.75884C11.317 7.27182 11.317 8.20243 11.317 10.0636L11.317 13.9364Z" stroke="#131316" stroke-width="2" stroke-linecap="round" stroke-linejoin="round"/>
<path d="M11.317 13.9072C11.0431 14.095 10.7204 14.3055 10.3433 14.5514L7.37386 16.4877C5.79061 17.5201 4.99899 18.0363 4.34255 17.998C3.77067 17.9646 3.24238 17.6881 2.89674 17.2412C2.5 16.7282 2.5 15.7976 2.5 13.9364V10.0636C2.5 8.20243 2.5 7.27182 2.89674 6.75884C3.24238 6.31194 3.77066 6.03539 4.34254 6.00199C4.99899 5.96365 5.79061 6.47986 7.37385 7.51227L10.3433 9.44863C10.7204 9.69451 11.0431 9.90495 11.317 10.0928V13.9072Z" stroke="#131316" stroke-width="2" stroke-linecap="round" stroke-linejoin="round"/>
</svg>
