<svg width="24" height="24" viewBox="0 0 24 24" fill="none" xmlns="http://www.w3.org/2000/svg">
<path d="M4.5 9.09546C4.5 6.30365 4.5 4.90774 5.08442 4.13826C5.59355 3.4679 6.37173 3.05308 7.21414 3.00298C8.18111 2.94548 9.3472 3.71979 11.6794 5.26841L16.0535 8.17294C17.9806 9.45255 18.9441 10.0924 19.2798 10.8988C19.5734 11.6038 19.5734 12.3962 19.2798 13.1012C18.9441 13.9076 17.9806 14.5474 16.0535 15.8271L11.6794 18.7316C9.3472 20.2802 8.18111 21.0545 7.21414 20.997C6.37173 20.9469 5.59355 20.5321 5.08442 19.8617C4.5 19.0923 4.5 17.6964 4.5 14.9045V9.09546Z" stroke="#131316" stroke-width="2" stroke-linecap="round" stroke-linejoin="round"/>
</svg>
