<svg width="24" height="24" viewBox="0 0 24 24" fill="none" xmlns="http://www.w3.org/2000/svg">
<path d="M21 12C21 16.9706 16.9706 21 12 21C7.02944 21 3 16.9706 3 12C3 7.02944 7.02944 3 12 3C16.9706 3 21 7.02944 21 12Z" stroke="#131316" stroke-width="2" stroke-linecap="round" stroke-linejoin="round"/>
<path d="M9.5 12C9.5 10.9121 9.5 10.3681 9.6316 10.0235C9.98677 9.09349 10.9719 8.56628 11.9427 8.78665C12.3025 8.86831 12.7551 9.17004 13.6603 9.7735C14.4086 10.2724 14.7828 10.5219 14.9858 10.7886C15.5307 11.5043 15.5307 12.4957 14.9858 13.2114C14.7828 13.4781 14.4086 13.7276 13.6603 14.2265C12.7551 14.83 12.3025 15.1317 11.9427 15.2134C10.9719 15.4337 9.98677 14.9065 9.6316 13.9765C9.5 13.6319 9.5 13.0879 9.5 12Z" stroke="#131316" stroke-width="2" stroke-linecap="round" stroke-linejoin="round"/>
</svg>
