<svg width="24" height="24" viewBox="0 0 24 24" fill="none" xmlns="http://www.w3.org/2000/svg">
<path d="M21 4V20M10.4626 17.025L12.0092 15.9938C14.0123 14.6585 15.0138 13.9908 15.3628 13.1492C15.668 12.4134 15.668 11.5866 15.3628 10.8508C15.0138 10.0092 14.0123 9.34153 12.0092 8.00616L10.4626 6.97504C8.03839 5.35893 6.82631 4.55087 5.82119 4.61088C4.94557 4.66317 4.13668 5.09607 3.60747 5.79563C3 6.59865 3 8.05539 3 10.9689V13.0311C3 15.9446 3 17.4014 3.60747 18.2044C4.13668 18.9039 4.94557 19.3368 5.82119 19.3891C6.82631 19.4491 8.03839 18.6411 10.4626 17.025Z" stroke="#131316" stroke-width="2" stroke-linecap="round" stroke-linejoin="round"/>
</svg>
