<svg width="24" height="24" viewBox="0 0 24 24" fill="none" xmlns="http://www.w3.org/2000/svg">
<path d="M12.683 13.9364C12.683 15.7976 12.683 16.7282 12.2863 17.2412C11.9407 17.6881 11.4124 17.9646 10.8405 17.998C10.1841 18.0363 9.39243 17.5201 7.80919 16.4877L4.83972 14.5514C3.5315 13.6983 2.87739 13.2718 2.64946 12.7341C2.45018 12.2641 2.45018 11.7359 2.64946 11.2659C2.8774 10.7282 3.5315 10.3017 4.83972 9.44863L7.80919 7.51227C9.39243 6.47986 10.1841 5.96365 10.8405 6.00199C11.4124 6.03539 11.9407 6.31194 12.2863 6.75884C12.683 7.27182 12.683 8.20243 12.683 10.0636L12.683 13.9364Z" stroke="#131316" stroke-width="2" stroke-linecap="round" stroke-linejoin="round"/>
<path d="M12.683 13.9072C12.9569 14.095 13.2796 14.3055 13.6567 14.5514L16.6261 16.4877C18.2094 17.5201 19.001 18.0363 19.6575 17.998C20.2293 17.9646 20.7576 17.6881 21.1033 17.2412C21.5 16.7282 21.5 15.7976 21.5 13.9364V10.0636C21.5 8.20243 21.5 7.27182 21.1033 6.75884C20.7576 6.31194 20.2293 6.03539 19.6575 6.00199C19.001 5.96365 18.2094 6.47986 16.6261 7.51227L13.6567 9.44863C13.2796 9.69451 12.9569 9.90495 12.683 10.0928V13.9072Z" stroke="#131316" stroke-width="2" stroke-linecap="round" stroke-linejoin="round"/>
</svg>
