<svg width="24" height="24" viewBox="0 0 24 24" fill="none" xmlns="http://www.w3.org/2000/svg">
<path d="M14.8056 4.0441C13.8043 3.19505 13.3037 2.77052 12.7484 2.60771C12.2587 2.4641 11.7413 2.4641 11.2516 2.60771C10.6963 2.77052 10.1957 3.19505 9.19438 4.0441L4.89383 7.69077C4.07864 8.38201 3.67105 8.72763 3.4159 9.16504C3.19035 9.55172 3.0514 9.98805 3.00972 10.4405C2.96257 10.9523 3.08917 11.4891 3.34236 12.5626L4.59989 17.8942C4.90398 19.1834 5.05602 19.8281 5.3951 20.3081C5.69427 20.7315 6.09456 21.0628 6.55473 21.2677C7.07628 21.5 7.70318 21.5 8.95697 21.5H15.043C16.2968 21.5 16.9237 21.5 17.4453 21.2677C17.9054 21.0628 18.3057 20.7315 18.6049 20.3081C18.944 19.8281 19.096 19.1834 19.4001 17.8942L20.6576 12.5626C20.9108 11.4891 21.0374 10.9523 20.9903 10.4405C20.9486 9.98805 20.8096 9.55172 20.5841 9.16504C20.329 8.72763 19.9214 8.38201 19.1062 7.69077L14.8056 4.0441Z" stroke="#131316" stroke-width="2" stroke-linecap="round" stroke-linejoin="round"/>
</svg>
