<svg width="24" height="24" viewBox="0 0 24 24" fill="none" xmlns="http://www.w3.org/2000/svg">
<path d="M21 11V13M10 3L13 3M10 3L10 21M10 3L9.91797 3C8.13337 3 7.24107 3 6.51632 3.2252C4.94443 3.71364 3.71364 4.94443 3.2252 6.51632C3 7.24107 3 8.13338 3 9.91797L3 14.0664C3 15.8656 3 16.7652 3.22886 17.4954C3.71856 19.0578 4.9422 20.2814 6.5046 20.7711C7.23479 21 8.13439 21 9.93359 21H10M13 21H10M17 3C19.2091 3 21 4.79086 21 7M21 17C21 19.2091 19.2091 21 17 21" stroke="#131316" stroke-width="2" stroke-linecap="round" stroke-linejoin="round"/>
</svg>
