<svg width="24" height="24" viewBox="0 0 24 24" fill="none" xmlns="http://www.w3.org/2000/svg">
<path d="M11 3L13 3M3 14L3 11M3 14L21 14M3 14L3 14.082C3 15.8666 3 16.7589 3.22521 17.4837C3.71364 19.0556 4.94443 20.2864 6.51632 20.7748C7.24107 21 8.13338 21 9.91797 21L14.0664 21C15.8656 21 16.7652 21 17.4954 20.7711C19.0578 20.2814 20.2814 19.0578 20.7711 17.4954C21 16.7652 21 15.8656 21 14.0664L21 14M21 11V14M3 7C3 4.79086 4.79086 3 7 3M17 3C19.2091 3 21 4.79086 21 7" stroke="#131316" stroke-width="2" stroke-linecap="round" stroke-linejoin="round"/>
</svg>
