<svg width="24" height="24" viewBox="0 0 24 24" fill="none" xmlns="http://www.w3.org/2000/svg">
<path d="M21 10V14M14 21H10M3 14L3 9M14 3L9 3M21 18C21 19.6569 19.6569 21 18 21M18 3C19.6569 3 21 4.34315 21 6M6 21C4.34315 21 3 19.6569 3 18M7.5 3C8.89782 3 9.59674 3 10.1481 3.22836C10.8831 3.53284 11.4672 4.11687 11.7716 4.85195C12 5.40326 12 6.10218 12 7.5C12 8.89782 12 9.59674 11.7716 10.1481C11.4672 10.8831 10.8831 11.4672 10.148 11.7716C9.59674 12 8.89782 12 7.5 12C6.10218 12 5.40326 12 4.85195 11.7716C4.11687 11.4672 3.53284 10.8831 3.22836 10.148C3 9.59674 3 8.89782 3 7.5C3 6.10218 3 5.40326 3.22836 4.85195C3.53284 4.11687 4.11687 3.53284 4.85195 3.22836C5.40326 3 6.10218 3 7.5 3Z" stroke="#131316" stroke-width="2" stroke-linecap="round" stroke-linejoin="round"/>
</svg>
