<svg width="24" height="24" viewBox="0 0 24 24" fill="none" xmlns="http://www.w3.org/2000/svg">
<path d="M13 21H11M21 10V13M21 10L3 10M21 10L21 9.91797C21 8.13337 21 7.24107 20.7748 6.51632C20.2864 4.94443 19.0556 3.71364 17.4837 3.2252C16.7589 3 15.8666 3 14.082 3L9.93359 3C8.13439 3 7.23479 3 6.5046 3.22886C4.9422 3.71856 3.71856 4.9422 3.22886 6.5046C3 7.23479 3 8.13439 3 9.93359L3 10M3 13L3 10M21 17C21 19.2091 19.2091 21 17 21M7 21C4.79086 21 3 19.2091 3 17" stroke="#131316" stroke-width="2" stroke-linecap="round" stroke-linejoin="round"/>
</svg>
