<svg width="24" height="24" viewBox="0 0 24 24" fill="none" xmlns="http://www.w3.org/2000/svg">
<path d="M10 3L14 3M21 10V14M14 21H10M3 10L3 14M3 18C3 19.6569 4.34314 21 6 21M18 3C19.6569 3 21 4.34315 21 6M3 6C3 4.34315 4.34315 3 6 3M21 18C21 19.6569 19.6569 21 18 21M16 11.2V12.8C16 13.9201 16 14.4802 15.782 14.908C15.5903 15.2843 15.2843 15.5903 14.908 15.782C14.4802 16 13.9201 16 12.8 16H11.2C10.0799 16 9.51984 16 9.09202 15.782C8.71569 15.5903 8.40973 15.2843 8.21799 14.908C8 14.4802 8 13.9201 8 12.8V11.2C8 10.0799 8 9.51984 8.21799 9.09202C8.40973 8.71569 8.71569 8.40973 9.09202 8.21799C9.51984 8 10.0799 8 11.2 8H12.8C13.9201 8 14.4802 8 14.908 8.21799C15.2843 8.40973 15.5903 8.71569 15.782 9.09202C16 9.51984 16 10.0799 16 11.2Z" stroke="#131316" stroke-width="2" stroke-linecap="round" stroke-linejoin="round"/>
</svg>
