<svg width="24" height="24" viewBox="0 0 24 24" fill="none" xmlns="http://www.w3.org/2000/svg">
<path d="M15 21H9M15 21V6C15 5.06812 15 4.60217 14.8478 4.23463C14.6448 3.74458 14.2554 3.35523 13.7654 3.15224C13.3978 3 12.9319 3 12 3C11.0681 3 10.6022 3 10.2346 3.15224C9.74458 3.35523 9.35523 3.74458 9.15224 4.23463C9 4.60217 9 5.06812 9 6V21M15 21H21V17C21 16.0681 21 15.6022 20.8478 15.2346C20.6448 14.7446 20.2554 14.3552 19.7654 14.1522C19.3978 14 18.9319 14 18 14C17.0681 14 16.6022 14 16.2346 14.1522C15.7446 14.3552 15.3552 14.7446 15.1522 15.2346C15 15.6022 15 16.0681 15 17V21ZM9 21H3L3 13C3 12.0681 3 11.6022 3.15224 11.2346C3.35523 10.7446 3.74458 10.3552 4.23463 10.1522C4.60218 10 5.06812 10 6 10C6.93188 10 7.39782 10 7.76537 10.1522C8.25542 10.3552 8.64477 10.7446 8.84776 11.2346C9 11.6022 9 12.0681 9 13V21Z" stroke="#131316" stroke-width="2" stroke-linecap="round" stroke-linejoin="round"/>
</svg>
