<svg width="24" height="24" viewBox="0 0 24 24" fill="none" xmlns="http://www.w3.org/2000/svg">
<path d="M12 8.53846H12.8333C13.5031 8.53846 14.0806 8.92138 14.3455 9.47367M12 8.53846H11.2857C10.2995 8.53846 9.5 9.31335 9.5 10.2692C9.5 11.2251 10.2995 12 11.2857 12H12.7143C13.7005 12 14.5 12.7749 14.5 13.7308C14.5 14.6866 13.7005 15.4615 12.7143 15.4615H12M12 8.53846V7.5M12 15.4615H11.1667C10.4682 15.4615 9.87016 15.0452 9.62225 14.4545M12 15.4615V16.5M2 10C2 10 4.00498 7.26822 5.63384 5.63824C7.26269 4.00827 9.5136 3 12 3C16.9706 3 21 7.02944 21 12C21 16.9706 16.9706 21 12 21C8.46628 21 5.40822 18.9634 3.93552 16M2 10V7M2 10H5" stroke="#131316" stroke-width="2" stroke-linecap="round" stroke-linejoin="round"/>
</svg>
