<svg width="24" height="24" viewBox="0 0 24 24" fill="none" xmlns="http://www.w3.org/2000/svg">
<path d="M12 19H11.8386C9.02504 19 7.61825 19 7.06114 18.5337C6.46356 18.0336 6.21087 17.232 6.41362 16.4796C6.60265 15.7781 7.75514 14.9714 10.0601 13.3579L13.892 10.6756C16.2361 9.03471 17.4082 8.21427 17.5923 7.49786C17.7821 6.75947 17.5356 5.9774 16.9567 5.48131C16.395 5 14.9643 5 12.103 5H12M8.4 5.37778C8.4 7.24327 6.4 8 5.2 10C4 8 2 7.24327 2 5.37778C2 3.51228 3.43269 2 5.2 2C6.96731 2 8.4 3.51228 8.4 5.37778ZM22 22H16V16H22V22Z" stroke="#131316" stroke-width="2" stroke-linecap="round" stroke-linejoin="round"/>
</svg>
