<svg width="24" height="24" viewBox="0 0 24 24" fill="none" xmlns="http://www.w3.org/2000/svg">
<path d="M4.22153 12.7071L6.34285 14.8284M7.04996 9.87869L10.5855 13.4142M9.87838 7.05026L11.9997 9.17158M12.7068 4.22183L16.2423 7.75737M19.2122 11.8586L11.8583 19.2125C10.6702 20.4005 10.0762 20.9946 9.39122 21.2171C8.78869 21.4129 8.13965 21.4129 7.53712 21.2171C6.85213 20.9946 6.25811 20.4005 5.07006 19.2125L4.78721 18.9297C3.59916 17.7416 3.00514 17.1476 2.78257 16.4626C2.5868 15.8601 2.5868 15.211 2.78257 14.6085C3.00514 13.9235 3.59916 13.3295 4.78721 12.1414L12.1411 4.78752C13.3292 3.59947 13.9232 3.00544 14.6082 2.78288C15.2107 2.5871 15.8598 2.5871 16.4623 2.78288C17.1473 3.00544 17.7413 3.59947 18.9293 4.78752L19.2122 5.07036C20.4002 6.25841 20.9943 6.85244 21.2168 7.53742C21.4126 8.13995 21.4126 8.789 21.2168 9.39153C20.9943 10.0765 20.4002 10.6705 19.2122 11.8586Z" stroke="#131316" stroke-width="2" stroke-linecap="round" stroke-linejoin="round"/>
</svg>
