<svg width="24" height="24" viewBox="0 0 24 24" fill="none" xmlns="http://www.w3.org/2000/svg">
<path d="M11 8L8 8M8 20.952V18.2C8 17.0799 8 16.5198 8.21799 16.092C8.40973 15.7157 8.71569 15.4097 9.09202 15.218C9.51984 15 10.0799 15 11.2 15H12.8C13.9201 15 14.4802 15 14.908 15.218C15.2843 15.4097 15.5903 15.7157 15.782 16.092C16 16.5198 16 17.0799 16 18.2V20.952M8 20.952C8.7857 21 9.75432 21 11 21H13C14.2457 21 15.2143 21 16 20.952M8 20.952C7.01947 20.8922 6.32382 20.7576 5.73005 20.455C4.78924 19.9757 4.02433 19.2108 3.54497 18.27C3 17.2004 3 15.8003 3 13L3 11C3 8.19974 3 6.79961 3.54497 5.73005C4.02433 4.78924 4.78924 4.02433 5.73005 3.54497C6.79961 3 8.19974 3 11 3L12.6863 3C13.9092 3 14.5207 3 15.0962 3.13815C15.6063 3.26063 16.0941 3.46266 16.5414 3.7368C17.046 4.046 17.4784 4.47841 18.3431 5.34315L18.6569 5.65686C19.5216 6.52161 19.954 6.95399 20.2632 7.45858C20.5373 7.90594 20.7394 8.39366 20.8618 8.90384C21 9.47928 21 10.0908 21 11.3137V13C21 15.8003 21 17.2004 20.455 18.27C19.9757 19.2108 19.2108 19.9757 18.27 20.455C17.6762 20.7576 16.9805 20.8922 16 20.952" stroke="#131316" stroke-width="2" stroke-linecap="round" stroke-linejoin="round"/>
</svg>
