<svg width="24" height="24" viewBox="0 0 24 24" fill="none" xmlns="http://www.w3.org/2000/svg">
<path d="M16 6.99999C16 8.19469 15.4762 9.26705 14.6458 9.99999H9.35418C8.52376 9.26705 8 8.19469 8 6.99999M16 6.99999C16 6.27302 15.8061 5.59134 15.4671 5.00387C17.3263 5.02013 18.406 5.10475 19.27 5.54497C20.2108 6.02433 20.9757 6.78924 21.455 7.73005C22 8.79961 22 10.1997 22 13C22 15.8003 22 17.2004 21.455 18.27C20.9757 19.2108 20.2108 19.9757 19.27 20.455C18.2004 21 16.8003 21 14 21H10C7.19974 21 5.79961 21 4.73005 20.455C3.78924 19.9757 3.02433 19.2108 2.54497 18.27C2 17.2004 2 15.8003 2 13C2 10.1997 2 8.79961 2.54497 7.73005C3.02433 6.78924 3.78924 6.02433 4.73005 5.54497C5.59403 5.10475 6.67372 5.02013 8.53289 5.00387C8.19393 5.59134 8 6.27302 8 6.99999M16 6.99999C16 4.79085 14.2091 3 12 3C9.79086 3 8 4.79085 8 6.99999M17 10H7" stroke="#131316" stroke-width="2" stroke-linecap="round" stroke-linejoin="round"/>
</svg>
