<svg width="24" height="24" viewBox="0 0 24 24" fill="none" xmlns="http://www.w3.org/2000/svg">
<path d="M9 3H8.90174C8.06411 3 7.64529 3 7.29414 3.05007C5.09325 3.36392 3.36392 5.09325 3.05007 7.29414C3 7.64529 3 8.06411 3 8.90174V13C3 15.8003 3 17.2004 3.54497 18.27C4.02433 19.2108 4.78924 19.9757 5.73005 20.455C6.79961 21 8.19974 21 11 21H15C15.929 21 16.3935 21 16.7822 20.9384C18.9216 20.5996 20.5996 18.9216 20.9384 16.7822C21 16.3935 21 15.929 21 15M12.0012 16.0002L8.00281 16.0017M8.00281 16.0017L8.00279 12.0017M8.00281 16.0017L13.5052 10.5M17.8 3H16.2C15.0799 3 14.5198 3 14.092 3.21799C13.7157 3.40973 13.4097 3.71569 13.218 4.09202C13 4.51984 13 5.07989 13 6.2V7.8C13 8.92011 13 9.48016 13.218 9.90798C13.4097 10.2843 13.7157 10.5903 14.092 10.782C14.5198 11 15.0799 11 16.2 11H17.8C18.9201 11 19.4802 11 19.908 10.782C20.2843 10.5903 20.5903 10.2843 20.782 9.90798C21 9.48016 21 8.92011 21 7.8V6.2C21 5.0799 21 4.51984 20.782 4.09202C20.5903 3.71569 20.2843 3.40973 19.908 3.21799C19.4802 3 18.9201 3 17.8 3Z" stroke="#131316" stroke-width="2" stroke-linecap="round" stroke-linejoin="round"/>
</svg>
