<svg width="24" height="24" viewBox="0 0 24 24" fill="none" xmlns="http://www.w3.org/2000/svg">
<path d="M15 21H15.0673C15.9337 21 16.3669 21 16.7299 20.9464C18.9115 20.6245 20.6245 18.9115 20.9464 16.7299C21 16.3669 21 15.9337 21 15.0673V11C21 8.19974 21 6.79961 20.455 5.73005C19.9757 4.78924 19.2108 4.02433 18.27 3.54497C17.2004 3 15.8003 3 13 3H9C8.07099 3 7.60649 3 7.21783 3.06156C5.07837 3.40042 3.40042 5.07837 3.06156 7.21783C3 7.60649 3 8.07099 3 9M12.0007 7.99965L15.9991 7.99808M15.9991 7.99808L15.9992 11.9981M15.9991 7.99808L10.4995 13.4972M6.2 21H7.8C8.92011 21 9.48016 21 9.90798 20.782C10.2843 20.5903 10.5903 20.2843 10.782 19.908C11 19.4802 11 18.9201 11 17.8V16.2C11 15.0799 11 14.5198 10.782 14.092C10.5903 13.7157 10.2843 13.4097 9.90798 13.218C9.48016 13 8.92011 13 7.8 13H6.2C5.0799 13 4.51984 13 4.09202 13.218C3.71569 13.4097 3.40973 13.7157 3.21799 14.092C3 14.5198 3 15.0799 3 16.2V17.8C3 18.9201 3 19.4802 3.21799 19.908C3.40973 20.2843 3.71569 20.5903 4.09202 20.782C4.51984 21 5.07989 21 6.2 21Z" stroke="#131316" stroke-width="2" stroke-linecap="round" stroke-linejoin="round"/>
</svg>
