<svg width="24" height="24" viewBox="0 0 24 24" fill="none" xmlns="http://www.w3.org/2000/svg">
<path d="M22 15V16.01M16.01 22H15M22 20C22 21.1046 21.1046 22 20 22M20 9C21.1046 9 22 9.89543 22 11M11 22C9.89543 22 9 21.1046 9 20M11.2 16H7.8C6.11984 16 5.27976 16 4.63803 15.673C4.07354 15.3854 3.6146 14.9265 3.32698 14.362C3 13.7202 3 12.8802 3 11.2L3 7.8C3 6.11984 3 5.27976 3.32698 4.63803C3.6146 4.07354 4.07354 3.6146 4.63803 3.32698C5.27976 3 6.11984 3 7.8 3L11.2 3C12.8802 3 13.7202 3 14.362 3.32698C14.9265 3.6146 15.3854 4.07354 15.673 4.63803C16 5.27976 16 6.11984 16 7.8V11.2C16 12.8802 16 13.7202 15.673 14.362C15.3854 14.9265 14.9265 15.3854 14.362 15.673C13.7202 16 12.8802 16 11.2 16Z" stroke="#131316" stroke-width="2" stroke-linecap="round" stroke-linejoin="round"/>
</svg>
