<svg width="24" height="24" viewBox="0 0 24 24" fill="none" xmlns="http://www.w3.org/2000/svg">
<path d="M22 14V16.01M16.01 22H14M22 20C22 21.1046 21.1046 22 20 22M20 8C21.1046 8 22 8.89543 22 10M10 22C8.89543 22 8 21.1046 8 20M2 10L2 7.99M7.99 2L10 2M2 4C2 2.89543 2.89543 2 4 2M4 16C2.89543 16 2 15.1046 2 14M14 2C15.1046 2 16 2.89543 16 4M16 8H12.8C11.1198 8 10.2798 8 9.63803 8.32698C9.07354 8.6146 8.6146 9.07354 8.32698 9.63803C8 10.2798 8 11.1198 8 12.8V16H11.2C12.8802 16 13.7202 16 14.362 15.673C14.9265 15.3854 15.3854 14.9265 15.673 14.362C16 13.7202 16 12.8802 16 11.2V8Z" stroke="#131316" stroke-width="2" stroke-linecap="round" stroke-linejoin="round"/>
</svg>
