<svg width="24" height="24" viewBox="0 0 24 24" fill="none" xmlns="http://www.w3.org/2000/svg">
<path d="M20.5 12.0003C20.5 11.6955 20.4359 11.3907 20.3077 11.1079C20.0131 10.4584 19.1055 9.97438 17.2904 9.00627L9.10344 4.63984C6.86725 3.44718 5.74915 2.85085 5.01122 3.03192C4.37111 3.18899 3.84354 3.6543 3.59386 4.28202C3.30602 5.00567 3.70409 6.23705 4.50023 8.69982L5.22259 10.9344C5.35044 11.3298 5.41437 11.5276 5.43976 11.7299C5.45102 11.8197 5.45666 11.91 5.45666 12.0003M20.5 12.0003L5.45666 12.0003M20.5 12.0003C20.5 12.3051 20.4355 12.6093 20.3072 12.8921C20.0127 13.5416 19.1051 14.0256 17.2899 14.9937L9.10303 19.3602C6.86683 20.5528 5.74873 21.1491 5.0108 20.9681C4.37069 20.811 3.84312 20.3457 3.59344 19.718C3.3056 18.9943 3.70367 17.7629 4.49982 15.3002L5.22217 13.0656C5.35003 12.6701 5.41395 12.4724 5.43934 12.2701C5.45061 12.1803 5.45666 12.0906 5.45666 12.0003" stroke="#131316" stroke-width="2" stroke-linecap="round" stroke-linejoin="round"/>
</svg>
