<svg width="24" height="24" viewBox="0 0 24 24" fill="none" xmlns="http://www.w3.org/2000/svg">
<path d="M9.72987 14.2701L14.0671 9.93312M7.8804 6.21286L13.9634 4.18518C16.7884 3.24352 18.2009 2.77269 19.1402 3.10765C19.9576 3.39913 20.6009 4.04238 20.8924 4.85979C21.2273 5.79909 20.7565 7.21159 19.8148 10.0366L17.7871 16.1196C17.0058 18.4637 16.6151 19.6358 16.1695 20.1034C15.0286 21.3006 13.1177 21.2986 11.9793 20.099C11.5347 19.6305 11.1465 18.4576 10.37 16.1119C10.2132 15.6383 10.1348 15.4015 10.0246 15.1914C9.75194 14.6722 9.32785 14.2481 8.80856 13.9754C8.59848 13.8652 8.3617 13.7868 7.88814 13.63C5.54238 12.8535 4.36949 12.4653 3.901 12.0207C2.7014 10.8823 2.6994 8.97142 3.89663 7.83051C4.36419 7.38493 5.53626 6.99424 7.8804 6.21286Z" stroke="#131316" stroke-width="2" stroke-linecap="round" stroke-linejoin="round"/>
</svg>
