<svg width="24" height="24" viewBox="0 0 24 24" fill="none" xmlns="http://www.w3.org/2000/svg">
<path d="M5.71819 11.9707L11.7144 11.9707M10.1776 4.73586L16.1248 7.70947C18.8867 9.09041 20.2676 9.78088 20.7108 10.7152C21.0964 11.5283 21.0964 12.4717 20.7108 13.2848C20.2676 14.2191 18.8867 14.9096 16.1248 16.2905L10.1776 19.2641C7.88577 20.41 6.73987 20.983 6.07031 20.9991C4.35586 21.0404 2.95618 19.6378 3.00105 17.9234C3.01857 17.2539 3.59391 16.1092 4.74459 13.8198C4.97689 13.3576 5.09303 13.1265 5.16621 12.8916C5.34708 12.311 5.34708 11.689 5.16621 11.1084C5.09303 10.8735 4.97689 10.6424 4.74459 10.1802C3.59391 7.89078 3.01857 6.74608 3.00105 6.07656C2.95618 4.3622 4.35586 2.9596 6.07031 3.00089C6.73987 3.01701 7.88577 3.58996 10.1776 4.73586Z" stroke="#131316" stroke-width="2" stroke-linecap="round" stroke-linejoin="round"/>
</svg>
