<svg width="24" height="24" viewBox="0 0 24 24" fill="none" xmlns="http://www.w3.org/2000/svg">
<path d="M13.9997 2.5L14.9484 2.18377C14.8123 1.77543 14.4301 1.5 13.9997 1.5V2.5ZM9.9997 2.5V1.5C9.56927 1.5 9.18713 1.77543 9.05101 2.18377L9.9997 2.5ZM14.8392 5.01858L13.8905 5.3348C13.9855 5.61969 14.2035 5.84682 14.4842 5.95344L14.8392 5.01858ZM18.2352 7.48773L17.4562 8.11473C17.6443 8.3485 17.9275 8.48542 18.2276 8.4877L18.2352 7.48773ZM20.8922 7.5079L21.8433 7.19888C21.7103 6.78952 21.3302 6.5112 20.8998 6.50793L20.8922 7.5079ZM22.1283 11.3121L22.7222 12.1167C23.0685 11.861 23.2124 11.4125 23.0794 11.0031L22.1283 11.3121ZM19.9903 12.8904L19.3964 12.0859C19.1546 12.2644 19.0059 12.5422 18.9915 12.8424L19.9903 12.8904ZM18.6939 16.882L17.8578 16.3335C17.6929 16.5849 17.6498 16.8971 17.7406 17.1838L18.6939 16.882ZM19.4957 19.4148L20.0835 20.2239C20.4317 19.9708 20.579 19.5234 20.4491 19.113L19.4957 19.4148ZM16.2596 21.766L15.678 22.5794C16.0282 22.8298 16.4992 22.828 16.8474 22.575L16.2596 21.766ZM14.0996 20.2215L14.6813 19.4081C14.4371 19.2335 14.1275 19.1778 13.8378 19.2564L14.0996 20.2215ZM9.89969 20.2215L10.1615 19.2564C9.87188 19.1778 9.56222 19.2335 9.31807 19.4081L9.89969 20.2215ZM7.74 21.7657L7.15221 22.5747C7.50044 22.8277 7.97149 22.8295 8.32162 22.5792L7.74 21.7657ZM4.50393 19.4146L3.55055 19.1128C3.42066 19.5232 3.56792 19.9706 3.91614 20.2236L4.50393 19.4146ZM5.30557 16.8821L6.25894 17.1839C6.34968 16.8973 6.30663 16.5851 6.14173 16.3337L5.30557 16.8821ZM4.00904 12.8901L5.00789 12.8422C4.99348 12.5419 4.84478 12.2641 4.60295 12.0856L4.00904 12.8901ZM1.87109 11.3119L0.920037 11.0029C0.787027 11.4122 0.930889 11.8608 1.27718 12.1164L1.87109 11.3119ZM3.10716 7.50766L3.09957 6.50769C2.66915 6.51095 2.28912 6.78928 2.15611 7.19864L3.10716 7.50766ZM5.76438 7.48748L5.77197 8.48746C6.07204 8.48518 6.35522 8.34827 6.54338 8.11451L5.76438 7.48748ZM9.16017 5.01858L9.51519 5.95344C9.79593 5.84683 10.0139 5.61969 10.1089 5.3348L9.16017 5.01858ZM13.9998 12.5C13.9998 13.6046 13.1043 14.5 11.9998 14.5V16.5C14.2089 16.5 15.9998 14.7091 15.9998 12.5H13.9998ZM11.9998 14.5C10.8952 14.5 9.99975 13.6046 9.99975 12.5H7.99975C7.99975 14.7091 9.79062 16.5 11.9998 16.5V14.5ZM9.99975 12.5C9.99975 11.3954 10.8952 10.5 11.9998 10.5V8.5C9.79062 8.5 7.99975 10.2909 7.99975 12.5H9.99975ZM11.9998 10.5C13.1043 10.5 13.9998 11.3954 13.9998 12.5H15.9998C15.9998 10.2909 14.2089 8.5 11.9998 8.5V10.5ZM13.9997 1.5H9.9997V3.5H13.9997V1.5ZM15.7879 4.70235L14.9484 2.18377L13.051 2.81623L13.8905 5.3348L15.7879 4.70235ZM19.0142 6.86073C18.02 5.62538 16.7052 4.65749 15.1942 4.08372L14.4842 5.95344C15.6573 6.39893 16.6812 7.15178 17.4562 8.11473L19.0142 6.86073ZM20.8998 6.50793L18.2428 6.48776L18.2276 8.4877L20.8846 8.50787L20.8998 6.50793ZM23.0794 11.0031L21.8433 7.19888L19.9412 7.81692L21.1772 11.6211L23.0794 11.0031ZM20.5842 13.6949L22.7222 12.1167L21.5344 10.5076L19.3964 12.0859L20.5842 13.6949ZM19.5301 17.4304C20.384 16.1286 20.9098 14.5912 20.9892 12.9384L18.9915 12.8424C18.9297 14.1283 18.5215 15.3216 17.8578 16.3335L19.5301 17.4304ZM20.4491 19.113L19.6473 16.5802L17.7406 17.1838L18.5423 19.7166L20.4491 19.113ZM16.8474 22.575L20.0835 20.2239L18.9079 18.6058L15.6719 20.957L16.8474 22.575ZM13.518 21.035L15.678 22.5794L16.8413 20.9525L14.6813 19.4081L13.518 21.035ZM11.9997 21.5C12.8156 21.5 13.6077 21.3912 14.3615 21.1867L13.8378 19.2564C13.2532 19.4151 12.6371 19.5 11.9997 19.5V21.5ZM9.63784 21.1866C10.3916 21.3912 11.1837 21.5 11.9997 21.5V19.5C11.3622 19.5 10.7462 19.4151 10.1615 19.2564L9.63784 21.1866ZM8.32162 22.5792L10.4813 21.035L9.31807 19.4081L7.15837 20.9523L8.32162 22.5792ZM3.91614 20.2236L7.15221 22.5747L8.32778 20.9567L5.09172 18.6056L3.91614 20.2236ZM4.35219 16.5804L3.55055 19.1128L5.4573 19.7164L6.25894 17.1839L4.35219 16.5804ZM3.0102 12.9381C3.08957 14.5911 3.61541 16.1287 4.46941 17.4306L6.14173 16.3337C5.47792 15.3217 5.06965 14.1282 5.00789 12.8422L3.0102 12.9381ZM1.27718 12.1164L3.41513 13.6947L4.60295 12.0856L2.465 10.5074L1.27718 12.1164ZM2.15611 7.19864L0.920037 11.0029L2.82215 11.6209L4.05822 7.81667L2.15611 7.19864ZM5.75679 6.48751L3.09957 6.50769L3.11475 8.50763L5.77197 8.48746L5.75679 6.48751ZM8.80516 4.08372C7.29434 4.65745 5.97963 5.62523 4.98538 6.86046L6.54338 8.11451C7.31839 7.15167 8.34215 6.3989 9.51519 5.95344L8.80516 4.08372ZM9.05101 2.18377L8.21149 4.70235L10.1089 5.3348L10.9484 2.81623L9.05101 2.18377Z" fill="#131316"/>
</svg>
