<svg width="24" height="24" viewBox="0 0 24 24" fill="none" xmlns="http://www.w3.org/2000/svg">
<path d="M17.2215 20.5302L17.7444 21.3826C18.174 21.1191 18.3404 20.5769 18.1324 20.1177L17.2215 20.5302ZM6.77853 20.5302L5.86759 20.1177C5.65964 20.5769 5.82597 21.1191 6.25565 21.3826L6.77853 20.5302ZM3.46978 17.2215L2.61737 17.7444C2.88095 18.174 3.42312 18.3404 3.8823 18.1324L3.46978 17.2215ZM3.46978 6.77853L3.8823 5.86759C3.42312 5.65964 2.88095 5.82597 2.61737 6.25565L3.46978 6.77853ZM6.77853 3.46978L6.25565 2.61737C5.82597 2.88095 5.65964 3.42312 5.86759 3.8823L6.77853 3.46978ZM17.2215 3.46978L18.1324 3.8823C18.3404 3.42312 18.174 2.88095 17.7444 2.61737L17.2215 3.46978ZM20.5302 6.77853L21.3826 6.25565C21.1191 5.82597 20.5769 5.65964 20.1177 5.86759L20.5302 6.77853ZM20.5302 17.2215L20.1177 18.1324C20.5769 18.3404 21.1191 18.174 21.3826 17.7444L20.5302 17.2215ZM6 4.5C6 5.32843 5.32843 6 4.5 6V8C6.433 8 8 6.433 8 4.5H6ZM4.5 6C3.67157 6 3 5.32843 3 4.5H1C1 6.433 2.567 8 4.5 8V6ZM3 4.5C3 3.67157 3.67157 3 4.5 3V1C2.567 1 1 2.567 1 4.5H3ZM4.5 3C5.32843 3 6 3.67157 6 4.5H8C8 2.567 6.433 1 4.5 1V3ZM21 4.5C21 5.32843 20.3284 6 19.5 6V8C21.433 8 23 6.433 23 4.5H21ZM19.5 6C18.6716 6 18 5.32843 18 4.5H16C16 6.433 17.567 8 19.5 8V6ZM18 4.5C18 3.67157 18.6716 3 19.5 3V1C17.567 1 16 2.567 16 4.5H18ZM19.5 3C20.3284 3 21 3.67157 21 4.5H23C23 2.567 21.433 1 19.5 1V3ZM6 19.5C6 20.3284 5.32843 21 4.5 21V23C6.433 23 8 21.433 8 19.5H6ZM4.5 21C3.67157 21 3 20.3284 3 19.5H1C1 21.433 2.567 23 4.5 23V21ZM3 19.5C3 18.6716 3.67157 18 4.5 18V16C2.567 16 1 17.567 1 19.5H3ZM4.5 18C5.32843 18 6 18.6716 6 19.5H8C8 17.567 6.433 16 4.5 16V18ZM21 19.5C21 20.3284 20.3284 21 19.5 21V23C21.433 23 23 21.433 23 19.5H21ZM19.5 21C18.6716 21 18 20.3284 18 19.5H16C16 21.433 17.567 23 19.5 23V21ZM18 19.5C18 18.6716 18.6716 18 19.5 18V16C17.567 16 16 17.567 16 19.5H18ZM19.5 18C20.3284 18 21 18.6716 21 19.5H23C23 17.567 21.433 16 19.5 16V18ZM12 23C14.1034 23 16.0717 22.4086 17.7444 21.3826L16.6986 19.6778C15.3316 20.5163 13.7238 21 12 21V23ZM6.25565 21.3826C7.92827 22.4086 9.8966 23 12 23V21C10.2762 21 8.66837 20.5163 7.30141 19.6778L6.25565 21.3826ZM6 19.5C6 19.7222 5.95232 19.9306 5.86759 20.1177L7.68948 20.9428C7.88926 20.5016 8 20.0124 8 19.5H6ZM3.8823 18.1324C4.06942 18.0477 4.27779 18 4.5 18V16C3.98763 16 3.49842 16.1107 3.05725 16.3105L3.8823 18.1324ZM1 12C1 14.1034 1.59135 16.0717 2.61737 17.7444L4.32218 16.6986C3.48366 15.3316 3 13.7238 3 12H1ZM2.61737 6.25565C1.59135 7.92827 1 9.8966 1 12H3C3 10.2762 3.48366 8.66837 4.32218 7.30141L2.61737 6.25565ZM4.5 6C4.27779 6 4.06942 5.95232 3.8823 5.86759L3.05725 7.68948C3.49842 7.88926 3.98763 8 4.5 8V6ZM5.86759 3.8823C5.95232 4.06942 6 4.27779 6 4.5H8C8 3.98763 7.88926 3.49842 7.68948 3.05725L5.86759 3.8823ZM12 1C9.8966 1 7.92827 1.59135 6.25565 2.61737L7.30141 4.32218C8.66837 3.48366 10.2762 3 12 3V1ZM17.7444 2.61737C16.0717 1.59135 14.1034 1 12 1V3C13.7238 3 15.3316 3.48366 16.6986 4.32218L17.7444 2.61737ZM18 4.5C18 4.27779 18.0477 4.06942 18.1324 3.8823L16.3105 3.05725C16.1107 3.49842 16 3.98763 16 4.5H18ZM20.1177 5.86759C19.9306 5.95232 19.7222 6 19.5 6V8C20.0124 8 20.5016 7.88926 20.9428 7.68948L20.1177 5.86759ZM23 12C23 9.8966 22.4086 7.92827 21.3826 6.25565L19.6778 7.30141C20.5163 8.66837 21 10.2762 21 12H23ZM21.3826 17.7444C22.4086 16.0717 23 14.1034 23 12H21C21 13.7238 20.5163 15.3316 19.6778 16.6986L21.3826 17.7444ZM19.5 18C19.7222 18 19.9306 18.0477 20.1177 18.1324L20.9428 16.3105C20.5016 16.1107 20.0124 16 19.5 16V18ZM18.1324 20.1177C18.0477 19.9306 18 19.7222 18 19.5H16C16 20.0124 16.1107 20.5016 16.3105 20.9428L18.1324 20.1177Z" fill="#131316"/>
</svg>
