<svg width="24" height="24" viewBox="0 0 24 24" fill="none" xmlns="http://www.w3.org/2000/svg">
<path d="M19.5 9C19.6712 9 19.8384 8.98278 20 8.94999V15.05C19.8384 15.0172 19.6712 15 19.5 15M19.5 9C18.1193 9 17 7.88071 17 6.5M19.5 9C20.8807 9 22 7.88071 22 6.5C22 5.11929 20.8807 4 19.5 4C18.1193 4 17 5.11929 17 6.5M17 6.5C17 6.19924 17.0531 5.91089 17.1505 5.64381L6.99691 4.37461C6.99896 4.41615 7 4.45795 7 4.5M7 4.5C7 5.88071 5.88071 7 4.5 7M7 4.5C7 3.11929 5.88071 2 4.5 2C3.11929 2 2 3.11929 2 4.5C2 5.88071 3.11929 7 4.5 7M4.5 7C4.32877 7 4.16156 6.98279 4 6.94999V17.05C4.16156 17.0172 4.32877 17 4.5 17M4.5 17C5.88071 17 7 18.1193 7 19.5M4.5 17C3.11929 17 2 18.1193 2 19.5C2 20.8807 3.11929 22 4.5 22C5.88071 22 7 20.8807 7 19.5M7 19.5C7 19.542 6.99896 19.5838 6.99691 19.6254L17.1505 18.3562C17.0531 18.0891 17 17.8008 17 17.5M17 17.5C17 16.1193 18.1193 15 19.5 15M17 17.5C17 18.8807 18.1193 20 19.5 20C20.8807 20 22 18.8807 22 17.5C22 16.1193 20.8807 15 19.5 15" stroke="#131316" stroke-width="2" stroke-linecap="round" stroke-linejoin="round"/>
</svg>
