<svg width="24" height="24" viewBox="0 0 24 24" fill="none" xmlns="http://www.w3.org/2000/svg">
<path d="M3 3.00001L21 21M3.09414 8.75116C3.09782 8.79805 3.10162 8.84616 3.10553 8.89551C3.28781 11.2 3.7658 14.2842 5.00011 16.2857C6.14461 18.1415 8.30857 19.763 9.92887 20.8C10.5222 21.1797 10.8188 21.3695 11.3229 21.4863C11.6848 21.5702 12.3155 21.5702 12.6774 21.4863C13.1814 21.3695 13.478 21.1797 14.0714 20.8C14.2787 20.6673 14.495 20.525 14.7168 20.3739M17.8082 17.8084C18.2643 17.3253 18.6737 16.8151 19.0001 16.2857C20.2344 14.2842 20.7124 11.2 20.8947 8.89551C20.9706 7.93544 21.0086 7.4554 20.8428 6.91125C20.7088 6.4717 20.4009 5.96471 20.0727 5.64311C19.6664 5.24498 19.1626 5.03174 18.155 4.60527L13.8711 2.79198C13.1811 2.49989 12.836 2.35384 12.4786 2.29609C12.1616 2.24489 11.8386 2.24489 11.5217 2.29609C11.1642 2.35384 10.8192 2.49988 10.1291 2.79198L5.84519 4.60527C5.50443 4.7495 5.22128 4.86935 4.98005 4.98021L17.8082 17.8084Z" stroke="#131316" stroke-width="2" stroke-linecap="round" stroke-linejoin="round"/>
</svg>
