<svg width="24" height="24" viewBox="0 0 24 24" fill="none" xmlns="http://www.w3.org/2000/svg">
<path d="M3.10579 8.89551C3.28808 11.2 3.76606 14.2842 5.00038 16.2857C6.14488 18.1415 8.30884 19.763 9.92914 20.8C10.5224 21.1797 10.8191 21.3695 11.3231 21.4863C11.685 21.5702 12.3157 21.5702 12.6776 21.4863C13.1817 21.3695 13.4783 21.1797 14.0716 20.8C15.6919 19.763 17.8559 18.1416 19.0004 16.2857C20.2347 14.2842 20.7127 11.2 20.895 8.89551C20.9709 7.93544 21.0089 7.4554 20.843 6.91125C20.709 6.4717 20.4012 5.96471 20.073 5.64311C19.6666 5.24498 19.1629 5.03174 18.1553 4.60527L13.8714 2.79198C13.1813 2.49989 12.8363 2.35384 12.4788 2.29609C12.1619 2.24489 11.8388 2.24489 11.5219 2.29609C11.1645 2.35384 10.8194 2.49989 10.1293 2.79198L5.84545 4.60527C4.8379 5.03174 4.33413 5.24498 3.9278 5.64311C3.59958 5.96471 3.29172 6.4717 3.15774 6.91125C2.99188 7.4554 3.02985 7.93545 3.10579 8.89551Z" stroke="#131316" stroke-width="2" stroke-linecap="round" stroke-linejoin="round"/>
</svg>
