<svg width="24" height="24" viewBox="0 0 24 24" fill="none" xmlns="http://www.w3.org/2000/svg">
<path d="M12 4.5V7.5C12 8.32843 12.6716 9 13.5 9C14.3284 9 15 8.32843 15 7.5V4.5C15 3.67157 14.3284 3 13.5 3C12.6716 3 12 3.67157 12 4.5Z" stroke="#131316" stroke-width="2" stroke-miterlimit="10" stroke-linecap="round" stroke-linejoin="round"/>
<path d="M9 16.5V19.5C9 20.3284 9.67157 21 10.5 21C11.3284 21 12 20.3284 12 19.5V16.5C12 15.6716 11.3284 15 10.5 15C9.67157 15 9 15.6716 9 16.5Z" stroke="#131316" stroke-width="2" stroke-miterlimit="10" stroke-linecap="round" stroke-linejoin="round"/>
<path d="M4.5 12H7.5C8.32843 12 9 11.3284 9 10.5C9 9.67157 8.32843 9 7.5 9H4.5C3.67157 9 3 9.67157 3 10.5C3 11.3284 3.67157 12 4.5 12Z" stroke="#131316" stroke-width="2" stroke-miterlimit="10" stroke-linecap="round" stroke-linejoin="round"/>
<path d="M16.5 15H19.5C20.3284 15 21 14.3284 21 13.5C21 12.6716 20.3284 12 19.5 12H16.5C15.6716 12 15 12.6716 15 13.5C15 14.3284 15.6716 15 16.5 15Z" stroke="#131316" stroke-width="2" stroke-miterlimit="10" stroke-linecap="round" stroke-linejoin="round"/>
<path d="M6 4.5C6 5.32843 6.67157 6 7.5 6H9V4.5C9 3.67157 8.32843 3 7.5 3C6.67157 3 6 3.67157 6 4.5Z" stroke="#131316" stroke-width="2" stroke-miterlimit="10" stroke-linecap="round" stroke-linejoin="round"/>
<path d="M19.5 6C18.6716 6 18 6.67157 18 7.5V9H19.5C20.3284 9 21 8.32843 21 7.5C21 6.67157 20.3284 6 19.5 6Z" stroke="#131316" stroke-width="2" stroke-miterlimit="10" stroke-linecap="round" stroke-linejoin="round"/>
<path d="M18 19.5C18 18.6716 17.3284 18 16.5 18H15V19.5C15 20.3284 15.6716 21 16.5 21C17.3284 21 18 20.3284 18 19.5Z" stroke="#131316" stroke-width="2" stroke-miterlimit="10" stroke-linecap="round" stroke-linejoin="round"/>
<path d="M4.5 18C5.32843 18 6 17.3284 6 16.5V15H4.5C3.67157 15 3 15.6716 3 16.5C3 17.3284 3.67157 18 4.5 18Z" stroke="#131316" stroke-width="2" stroke-miterlimit="10" stroke-linecap="round" stroke-linejoin="round"/>
</svg>
