<svg width="24" height="24" viewBox="0 0 24 24" fill="none" xmlns="http://www.w3.org/2000/svg">
<path d="M18 22L6 22M18 2L6 2M16.2 18H7.8C6.11984 18 5.27976 18 4.63803 17.673C4.07354 17.3854 3.6146 16.9265 3.32698 16.362C3 15.7202 3 14.8802 3 13.2L3 10.8C3 9.11984 3 8.27976 3.32698 7.63803C3.6146 7.07354 4.07354 6.6146 4.63803 6.32698C5.27976 6 6.11984 6 7.8 6H16.2C17.8802 6 18.7202 6 19.362 6.32698C19.9265 6.6146 20.3854 7.07354 20.673 7.63803C21 8.27976 21 9.11984 21 10.8V13.2C21 14.8802 21 15.7202 20.673 16.362C20.3854 16.9265 19.9265 17.3854 19.362 17.673C18.7202 18 17.8802 18 16.2 18Z" stroke="#131316" stroke-width="2" stroke-linecap="round" stroke-linejoin="round"/>
</svg>
