<svg width="24" height="24" viewBox="0 0 24 24" fill="none" xmlns="http://www.w3.org/2000/svg">
<path d="M4.54697 13.9085L2 15L4.54705 16.0916C5.41633 16.4641 5.85097 16.6504 6.22067 16.9218C6.5485 17.1624 6.83771 17.4516 7.07834 17.7795C7.34971 18.1492 7.53598 18.5838 7.90851 19.4531L9 22L10.0916 19.453C10.4642 18.5837 10.6504 18.1491 10.9218 17.7794C11.1624 17.4516 11.4516 17.1624 11.7794 16.9218C12.1491 16.6504 12.5837 16.4642 13.453 16.0916L16 15L13.453 13.9084C12.5838 13.5359 12.1492 13.3496 11.7795 13.0783C11.4516 12.8376 11.1624 12.5484 10.9218 12.2206C10.6504 11.8509 10.4642 11.4163 10.0916 10.547L9 8L7.90853 10.5469C7.53599 11.4162 7.34971 11.8509 7.07834 12.2206C6.83771 12.5484 6.54848 12.8376 6.22064 13.0783C5.85093 13.3496 5.41628 13.5359 4.54697 13.9085Z" stroke="#131316" stroke-width="2" stroke-linecap="round" stroke-linejoin="round"/>
<path d="M14.4469 5.80846L14 6L14.447 6.19158C15.3163 6.56412 15.7509 6.7504 16.1206 7.02177C16.4485 7.26241 16.7377 7.55163 16.9783 7.87946C17.2497 8.24916 17.4359 8.68381 17.8085 9.55309L18 10L18.1916 9.55294C18.5641 8.68371 18.7504 8.24909 19.0218 7.87941C19.2624 7.5516 19.5516 7.2624 19.8794 7.02177C20.2491 6.75041 20.6837 6.56414 21.5529 6.1916L22 6L21.553 5.80844C20.6838 5.4359 20.2491 5.24963 19.8794 4.97826C19.5516 4.73764 19.2624 4.44843 19.0218 4.12061C18.7504 3.75092 18.5641 3.31629 18.1916 2.44703L18 2L17.8085 2.44688C17.4359 3.31619 17.2497 3.75085 16.9783 4.12056C16.7377 4.4484 16.4484 4.73763 16.1206 4.97826C15.7509 5.24964 15.3162 5.43592 14.4469 5.80846Z" stroke="#131316" stroke-width="2" stroke-linecap="round" stroke-linejoin="round"/>
</svg>
