<svg width="24" height="24" viewBox="0 0 24 24" fill="none" xmlns="http://www.w3.org/2000/svg">
<path d="M19.5 2V7M4.5 17L4.5 22M17 4.5L22 4.5M2 19.5H7M2.32837 6.83569L3.36038 6.39341C4.22969 6.02087 4.66434 5.83459 5.03406 5.56322C5.36189 5.32258 5.65112 5.03335 5.89175 4.70551C6.16313 4.3358 6.3494 3.90115 6.72194 3.03184L7.16418 1.99988L7.60652 3.03199C7.97907 3.90124 8.16534 4.33587 8.43671 4.70556C8.67734 5.03338 8.96655 5.32259 9.29437 5.56322C9.66406 5.83458 10.0987 6.02085 10.968 6.39339L12 6.83569L10.9679 7.27805C10.0986 7.65059 9.66403 7.83686 9.29435 8.10822C8.96653 8.34884 8.67733 8.63804 8.43671 8.96586C8.16535 9.33554 7.97908 9.77015 7.60654 10.6394L7.16418 11.6715L6.72193 10.6395C6.34939 9.77025 6.16312 9.33561 5.89175 8.9659C5.65112 8.63807 5.36191 8.34885 5.03408 8.10822C4.66438 7.83685 4.22973 7.65057 3.36046 7.27802L2.32837 6.83569ZM12.3284 17L13.3604 16.5577C14.2297 16.1852 14.6643 15.9989 15.0341 15.7275C15.3619 15.4869 15.6511 15.1977 15.8918 14.8698C16.1631 14.5001 16.3494 14.0655 16.7219 13.1961L17.1642 12.1642L17.6065 13.1963C17.9791 14.0655 18.1653 14.5002 18.4367 14.8699C18.6773 15.1977 18.9665 15.4869 19.2944 15.7275C19.6641 15.9989 20.0987 16.1852 20.968 16.5577L22 17L20.9679 17.4424C20.0986 17.8149 19.664 18.0012 19.2943 18.2725C18.9665 18.5131 18.6773 18.8024 18.4367 19.1302C18.1654 19.4998 17.9791 19.9345 17.6065 20.8037L17.1642 21.8358L16.7219 20.8038C16.3494 19.9346 16.1631 19.4999 15.8918 19.1302C15.6511 18.8024 15.3619 18.5132 15.0341 18.2725C14.6644 18.0012 14.2297 17.8149 13.3605 17.4423L12.3284 17Z" stroke="#131316" stroke-width="2" stroke-linecap="round" stroke-linejoin="round"/>
</svg>
