<svg width="24" height="24" viewBox="0 0 24 24" fill="none" xmlns="http://www.w3.org/2000/svg">
<path d="M7 22V21M12 22V20M17 22V21M7.60351 5.8439C7.96659 5.7912 8.14813 5.76486 8.31274 5.70998C8.6931 5.58319 9.02507 5.34214 9.26338 5.01972C9.36652 4.88017 9.44768 4.71591 9.60998 4.38737C10.1582 3.27771 10.4323 2.72288 10.7408 2.46157C11.4675 1.84614 12.5325 1.84614 13.2592 2.46157C13.5677 2.72288 13.8418 3.27771 14.39 4.38737C14.5523 4.71591 14.6335 4.88017 14.7366 5.01972C14.9749 5.34214 15.3069 5.58319 15.6873 5.70998C15.8519 5.76486 16.0334 5.7912 16.3965 5.8439C17.6185 6.02124 18.2295 6.10991 18.5722 6.32073C19.3866 6.8217 19.7172 7.83966 19.3524 8.72354C19.1989 9.09549 18.7573 9.52542 17.8742 10.3853C17.6123 10.6404 17.4813 10.7679 17.3804 10.9087C17.1464 11.2355 17.0192 11.6268 17.0163 12.0288C17.015 12.202 17.0459 12.3822 17.1078 12.7426C17.3165 13.9581 17.4208 14.5659 17.3259 14.9573C17.1011 15.8854 16.2367 16.5137 15.2845 16.4413C14.8829 16.4107 14.3356 16.1232 13.2409 15.5482C12.915 15.377 12.752 15.2914 12.5861 15.239C12.2046 15.1187 11.7954 15.1187 11.4139 15.239C11.248 15.2914 11.085 15.377 10.7591 15.5482C9.66442 16.1232 9.11708 16.4107 8.71547 16.4413C7.76329 16.5137 6.89892 15.8854 6.67406 14.9573C6.57922 14.5659 6.68354 13.9581 6.8922 12.7426C6.95407 12.3822 6.98501 12.202 6.98374 12.0288C6.9808 11.6268 6.85359 11.2355 6.61955 10.9087C6.51872 10.7679 6.38774 10.6404 6.12576 10.3853C5.24265 9.52542 4.8011 9.09549 4.6476 8.72354C4.28281 7.83966 4.61335 6.8217 5.42781 6.32073C5.77055 6.10991 6.38153 6.02124 7.60351 5.8439Z" stroke="#131316" stroke-width="2" stroke-linecap="round" stroke-linejoin="round"/>
</svg>
