<svg width="24" height="24" viewBox="0 0 24 24" fill="none" xmlns="http://www.w3.org/2000/svg">
<path d="M2 6.00001L6 6.00001M2 18H5M2 12H3M10.1035 8.54391C10.4666 8.49122 10.6481 8.46487 10.8127 8.40999C11.1931 8.2832 11.5251 8.04215 11.7634 7.71973C11.8665 7.58019 11.9477 7.41592 12.11 7.08739C12.6582 5.97772 12.9323 5.42289 13.2408 5.16158C13.9675 4.54616 15.0325 4.54616 15.7592 5.16158C16.0677 5.42289 16.3418 5.97772 16.89 7.08739C17.0523 7.41592 17.1335 7.58019 17.2366 7.71973C17.4749 8.04215 17.8069 8.2832 18.1873 8.40999C18.3519 8.46487 18.5334 8.49122 18.8965 8.54391C20.1185 8.72125 20.7295 8.80992 21.0722 9.02074C21.8866 9.52171 22.2172 10.5397 21.8524 11.4236C21.6989 11.7955 21.2573 12.2254 20.3742 13.0853C20.1123 13.3404 19.9813 13.4679 19.8804 13.6087C19.6464 13.9356 19.5192 14.3268 19.5163 14.7288C19.515 14.902 19.5459 15.0822 19.6078 15.4426C19.8165 16.6581 19.9208 17.2659 19.8259 17.6573C19.6011 18.5854 18.7367 19.2137 17.7845 19.1413C17.3829 19.1107 16.8356 18.8232 15.7409 18.2482C15.415 18.077 15.252 17.9914 15.0861 17.939C14.7046 17.8187 14.2954 17.8187 13.9139 17.939C13.748 17.9914 13.585 18.077 13.2591 18.2482C12.1644 18.8232 11.6171 19.1107 11.2155 19.1413C10.2633 19.2137 9.39892 18.5854 9.17406 17.6573C9.07922 17.2659 9.18354 16.6581 9.3922 15.4426C9.45407 15.0822 9.48501 14.902 9.48374 14.7288C9.4808 14.3268 9.35359 13.9356 9.11955 13.6087C9.01872 13.4679 8.88774 13.3404 8.62576 13.0853C7.74265 12.2254 7.3011 11.7955 7.1476 11.4236C6.78281 10.5397 7.11335 9.52171 7.92781 9.02074C8.27055 8.80992 8.88153 8.72125 10.1035 8.54391Z" stroke="#131316" stroke-width="2" stroke-linecap="round" stroke-linejoin="round"/>
</svg>
