<svg width="24" height="24" viewBox="0 0 24 24" fill="none" xmlns="http://www.w3.org/2000/svg">
<path d="M12 3C11.8319 3 11.665 3.0046 11.4993 3.01369L8.91006 8.25476L3.49797 9.04021C3.34808 9.4708 3.22998 9.91628 3.14648 10.3738L7.00006 14.126L6.18569 18.8701C6.68019 19.289 7.22053 19.6555 7.79811 19.961L12.0001 17.7538L16.2019 19.9609C16.7795 19.6554 17.3199 19.2889 17.8144 18.8699L17.0001 14.126L20.8535 10.374C20.77 9.91638 20.6518 9.47083 20.5019 9.04017L15.0901 8.25476L12.5009 3.0137C12.335 3.00461 12.168 3 12 3ZM12 3C7.02939 3 3 7.02944 3 12C3 16.9706 7.02944 21 12 21C16.9706 21 21 16.9706 21 12C21 7.02944 16.9705 3 12 3Z" stroke="#131316" stroke-width="2" stroke-linecap="round" stroke-linejoin="round"/>
</svg>
