<svg width="24" height="24" viewBox="0 0 24 24" fill="none" xmlns="http://www.w3.org/2000/svg">
<path d="M6.27477 10.9313L2 12L6.27477 13.0686C7.62928 13.4073 8.30653 13.5766 8.85763 13.9292C9.34509 14.2411 9.75906 14.6551 10.071 15.1426C10.4236 15.6937 10.5929 16.3709 10.9315 17.7254L12.0001 22.0001L13.0688 17.7253C13.4075 16.3708 13.5768 15.6936 13.9294 15.1425C14.2413 14.6551 14.6553 14.2411 15.1427 13.9292C15.6938 13.5766 16.3711 13.4073 17.7255 13.0687L22.0002 12L17.7255 10.9313C16.3711 10.5927 15.6938 10.4234 15.1427 10.0708C14.6553 9.75886 14.2413 9.3449 13.9294 8.85745C13.5768 8.30638 13.4075 7.62914 13.0688 6.27468L12.0001 1.99988L10.9315 6.27453C10.5929 7.62903 10.4236 8.30631 10.071 8.8574C9.75906 9.34486 9.34509 9.75884 8.85763 10.0708C8.30653 10.4234 7.62928 10.5927 6.27477 10.9313Z" stroke="#131316" stroke-width="2" stroke-linecap="round" stroke-linejoin="round"/>
</svg>
