<svg width="24" height="24" viewBox="0 0 24 24" fill="none" xmlns="http://www.w3.org/2000/svg">
<path d="M19.465 17C19.6058 16.1948 19.6509 15.1422 19.7167 13.6068L19.804 11.5698C19.262 11.8441 18.6491 11.9987 18.0001 11.9987C16.8054 11.9987 15.7331 11.475 15.0001 10.6445C14.2672 11.475 13.1948 11.9987 12.0001 11.9987C10.8054 11.9987 9.73307 11.475 9.00013 10.6445C8.26718 11.475 7.19482 11.9987 6.00013 11.9987C5.35092 11.9987 4.73783 11.844 4.1957 11.5696L4.28301 13.6068C4.38764 16.0482 4.43996 17.2689 4.90777 18.2154C5.42666 19.2653 6.29759 20.0997 7.36869 20.5731C8.33436 21 9.5562 21 11.9999 21C12.3592 21 12.6921 21 13.0016 20.9986C13.0097 19.8346 13.0566 19.1685 13.3269 18.638M13.3269 18.638C13.0565 19.1687 13.0098 19.8351 13.0017 21H10V19C10 17.8954 10.8954 17 12 17C12.7492 17 13.4021 17.4119 13.7448 18.0216C13.5814 18.2079 13.4407 18.4147 13.3269 18.638ZM17 21H21M2 8L3.59805 6.00244C4.48011 4.89986 4.92115 4.34857 5.46857 3.95174C5.95353 3.6002 6.49771 3.33865 7.07517 3.17957C7.72701 3 8.433 3 9.845 3H14.155C15.567 3 16.273 3 16.9248 3.17957C17.5023 3.33865 18.0465 3.6002 18.5314 3.95174C19.0789 4.34857 19.5199 4.89986 20.402 6.00244L22 8L22.0002 8.01809C21.9905 10.2189 20.2033 12 18.0002 12C16.8055 12 15.7332 11.4762 15.0002 10.6458C14.2673 11.4762 13.1949 12 12.0002 12C10.8055 12 9.73319 11.4762 9.00024 10.6458C8.2673 11.4762 7.19493 12 6.00024 12C3.7911 12 2 10.2091 2 8Z" stroke="#131316" stroke-width="2" stroke-linecap="round" stroke-linejoin="round"/>
</svg>
