<svg width="24" height="24" viewBox="0 0 24 24" fill="none" xmlns="http://www.w3.org/2000/svg">
<path d="M10 21V19C10 17.8954 10.8954 17 12 17C13.1046 17 14 17.8954 14 19V21H10Z" stroke="#131316" stroke-width="2" stroke-linecap="round" stroke-linejoin="round"/>
<path d="M2 8L3.59805 6.00244C4.48011 4.89986 4.92115 4.34857 5.46857 3.95174C5.95353 3.6002 6.49771 3.33865 7.07517 3.17957C7.72701 3 8.433 3 9.845 3H14.155C15.567 3 16.273 3 16.9248 3.17957C17.5023 3.33865 18.0465 3.6002 18.5314 3.95174C19.0789 4.34857 19.5199 4.89986 20.402 6.00244L22 8L22.0002 8.01809C21.9905 10.2189 20.2033 12 18.0002 12C16.8055 12 15.7332 11.4762 15.0002 10.6458C14.2673 11.4762 13.1949 12 12.0002 12C10.8055 12 9.73319 11.4762 9.00024 10.6458C8.2673 11.4762 7.19493 12 6.00024 12C3.7911 12 2 10.2091 2 8Z" stroke="#131316" stroke-width="2" stroke-linecap="round" stroke-linejoin="round"/>
<path d="M4.1958 11.5696L4.28311 13.6068C4.38774 16.0482 4.44006 17.2689 4.90787 18.2154C5.42676 19.2653 6.29769 20.0997 7.36879 20.5731C8.33446 21 9.5563 21 12 21C14.4436 21 15.6655 21 16.6311 20.5731C17.7022 20.0997 18.5732 19.2653 19.0921 18.2154C19.5599 17.2689 19.6122 16.0482 19.7168 13.6068L19.8041 11.5698C19.2621 11.8441 18.6492 11.9987 18.0002 11.9987C16.8055 11.9987 15.7332 11.475 15.0002 10.6445C14.2673 11.475 13.1949 11.9987 12.0002 11.9987C10.8055 11.9987 9.73317 11.475 9.00023 10.6445C8.26728 11.475 7.19492 11.9987 6.00023 11.9987C5.35102 11.9987 4.73793 11.844 4.1958 11.5696Z" stroke="#131316" stroke-width="2" stroke-linecap="round" stroke-linejoin="round"/>
</svg>
