<svg width="24" height="24" viewBox="0 0 24 24" fill="none" xmlns="http://www.w3.org/2000/svg">
<path d="M13.4783 2.23162C8.48773 1.27077 2 3.44465 2 6.07588C2 7.66822 6.4687 8.95907 11.9811 8.95907C17.4935 8.95907 22.4852 7.5865 21.9622 6.07588C20.9641 3.19288 10.983 4.15396 9.9849 6.07609M17.9698 11.1299C17.9698 12.4568 14.8417 13.5325 10.983 13.5325C7.12431 13.5325 4.0771 11.5 3.99621 11.1299M14.8494 16.0195C14.8494 16.5 13.2804 18.111 11.0875 18.333C8.89463 18.5549 7.02351 17.879 6.90826 16.8232M16.9082 20.9241C16.9513 21.1862 16.1035 21.5333 15.0146 21.6993C13.9257 21.8654 12.9649 21.5254 12.9649 21.5254" stroke="#131316" stroke-width="2" stroke-linecap="round" stroke-linejoin="round"/>
</svg>
