<svg width="24" height="24" viewBox="0 0 24 24" fill="none" xmlns="http://www.w3.org/2000/svg">
<path d="M8 20C7.44772 20 7 20.4477 7 21C7 21.5523 7.44772 22 8 22V20ZM16 22C16.5523 22 17 21.5523 17 21C17 20.4477 16.5523 20 16 20V22ZM2 16C1.44772 16 1 16.4477 1 17C1 17.5523 1.44772 18 2 18L2 16ZM22 18C22.5523 18 23 17.5523 23 17C23 16.4477 22.5523 16 22 16V18ZM13 2C13 1.44772 12.5523 1 12 1C11.4477 1 11 1.44772 11 2H13ZM11 2.00995C11 2.56223 11.4477 3.00995 12 3.00995C12.5523 3.00995 13 2.56223 13 2.00995H11ZM23 12C23 11.4477 22.5523 11 22 11C21.4477 11 21 11.4477 21 12H23ZM21 12.0099C21 12.5622 21.4477 13.0099 22 13.0099C22.5523 13.0099 23 12.5622 23 12.0099H21ZM3 12C3 11.4477 2.55228 11 2 11C1.44772 11 1 11.4477 1 12H3ZM1 12.0099C1 12.5622 1.44772 13.0099 2 13.0099C2.55228 13.0099 3 12.5622 3 12.0099H1ZM20 5C20 4.44772 19.5523 4 19 4C18.4477 4 18 4.44772 18 5H20ZM18 5.00995C18 5.56223 18.4477 6.00995 19 6.00995C19.5523 6.00995 20 5.56223 20 5.00995H18ZM6 5C6 4.44772 5.55228 4 5 4C4.44772 4 4 4.44772 4 5H6ZM4 5.00995C4 5.56223 4.44772 6.00995 5 6.00995C5.55228 6.00995 6 5.56223 6 5.00995H4ZM16.9308 12.8345C16.8394 13.3792 17.2069 13.8948 17.7516 13.9862C18.2963 14.0776 18.8119 13.7101 18.9033 13.1655L16.9308 12.8345ZM5.09674 13.1655C5.18812 13.7101 5.70374 14.0776 6.24841 13.9862C6.79309 13.8948 7.16055 13.3792 7.06918 12.8345L5.09674 13.1655ZM8 22H16V20H8V22ZM2 18L22 18V16L2 16L2 18ZM11 2V2.00995H13V2H11ZM21 12V12.0099H23V12H21ZM1 12V12.0099H3V12H1ZM18 5V5.00995H20V5H18ZM4 5V5.00995H6V5H4ZM7.06918 12.8345C7.02375 12.5638 7 12.285 7 12H5C5 12.3964 5.03305 12.7858 5.09674 13.1655L7.06918 12.8345ZM7 12C7 9.23858 9.23858 7 12 7V5C8.13401 5 5 8.13401 5 12H7ZM12 7C14.7614 7 17 9.23858 17 12H19C19 8.13401 15.866 5 12 5V7ZM17 12C17 12.285 16.9762 12.5638 16.9308 12.8345L18.9033 13.1655C18.967 12.7858 19 12.3964 19 12H17Z" fill="#131316"/>
</svg>
