<svg width="24" height="24" viewBox="0 0 24 24" fill="none" xmlns="http://www.w3.org/2000/svg">
<path d="M13 13.5L12.2 12.9C11.9727 13.203 11.9362 13.6084 12.1056 13.9472C12.275 14.286 12.6212 14.5 13 14.5V13.5ZM16 9.5V8.5C15.6852 8.5 15.3889 8.64819 15.2 8.9L16 9.5ZM17 9.5H18C18 8.94772 17.5523 8.5 17 8.5V9.5ZM16 14.5C16 15.0523 16.4477 15.5 17 15.5C17.5523 15.5 18 15.0523 18 14.5H16ZM6.25487 9.33309C5.88654 9.74461 5.92156 10.3768 6.33309 10.7451C6.74461 11.1135 7.37681 11.0784 7.74513 10.6669L6.25487 9.33309ZM7 14.5L6.12713 14.012C5.95401 14.3217 5.95794 14.7 6.13746 15.006C6.31698 15.312 6.64521 15.5 7 15.5V14.5ZM10 15.5C10.5523 15.5 11 15.0523 11 14.5C11 13.9477 10.5523 13.5 10 13.5V15.5ZM13 21V20V21ZM11 21V22V21ZM3 13H4H3ZM3 11H2H3ZM11 3V2V3ZM13 3V4V3ZM21 11H20H21ZM21 13H22H21ZM18.27 3.54497L18.7239 2.65396L18.7239 2.65396L18.27 3.54497ZM20.455 5.73005L21.346 5.27606V5.27606L20.455 5.73005ZM3.54497 5.73005L4.43597 6.18404L4.43597 6.18404L3.54497 5.73005ZM5.73005 3.54497L5.27606 2.65396L5.27606 2.65396L5.73005 3.54497ZM5.73005 20.455L5.27606 21.346H5.27606L5.73005 20.455ZM3.54497 18.27L4.43597 17.816L4.43597 17.816L3.54497 18.27ZM18.27 20.455L17.816 19.564L18.27 20.455ZM20.455 18.27L19.564 17.816L20.455 18.27ZM13.8 14.1L16.8 10.1L15.2 8.9L12.2 12.9L13.8 14.1ZM16 10.5H17V8.5H16V10.5ZM16 9.5V13.5H18V9.5H16ZM16 13.5V14.5H18V13.5H16ZM13 14.5H17V12.5H13V14.5ZM8.11805 10.5C8.3942 10.5 8.61805 10.7239 8.61805 11H10.6181C10.6181 9.61929 9.49876 8.5 8.11805 8.5V10.5ZM7.74513 10.6669C7.83812 10.563 7.97006 10.5 8.11805 10.5V8.5C7.37754 8.5 6.7112 8.82323 6.25487 9.33309L7.74513 10.6669ZM7 15.5H10V13.5H7V15.5ZM8.61805 11C8.61805 10.9786 8.62121 11.0628 8.46672 11.2922C8.32084 11.5089 8.10264 11.7565 7.82078 12.0496C7.5709 12.3095 7.21228 12.6631 6.9387 12.9571C6.65282 13.2643 6.34326 13.6254 6.12713 14.012L7.87287 14.988C7.96685 14.8198 8.13959 14.6024 8.40275 14.3197C8.67819 14.0237 8.93532 13.7761 9.26243 13.4359C9.55755 13.129 9.87758 12.7778 10.1257 12.4093C10.3652 12.0536 10.6181 11.5665 10.6181 11H8.61805ZM13 20H11V22H13V20ZM4 13V11H2V13H4ZM11 4H13V2H11V4ZM20 11V13H22V11H20ZM13 4C14.4166 4 15.419 4.00078 16.2026 4.0648C16.9745 4.12787 17.4457 4.24729 17.816 4.43597L18.7239 2.65396C18.0247 2.29768 17.261 2.14462 16.3654 2.07144C15.4815 1.99922 14.3836 2 13 2V4ZM22 11C22 9.61637 22.0008 8.5185 21.9286 7.63458C21.8554 6.73898 21.7023 5.9753 21.346 5.27606L19.564 6.18404C19.7527 6.55435 19.8721 7.02552 19.9352 7.79744C19.9992 8.58103 20 9.58337 20 11H22ZM17.816 4.43597C18.5686 4.81947 19.1805 5.43139 19.564 6.18404L21.346 5.27606C20.7708 4.14708 19.8529 3.2292 18.7239 2.65396L17.816 4.43597ZM4 11C4 9.58337 4.00078 8.58103 4.0648 7.79744C4.12787 7.02552 4.24729 6.55435 4.43597 6.18404L2.65396 5.27606C2.29768 5.9753 2.14462 6.73898 2.07144 7.63458C1.99922 8.5185 2 9.61637 2 11H4ZM11 2C9.61637 2 8.51851 1.99922 7.63458 2.07144C6.73898 2.14462 5.97531 2.29768 5.27606 2.65396L6.18404 4.43597C6.55435 4.24729 7.02552 4.12787 7.79744 4.0648C8.58104 4.00078 9.58337 4 11 4V2ZM4.43597 6.18404C4.81947 5.43139 5.43139 4.81947 6.18404 4.43597L5.27606 2.65396C4.14709 3.2292 3.2292 4.14708 2.65396 5.27606L4.43597 6.18404ZM11 20C9.58337 20 8.58104 19.9992 7.79744 19.9352C7.02552 19.8721 6.55435 19.7527 6.18404 19.564L5.27606 21.346C5.9753 21.7023 6.73898 21.8554 7.63458 21.9286C8.51851 22.0008 9.61637 22 11 22V20ZM2 13C2 14.3836 1.99922 15.4815 2.07144 16.3654C2.14462 17.261 2.29768 18.0247 2.65396 18.7239L4.43597 17.816C4.24729 17.4457 4.12787 16.9745 4.0648 16.2026C4.00078 15.419 4 14.4166 4 13H2ZM6.18404 19.564C5.43139 19.1805 4.81947 18.5686 4.43597 17.816L2.65396 18.7239C3.2292 19.8529 4.14709 20.7708 5.27606 21.346L6.18404 19.564ZM13 22C14.3836 22 15.4815 22.0008 16.3654 21.9286C17.261 21.8554 18.0247 21.7023 18.7239 21.346L17.816 19.564C17.4457 19.7527 16.9745 19.8721 16.2026 19.9352C15.419 19.9992 14.4166 20 13 20V22ZM20 13C20 14.4166 19.9992 15.419 19.9352 16.2026C19.8721 16.9745 19.7527 17.4457 19.564 17.816L21.346 18.7239C21.7023 18.0247 21.8554 17.261 21.9286 16.3654C22.0008 15.4815 22 14.3836 22 13H20ZM18.7239 21.346C19.8529 20.7708 20.7708 19.8529 21.346 18.7239L19.564 17.816C19.1805 18.5686 18.5686 19.1805 17.816 19.564L18.7239 21.346Z" fill="#131316"/>
</svg>
