<svg width="24" height="24" viewBox="0 0 24 24" fill="none" xmlns="http://www.w3.org/2000/svg">
<path d="M12 18V18.0099M15.7 22H8.3C6.61984 22 5.77976 22 5.13803 21.673C4.57354 21.3854 4.1146 20.9265 3.82698 20.362C3.5 19.7202 3.5 18.8802 3.5 17.2L3.5 6.8C3.5 5.11984 3.5 4.27976 3.82698 3.63803C4.1146 3.07354 4.57354 2.6146 5.13803 2.32698C5.77976 2 6.61984 2 8.3 2L15.7 2C17.3802 2 18.2202 2 18.862 2.32698C19.4265 2.6146 19.8854 3.07354 20.173 3.63803C20.5 4.27976 20.5 5.11984 20.5 6.8V17.2C20.5 18.8802 20.5 19.7202 20.173 20.362C19.8854 20.9265 19.4265 21.3854 18.862 21.673C18.2202 22 17.3802 22 15.7 22Z" stroke="#131316" stroke-width="2" stroke-linecap="round" stroke-linejoin="round"/>
</svg>
