<svg width="24" height="24" viewBox="0 0 24 24" fill="none" xmlns="http://www.w3.org/2000/svg">
<path d="M12.5643 3.47538C12.2568 3.33111 11.935 3.21821 11.6038 3.1387C11.0261 3 10.4122 3 9.18439 3H6.21268C5.08814 3 4.52587 3 4.09635 3.21885C3.71853 3.41136 3.41136 3.71853 3.21885 4.09635C3 4.52587 3 5.08814 3 6.21268V9.18439C3 10.4122 3 11.0261 3.1387 11.6038C3.26167 12.116 3.46449 12.6057 3.73972 13.0548C4.05015 13.5614 4.48425 13.9955 5.35243 14.8637L8.81242 18.3237C9.9341 19.4453 10.4949 20.0062 11.0802 20.3401C12.6221 21.22 14.514 21.22 16.0559 20.3401C16.6411 20.0062 17.202 19.4453 18.3237 18.3237C19.4453 17.202 20.0062 16.6411 20.3401 16.0559C21.1354 14.6622 21.2118 12.9824 20.5694 11.5337M10.0277 8.5218C10.0277 9.35351 9.35351 10.0277 8.5218 10.0277C7.69009 10.0277 7.01586 9.35351 7.01586 8.5218C7.01586 7.69009 7.69009 7.01586 8.5218 7.01586C9.35351 7.01586 10.0277 7.69009 10.0277 8.5218ZM18.0595 4.00396L14.9846 7.07885C14.6373 7.42612 14.4637 7.59976 14.3395 7.80239C14.2294 7.98204 14.1483 8.17791 14.0991 8.38279C14.0436 8.61388 14.0436 8.85944 14.0436 9.35056V10.0277H14.7208C15.2119 10.0277 15.4575 10.0277 15.6886 9.97227C15.8934 9.92308 16.0893 9.84195 16.269 9.73186C16.4716 9.60769 16.6452 9.43405 16.9925 9.08677L20.0674 6.01189C20.6219 5.45742 20.6219 4.55844 20.0674 4.00396C19.5129 3.44949 18.6139 3.44949 18.0595 4.00396Z" stroke="#131316" stroke-width="2" stroke-linecap="round" stroke-linejoin="round"/>
</svg>
