<svg width="24" height="24" viewBox="0 0 24 24" fill="none" xmlns="http://www.w3.org/2000/svg">
<path d="M18.1391 18.4469C18.1989 18.3874 18.2604 18.3262 18.3237 18.2632C19.4453 17.1459 20.0062 16.5873 20.3401 16.0044C21.22 14.4685 21.22 12.5841 20.3401 11.0483C20.0062 10.4654 19.4453 9.90673 18.3237 8.78947L14.8637 5.34315C13.9955 4.47839 13.5614 4.04601 13.0548 3.7368C12.6057 3.46266 12.116 3.26063 11.6038 3.13815C11.0261 3 10.4122 3 9.18439 3H6.21268C5.08814 3 4.52587 3 4.09635 3.21799C3.71853 3.40973 3.41136 3.71569 3.21885 4.09202C3 4.51984 3 5.07989 3 6.2V9.15998C3 10.3829 3 10.9944 3.1387 11.5698C3.26167 12.08 3.46449 12.5677 3.73972 13.0151C4.05015 13.5197 4.48425 13.9521 5.35244 14.8168L8.46852 17.9206M11.0317 21H15.0476M10.0277 8.5C10.0277 9.32843 9.35351 10 8.5218 10C7.69009 10 7.01586 9.32843 7.01586 8.5C7.01586 7.67157 7.69009 7 8.5218 7C9.35351 7 10.0277 7.67157 10.0277 8.5Z" stroke="#131316" stroke-width="2" stroke-linecap="round" stroke-linejoin="round"/>
</svg>
