<svg width="24" height="24" viewBox="0 0 24 24" fill="none" xmlns="http://www.w3.org/2000/svg">
<path d="M14.8156 3H17.7873C18.9119 3 19.4741 3 19.9037 3.21885C20.2815 3.41136 20.5886 3.71853 20.7811 4.09635C21 4.52587 21 5.08814 21 6.21268V9.18439C21 10.4122 21 11.0261 20.8613 11.6038C20.7383 12.116 20.5355 12.6057 20.2603 13.0548C19.9498 13.5614 19.5157 13.9955 18.6476 14.8637L15.1876 18.3237C14.0659 19.4453 13.5051 20.0062 12.9198 20.3401C11.3779 21.22 9.48599 21.22 7.9441 20.3401C7.35887 20.0062 6.79802 19.4453 5.67634 18.3237C4.55466 17.202 3.99382 16.6411 3.65987 16.0559C2.78004 14.514 2.78004 12.6221 3.65987 11.0802C3.99382 10.4949 4.55466 9.9341 5.67635 8.81242L9.13633 5.35243C10.0045 4.48425 10.4386 4.05015 10.9452 3.73972C11.3943 3.46449 11.884 3.26167 12.3962 3.1387C12.9739 3 13.5878 3 14.8156 3Z" stroke="#131316" stroke-width="2" stroke-linecap="round" stroke-linejoin="round"/>
<path d="M13.9723 8.5218C13.9723 9.35351 14.6465 10.0277 15.4782 10.0277C16.3099 10.0277 16.9841 9.35351 16.9841 8.5218C16.9841 7.69009 16.3099 7.01586 15.4782 7.01586C14.6465 7.01586 13.9723 7.69009 13.9723 8.5218Z" stroke="#131316" stroke-width="2" stroke-linecap="round" stroke-linejoin="round"/>
</svg>
