<svg width="24" height="24" viewBox="0 0 24 24" fill="none" xmlns="http://www.w3.org/2000/svg">
<path d="M5.86086 18.4469C5.80107 18.3874 5.73959 18.3262 5.67634 18.2632C4.55466 17.1459 3.99382 16.5873 3.65987 16.0044C2.78004 14.4685 2.78004 12.5841 3.65987 11.0483C3.99382 10.4654 4.55466 9.90673 5.67635 8.78947L9.13633 5.34315C10.0045 4.47839 10.4386 4.04601 10.9452 3.7368C11.3943 3.46266 11.884 3.26063 12.3962 3.13815C12.9739 3 13.5878 3 14.8156 3H17.7873C18.9119 3 19.4741 3 19.9037 3.21799C20.2815 3.40973 20.5886 3.71569 20.7811 4.09202C21 4.51984 21 5.07989 21 6.2V9.15998C21 10.3829 21 10.9944 20.8613 11.5698C20.7383 12.08 20.5355 12.5677 20.2603 13.0151C19.9498 13.5197 19.5157 13.9521 18.6476 14.8168L15.5315 17.9206M12.9683 21H8.95243M13.9723 8.5C13.9723 9.32843 14.6465 10 15.4782 10C16.3099 10 16.9841 9.32843 16.9841 8.5C16.9841 7.67157 16.3099 7 15.4782 7C14.6465 7 13.9723 7.67157 13.9723 8.5Z" stroke="#131316" stroke-width="2" stroke-linecap="round" stroke-linejoin="round"/>
</svg>
