<svg width="24" height="24" viewBox="0 0 24 24" fill="none" xmlns="http://www.w3.org/2000/svg">
<path d="M2 18L5.92895 4.79871C6.06998 4.32486 6.50561 4 7 4C7.49439 4 7.93002 4.32486 8.07104 4.79871L12 18M4.5 12H9.5M22 7V16.5385C22 18.4502 20.4609 20 18.5623 20C17.5442 20 16.6295 19.5543 16 18.8462M22 11C22 13.2091 20.433 15 18.5 15C16.567 15 15 13.2091 15 11C15 8.79086 16.567 7 18.5 7C20.433 7 22 8.79086 22 11Z" stroke="#131316" stroke-width="2" stroke-linecap="round" stroke-linejoin="round"/>
</svg>
