<svg width="24" height="24" viewBox="0 0 24 24" fill="none" xmlns="http://www.w3.org/2000/svg">
<path d="M7.47623 12.2124C6.45867 13.775 5.94989 14.5563 6.00389 15.201C6.05097 15.763 6.34847 16.2782 6.82008 16.6143C7.36113 17 8.32109 17 10.241 17H13.759C15.6789 17 16.6389 17 17.1799 16.6143C17.6515 16.2782 17.949 15.763 17.9961 15.201C18.0501 14.5563 17.5413 13.775 16.5238 12.2124L14.7648 9.5113C13.848 8.10344 13.3896 7.39952 12.8027 7.15812C12.2901 6.94729 11.7099 6.94729 11.1973 7.15812C10.6104 7.39952 10.152 8.10344 9.23521 9.5113L7.47623 12.2124Z" stroke="#131316" stroke-width="2" stroke-linecap="round" stroke-linejoin="round"/>
</svg>
