<svg width="24" height="24" viewBox="0 0 24 24" fill="none" xmlns="http://www.w3.org/2000/svg">
<path d="M11.7876 16.5238C10.225 17.5413 9.44375 18.0501 8.799 17.9961C8.237 17.949 7.72184 17.6515 7.38567 17.1799C7 16.6389 7 15.6789 7 13.759L7 10.241C7 8.32109 7 7.36113 7.38567 6.82008C7.72184 6.34847 8.237 6.05097 8.799 6.00389C9.44375 5.94989 10.225 6.45867 11.7876 7.47623L14.4887 9.23521C15.8966 10.152 16.6005 10.6104 16.8419 11.1973C17.0527 11.7099 17.0527 12.2901 16.8419 12.8027C16.6005 13.3896 15.8966 13.848 14.4887 14.7648L11.7876 16.5238Z" stroke="#131316" stroke-width="2" stroke-linecap="round" stroke-linejoin="round"/>
</svg>
