<svg width="24" height="24" viewBox="0 0 24 24" fill="none" xmlns="http://www.w3.org/2000/svg">
<path d="M12 12.5001V18.5C12 19.8807 13.1193 21 14.5 21C15.8807 21 17 19.8807 17 18.5V18M12 3V11.9999M12 3C6.47715 3 2 7.47715 2 13L4.62668 12.3433C5.13248 12.2169 5.38538 12.1537 5.63658 12.1549C5.85922 12.156 6.08012 12.1942 6.29015 12.2681C6.52713 12.3514 6.74404 12.496 7.17784 12.7852L7.5 13C7.87564 13.2504 8.06347 13.3756 8.25634 13.4529C8.73368 13.6441 9.26632 13.6441 9.74366 13.4529C9.93653 13.3756 10.1244 13.2504 10.5 13C10.8756 12.7496 11.0635 12.6244 11.2563 12.5471C11.7337 12.3559 12.2663 12.3559 12.7437 12.5471C12.9365 12.6244 13.1244 12.7496 13.5 13C13.8756 13.2504 14.0635 13.3756 14.2563 13.4529C14.7337 13.6441 15.2663 13.6441 15.7437 13.4529C15.9365 13.3756 16.1244 13.2504 16.5 13L16.8222 12.7852C17.256 12.496 17.4729 12.3514 17.7098 12.2681C17.9199 12.1942 18.1408 12.156 18.3634 12.1549C18.6146 12.1537 18.8675 12.2169 19.3733 12.3433L22 13C22 7.47715 17.5228 3 12 3ZM6 12C6 8.2986 8.01099 5.06688 11 3.33783M18 12.0001C18 8.29866 15.989 5.06694 13 3.33789" stroke="#131316" stroke-width="2" stroke-linecap="round" stroke-linejoin="round"/>
</svg>
