<svg width="24" height="24" viewBox="0 0 24 24" fill="none" xmlns="http://www.w3.org/2000/svg">
<path d="M12 12.5001V18.5C12 19.8807 13.1193 21 14.5 21C15.8807 21 17 19.8807 17 18.5V18M2 13C2 7.47715 6.47715 3 12 3C17.5228 3 22 7.47715 22 13L19.3733 12.3433C18.8675 12.2169 18.6146 12.1537 18.3634 12.1549C18.1408 12.156 17.9199 12.1942 17.7098 12.2681C17.4729 12.3514 17.256 12.496 16.8222 12.7852L16.5 13C16.1244 13.2504 15.9365 13.3756 15.7437 13.4529C15.2663 13.6441 14.7337 13.6441 14.2563 13.4529C14.0635 13.3756 13.8756 13.2504 13.5 13C13.1244 12.7496 12.9365 12.6244 12.7437 12.5471C12.2663 12.3559 11.7337 12.3559 11.2563 12.5471C11.0635 12.6244 10.8756 12.7496 10.5 13C10.1244 13.2504 9.93653 13.3756 9.74366 13.4529C9.26632 13.6441 8.73368 13.6441 8.25634 13.4529C8.06347 13.3756 7.87564 13.2504 7.5 13L7.17784 12.7852C6.74404 12.496 6.52713 12.3514 6.29015 12.2681C6.08012 12.1942 5.85922 12.156 5.63658 12.1549C5.38538 12.1537 5.13248 12.2169 4.62668 12.3433L2 13Z" stroke="#131316" stroke-width="2" stroke-linecap="round" stroke-linejoin="round"/>
</svg>
