<svg width="24" height="24" viewBox="0 0 24 24" fill="none" xmlns="http://www.w3.org/2000/svg">
<path d="M2 15.2568L2 7.08561C2 5.39329 3.37899 4.0214 5.08005 4.0214C6.78112 4.0214 8.1601 5.39329 8.1601 7.08561V15.2568C8.1601 16.9491 6.78112 18.321 5.08005 18.321C3.37899 18.321 2 16.9491 2 15.2568Z" stroke="#131316" stroke-width="2" stroke-linecap="round" stroke-linejoin="round"/>
<path d="M11.2695 20.145L9.24 17.6212C8.83975 17.1234 8.63963 16.8746 8.49732 16.5974C8.37106 16.3516 8.27878 16.0899 8.22299 15.8194C8.1601 15.5146 8.1601 15.1959 8.1601 14.5584V8.09498C8.1601 7.34551 8.1601 6.97077 8.2452 6.61812C8.32065 6.30546 8.4451 6.00656 8.61398 5.7324C8.80445 5.42317 9.0708 5.15819 9.6035 4.62823L9.79675 4.43598C10.3295 3.90602 10.5958 3.64104 10.9066 3.45154C11.1822 3.28353 11.4826 3.15973 11.7969 3.08466C12.1514 3 12.5281 3 13.2814 3H15.1415C16.3289 3 16.9226 3 17.4378 3.18873C17.8931 3.35552 18.3024 3.62695 18.6323 3.98093C19.0055 4.38148 19.2339 4.92667 19.6905 6.01707L20.7172 8.46843C21.6679 10.7382 22.1432 11.8731 21.962 12.786C21.8037 13.5842 21.3327 14.2869 20.6531 14.7393C19.8757 15.2568 18.6398 15.2568 16.1682 15.2568H15.3469V18.7221C15.3469 19.7025 14.7163 20.573 13.7814 20.883C12.8714 21.1848 11.8688 20.8902 11.2695 20.145Z" stroke="#131316" stroke-width="2" stroke-linecap="round" stroke-linejoin="round"/>
</svg>
