<svg width="24" height="24" viewBox="0 0 24 24" fill="none" xmlns="http://www.w3.org/2000/svg">
<path d="M17.081 5.01551L17.0649 4.97576C16.7304 4.15104 16.5632 3.73867 16.3388 3.43468C15.688 2.55295 14.6082 2.09625 13.5222 2.24342C13.1478 2.29416 12.7354 2.46139 11.9107 2.79585L10.1713 3.50126C9.03461 3.96222 8.46628 4.1927 8.07353 4.54734C7.45397 5.10679 7.09553 5.89909 7.08436 6.73379C7.07728 7.26291 7.27939 7.84194 7.68359 9.00001M16.2 21H7.8C6.11984 21 5.27976 21 4.63803 20.673C4.07354 20.3854 3.6146 19.9265 3.32698 19.362C3 18.7202 3 17.8802 3 16.2L3 13.8C3 12.1199 3 11.2798 3.32698 10.638C3.6146 10.0736 4.07354 9.61461 4.63803 9.32699C5.27976 9.00001 6.11984 9.00001 7.8 9.00001H16.2C17.8802 9.00001 18.7202 9.00001 19.362 9.32699C19.9265 9.61461 20.3854 10.0736 20.673 10.638C21 11.2798 21 12.1199 21 13.8V16.2C21 17.8802 21 18.7202 20.673 19.362C20.3854 19.9265 19.9265 20.3854 19.362 20.673C18.7202 21 17.8802 21 16.2 21Z" stroke="#131316" stroke-width="2" stroke-linecap="round" stroke-linejoin="round"/>
</svg>
