<svg width="24" height="24" viewBox="0 0 24 24" fill="none" xmlns="http://www.w3.org/2000/svg">
<path d="M12 14C13.6569 14 15 12.6569 15 11C15 9.34315 13.6569 8 12 8C10.3431 8 9 9.34315 9 11C9 12.6569 10.3431 14 12 14ZM12 14C11.071 14 10.6065 14 10.2178 14.0616C8.07837 14.4004 6.40042 16.0784 6.06156 18.2178C6 18.6065 6 19.071 6 20C6 20.2164 6 20.4076 6.00078 20.5785C7.03896 21 8.42966 21 11 21M12 14C12.929 14 13.3935 14 13.7822 14.0616C15.9216 14.4004 17.5996 16.0784 17.9384 18.2178C18 18.6065 18 19.071 18 20C18 20.2164 18 20.4076 17.9992 20.5785C16.961 21 15.5703 21 13 21M11 21H13M11 21C8.19974 21 6.79961 21 5.73005 20.455C4.78924 19.9757 4.02433 19.2108 3.54497 18.27C3 17.2004 3 15.8003 3 13V11C3 8.19974 3 6.79961 3.54497 5.73005C4.02433 4.78924 4.78924 4.02433 5.73005 3.54497C6.79961 3 8.19974 3 11 3H13C15.8003 3 17.2004 3 18.27 3.54497C19.2108 4.02433 19.9757 4.78924 20.455 5.73005C21 6.79961 21 8.19974 21 11V13C21 15.8003 21 17.2004 20.455 18.27C19.9757 19.2108 19.2108 19.9757 18.27 20.455C17.2004 21 15.8003 21 13 21" stroke="#131316" stroke-width="2" stroke-linecap="round" stroke-linejoin="round"/>
</svg>
