<svg width="24" height="24" viewBox="0 0 24 24" fill="none" xmlns="http://www.w3.org/2000/svg">
<path d="M6 3L18 3M15 21H9C7.13872 21 6.20808 21 5.45491 20.7553C3.93272 20.2607 2.73931 19.0673 2.24472 17.5451C2 16.7919 2 15.8613 2 14C2 12.1387 2 11.2081 2.24472 10.4549C2.73931 8.93273 3.93272 7.73931 5.45491 7.24472C6.20808 7 7.13872 7 9 7H15C16.8613 7 17.7919 7 18.5451 7.24472C20.0673 7.73931 21.2607 8.93273 21.7553 10.4549C22 11.2081 22 12.1387 22 14C22 15.8613 22 16.7919 21.7553 17.5451C21.2607 19.0673 20.0673 20.2607 18.5451 20.7553C17.7919 21 16.8613 21 15 21ZM10.5 11L15 14L10.5 17V11Z" stroke="#131316" stroke-width="2" stroke-linecap="round" stroke-linejoin="round"/>
</svg>
