<svg width="24" height="24" viewBox="0 0 24 24" fill="none" xmlns="http://www.w3.org/2000/svg">
<path d="M3 3L21 21M2.39501 8.05208C2.33943 8.18351 2.28924 8.31788 2.24472 8.45492C2 9.20808 2 10.1387 2 12C2 13.8613 2 14.7919 2.24472 15.5451C2.73931 17.0673 3.93272 18.2607 5.45492 18.7553C6.20808 19 7.13872 19 9 19H10C11.5827 19 12.4925 19 13.1924 18.8495M16.7553 15.5451C16.6593 15.8405 16.537 16.1235 16.3911 16.3914L11.9355 11.9358C12.5516 11.7492 13 11.177 13 10.5C13 9.67157 12.3284 9 11.5 9C10.8231 9 10.2508 9.44843 10.0642 10.0644L5.29827 5.29849C5.35008 5.27974 5.4023 5.26181 5.45492 5.24472C6.20808 5 7.13872 5 9 5H10C11.8613 5 12.7919 5 13.5451 5.24472C15.0673 5.73931 16.2607 6.93272 16.7553 8.45492C17 9.20808 17 10.1387 17 12C17 13.8613 17 14.7919 16.7553 15.5451ZM17 13.5314V10.4686C17 10.124 17 9.95174 17.0243 9.79719C17.1233 9.16873 17.5153 8.62483 18.0802 8.33224C18.2191 8.26029 18.3826 8.20581 18.7094 8.09686C19.2985 7.9005 19.593 7.80233 19.8298 7.7821C20.8144 7.69804 21.7127 8.34554 21.9443 9.30612C22 9.53717 22 9.84764 22 10.4686V13.5314C22 14.1524 22 14.4628 21.9443 14.6939C21.7127 15.6545 20.8144 16.302 19.8298 16.2179C19.593 16.1977 19.2985 16.0995 18.7094 15.9031C18.3826 15.7942 18.2191 15.7397 18.0802 15.6678C17.5153 15.3752 17.1233 14.8313 17.0243 14.2028C17 14.0483 17 13.876 17 13.5314Z" stroke="#131316" stroke-width="2" stroke-linecap="round" stroke-linejoin="round"/>
</svg>
