<svg width="24" height="24" viewBox="0 0 24 24" fill="none" xmlns="http://www.w3.org/2000/svg">
<path d="M2.00781 10.0077L2.29858 10.2985C2.82226 8.85118 3.98543 7.72227 5.45506 7.24475C6.20822 7.00004 7.13886 7.00004 9.00014 7.00004H15.0001M2.00781 10.0077C2.02939 8.67237 2.11173 7.8426 2.42584 7.13088C2.80118 6.28043 3.40618 5.55146 4.17288 5.02583C5.04245 4.42966 6.20358 4.21195 8.52584 3.77653C11.778 3.16675 13.404 2.86186 14.6746 3.31345C15.7893 3.70962 16.7273 4.48815 17.3221 5.51069C17.5763 5.94756 17.7351 6.45309 17.8345 7.08865C17.1807 7.00004 16.3268 7.00004 15.0001 7.00004M2.00781 10.0077V12M15.0001 7.00004C16.8614 7.00004 17.7921 7.00004 18.5452 7.24475C20.0674 7.73934 21.2608 8.93276 21.7554 10.455C22.0001 11.2081 22.0001 12.1388 22.0001 14C22.0001 15.8613 22.0001 16.792 21.7554 17.5451C21.2608 19.0673 20.0674 20.2607 18.5452 20.7553C17.7921 21 16.8614 21 15.0001 21H13.0001M7.00015 17L3.00013 21M3.00015 17L7.00015 21M22.0001 16L18.0001 16C16.8956 16 16.0001 15.1046 16.0001 14C16.0001 12.8955 16.8956 12 18.0001 12L22.0001 12V16Z" stroke="#131316" stroke-width="2" stroke-linecap="round" stroke-linejoin="round"/>
</svg>
