<svg width="24" height="24" viewBox="0 0 24 24" fill="none" xmlns="http://www.w3.org/2000/svg">
<path d="M9.99994 21H15.0001C16.8613 21 17.792 21 18.5452 20.7553C20.0673 20.2607 21.2608 19.0673 21.7554 17.5451C22.0001 16.7919 22.0001 15.8613 22.0001 14C22.0001 12.1387 22.0001 11.2081 21.7554 10.4549C21.2608 8.93272 20.0673 7.73931 18.5452 7.24472C17.792 7 16.8613 7 15.0001 7M15.0001 7H9.00007C7.13878 7 6.20814 7 5.45498 7.24472C3.93279 7.73931 2.73937 8.93272 2.24478 10.4549C2.04841 11.0593 2.00962 11.7779 2.00195 13C2.00084 12.6877 2 12.3551 2 12V11.6394C2 9.27666 2 8.0953 2.4257 7.13075C2.80104 6.28031 3.40603 5.55134 4.17274 5.0257C5.04231 4.42954 6.20344 4.21183 8.52569 3.77641C11.7778 3.16663 13.4039 2.86174 14.6745 3.31333C15.7891 3.7095 16.7272 4.48803 17.322 5.51057C17.5761 5.94744 17.735 6.45297 17.8343 7.08853C17.1805 6.99992 16.3267 7 15.0001 7ZM2 19H6M4 17L4 21M22 16H18C16.8954 16 16 15.1046 16 14C16 12.8954 16.8954 12 18 12H22V16Z" stroke="#131316" stroke-width="2" stroke-linecap="round" stroke-linejoin="round"/>
</svg>
