<svg width="24" height="24" viewBox="0 0 24 24" fill="none" xmlns="http://www.w3.org/2000/svg">
<path d="M12 9.90751V12.9327M12 16.9563V16.9664M20.7306 16.218L14.9171 5.97269C13.966 4.29656 13.4904 3.4585 12.8621 3.18124C12.3144 2.93959 11.6856 2.93959 11.1379 3.18124C10.5096 3.4585 10.034 4.29656 9.08292 5.97269L3.2694 16.218C2.37612 17.7922 1.92948 18.5794 2.00906 19.2231C2.0785 19.7849 2.38816 20.2925 2.8625 20.6222C3.40611 21 4.3329 21 6.18648 21L17.8135 21C19.6671 21 20.5939 21 21.1375 20.6222C21.6118 20.2925 21.9215 19.7848 21.9909 19.2231C22.0705 18.5794 21.6239 17.7922 20.7306 16.218Z" stroke="#131316" stroke-width="2" stroke-linecap="round" stroke-linejoin="round"/>
</svg>
