<svg width="24" height="24" viewBox="0 0 24 24" fill="none" xmlns="http://www.w3.org/2000/svg">
<path d="M12 10V13H15M16 5C16 4.06812 16 3.60218 15.8478 3.23463C15.6448 2.74458 15.2554 2.35523 14.7654 2.15224C14.3978 2 13.9319 2 13 2L11 2C10.0681 2 9.60218 2 9.23463 2.15224C8.74458 2.35523 8.35523 2.74458 8.15224 3.23463C8 3.60218 8 4.06812 8 5M16 19C16 19.9319 16 20.3978 15.8478 20.7654C15.6448 21.2554 15.2554 21.6448 14.7654 21.8478C14.3978 22 13.9319 22 13 22H11C10.0681 22 9.60218 22 9.23463 21.8478C8.74458 21.6448 8.35523 21.2554 8.15224 20.7654C8 20.3978 8 19.9319 8 19M14.2 19H9.8C8.11984 19 7.27976 19 6.63803 18.673C6.07354 18.3854 5.6146 17.9265 5.32698 17.362C5 16.7202 5 15.8802 5 14.2L5 9.8C5 8.11984 5 7.27976 5.32698 6.63803C5.6146 6.07354 6.07354 5.6146 6.63803 5.32698C7.27976 5 8.11984 5 9.8 5H14.2C15.8802 5 16.7202 5 17.362 5.32698C17.9265 5.6146 18.3854 6.07354 18.673 6.63803C19 7.27976 19 8.11984 19 9.8V14.2C19 15.8802 19 16.7202 18.673 17.362C18.3854 17.9265 17.9265 18.3854 17.362 18.673C16.7202 19 15.8802 19 14.2 19Z" stroke="#131316" stroke-width="2" stroke-linecap="round" stroke-linejoin="round"/>
</svg>
