<svg width="24" height="24" viewBox="0 0 24 24" fill="none" xmlns="http://www.w3.org/2000/svg">
<path d="M2 7.00004L3.06234 6.20328C4.75164 4.9363 5.5963 4.30281 6.51184 4.05122C7.46301 3.78984 8.47023 3.81565 9.40676 4.1254C10.3082 4.42355 11.1193 5.09946 12.7415 6.45129C14.2097 7.67482 14.9439 8.28658 15.7661 8.58517C16.621 8.89559 17.5443 8.96698 18.4367 8.79164C19.2951 8.62299 20.1145 8.13133 21.7534 7.14802L22 7.00004M2 12.5L3.06234 11.7033C4.75164 10.4363 5.5963 9.80281 6.51184 9.55122C7.46301 9.28984 8.47023 9.31565 9.40676 9.6254C10.3082 9.92355 11.1193 10.5995 12.7415 11.9513C14.2097 13.1748 14.9439 13.7866 15.7661 14.0852C16.621 14.3956 17.5443 14.467 18.4367 14.2916C19.2951 14.123 20.1145 13.6313 21.7534 12.648L22 12.5M2 18L3.06234 17.2033C4.75164 15.9363 5.5963 15.3028 6.51184 15.0512C7.46301 14.7898 8.47023 14.8157 9.40676 15.1254C10.3082 15.4235 11.1193 16.0995 12.7415 17.4513C14.2097 18.6748 14.9439 19.2866 15.7661 19.5852C16.621 19.8956 17.5443 19.967 18.4367 19.7916C19.2951 19.623 20.1145 19.1313 21.7534 18.148L22 18" stroke="#131316" stroke-width="2" stroke-linecap="round" stroke-linejoin="round"/>
</svg>
