<svg width="24" height="24" viewBox="0 0 24 24" fill="none" xmlns="http://www.w3.org/2000/svg">
<path d="M3 3L6.17359 6.17359M21 21L10.1675 10.1675M9.19531 15.8599C9.5351 15.6293 9.90477 15.4394 10.2973 15.2973M5.68164 12.2483C5.97102 12.0122 6.27386 11.7919 6.58885 11.5889M18.3177 12.2483C16.5954 10.8429 14.396 10 11.9997 10C11.3738 10 10.7614 10.0575 10.1675 10.1675M22 8.81947C19.3462 6.44427 15.8418 5 12 5C9.93365 5 7.96489 5.41782 6.17359 6.17359M2 8.81947C2.32098 8.53218 2.65441 8.25851 2.99937 7.99937M12 20V20.0099M6.17359 6.17359L10.1675 10.1675" stroke="#131316" stroke-width="2" stroke-linecap="round" stroke-linejoin="round"/>
</svg>
