<svg width="24" height="24" viewBox="0 0 24 24" fill="none" xmlns="http://www.w3.org/2000/svg">
<path d="M12 21C16.9706 21 21 16.9706 21 12C21 7.02944 16.9706 3 12 3C7.02944 3 3 7.02944 3 12C3 16.9706 7.02944 21 12 21Z" stroke="#131316" stroke-width="2" stroke-miterlimit="10" stroke-linecap="round" stroke-linejoin="round"/>
<path d="M7 9.5H9.3C10.4201 9.5 10.9802 9.5 11.408 9.71799C11.7843 9.90973 12.0903 10.2157 12.282 10.592C12.5 11.0198 12.5 11.5799 12.5 12.7V14.5H10.2C9.0799 14.5 8.51984 14.5 8.09202 14.282C7.71569 14.0903 7.40973 13.7843 7.21799 13.408C7 12.9802 7 12.4201 7 11.3V9.5Z" stroke="#131316" stroke-width="2" stroke-miterlimit="10" stroke-linecap="round" stroke-linejoin="round"/>
<path fill-rule="evenodd" clip-rule="evenodd" d="M17 10V14L15.5 12.7715V11.2287L17 10Z" stroke="#131316" stroke-width="2" stroke-miterlimit="10" stroke-linecap="round" stroke-linejoin="round"/>
</svg>
